<svg xmlns="http://www.w3.org/2000/svg" xmlns:xlink="http://www.w3.org/1999/xlink" width="1600" height="900" viewBox="0 0 1600 900"><defs><style>.cls-1{isolation:isolate;}.cls-2{opacity:0.8;}.cls-3{opacity:0.9;mix-blend-mode:screen;}.cls-4{fill:url(#Ikke-navngivet_forløb_70);}.cls-5{fill:url(#Ikke-navngivet_forløb_70-2);}</style><radialGradient id="Ikke-navngivet_forløb_70" cx="-8.84" cy="986.94" r="54" gradientTransform="translate(729.95 168.15) scale(0.33 0.34)" gradientUnits="userSpaceOnUse"><stop offset="0.54" stop-color="#e1e3e6"/><stop offset="0.94" stop-color="#322e2d"/></radialGradient><radialGradient id="Ikke-navngivet_forløb_70-2" cx="201.16" cy="986.94" r="54" xlink:href="#Ikke-navngivet_forløb_70"/></defs><title>barn</title><g class="cls-1"><g id="Lag_2" data-name="Lag 2"><g id="barn" class="cls-2"><path d="M883.33,469.69l-21.26-28.1c-1.75-7.08-7.34-13.65-15.84-19.32L857,408l-21.31,8.35c-18.45-8.67-44.78-14.09-74-14.09-6.39,0-12.64.26-18.7.76l0-.13L710,390l12,15.83c-27.23,5.09-48.29,15.24-57,27.74h0l-27.33,36.12L663,459.76c-1,1.65-2,3.32-2.86,5A86.37,86.37,0,0,0,650,505.26c0,53.67,50.07,97.17,111.83,97.17s111.84-43.5,111.84-97.17a86.67,86.67,0,0,0-12.17-44.13Z"/><image class="cls-3" width="588" height="588" transform="translate(629 404) scale(0.33 0.34)" xlink:href="barn1.png"/><ellipse class="cls-4" cx="727" cy="504.07" rx="18" ry="18.38"/><image class="cls-3" width="588" height="588" transform="translate(699 404) scale(0.33 0.34)" xlink:href="barn2.png"/><ellipse class="cls-5" cx="797" cy="504.07" rx="18" ry="18.38"/></g></g></g></svg>
