<svg id="tabt" xmlns="http://www.w3.org/2000/svg" width="1600" height="900" viewBox="0 0 1600 900"><defs><style>.cls-1{fill:#e1e3e6;}</style></defs><title>Introduktion</title><rect class="cls-1" x="287" y="106" width="1026" height="688" rx="12"/><path d="M552.26,169.77a88.66,88.66,0,0,1,14.47-1.2c9.77,0,16.72,2.49,21.34,7.21s7.42,11.41,7.42,20.77-2.66,17.17-7.58,22.49-13,8.32-23.29,8.32a102.18,102.18,0,0,1-12.36-.68Zm6.8,51.16a39.67,39.67,0,0,0,6.88.42c14.54,0,22.44-8.92,22.44-24.54.08-13.65-7-22.32-21.34-22.32a35.35,35.35,0,0,0-8,.77Z"/><path d="M636,215.52c0,4.29.08,8.07.31,11.33h-6.1l-.39-6.78h-.15a14.12,14.12,0,0,1-12.51,7.72c-5.94,0-13.06-3.6-13.06-18.19V185.31H611v23c0,7.89,2.19,13.22,8.45,13.22,4.61,0,7.81-3.52,9.06-6.87a12.06,12.06,0,0,0,.63-3.86V185.31H636Z"/><path d="M667.81,207.45c.15,10.21,6.09,14.42,13,14.42a22.86,22.86,0,0,0,10.48-2.15l1.17,5.41a28.32,28.32,0,0,1-12.59,2.58c-11.64,0-18.6-8.42-18.6-21s6.72-22.4,17.74-22.4c12.36,0,15.64,11.93,15.64,19.57a30.41,30.41,0,0,1-.24,3.52ZM688,202c.08-4.8-1.79-12.27-9.53-12.27-7,0-10,7-10.56,12.27Z"/><path d="M703.14,198.27c0-4.9-.08-9.1-.31-13h6l.23,8.15h.32c1.71-5.58,5.86-9.1,10.47-9.1a6.82,6.82,0,0,1,2,.26v7.12a9.48,9.48,0,0,0-2.34-.25c-4.85,0-8.29,4-9.23,9.69a24.26,24.26,0,0,0-.31,3.52v22.15h-6.8Z"/><path d="M746,226.85V191.06h-5.31v-5.75H746v-2c0-5.83,1.17-11.16,4.38-14.5a12.51,12.51,0,0,1,9.22-3.87,14.56,14.56,0,0,1,5.87,1.21l-.94,5.83a9.6,9.6,0,0,0-4.38-.94c-5.86,0-7.35,5.66-7.35,12v2.24h9.15v5.75h-9.15v35.79Z"/><path d="M789.05,226.85l-.54-5.24h-.24a13.72,13.72,0,0,1-11.57,6.18c-7.66,0-11.57-5.92-11.57-11.93,0-10,8.13-15.53,22.75-15.45v-.86c0-3.43-.86-9.61-8.6-9.61a17.64,17.64,0,0,0-9.85,3.09l-1.56-5a21.94,21.94,0,0,1,12.43-3.69c11.57,0,14.38,8.67,14.38,17v15.53a64,64,0,0,0,.63,10Zm-1-21.2c-7.51-.17-16,1.29-16,9.35,0,4.9,3,7.21,6.49,7.21a9.53,9.53,0,0,0,9.15-7,8.72,8.72,0,0,0,.39-2.4Z"/><path d="M805.78,198.27c0-4.9-.07-9.1-.31-13h6l.24,8.15H812c1.72-5.58,5.86-9.1,10.47-9.1a6.94,6.94,0,0,1,2,.26v7.12a9.62,9.62,0,0,0-2.35-.25c-4.84,0-8.28,4-9.22,9.69a22.86,22.86,0,0,0-.32,3.52v22.15h-6.8Z"/><path d="M834.4,207.45c.15,10.21,6.09,14.42,13,14.42a22.86,22.86,0,0,0,10.48-2.15l1.17,5.41a28.27,28.27,0,0,1-12.58,2.58c-11.65,0-18.61-8.42-18.61-21s6.72-22.4,17.75-22.4c12.35,0,15.63,11.93,15.63,19.57a33.46,33.46,0,0,1-.23,3.52ZM854.57,202c.07-4.8-1.8-12.27-9.54-12.27-7,0-10,7-10.55,12.27Z"/><path d="M878,173.38v11.93h9.85v5.75H878v22.4c0,5.15,1.33,8.07,5.16,8.07a14,14,0,0,0,4-.52l.31,5.67a15.51,15.51,0,0,1-6.1,1,9.13,9.13,0,0,1-7.43-3.18c-2-2.23-2.65-5.92-2.65-10.81V191.06h-5.87v-5.75h5.87v-10Z"/><path d="M914.84,185.31l7.42,23.34c1.26,3.78,2.27,7.21,3,10.64h.24c.86-3.43,2-6.86,3.2-10.64l7.35-23.34h7.19l-14.85,41.54h-6.57l-14.38-41.54Z"/><path d="M957.44,173.63a4.27,4.27,0,0,1-4.37,4.64c-2.43,0-4.15-2.06-4.15-4.64a4.41,4.41,0,0,1,4.3-4.72C955.8,168.91,957.44,171,957.44,173.63Zm-7.66,53.22V185.31h6.88v41.54Z"/><path d="M968.08,165.91H975v60.94h-6.88Z"/><path d="M1019.2,165.91v50.21c0,3.69.08,7.9.31,10.73h-6.17l-.31-7.21h-.16a13.87,13.87,0,0,1-12.9,8.15c-9.14,0-16.18-8.5-16.18-21.11-.08-13.82,7.74-22.32,17-22.32,5.79,0,9.7,3,11.42,6.35h.15v-24.8Zm-6.88,36.3A14.82,14.82,0,0,0,1012,199c-1-4.81-4.77-8.76-9.93-8.76-7.11,0-11.33,6.87-11.33,16.05,0,8.42,3.75,15.37,11.18,15.37,4.61,0,8.83-3.35,10.08-9a14.65,14.65,0,0,0,.31-3.27Z"/><path d="M1028.19,222.38c0-3.17,2-5.4,4.69-5.4s4.62,2.23,4.62,5.4-1.8,5.41-4.69,5.41C1030.07,227.79,1028.19,225.47,1028.19,222.38Z"/><path d="M1044.38,222.38c0-3.17,1.95-5.4,4.69-5.4s4.61,2.23,4.61,5.4-1.8,5.41-4.69,5.41C1046.25,227.79,1044.38,225.47,1044.38,222.38Z"/><path d="M366.94,318.41a12.84,12.84,0,0,1,4.82-1c3.25,0,5.56,2,7.1,5.88s2.47,9.31,2.47,16.94-.88,14-2.52,18.34-4.35,6.79-7.76,6.79a14,14,0,0,1-4.11-.56Zm2.27,41.72a5.52,5.52,0,0,0,2.29.35c4.84,0,7.46-7.28,7.46-20,0-11.13-2.31-18.2-7.1-18.2a5.24,5.24,0,0,0-2.65.63Z"/><path d="M385.57,349.14c.06,8.33,2,11.76,4.32,11.76a4.37,4.37,0,0,0,3.49-1.75l.39,4.41a5.41,5.41,0,0,1-4.19,2.1c-3.88,0-6.19-6.86-6.19-17.08s2.24-18.27,5.9-18.27c4.12,0,5.21,9.73,5.21,16,0,1.26-.05,2.24-.08,2.87Zm6.72-4.41c0-3.92-.6-10-3.18-10-2.31,0-3.33,5.74-3.51,10Z"/><path d="M397.34,341.65c0-4,0-7.42-.11-10.57h2l.07,6.65h.11c.57-4.55,1.95-7.42,3.48-7.42a1.05,1.05,0,0,1,.65.21v5.81a1.4,1.4,0,0,0-.78-.21c-1.61,0-2.75,3.29-3.07,7.91-.05.84-.1,1.82-.1,2.87V365h-2.26Z"/><path d="M412.64,349.14c.05,8.33,2,11.76,4.32,11.76a4.36,4.36,0,0,0,3.48-1.75l.39,4.41a5.38,5.38,0,0,1-4.19,2.1c-3.87,0-6.19-6.86-6.19-17.08s2.24-18.27,5.91-18.27c4.11,0,5.2,9.73,5.2,16,0,1.26-.05,2.24-.08,2.87Zm6.71-4.41c0-3.92-.6-10-3.17-10-2.32,0-3.33,5.74-3.52,10Z"/><path d="M424.4,341.65c0-4,0-7.42-.11-10.57h2l.08,6.65h.1c.57-4.55,1.95-7.42,3.49-7.42a1.07,1.07,0,0,1,.65.21v5.81a1.45,1.45,0,0,0-.78-.21c-1.62,0-2.76,3.29-3.07,7.91-.06.84-.11,1.82-.11,2.87V365H424.4Z"/><path d="M438.42,340.25c0-3.5,0-6.37-.1-9.17h2l.11,5.46h.08c.7-3.22,1.87-6.23,3.95-6.23,1.72,0,3,2.8,3.56,6.79h.06a18.66,18.66,0,0,1,1.4-4.41c.76-1.54,1.59-2.38,2.79-2.38,1.66,0,4.13,2.94,4.13,14.7V365h-2.24V345.78c0-6.51-.88-10.43-2.73-10.43-1.3,0-2.31,2.59-2.7,5.6a24.9,24.9,0,0,0-.19,3.08V365h-2.23v-20.3c0-5.39-.89-9.31-2.63-9.31-1.43,0-2.47,3.08-2.84,6.16a21.94,21.94,0,0,0-.18,3V365h-2.24Z"/><path d="M467.1,365l-.18-4.27h-.08c-.7,2.66-2.06,5-3.85,5-2.55,0-3.85-4.83-3.85-9.73,0-8.19,2.7-12.67,7.57-12.6v-.7c0-2.8-.29-7.84-2.86-7.84-1.17,0-2.4,1-3.28,2.52l-.52-4.06c1-1.82,2.55-3,4.14-3,3.85,0,4.78,7.07,4.78,13.86v12.67c0,2.94,0,5.81.21,8.12Zm-.34-17.29c-2.5-.14-5.33,1.05-5.33,7.63,0,4,1,5.88,2.16,5.88,1.64,0,2.68-2.8,3-5.67a16.13,16.13,0,0,0,.13-2Z"/><path d="M472.67,340.25c0-3.5,0-6.37-.11-9.17h2l.13,5.6h.06c.62-3.22,2.08-6.37,4.16-6.37,1.74,0,4.45,2.8,4.45,14.42V365H481.1V345.43c0-5.46-.76-10-2.92-10-1.5,0-2.68,2.87-3.07,6.3a24,24,0,0,0-.15,2.87V365h-2.29Z"/><path d="M498,331.08c0,2.45-.1,5.18-.1,9.31v19.67c0,7.77-.58,12.53-1.8,15.47s-3,4.06-4.58,4.06a5,5,0,0,1-4.19-2.8l.58-4.69c.83,1.4,2.13,2.66,3.69,2.66,2.34,0,4.06-3.29,4.06-11.83v-3.78h-.05c-.71,3.15-2.06,5.67-4,5.67-3.12,0-5.36-7.14-5.36-16.52,0-11.48,2.78-18,5.67-18,2.19,0,3.38,3.08,3.93,5.88h.05l.11-5.11Zm-2.37,13.37a21.85,21.85,0,0,0-.13-2.8c-.41-3.57-1.53-6.51-3.2-6.51-2.18,0-3.74,5-3.74,12.81,0,6.65,1.24,12.18,3.72,12.18,1.4,0,2.68-2.38,3.17-6.3a27.9,27.9,0,0,0,.18-3.29Z"/><path d="M502.93,349.14c.05,8.33,2,11.76,4.32,11.76a4.37,4.37,0,0,0,3.49-1.75l.39,4.41a5.41,5.41,0,0,1-4.19,2.1c-3.88,0-6.19-6.86-6.19-17.08s2.23-18.27,5.9-18.27c4.11,0,5.21,9.73,5.21,16,0,1.26-.06,2.24-.08,2.87Zm6.71-4.41c0-3.92-.59-10-3.17-10-2.31,0-3.33,5.74-3.51,10Z"/><path d="M520.11,365c0-2.31.1-5.74.1-8.75V315.26h2.26v21.28h.06c.8-3.78,2.26-6.23,4.29-6.23,3.12,0,5.33,7,5.31,17.29,0,12.11-2.84,18.13-5.65,18.13-1.82,0-3.28-1.89-4.21-6.37h-.08l-.11,5.6Zm2.36-13.58c0,.77.06,1.54.11,2.24.44,4.27,1.77,7.21,3.43,7.21,2.4,0,3.83-5.25,3.83-13,0-6.79-1.3-12.6-3.75-12.6-1.56,0-3,2.87-3.49,7.56-.05.7-.13,1.54-.13,2.52Z"/><path d="M543.5,332.76l1.09-4.2,1,1.89-1.1,4.34a37.37,37.37,0,0,1,1.9,12.95c0,12.46-3.2,18-6.14,18-1.17,0-2.31-.77-3.22-2.38l-1.12,4.27-1-2.1,1.1-4.2c-1.23-3.08-1.95-7.56-1.95-13.09,0-11.27,2.75-17.92,6.19-17.92C541.44,330.31,542.56,331.15,543.5,332.76Zm-1,4.2c-.57-1.26-1.3-2-2.21-2-2.81,0-3.93,7-3.93,13.16a34.68,34.68,0,0,0,.93,8.47l.06.07Zm-4.37,22.19c.6,1.4,1.32,2,2.1,2,2.4,0,4-5.53,4-13.16a36.06,36.06,0,0,0-.88-8.26h0Z"/><path d="M549.3,341.65c0-4,0-7.42-.1-10.57h2l.08,6.65h.1c.58-4.55,2-7.42,3.49-7.42a1.07,1.07,0,0,1,.65.21v5.81a1.42,1.42,0,0,0-.78-.21c-1.61,0-2.76,3.29-3.07,7.91,0,.84-.1,1.82-.1,2.87V365H549.3Z"/><path d="M557.92,340.25c0-3.5,0-6.37-.11-9.17h2l.13,5.6h0c.63-3.22,2.08-6.37,4.17-6.37,1.74,0,4.44,2.8,4.44,14.42V365h-2.28V345.43c0-5.46-.76-10-2.92-10-1.51,0-2.68,2.87-3.07,6.3a24,24,0,0,0-.15,2.87V365h-2.29Z"/><path d="M588.75,315.26v40.95c0,3,0,6.44.1,8.75H586.8l-.11-5.88h-.05c-.7,3.78-2.24,6.65-4.29,6.65-3,0-5.39-6.93-5.39-17.22,0-11.27,2.58-18.2,5.65-18.2,1.92,0,3.23,2.45,3.8,5.18h.05V315.26Zm-2.29,29.61c0-.77,0-1.82-.1-2.59-.34-3.92-1.59-7.14-3.31-7.14-2.37,0-3.77,5.6-3.77,13.09,0,6.86,1.25,12.53,3.72,12.53,1.53,0,2.94-2.73,3.36-7.35.07-.84.1-1.68.1-2.66Z"/><path d="M593.83,349.14c0,8.33,2,11.76,4.31,11.76a4.37,4.37,0,0,0,3.49-1.75l.39,4.41a5.41,5.41,0,0,1-4.19,2.1c-3.87,0-6.19-6.86-6.19-17.08s2.24-18.27,5.91-18.27c4.11,0,5.2,9.73,5.2,16,0,1.26,0,2.24-.08,2.87Zm6.71-4.41c0-3.92-.6-10-3.18-10-2.31,0-3.33,5.74-3.51,10Z"/><path d="M605.59,341.65c0-4,0-7.42-.11-10.57h2l.07,6.65h.11c.57-4.55,2-7.42,3.49-7.42a1.07,1.07,0,0,1,.65.21v5.81a1.46,1.46,0,0,0-.79-.21c-1.61,0-2.75,3.29-3.06,7.91-.06.84-.11,1.82-.11,2.87V365h-2.26Z"/><path d="M620.89,349.14c.05,8.33,2,11.76,4.32,11.76a4.35,4.35,0,0,0,3.48-1.75l.39,4.41a5.38,5.38,0,0,1-4.19,2.1c-3.87,0-6.19-6.86-6.19-17.08s2.24-18.27,5.91-18.27c4.11,0,5.2,9.73,5.2,16,0,1.26,0,2.24-.08,2.87Zm6.71-4.41c0-3.92-.6-10-3.17-10-2.32,0-3.33,5.74-3.52,10Z"/><path d="M632.65,341.65c0-4,0-7.42-.1-10.57h2l.08,6.65h.1c.57-4.55,1.95-7.42,3.49-7.42a1.07,1.07,0,0,1,.65.21v5.81a1.45,1.45,0,0,0-.78-.21c-1.62,0-2.76,3.29-3.07,7.91,0,.84-.11,1.82-.11,2.87V365h-2.26Z"/><path d="M657.55,315.26v40.95c0,3,0,6.44.1,8.75h-2l-.11-5.88h0c-.7,3.78-2.23,6.65-4.29,6.65-3,0-5.39-6.93-5.39-17.22,0-11.27,2.58-18.2,5.65-18.2,1.93,0,3.23,2.45,3.8,5.18h0V315.26Zm-2.29,29.61c0-.77,0-1.82-.1-2.59-.34-3.92-1.59-7.14-3.31-7.14-2.37,0-3.77,5.6-3.77,13.09,0,6.86,1.25,12.53,3.72,12.53,1.54,0,2.94-2.73,3.36-7.35.07-.84.1-1.68.1-2.66Z"/><path d="M669.83,332.76l1.1-4.2,1,1.89-1.09,4.34a37.61,37.61,0,0,1,1.9,12.95c0,12.46-3.2,18-6.14,18-1.17,0-2.32-.77-3.23-2.38l-1.12,4.27-1-2.1,1.09-4.2c-1.22-3.08-1.95-7.56-1.95-13.09,0-11.27,2.76-17.92,6.19-17.92C667.78,330.31,668.9,331.15,669.83,332.76Zm-1,4.2c-.57-1.26-1.3-2-2.21-2-2.81,0-3.93,7-3.93,13.16a34.66,34.66,0,0,0,.94,8.47l0,.07Zm-4.37,22.19c.6,1.4,1.33,2,2.11,2,2.39,0,4-5.53,4-13.16a36.1,36.1,0,0,0-.89-8.26h0Z"/><path d="M686.51,315.26v40.95c0,3,0,6.44.11,8.75h-2.06l-.1-5.88h-.06c-.7,3.78-2.23,6.65-4.29,6.65-3,0-5.38-6.93-5.38-17.22,0-11.27,2.57-18.2,5.64-18.2,1.93,0,3.23,2.45,3.8,5.18h.05V315.26Zm-2.29,29.61c0-.77,0-1.82-.1-2.59-.34-3.92-1.59-7.14-3.31-7.14-2.36,0-3.77,5.6-3.77,13.09,0,6.86,1.25,12.53,3.72,12.53,1.54,0,2.94-2.73,3.36-7.35.08-.84.1-1.68.1-2.66Z"/><path d="M691.59,349.14c0,8.33,2,11.76,4.32,11.76a4.35,4.35,0,0,0,3.48-1.75l.39,4.41a5.37,5.37,0,0,1-4.18,2.1c-3.88,0-6.2-6.86-6.2-17.08s2.24-18.27,5.91-18.27c4.11,0,5.2,9.73,5.2,16,0,1.26,0,2.24-.08,2.87Zm6.71-4.41c0-3.92-.6-10-3.17-10-2.32,0-3.33,5.74-3.52,10Z"/><path d="M719.4,355.72c0,3.5,0,6.58.11,9.24h-2l-.13-5.53h-.05c-.6,2.73-1.93,6.3-4.17,6.3-2,0-4.34-2.94-4.34-14.84V331.08h2.29v18.76c0,6.44.73,10.78,2.81,10.78,1.53,0,2.6-2.87,3-5.6a23.19,23.19,0,0,0,.2-3.15V331.08h2.29Z"/><path d="M734.08,315.26v40.95c0,3,0,6.44.1,8.75h-2l-.11-5.88h0c-.7,3.78-2.23,6.65-4.29,6.65-3,0-5.39-6.93-5.39-17.22,0-11.27,2.58-18.2,5.65-18.2,1.93,0,3.23,2.45,3.8,5.18h0V315.26Zm-2.29,29.61c0-.77,0-1.82-.1-2.59-.34-3.92-1.59-7.14-3.31-7.14-2.36,0-3.77,5.6-3.77,13.09,0,6.86,1.25,12.53,3.72,12.53,1.54,0,2.94-2.73,3.36-7.35.07-.84.1-1.68.1-2.66Z"/><path d="M739.16,349.14c.05,8.33,2,11.76,4.32,11.76a4.36,4.36,0,0,0,3.48-1.75l.39,4.41a5.4,5.4,0,0,1-4.19,2.1c-3.87,0-6.19-6.86-6.19-17.08s2.24-18.27,5.91-18.27c4.11,0,5.2,9.73,5.2,16,0,1.26-.05,2.24-.08,2.87Zm6.71-4.41c0-3.92-.6-10-3.18-10-2.31,0-3.33,5.74-3.51,10Z"/><path d="M759,321.56c0,2.1-.54,3.78-1.45,3.78s-1.38-1.68-1.38-3.78.6-3.85,1.43-3.85S759,319.39,759,321.56ZM756.44,365V331.08h2.28V365Z"/><path d="M767.73,358.66c.67,1.19,1.87,2.45,3,2.45,1.66,0,2.44-2.24,2.44-5s-.65-4.55-2.34-6.23c-2.26-2.17-3.33-5.53-3.33-9.59,0-5.46,1.64-9.94,4.34-9.94a4,4,0,0,1,3.1,2.1l-.57,4.48c-.5-.84-1.41-2-2.58-2-1.35,0-2.1,2.1-2.1,4.62a7,7,0,0,0,2.39,5.74c2.18,2.24,3.3,5.18,3.3,10.22,0,5.95-1.71,10.15-4.71,10.15a4.36,4.36,0,0,1-3.53-2.31Z"/><path d="M780.61,346.62h0c.31-1.19.75-2.66,1.12-3.85l3.69-11.69h2.76L783.37,345,788.91,365h-2.79l-4.34-16.24-1.17,3.5V365h-2.27v-49.7h2.27Z"/><path d="M801.94,347.74c0,12.53-3.22,18-6.27,18-3.4,0-6-6.72-6-17.43,0-11.34,2.76-18,6.24-18S801.94,337.38,801.94,347.74Zm-10,.35c0,7.42,1.59,13,3.83,13s3.82-5.53,3.82-13.16c0-5.74-1.06-13-3.77-13S792,341.65,792,348.09Z"/><path d="M805.54,331.08l2.47,19c.41,3.08.75,5.88,1,8.68h.08c.29-2.8.65-5.6,1.07-8.68l2.44-19H815l-5,33.88h-2.18l-4.79-33.88Z"/><path d="M818.18,349.14c.06,8.33,2,11.76,4.32,11.76a4.37,4.37,0,0,0,3.49-1.75l.39,4.41a5.41,5.41,0,0,1-4.19,2.1c-3.88,0-6.19-6.86-6.19-17.08s2.24-18.27,5.9-18.27c4.11,0,5.21,9.73,5.21,16,0,1.26-.06,2.24-.08,2.87Zm6.72-4.41c0-3.92-.6-10-3.18-10-2.31,0-3.33,5.74-3.51,10Z"/><path d="M830,340.25c0-3.5,0-6.37-.11-9.17h2l.13,5.6h0c.63-3.22,2.08-6.37,4.17-6.37,1.74,0,4.44,2.8,4.44,14.42V365h-2.28V345.43c0-5.46-.76-10-2.92-10-1.51,0-2.68,2.87-3.07,6.3a24,24,0,0,0-.15,2.87V365H830Z"/><path d="M842.91,373.57c.57-4.13,1.27-11.62,1.56-16.73l2.55-.7c-.6,5.95-1.75,13.72-2.48,17Z"/><path d="M855.52,365V335.77h-1.76v-4.69h1.76v-1.61c0-4.76.4-9.1,1.46-11.83.86-2.24,2-3.15,3.07-3.15a2.74,2.74,0,0,1,2,1l-.31,4.76a1.85,1.85,0,0,0-1.46-.77c-2,0-2.44,4.62-2.44,9.8v1.82h3v4.69h-3V365Z"/><path d="M874,347.74c0,12.53-3.23,18-6.27,18-3.41,0-6-6.72-6-17.43,0-11.34,2.76-18,6.24-18S874,337.38,874,347.74Zm-10,.35c0,7.42,1.58,13,3.82,13s3.82-5.53,3.82-13.16c0-5.74-1.06-13-3.77-13S864,341.65,864,348.09Z"/><path d="M876.84,341.65c0-4,0-7.42-.11-10.57h2l.07,6.65h.11c.57-4.55,2-7.42,3.48-7.42a1.05,1.05,0,0,1,.65.21v5.81a1.4,1.4,0,0,0-.78-.21c-1.61,0-2.75,3.29-3.07,7.91-.05.84-.1,1.82-.1,2.87V365h-2.26Z"/><path d="M896,315.26v40.95c0,3,0,6.44.1,8.75h-2l-.1-5.88h-.06c-.7,3.78-2.23,6.65-4.29,6.65-3,0-5.39-6.93-5.39-17.22,0-11.27,2.58-18.2,5.65-18.2,1.93,0,3.23,2.45,3.8,5.18h0V315.26Zm-2.29,29.61c0-.77,0-1.82-.1-2.59-.34-3.92-1.59-7.14-3.31-7.14-2.36,0-3.77,5.6-3.77,13.09,0,6.86,1.25,12.53,3.72,12.53,1.54,0,2.94-2.73,3.36-7.35.08-.84.1-1.68.1-2.66Z"/><path d="M902.31,321.56c0,2.1-.54,3.78-1.45,3.78s-1.38-1.68-1.38-3.78.59-3.85,1.43-3.85S902.31,319.39,902.31,321.56ZM899.76,365V331.08h2.29V365Z"/><path d="M922.24,315.26v40.95c0,3,0,6.44.11,8.75h-2.06l-.1-5.88h-.05c-.71,3.78-2.24,6.65-4.3,6.65-3,0-5.38-6.93-5.38-17.22,0-11.27,2.57-18.2,5.64-18.2,1.93,0,3.23,2.45,3.8,5.18H920V315.26ZM920,344.87c0-.77,0-1.82-.1-2.59-.34-3.92-1.59-7.14-3.31-7.14-2.36,0-3.77,5.6-3.77,13.09,0,6.86,1.25,12.53,3.72,12.53,1.54,0,2.94-2.73,3.36-7.35.08-.84.1-1.68.1-2.66Z"/><path d="M927.32,349.14c0,8.33,2,11.76,4.32,11.76a4.35,4.35,0,0,0,3.48-1.75l.39,4.41a5.37,5.37,0,0,1-4.18,2.1c-3.88,0-6.2-6.86-6.2-17.08s2.24-18.27,5.91-18.27c4.11,0,5.2,9.73,5.2,16,0,1.26,0,2.24-.08,2.87Zm6.71-4.41c0-3.92-.6-10-3.17-10-2.32,0-3.33,5.74-3.52,10Z"/><path d="M956,347.74c0,12.53-3.22,18-6.27,18-3.41,0-6-6.72-6-17.43,0-11.34,2.75-18,6.24-18S956,337.38,956,347.74Zm-10,.35c0,7.42,1.59,13,3.83,13s3.82-5.53,3.82-13.16c0-5.74-1.07-13-3.77-13S946,341.65,946,348.09Z"/><path d="M958.88,340.25c0-3.5,0-6.37-.1-9.17h2l.13,5.6h0c.63-3.22,2.08-6.37,4.16-6.37,1.75,0,4.45,2.8,4.45,14.42V365h-2.29V345.43c0-5.46-.75-10-2.91-10-1.51,0-2.68,2.87-3.07,6.3a21.87,21.87,0,0,0-.16,2.87V365h-2.29Z"/><path d="M984.2,315.26v40.95c0,3,0,6.44.1,8.75h-2l-.11-5.88h0c-.7,3.78-2.23,6.65-4.29,6.65-3,0-5.39-6.93-5.39-17.22,0-11.27,2.58-18.2,5.65-18.2,1.93,0,3.23,2.45,3.8,5.18h0V315.26Zm-2.29,29.61c0-.77,0-1.82-.1-2.59-.34-3.92-1.59-7.14-3.31-7.14-2.37,0-3.77,5.6-3.77,13.09,0,6.86,1.25,12.53,3.72,12.53,1.54,0,2.94-2.73,3.36-7.35.07-.84.1-1.68.1-2.66Z"/><path d="M989.28,349.14c.05,8.33,2,11.76,4.31,11.76a4.37,4.37,0,0,0,3.49-1.75l.39,4.41a5.38,5.38,0,0,1-4.19,2.1c-3.87,0-6.19-6.86-6.19-17.08s2.24-18.27,5.91-18.27c4.11,0,5.2,9.73,5.2,16,0,1.26-.05,2.24-.08,2.87Zm6.71-4.41c0-3.92-.6-10-3.18-10-2.31,0-3.33,5.74-3.51,10Z"/><path d="M1013.53,365l-.19-4.27h-.07c-.71,2.66-2.06,5-3.85,5-2.55,0-3.85-4.83-3.85-9.73,0-8.19,2.7-12.67,7.57-12.6v-.7c0-2.8-.29-7.84-2.87-7.84-1.17,0-2.39,1-3.27,2.52l-.52-4.06c1-1.82,2.55-3,4.13-3,3.85,0,4.79,7.07,4.79,13.86v12.67c0,2.94.05,5.81.21,8.12Zm-.34-17.29c-2.5-.14-5.33,1.05-5.33,7.63,0,4,1,5.88,2.15,5.88,1.64,0,2.68-2.8,3-5.67a16.13,16.13,0,0,0,.13-2ZM1008.27,321c0-3.71,1-6.65,2.65-6.65s2.58,2.87,2.58,6.58-1.12,6.44-2.6,6.44S1008.27,324.57,1008.27,321Zm4-.14c0-2.1-.52-3.85-1.36-3.85s-1.27,1.82-1.27,4c0,1.82.52,3.78,1.27,3.78S1012.23,323,1012.23,320.86Z"/><path d="M1019.1,340.25c0-3.5,0-6.37-.11-9.17h2l.13,5.6h.06c.62-3.22,2.08-6.37,4.16-6.37,1.74,0,4.45,2.8,4.45,14.42V365h-2.29V345.43c0-5.46-.76-10-2.92-10-1.51,0-2.68,2.87-3.07,6.3a24,24,0,0,0-.15,2.87V365h-2.29Z"/><path d="M1044.41,315.26v40.95c0,3,0,6.44.11,8.75h-2.06l-.1-5.88h0c-.71,3.78-2.24,6.65-4.3,6.65-3,0-5.38-6.93-5.38-17.22,0-11.27,2.57-18.2,5.64-18.2,1.93,0,3.23,2.45,3.8,5.18h0V315.26Zm-2.29,29.61c0-.77,0-1.82-.1-2.59-.34-3.92-1.59-7.14-3.3-7.14-2.37,0-3.78,5.6-3.78,13.09,0,6.86,1.25,12.53,3.72,12.53,1.54,0,2.94-2.73,3.36-7.35.08-.84.1-1.68.1-2.66Z"/><path d="M1049.49,349.14c0,8.33,2,11.76,4.32,11.76a4.33,4.33,0,0,0,3.48-1.75l.4,4.41a5.41,5.41,0,0,1-4.19,2.1c-3.88,0-6.2-6.86-6.2-17.08s2.24-18.27,5.91-18.27c4.11,0,5.2,9.73,5.2,16,0,1.26-.05,2.24-.07,2.87Zm6.71-4.41c0-3.92-.6-10-3.17-10-2.32,0-3.33,5.74-3.51,10Z"/><path d="M1061.25,341.65c0-4,0-7.42-.1-10.57h2l.08,6.65h.1c.58-4.55,2-7.42,3.49-7.42a1.07,1.07,0,0,1,.65.21v5.81a1.42,1.42,0,0,0-.78-.21c-1.61,0-2.76,3.29-3.07,7.91,0,.84-.11,1.82-.11,2.87V365h-2.26Z"/><path d="M1075,358.66c.67,1.19,1.87,2.45,3,2.45,1.67,0,2.45-2.24,2.45-5s-.65-4.55-2.34-6.23c-2.27-2.17-3.33-5.53-3.33-9.59,0-5.46,1.64-9.94,4.34-9.94a4,4,0,0,1,3.1,2.1l-.57,4.48c-.5-.84-1.41-2-2.58-2-1.35,0-2.11,2.1-2.11,4.62a7,7,0,0,0,2.4,5.74c2.18,2.24,3.3,5.18,3.3,10.22,0,5.95-1.72,10.15-4.71,10.15a4.39,4.39,0,0,1-3.54-2.31Z"/><path d="M1085.58,315.26h2.29V365h-2.29Z"/><path d="M1103.12,347.74c0,12.53-3.23,18-6.27,18-3.41,0-6-6.72-6-17.43,0-11.34,2.76-18,6.25-18S1103.12,337.38,1103.12,347.74Zm-10,.35c0,7.42,1.58,13,3.82,13s3.83-5.53,3.83-13.16c0-5.74-1.07-13-3.78-13S1093.13,341.65,1093.13,348.09Z"/><path d="M1116.86,331.08c0,2.45-.11,5.18-.11,9.31v19.67c0,7.77-.57,12.53-1.79,15.47s-3,4.06-4.58,4.06a5,5,0,0,1-4.19-2.8l.57-4.69c.84,1.4,2.14,2.66,3.7,2.66,2.34,0,4.06-3.29,4.06-11.83v-3.78h-.06c-.7,3.15-2,5.67-4,5.67-3.12,0-5.36-7.14-5.36-16.52,0-11.48,2.78-18,5.67-18,2.19,0,3.38,3.08,3.93,5.88h0l.11-5.11Zm-2.37,13.37a23.84,23.84,0,0,0-.13-2.8c-.42-3.57-1.53-6.51-3.2-6.51-2.18,0-3.75,5-3.75,12.81,0,6.65,1.25,12.18,3.72,12.18,1.41,0,2.68-2.38,3.18-6.3a27.9,27.9,0,0,0,.18-3.29Z"/><path d="M1137,315.26v40.95c0,3,0,6.44.1,8.75h-2l-.11-5.88h-.05c-.7,3.78-2.24,6.65-4.29,6.65-3,0-5.39-6.93-5.39-17.22,0-11.27,2.58-18.2,5.65-18.2,1.92,0,3.22,2.45,3.8,5.18h.05V315.26Zm-2.29,29.61c0-.77,0-1.82-.11-2.59-.34-3.92-1.58-7.14-3.3-7.14-2.37,0-3.77,5.6-3.77,13.09,0,6.86,1.25,12.53,3.72,12.53,1.53,0,2.94-2.73,3.35-7.35.08-.84.11-1.68.11-2.66Z"/><path d="M1142,349.14c0,8.33,2,11.76,4.32,11.76a4.37,4.37,0,0,0,3.49-1.75l.39,4.41a5.41,5.41,0,0,1-4.19,2.1c-3.88,0-6.19-6.86-6.19-17.08s2.23-18.27,5.9-18.27c4.11,0,5.21,9.73,5.21,16,0,1.26-.06,2.24-.08,2.87Zm6.71-4.41c0-3.92-.59-10-3.17-10-2.31,0-3.33,5.74-3.51,10Z"/><path d="M1153.79,340.25c0-3.5,0-6.37-.11-9.17h2l.11,5.46h.08c.7-3.22,1.87-6.23,4-6.23,1.72,0,3,2.8,3.56,6.79h.06a18.66,18.66,0,0,1,1.4-4.41c.76-1.54,1.59-2.38,2.79-2.38,1.66,0,4.13,2.94,4.13,14.7V365h-2.24V345.78c0-6.51-.88-10.43-2.73-10.43-1.3,0-2.31,2.59-2.7,5.6a25.07,25.07,0,0,0-.18,3.08V365h-2.24v-20.3c0-5.39-.89-9.31-2.63-9.31-1.43,0-2.47,3.08-2.84,6.16a21.94,21.94,0,0,0-.18,3V365h-2.23Z"/><path d="M1183.55,321.56c0,2.1-.54,3.78-1.45,3.78s-1.38-1.68-1.38-3.78.6-3.85,1.43-3.85S1183.55,319.39,1183.55,321.56ZM1181,365V331.08h2.29V365Z"/><path d="M1187.09,315.26h2.29V336.4h0a12.91,12.91,0,0,1,1.64-4.34,3.15,3.15,0,0,1,2.34-1.75c1.7,0,4.4,2.8,4.4,14.49V365h-2.29V345.5c0-5.46-.75-10.08-2.91-10.08-1.49,0-2.66,2.8-3.07,6.16a19.3,19.3,0,0,0-.16,2.94V365h-2.29Z"/><path d="M1198.46,374.76a3.43,3.43,0,0,0,2.5-2.59c.63-2,.86-4.62.86-12.74V331.08h2.29v30.73c0,6.58-.39,10.85-1.51,13.93-1,2.73-2.68,3.85-3.9,3.85Zm5.91-53.2c0,2-.52,3.78-1.43,3.78s-1.4-1.75-1.4-3.78.59-3.85,1.45-3.85S1204.37,319.39,1204.37,321.56Z"/><path d="M1209.13,349.14c0,8.33,2,11.76,4.32,11.76a4.37,4.37,0,0,0,3.49-1.75l.39,4.41a5.41,5.41,0,0,1-4.19,2.1c-3.88,0-6.19-6.86-6.19-17.08s2.23-18.27,5.9-18.27c4.11,0,5.21,9.73,5.21,16,0,1.26-.06,2.24-.08,2.87Zm6.71-4.41c0-3.92-.59-10-3.17-10-2.31,0-3.33,5.74-3.51,10Z"/><path d="M1220.89,315.26h2.29V365h-2.29Z"/><path d="M1226.23,361.32c0-2.59.65-4.41,1.56-4.41s1.54,1.82,1.54,4.41-.6,4.41-1.57,4.41S1226.23,363.84,1226.23,361.32Z"/><path d="M366.94,402.4a12.84,12.84,0,0,1,4.82-1c3.25,0,5.56,2,7.1,5.88s2.47,9.31,2.47,16.94-.88,14-2.52,18.34-4.35,6.79-7.76,6.79a14,14,0,0,1-4.11-.56Zm2.27,41.72a5.52,5.52,0,0,0,2.29.35c4.84,0,7.46-7.28,7.46-20,0-11.13-2.31-18.2-7.1-18.2a5.24,5.24,0,0,0-2.65.63Z"/><path d="M385.57,433.13c.06,8.33,2,11.76,4.32,11.76a4.37,4.37,0,0,0,3.49-1.75l.39,4.41a5.41,5.41,0,0,1-4.19,2.1c-3.88,0-6.19-6.86-6.19-17.08s2.24-18.27,5.9-18.27c4.12,0,5.21,9.73,5.21,16,0,1.26-.05,2.24-.08,2.87Zm6.72-4.41c0-3.92-.6-10-3.18-10-2.31,0-3.33,5.74-3.51,10Z"/><path d="M413.73,399.25V440.2c0,3,0,6.44.1,8.75h-2.05l-.11-5.88h-.05c-.7,3.78-2.24,6.65-4.29,6.65-3.05,0-5.39-6.93-5.39-17.22,0-11.27,2.58-18.2,5.65-18.2,1.92,0,3.22,2.45,3.8,5.18h.05V399.25Zm-2.29,29.61c0-.77,0-1.82-.11-2.59-.33-3.92-1.58-7.14-3.3-7.14-2.37,0-3.77,5.6-3.77,13.09,0,6.86,1.25,12.53,3.72,12.53,1.53,0,2.94-2.73,3.35-7.35.08-.84.11-1.68.11-2.66Z"/><path d="M426,416.75l1.09-4.2,1,1.89L427,418.78a37.64,37.64,0,0,1,1.89,13c0,12.46-3.2,18-6.14,18-1.17,0-2.31-.77-3.22-2.38l-1.12,4.27-1-2.1,1.09-4.2c-1.22-3.08-1.95-7.56-1.95-13.09,0-11.27,2.76-17.92,6.19-17.92C424,414.3,425.07,415.14,426,416.75Zm-1,4.2c-.57-1.26-1.3-2-2.21-2-2.81,0-3.93,7-3.93,13.16a34.66,34.66,0,0,0,.94,8.47l.05.07Zm-4.37,22.19c.6,1.4,1.33,2,2.11,2,2.39,0,4-5.53,4-13.16a36.1,36.1,0,0,0-.89-8.26h-.05Z"/><path d="M442.69,399.25V440.2c0,3,0,6.44.1,8.75h-2.05l-.11-5.88h-.05c-.7,3.78-2.23,6.65-4.29,6.65-3,0-5.39-6.93-5.39-17.22,0-11.27,2.58-18.2,5.65-18.2,1.93,0,3.23,2.45,3.8,5.18h0V399.25Zm-2.29,29.61c0-.77,0-1.82-.1-2.59-.34-3.92-1.59-7.14-3.31-7.14-2.37,0-3.77,5.6-3.77,13.09,0,6.86,1.25,12.53,3.72,12.53,1.54,0,2.94-2.73,3.36-7.35.07-.84.1-1.68.1-2.66Z"/><path d="M447.77,433.13c.05,8.33,2,11.76,4.31,11.76a4.37,4.37,0,0,0,3.49-1.75l.39,4.41a5.4,5.4,0,0,1-4.19,2.1c-3.87,0-6.19-6.86-6.19-17.08s2.24-18.27,5.91-18.27c4.11,0,5.2,9.73,5.2,16,0,1.26-.05,2.24-.08,2.87Zm6.71-4.41c0-3.92-.6-10-3.18-10-2.31,0-3.33,5.74-3.51,10Z"/><path d="M464.94,449c.05-2.31.1-5.74.1-8.75V399.25h2.27v21.28h.05c.81-3.78,2.26-6.23,4.29-6.23,3.12,0,5.34,7,5.31,17.29,0,12.11-2.84,18.13-5.65,18.13-1.82,0-3.27-1.89-4.21-6.37H467l-.1,5.6Zm2.37-13.58c0,.77.05,1.54.1,2.24.44,4.27,1.77,7.21,3.44,7.21,2.39,0,3.82-5.25,3.82-13,0-6.79-1.3-12.6-3.75-12.6-1.56,0-3,2.87-3.48,7.56-.05.7-.13,1.54-.13,2.52Z"/><path d="M488.33,416.75l1.09-4.2,1,1.89-1.09,4.34a37.61,37.61,0,0,1,1.9,13c0,12.46-3.2,18-6.14,18-1.17,0-2.32-.77-3.23-2.38l-1.12,4.27-1-2.1,1.09-4.2c-1.22-3.08-1.95-7.56-1.95-13.09,0-11.27,2.76-17.92,6.19-17.92C486.28,414.3,487.4,415.14,488.33,416.75Zm-1,4.2c-.57-1.26-1.3-2-2.21-2-2.81,0-3.93,7-3.93,13.16a34.66,34.66,0,0,0,.94,8.47l.05.07Zm-4.37,22.19c.6,1.4,1.33,2,2.11,2,2.39,0,4-5.53,4-13.16a36.1,36.1,0,0,0-.89-8.26h-.05Z"/><path d="M494.14,425.64c0-4,0-7.42-.11-10.57h2l.07,6.65h.11c.57-4.55,1.95-7.42,3.48-7.42a1.05,1.05,0,0,1,.65.21v5.81a1.4,1.4,0,0,0-.78-.21c-1.61,0-2.75,3.29-3.07,7.91-.05.84-.1,1.82-.1,2.87V449h-2.26Z"/><path d="M502.75,424.24c0-3.5,0-6.37-.1-9.17h2l.13,5.6h.05c.62-3.22,2.08-6.37,4.16-6.37,1.74,0,4.45,2.8,4.45,14.42V449h-2.29V429.42c0-5.46-.76-10-2.91-10-1.51,0-2.68,2.87-3.07,6.3a21.87,21.87,0,0,0-.16,2.87V449h-2.29Z"/><path d="M523.59,415.07l2.47,19c.42,3.08.76,5.88,1,8.68h.08c.28-2.8.65-5.6,1.06-8.68l2.45-19h2.39L528.12,449h-2.19l-4.78-33.88Z"/><path d="M537.77,405.55c0,2.1-.54,3.78-1.45,3.78s-1.38-1.68-1.38-3.78.6-3.85,1.43-3.85S537.77,403.38,537.77,405.55ZM535.23,449V415.07h2.28V449Z"/><path d="M541.31,399.25h2.29V449h-2.29Z"/><path d="M563.82,415.07c-.05,2.45-.1,5.18-.1,9.31v19.67c0,7.77-.58,12.53-1.8,15.47s-3,4.06-4.58,4.06a5,5,0,0,1-4.19-2.8l.58-4.69c.83,1.4,2.13,2.66,3.69,2.66,2.34,0,4.06-3.29,4.06-11.83v-3.78h-.05c-.71,3.15-2.06,5.67-4,5.67-3.12,0-5.36-7.14-5.36-16.52,0-11.48,2.78-18,5.67-18,2.19,0,3.38,3.08,3.93,5.88h.05l.11-5.11Zm-2.37,13.37a21.85,21.85,0,0,0-.13-2.8c-.41-3.57-1.53-6.51-3.2-6.51-2.18,0-3.74,5-3.74,12.81,0,6.65,1.24,12.18,3.72,12.18,1.4,0,2.68-2.38,3.17-6.3a27.9,27.9,0,0,0,.18-3.29Z"/><path d="M568.79,433.13c.05,8.33,2,11.76,4.32,11.76a4.37,4.37,0,0,0,3.49-1.75l.39,4.41a5.41,5.41,0,0,1-4.19,2.1c-3.88,0-6.19-6.86-6.19-17.08s2.23-18.27,5.9-18.27c4.11,0,5.21,9.73,5.21,16,0,1.26-.06,2.24-.08,2.87Zm6.71-4.41c0-3.92-.59-10-3.17-10-2.31,0-3.33,5.74-3.51,10Z"/><path d="M580.55,425.64c0-4,0-7.42-.1-10.57h2l.08,6.65h.11c.57-4.55,2-7.42,3.48-7.42a1.07,1.07,0,0,1,.65.21v5.81a1.42,1.42,0,0,0-.78-.21c-1.61,0-2.76,3.29-3.07,7.91,0,.84-.1,1.82-.1,2.87V449h-2.27Z"/><path d="M589.17,424.24c0-3.5,0-6.37-.11-9.17h2l.13,5.6h0c.63-3.22,2.09-6.37,4.17-6.37,1.74,0,4.45,2.8,4.45,14.42V449H597.6V429.42c0-5.46-.76-10-2.92-10-1.51,0-2.68,2.87-3.07,6.3a24,24,0,0,0-.15,2.87V449h-2.29Z"/><path d="M604.88,433.13c.06,8.33,2,11.76,4.32,11.76a4.37,4.37,0,0,0,3.49-1.75l.39,4.41a5.41,5.41,0,0,1-4.19,2.1c-3.88,0-6.19-6.86-6.19-17.08s2.24-18.27,5.9-18.27c4.11,0,5.21,9.73,5.21,16,0,1.26,0,2.24-.08,2.87Zm6.72-4.41c0-3.92-.6-10-3.18-10-2.31,0-3.33,5.74-3.51,10Z"/><path d="M622.16,399.25h2.29v21.14h0a12.91,12.91,0,0,1,1.64-4.34,3.15,3.15,0,0,1,2.34-1.75c1.7,0,4.4,2.8,4.4,14.49V449h-2.29V429.49c0-5.46-.75-10.08-2.91-10.08-1.49,0-2.66,2.8-3.07,6.16a19.3,19.3,0,0,0-.16,2.94V449h-2.29Z"/><path d="M633.53,458.75a3.43,3.43,0,0,0,2.5-2.59c.63-2,.86-4.62.86-12.74V415.07h2.29V445.8c0,6.58-.39,10.85-1.51,13.93-1,2.73-2.68,3.85-3.9,3.85Zm5.91-53.2c0,2-.52,3.78-1.43,3.78s-1.41-1.75-1.41-3.78.6-3.85,1.46-3.85S639.44,403.38,639.44,405.55Z"/><path d="M651.69,432.64c-.07,8.05,1.64,12.32,4,12.32a4.24,4.24,0,0,0,3.44-2l.41,4.34a5,5,0,0,1-4.13,2.38c-2.14,0-4.06-2.73-4.79-7.49h0c-.81,4.69-2.53,7.49-4.69,7.49-2.62,0-3.93-4.76-3.93-9.66,0-7.84,2.71-12.39,7.6-12.25v-1.4c0-1.68-.39-7.56-2.94-7.56-1.19,0-2.47,1.19-3.22,2.59l-.55-4.06c1.12-1.89,2.68-3.08,3.93-3.08,2.26,0,3.54,2.87,4.06,7.21h0c.86-4.48,2.42-7.21,4.4-7.21,3.85,0,4.91,10,4.91,15.61,0,1,0,2.1-.08,2.73Zm-2.1-.7c-2.42-.14-5.36,1-5.36,7.63,0,3.57,1,5.6,2.18,5.6,1.64,0,2.68-2.73,3.05-5.81a19.39,19.39,0,0,0,.13-2.45Zm8.4-3.71c.08-3.43-.62-9.52-2.94-9.52s-3.3,5.67-3.38,9.52Z"/><path d="M663,399.25h2.29V449H663Z"/><path d="M669.18,426.13c0-4.34,0-7.84-.1-11.06h2l.11,5.81h0c.94-4.13,2.42-6.58,4.48-6.58,3,0,5.33,6.93,5.33,17.22,0,12.18-2.76,18.2-5.72,18.2-1.67,0-3.13-2-3.88-5.32h0v18.41h-2.27Zm2.27,9c0,.91,0,1.75.1,2.52.42,4.27,1.8,7.21,3.43,7.21,2.42,0,3.83-5.32,3.83-13.09,0-6.79-1.33-12.6-3.75-12.6-1.56,0-3,3-3.46,7.63-.08.77-.15,1.68-.15,2.52Z"/><path d="M685.26,433.13c.06,8.33,2,11.76,4.32,11.76a4.37,4.37,0,0,0,3.49-1.75l.39,4.41a5.41,5.41,0,0,1-4.19,2.1c-3.87,0-6.19-6.86-6.19-17.08s2.24-18.27,5.91-18.27c4.11,0,5.2,9.73,5.2,16,0,1.26-.05,2.24-.08,2.87Zm6.72-4.41c0-3.92-.6-10-3.18-10-2.31,0-3.33,5.74-3.51,10Z"/><path d="M713.42,399.25V440.2c0,3,0,6.44.1,8.75h-2l-.11-5.88h-.05c-.7,3.78-2.24,6.65-4.29,6.65-3,0-5.39-6.93-5.39-17.22,0-11.27,2.58-18.2,5.65-18.2,1.92,0,3.22,2.45,3.8,5.18h0V399.25Zm-2.29,29.61c0-.77,0-1.82-.11-2.59-.33-3.92-1.58-7.14-3.3-7.14-2.37,0-3.77,5.6-3.77,13.09,0,6.86,1.25,12.53,3.72,12.53,1.53,0,2.94-2.73,3.35-7.35.08-.84.11-1.68.11-2.66Z"/><path d="M719.77,405.55c0,2.1-.55,3.78-1.46,3.78s-1.38-1.68-1.38-3.78.6-3.85,1.43-3.85S719.77,403.38,719.77,405.55ZM717.22,449V415.07h2.29V449Z"/><path d="M734.16,415.07c-.06,2.45-.11,5.18-.11,9.31v19.67c0,7.77-.57,12.53-1.79,15.47s-3,4.06-4.58,4.06a5,5,0,0,1-4.19-2.8l.57-4.69c.84,1.4,2.14,2.66,3.7,2.66,2.34,0,4.06-3.29,4.06-11.83v-3.78h-.06c-.7,3.15-2,5.67-4,5.67-3.12,0-5.36-7.14-5.36-16.52,0-11.48,2.78-18,5.67-18,2.18,0,3.38,3.08,3.93,5.88h0l.1-5.11Zm-2.37,13.37a23.84,23.84,0,0,0-.13-2.8c-.42-3.57-1.54-6.51-3.2-6.51-2.19,0-3.75,5-3.75,12.81,0,6.65,1.25,12.18,3.72,12.18,1.41,0,2.68-2.38,3.18-6.3a27.9,27.9,0,0,0,.18-3.29Z"/><path d="M745.92,405.55c0,2.1-.55,3.78-1.46,3.78s-1.38-1.68-1.38-3.78.6-3.85,1.44-3.85S745.92,403.38,745.92,405.55ZM743.37,449V415.07h2.29V449Z"/><path d="M760.31,415.07c0,2.45-.11,5.18-.11,9.31v19.67c0,7.77-.57,12.53-1.79,15.47s-3,4.06-4.58,4.06a5,5,0,0,1-4.19-2.8l.57-4.69c.84,1.4,2.14,2.66,3.7,2.66,2.34,0,4.06-3.29,4.06-11.83v-3.78h-.05c-.71,3.15-2.06,5.67-4,5.67-3.12,0-5.36-7.14-5.36-16.52,0-11.48,2.78-18,5.67-18,2.19,0,3.38,3.08,3.93,5.88h.05l.11-5.11Zm-2.37,13.37a21.85,21.85,0,0,0-.13-2.8c-.42-3.57-1.53-6.51-3.2-6.51-2.18,0-3.75,5-3.75,12.81,0,6.65,1.25,12.18,3.72,12.18,1.41,0,2.68-2.38,3.18-6.3a27.9,27.9,0,0,0,.18-3.29Z"/><path d="M765.28,433.13c.05,8.33,2,11.76,4.32,11.76a4.37,4.37,0,0,0,3.49-1.75l.39,4.41a5.41,5.41,0,0,1-4.19,2.1c-3.88,0-6.19-6.86-6.19-17.08s2.23-18.27,5.9-18.27c4.11,0,5.2,9.73,5.2,16,0,1.26-.05,2.24-.07,2.87Zm6.71-4.41c0-3.92-.6-10-3.17-10-2.32,0-3.33,5.74-3.51,10Z"/><path d="M777,424.24c0-3.5,0-6.37-.1-9.17h2l.13,5.6h0c.62-3.22,2.08-6.37,4.16-6.37,1.75,0,4.45,2.8,4.45,14.42V449h-2.29V429.42c0-5.46-.75-10-2.91-10-1.51,0-2.68,2.87-3.07,6.3a21.87,21.87,0,0,0-.16,2.87V449H777Z"/><path d="M791.48,424.24c0-3.5,0-6.37-.1-9.17h2l.13,5.6h.05c.63-3.22,2.08-6.37,4.16-6.37,1.75,0,4.45,2.8,4.45,14.42V449h-2.29V429.42c0-5.46-.75-10-2.91-10-1.51,0-2.68,2.87-3.07,6.3a23.76,23.76,0,0,0-.16,2.87V449h-2.29Z"/><path d="M807.2,433.13c0,8.33,2,11.76,4.32,11.76a4.37,4.37,0,0,0,3.49-1.75l.39,4.41a5.41,5.41,0,0,1-4.19,2.1c-3.88,0-6.19-6.86-6.19-17.08s2.23-18.27,5.9-18.27c4.11,0,5.2,9.73,5.2,16,0,1.26,0,2.24-.07,2.87Zm6.71-4.41c0-3.92-.6-10-3.17-10-2.32,0-3.33,5.74-3.51,10Z"/><path d="M819,424.24c0-3.5,0-6.37-.1-9.17h2l.11,5.46H821c.71-3.22,1.88-6.23,4-6.23,1.72,0,3,2.8,3.56,6.79h.06a18.66,18.66,0,0,1,1.4-4.41c.75-1.54,1.59-2.38,2.78-2.38,1.67,0,4.14,2.94,4.14,14.7V449H834.7V429.77c0-6.51-.88-10.43-2.73-10.43-1.3,0-2.31,2.59-2.7,5.6a24.9,24.9,0,0,0-.19,3.08V449h-2.23v-20.3c0-5.39-.89-9.31-2.63-9.31-1.43,0-2.47,3.08-2.84,6.16a21.94,21.94,0,0,0-.18,3V449H819Z"/><path d="M845.87,442.65c.68,1.19,1.87,2.45,3,2.45,1.66,0,2.44-2.24,2.44-5s-.65-4.55-2.34-6.23c-2.26-2.17-3.33-5.53-3.33-9.59,0-5.46,1.64-9.94,4.35-9.94a4,4,0,0,1,3.09,2.1l-.57,4.48c-.49-.84-1.41-2-2.58-2-1.35,0-2.1,2.1-2.1,4.62a7,7,0,0,0,2.39,5.74c2.19,2.24,3.3,5.18,3.3,10.22,0,5.95-1.71,10.15-4.7,10.15a4.38,4.38,0,0,1-3.54-2.31Z"/><path d="M858.75,430.61h0c.31-1.19.76-2.66,1.12-3.85l3.7-11.69h2.75L861.51,429,867.05,449h-2.78l-4.35-16.24-1.17,3.5V449h-2.26v-49.7h2.26Z"/><path d="M880.09,431.73c0,12.53-3.23,18-6.27,18-3.41,0-6-6.72-6-17.43,0-11.34,2.76-18,6.24-18S880.09,421.37,880.09,431.73Zm-10,.35c0,7.42,1.58,13,3.82,13s3.83-5.53,3.83-13.16c0-5.74-1.07-13-3.78-13S870.1,425.64,870.1,432.08Z"/><path d="M883.68,415.07l2.47,19c.42,3.08.76,5.88,1,8.68h.07c.29-2.8.65-5.6,1.07-8.68l2.45-19h2.39L888.21,449H886l-4.79-33.88Z"/><path d="M896.33,433.13c0,8.33,2,11.76,4.32,11.76a4.36,4.36,0,0,0,3.48-1.75l.39,4.41a5.4,5.4,0,0,1-4.19,2.1c-3.87,0-6.19-6.86-6.19-17.08s2.24-18.27,5.91-18.27c4.11,0,5.2,9.73,5.2,16,0,1.26,0,2.24-.08,2.87Zm6.71-4.41c0-3.92-.6-10-3.18-10-2.31,0-3.33,5.74-3.51,10Z"/><path d="M908.09,424.24c0-3.5,0-6.37-.11-9.17h2l.13,5.6h.06c.62-3.22,2.08-6.37,4.16-6.37,1.74,0,4.45,2.8,4.45,14.42V449h-2.29V429.42c0-5.46-.76-10-2.92-10-1.51,0-2.68,2.87-3.07,6.3a24,24,0,0,0-.15,2.87V449h-2.29Z"/><path d="M921.05,457.56c.57-4.13,1.27-11.62,1.56-16.73l2.55-.7c-.6,5.95-1.74,13.72-2.47,17Z"/><path d="M935.7,430.61h0c.31-1.19.75-2.66,1.12-3.85l3.69-11.69h2.76L938.45,429,944,449h-2.79l-4.34-16.24-1.17,3.5V449h-2.27v-49.7h2.27Z"/><path d="M946.08,399.25h2.29V449h-2.29Z"/><path d="M954.77,405.55c0,2.1-.55,3.78-1.46,3.78s-1.38-1.68-1.38-3.78.6-3.85,1.44-3.85S954.77,403.38,954.77,405.55ZM952.22,449V415.07h2.29V449Z"/><path d="M960.57,430.61h0c.32-1.19.76-2.66,1.12-3.85l3.7-11.69h2.76L963.33,429,968.87,449h-2.78l-4.35-16.24-1.17,3.5V449h-2.26v-49.7h2.26Z"/><path d="M976,426.13c0-4.34,0-7.84-.1-11.06H978l.1,5.81h.06c.93-4.13,2.42-6.58,4.47-6.58,3,0,5.34,6.93,5.34,17.22,0,12.18-2.76,18.2-5.73,18.2-1.66,0-3.12-2-3.87-5.32h-.06v18.41H976Zm2.26,9c0,.91.06,1.75.11,2.52.41,4.27,1.79,7.21,3.43,7.21,2.42,0,3.83-5.32,3.83-13.09,0-6.79-1.33-12.6-3.75-12.6-1.56,0-3,3-3.46,7.63a25.23,25.23,0,0,0-.16,2.52Z"/><path d="M997.81,449l-.18-4.27h-.08c-.7,2.66-2.06,5-3.85,5-2.55,0-3.85-4.83-3.85-9.73,0-8.19,2.7-12.67,7.57-12.6v-.7c0-2.8-.29-7.84-2.86-7.84-1.17,0-2.4,1-3.28,2.52l-.52-4.06c1-1.82,2.55-3,4.13-3,3.86,0,4.79,7.07,4.79,13.86v12.67c0,2.94.05,5.81.21,8.12Zm-.34-17.29c-2.5-.14-5.33,1-5.33,7.63,0,4,1,5.88,2.16,5.88,1.63,0,2.68-2.8,3-5.67a16.13,16.13,0,0,0,.13-2ZM992.55,405c0-3.71,1-6.65,2.66-6.65s2.57,2.87,2.57,6.58-1.12,6.44-2.6,6.44S992.55,408.56,992.55,405Zm4-.14c0-2.1-.52-3.85-1.36-3.85s-1.27,1.82-1.27,4c0,1.82.52,3.78,1.27,3.78S996.51,407,996.51,404.85Z"/><path d="M1019.77,399.25V440.2c0,3,0,6.44.1,8.75h-2l-.11-5.88h-.05c-.7,3.78-2.24,6.65-4.29,6.65-3,0-5.39-6.93-5.39-17.22,0-11.27,2.58-18.2,5.65-18.2,1.92,0,3.23,2.45,3.8,5.18h.05V399.25Zm-2.29,29.61c0-.77,0-1.82-.1-2.59-.34-3.92-1.59-7.14-3.31-7.14-2.37,0-3.77,5.6-3.77,13.09,0,6.86,1.25,12.53,3.72,12.53,1.53,0,2.94-2.73,3.36-7.35.07-.84.1-1.68.1-2.66Z"/><path d="M1024.85,433.13c.05,8.33,2,11.76,4.32,11.76a4.36,4.36,0,0,0,3.48-1.75l.39,4.41a5.4,5.4,0,0,1-4.19,2.1c-3.87,0-6.19-6.86-6.19-17.08s2.24-18.27,5.91-18.27c4.11,0,5.2,9.73,5.2,16,0,1.26,0,2.24-.08,2.87Zm6.71-4.41c0-3.92-.6-10-3.18-10-2.31,0-3.33,5.74-3.51,10Z"/><path d="M1036.61,424.24c0-3.5,0-6.37-.11-9.17h2l.1,5.46h.08c.7-3.22,1.87-6.23,4-6.23,1.72,0,3,2.8,3.57,6.79h0a18.16,18.16,0,0,1,1.41-4.41c.75-1.54,1.58-2.38,2.78-2.38,1.66,0,4.13,2.94,4.13,14.7V449h-2.23V429.77c0-6.51-.89-10.43-2.73-10.43-1.3,0-2.32,2.59-2.71,5.6a27.21,27.21,0,0,0-.18,3.08V449h-2.24v-20.3c0-5.39-.88-9.31-2.63-9.31-1.43,0-2.47,3.08-2.83,6.16a21.94,21.94,0,0,0-.18,3V449h-2.24Z"/><path d="M1075.22,431.73c0,12.53-3.22,18-6.27,18-3.41,0-6-6.72-6-17.43,0-11.34,2.75-18,6.24-18S1075.22,421.37,1075.22,431.73Zm-10,.35c0,7.42,1.59,13,3.83,13s3.82-5.53,3.82-13.16c0-5.74-1.07-13-3.77-13S1065.23,425.64,1065.23,432.08Z"/><path d="M1089,415.07c0,2.45-.1,5.18-.1,9.31v19.67c0,7.77-.57,12.53-1.8,15.47s-3,4.06-4.58,4.06a5,5,0,0,1-4.19-2.8l.58-4.69c.83,1.4,2.13,2.66,3.69,2.66,2.34,0,4.06-3.29,4.06-11.83v-3.78h0c-.7,3.15-2.06,5.67-4,5.67-3.12,0-5.36-7.14-5.36-16.52,0-11.48,2.79-18,5.67-18,2.19,0,3.39,3.08,3.93,5.88h0l.11-5.11Zm-2.37,13.37a21.85,21.85,0,0,0-.13-2.8c-.41-3.57-1.53-6.51-3.2-6.51-2.18,0-3.74,5-3.74,12.81,0,6.65,1.25,12.18,3.72,12.18,1.4,0,2.68-2.38,3.17-6.3a27.9,27.9,0,0,0,.18-3.29Z"/><path d="M1109.05,399.25V440.2c0,3,0,6.44.1,8.75h-2.05l-.1-5.88h-.06c-.7,3.78-2.23,6.65-4.29,6.65-3,0-5.39-6.93-5.39-17.22,0-11.27,2.58-18.2,5.65-18.2,1.93,0,3.23,2.45,3.8,5.18h0V399.25Zm-2.29,29.61c0-.77,0-1.82-.1-2.59-.34-3.92-1.59-7.14-3.31-7.14-2.36,0-3.77,5.6-3.77,13.09,0,6.86,1.25,12.53,3.72,12.53,1.54,0,2.94-2.73,3.36-7.35.08-.84.1-1.68.1-2.66Z"/><path d="M1114.13,433.13c0,8.33,2,11.76,4.31,11.76a4.37,4.37,0,0,0,3.49-1.75l.39,4.41a5.4,5.4,0,0,1-4.19,2.1c-3.87,0-6.19-6.86-6.19-17.08s2.24-18.27,5.91-18.27c4.11,0,5.2,9.73,5.2,16,0,1.26,0,2.24-.08,2.87Zm6.71-4.41c0-3.92-.6-10-3.18-10-2.31,0-3.33,5.74-3.51,10Z"/><path d="M1131.41,399.25h2.28v21.14h.06a12.5,12.5,0,0,1,1.64-4.34,3.12,3.12,0,0,1,2.34-1.75c1.69,0,4.39,2.8,4.39,14.49V449h-2.29V429.49c0-5.46-.75-10.08-2.91-10.08-1.48,0-2.65,2.8-3.07,6.16a19.3,19.3,0,0,0-.16,2.94V449h-2.28Z"/><path d="M1142.78,458.75a3.43,3.43,0,0,0,2.49-2.59c.63-2,.86-4.62.86-12.74V415.07h2.29V445.8c0,6.58-.39,10.85-1.51,13.93-1,2.73-2.68,3.85-3.9,3.85Zm5.9-53.2c0,2-.52,3.78-1.43,3.78s-1.4-1.75-1.4-3.78.59-3.85,1.45-3.85S1148.68,403.38,1148.68,405.55Z"/><path d="M1160.94,432.64c-.08,8.05,1.64,12.32,4,12.32a4.21,4.21,0,0,0,3.44-2l.41,4.34a5,5,0,0,1-4.13,2.38c-2.14,0-4.06-2.73-4.79-7.49h0c-.81,4.69-2.53,7.49-4.68,7.49-2.63,0-3.93-4.76-3.93-9.66,0-7.84,2.7-12.39,7.59-12.25v-1.4c0-1.68-.39-7.56-2.94-7.56-1.19,0-2.47,1.19-3.22,2.59l-.55-4.06c1.12-1.89,2.68-3.08,3.93-3.08,2.26,0,3.54,2.87,4.06,7.21h.05c.86-4.48,2.42-7.21,4.4-7.21,3.85,0,4.91,10,4.91,15.61,0,1,0,2.1-.07,2.73Zm-2.11-.7c-2.42-.14-5.36,1-5.36,7.63,0,3.57,1,5.6,2.19,5.6,1.63,0,2.68-2.73,3-5.81a19.39,19.39,0,0,0,.13-2.45Zm8.4-3.71c.08-3.43-.62-9.52-2.94-9.52s-3.3,5.67-3.38,9.52Z"/><path d="M1172.29,399.25h2.28V449h-2.28Z"/><path d="M1178.43,426.13c0-4.34-.06-7.84-.11-11.06h2.06l.1,5.81h0c.94-4.13,2.42-6.58,4.48-6.58,3,0,5.33,6.93,5.33,17.22,0,12.18-2.76,18.2-5.72,18.2-1.67,0-3.12-2-3.88-5.32h0v18.41h-2.26Zm2.26,9c0,.91,0,1.75.1,2.52.42,4.27,1.8,7.21,3.44,7.21,2.42,0,3.82-5.32,3.82-13.09,0-6.79-1.33-12.6-3.74-12.6-1.57,0-3,3-3.47,7.63-.07.77-.15,1.68-.15,2.52Z"/><path d="M1194.51,433.13c0,8.33,2,11.76,4.32,11.76a4.36,4.36,0,0,0,3.48-1.75l.39,4.41a5.38,5.38,0,0,1-4.19,2.1c-3.87,0-6.19-6.86-6.19-17.08s2.24-18.27,5.91-18.27c4.11,0,5.2,9.73,5.2,16,0,1.26,0,2.24-.08,2.87Zm6.71-4.41c0-3.92-.6-10-3.18-10-2.31,0-3.33,5.74-3.51,10Z"/><path d="M1222.66,399.25V440.2c0,3,0,6.44.1,8.75h-2l-.11-5.88h0c-.7,3.78-2.23,6.65-4.29,6.65-3,0-5.39-6.93-5.39-17.22,0-11.27,2.58-18.2,5.65-18.2,1.93,0,3.23,2.45,3.8,5.18h0V399.25Zm-2.29,29.61c0-.77,0-1.82-.1-2.59-.34-3.92-1.59-7.14-3.31-7.14-2.37,0-3.77,5.6-3.77,13.09,0,6.86,1.25,12.53,3.72,12.53,1.54,0,2.94-2.73,3.36-7.35.07-.84.1-1.68.1-2.66Z"/><path d="M1229,405.55c0,2.1-.55,3.78-1.46,3.78s-1.37-1.68-1.37-3.78.59-3.85,1.43-3.85S1229,403.38,1229,405.55Zm-2.55,43.4V415.07h2.29V449Z"/><path d="M1243.4,415.07c-.05,2.45-.11,5.18-.11,9.31v19.67c0,7.77-.57,12.53-1.79,15.47s-3,4.06-4.58,4.06a5,5,0,0,1-4.19-2.8l.57-4.69c.84,1.4,2.14,2.66,3.7,2.66,2.34,0,4.06-3.29,4.06-11.83v-3.78h0c-.71,3.15-2.06,5.67-4,5.67-3.12,0-5.36-7.14-5.36-16.52,0-11.48,2.78-18,5.67-18,2.19,0,3.38,3.08,3.93,5.88h0l.11-5.11ZM1241,428.44a21.85,21.85,0,0,0-.13-2.8c-.41-3.57-1.53-6.51-3.2-6.51-2.18,0-3.74,5-3.74,12.81,0,6.65,1.24,12.18,3.72,12.18,1.4,0,2.68-2.38,3.17-6.3a27.9,27.9,0,0,0,.18-3.29Z"/><path d="M1246.16,445.31c0-2.59.65-4.41,1.56-4.41s1.54,1.82,1.54,4.41-.6,4.41-1.57,4.41S1246.16,447.83,1246.16,445.31Z"/><path d="M381.72,512.22c-.13-6.58-.29-14.49-.26-20.37h-.08c-.6,5.53-1.32,11.41-2.21,17.92l-3.09,22.89h-1.72l-2.84-22.47c-.83-6.65-1.53-12.74-2-18.34h-.05c-.05,5.88-.18,13.79-.34,20.86l-.47,20.23h-2.15l1.22-47.18h2.89l3,22.82c.73,5.81,1.32,11,1.77,15.89h.07c.45-4.76,1.07-9.94,1.85-15.89l3.12-22.82h2.89l1.09,47.18h-2.21Z"/><path d="M389.22,517.12c0,8.33,2,11.76,4.32,11.76a4.35,4.35,0,0,0,3.48-1.75l.39,4.41a5.38,5.38,0,0,1-4.19,2.1c-3.87,0-6.19-6.86-6.19-17.08s2.24-18.27,5.91-18.27c4.11,0,5.2,9.73,5.2,16,0,1.26-.05,2.24-.08,2.87Zm6.71-4.41c0-3.92-.6-10-3.17-10-2.32,0-3.33,5.74-3.52,10Z"/><path d="M401,508.23c0-3.5,0-6.37-.1-9.17h2l.14,5.6h0c.62-3.22,2.08-6.37,4.16-6.37,1.74,0,4.45,2.8,4.45,14.42v20.23h-2.29V513.41c0-5.46-.76-10-2.91-10-1.51,0-2.68,2.87-3.07,6.3a21.87,21.87,0,0,0-.16,2.87v20.37H401Z"/><path d="M420.94,483.25h2.29v21.13h0a12.7,12.7,0,0,1,1.64-4.34c.68-1.05,1.48-1.75,2.34-1.75,1.69,0,4.4,2.8,4.4,14.49v20.16h-2.29V513.48c0-5.46-.76-10.08-2.92-10.08-1.48,0-2.65,2.8-3.07,6.16a19.44,19.44,0,0,0-.15,2.94v20.44h-2.29Z"/><path d="M445.92,523.7c0,3.5,0,6.58.1,9.24h-2l-.13-5.53h-.05c-.6,2.73-1.93,6.3-4.16,6.3-2,0-4.35-2.94-4.35-14.84V499.06h2.29v18.76c0,6.44.73,10.78,2.81,10.78,1.54,0,2.6-2.87,3-5.6a23.1,23.1,0,0,0,.21-3.15V499.06h2.29Z"/><path d="M449.41,526.64c.67,1.19,1.87,2.45,3,2.45,1.67,0,2.45-2.24,2.45-5s-.65-4.55-2.34-6.23c-2.27-2.17-3.33-5.53-3.33-9.59,0-5.46,1.64-9.94,4.34-9.94a4,4,0,0,1,3.1,2.1l-.57,4.48c-.5-.84-1.41-2-2.58-2-1.35,0-2.11,2.1-2.11,4.62a7,7,0,0,0,2.4,5.74c2.18,2.24,3.3,5.18,3.3,10.22,0,6-1.72,10.15-4.71,10.15a4.39,4.39,0,0,1-3.54-2.31Z"/><path d="M462.29,514.6h0c.31-1.19.75-2.66,1.12-3.85l3.69-11.69h2.76L465,513l5.55,20H467.8l-4.34-16.24-1.17,3.5v12.74H460V483.25h2.27Z"/><path d="M488.62,483.25v40.94c0,3,0,6.44.1,8.75h-2.05l-.11-5.88h-.05c-.7,3.78-2.24,6.65-4.29,6.65-3.05,0-5.39-6.93-5.39-17.22,0-11.27,2.58-18.2,5.65-18.2,1.92,0,3.22,2.45,3.8,5.18h.05V483.25Zm-2.29,29.6c0-.77,0-1.82-.11-2.59-.33-3.92-1.58-7.14-3.3-7.14-2.37,0-3.77,5.6-3.77,13.09,0,6.86,1.25,12.53,3.72,12.53,1.53,0,2.94-2.73,3.35-7.35.08-.84.11-1.68.11-2.66Z"/><path d="M503,523.7c0,3.5,0,6.58.1,9.24h-2l-.13-5.53h0c-.6,2.73-1.93,6.3-4.16,6.3-2,0-4.35-2.94-4.35-14.84V499.06h2.29v18.76c0,6.44.73,10.78,2.81,10.78,1.54,0,2.6-2.87,3-5.6a23.1,23.1,0,0,0,.21-3.15V499.06H503Z"/><path d="M512.27,508.23c0-3.5,0-6.37-.1-9.17h2l.11,5.46h.08c.7-3.22,1.87-6.23,3.95-6.23,1.72,0,3,2.8,3.56,6.79h.06a18.66,18.66,0,0,1,1.4-4.41c.76-1.54,1.59-2.38,2.78-2.38,1.67,0,4.14,2.94,4.14,14.7v20H528V513.76c0-6.51-.88-10.43-2.73-10.43-1.3,0-2.31,2.59-2.7,5.6a24.9,24.9,0,0,0-.19,3.08v20.93h-2.23v-20.3c0-5.39-.89-9.31-2.63-9.31-1.43,0-2.47,3.08-2.84,6.16a21.94,21.94,0,0,0-.18,3v20.44h-2.24Z"/><path d="M541,532.94l-.18-4.27h-.08c-.7,2.66-2.06,5-3.85,5-2.55,0-3.85-4.83-3.85-9.73,0-8.19,2.7-12.67,7.57-12.6v-.7c0-2.8-.29-7.84-2.86-7.84-1.17,0-2.4,1-3.28,2.52l-.52-4.06c1-1.82,2.55-3,4.13-3,3.86,0,4.79,7.07,4.79,13.86v12.67c0,2.94,0,5.81.21,8.12Zm-.34-17.29c-2.5-.14-5.33,1.05-5.33,7.63,0,4,1,5.88,2.16,5.88,1.64,0,2.68-2.8,3-5.67a16.13,16.13,0,0,0,.13-2ZM535.69,489c0-3.71,1-6.65,2.66-6.65s2.57,2.88,2.57,6.58-1.12,6.44-2.6,6.44S535.69,492.55,535.69,489Zm4-.14c0-2.09-.52-3.84-1.36-3.84s-1.27,1.81-1.27,4c0,1.82.52,3.78,1.27,3.78S539.65,490.94,539.65,488.84Z"/><path d="M554.58,489.54c0,2.1-.54,3.78-1.45,3.78s-1.38-1.68-1.38-3.78.6-3.85,1.43-3.85S554.58,487.38,554.58,489.54ZM552,532.94V499.06h2.28v33.88Z"/><path d="M560.39,514.6h.05c.31-1.19.75-2.66,1.12-3.85l3.69-11.69H568L563.15,513l5.54,20H565.9l-4.34-16.24-1.17,3.5v12.74h-2.27V483.25h2.27Z"/><path d="M573,514.6h.06c.31-1.19.75-2.66,1.12-3.85l3.69-11.69h2.76L575.79,513l5.54,20h-2.78l-4.34-16.24L573,520.2v12.74h-2.26V483.25H573Z"/><path d="M584.25,517.12c0,8.33,2,11.76,4.32,11.76a4.33,4.33,0,0,0,3.48-1.75l.39,4.41a5.37,5.37,0,0,1-4.18,2.1c-3.88,0-6.2-6.86-6.2-17.08s2.24-18.27,5.91-18.27c4.11,0,5.2,9.73,5.2,16,0,1.26,0,2.24-.07,2.87Zm6.71-4.41c0-3.92-.6-10-3.17-10-2.32,0-3.33,5.74-3.51,10Z"/><path d="M603.79,514.6h.05c.32-1.19.76-2.66,1.12-3.85l3.7-11.69h2.75L606.55,513l5.54,20h-2.78L605,516.7l-1.17,3.5v12.74h-2.26V483.25h2.26Z"/><path d="M614.17,483.25h2.29v49.69h-2.29Z"/><path d="M622.87,489.54c0,2.1-.55,3.78-1.46,3.78s-1.38-1.68-1.38-3.78.6-3.85,1.43-3.85S622.87,487.38,622.87,489.54Zm-2.55,43.4V499.06h2.28v33.88Z"/><path d="M628.67,514.6h.05c.31-1.19.75-2.66,1.12-3.85l3.69-11.69h2.76L631.43,513l5.54,20h-2.79l-4.34-16.24-1.17,3.5v12.74H626.4V483.25h2.27Z"/><path d="M641.31,514.6h.06c.31-1.19.75-2.66,1.12-3.85l3.69-11.69h2.76L644.07,513l5.54,20h-2.78l-4.34-16.24-1.18,3.5v12.74h-2.26V483.25h2.26Z"/><path d="M652.53,517.12c.05,8.33,2,11.76,4.32,11.76a4.33,4.33,0,0,0,3.48-1.75l.4,4.41a5.41,5.41,0,0,1-4.19,2.1c-3.88,0-6.2-6.86-6.2-17.08s2.24-18.27,5.91-18.27c4.11,0,5.2,9.73,5.2,16,0,1.26-.05,2.24-.07,2.87Zm6.71-4.41c0-3.92-.6-10-3.17-10-2.32,0-3.33,5.74-3.51,10Z"/><path d="M669.81,510.12c0-4.34,0-7.84-.11-11.06h2.06l.1,5.81h.06c.93-4.13,2.41-6.58,4.47-6.58,3,0,5.33,6.93,5.33,17.22,0,12.18-2.75,18.2-5.72,18.2-1.67,0-3.12-2-3.88-5.32h0V546.8h-2.26Zm2.26,9c0,.91,0,1.75.11,2.52.41,4.27,1.79,7.21,3.43,7.21,2.42,0,3.82-5.32,3.82-13.09,0-6.79-1.32-12.6-3.74-12.6-1.56,0-3,3-3.46,7.63a25.23,25.23,0,0,0-.16,2.52Z"/><path d="M691.59,532.94l-.19-4.27h-.07c-.71,2.66-2.06,5-3.85,5-2.55,0-3.85-4.83-3.85-9.73,0-8.19,2.7-12.67,7.57-12.6v-.7c0-2.8-.29-7.84-2.87-7.84-1.17,0-2.39,1-3.27,2.52l-.52-4.06c1-1.82,2.55-3,4.13-3,3.85,0,4.79,7.07,4.79,13.86v12.67c0,2.94,0,5.81.21,8.12Zm-.34-17.29c-2.5-.14-5.33,1.05-5.33,7.63,0,4,1,5.88,2.15,5.88,1.64,0,2.68-2.8,3-5.67a16.13,16.13,0,0,0,.13-2ZM686.33,489c0-3.71,1-6.65,2.66-6.65s2.57,2.88,2.57,6.58-1.12,6.44-2.6,6.44S686.33,492.55,686.33,489Zm4-.14c0-2.09-.52-3.84-1.36-3.84s-1.27,1.81-1.27,4c0,1.82.52,3.78,1.27,3.78S690.29,490.94,690.29,488.84Z"/><path d="M709.65,532.94l-.19-4.27h-.07c-.71,2.66-2.06,5-3.85,5-2.55,0-3.85-4.83-3.85-9.73,0-8.19,2.7-12.67,7.57-12.6v-.7c0-2.8-.29-7.84-2.87-7.84-1.17,0-2.39,1-3.27,2.52l-.52-4.06c1-1.82,2.55-3,4.13-3,3.85,0,4.79,7.07,4.79,13.86v12.67c0,2.94.05,5.81.21,8.12Zm-.34-17.29c-2.5-.14-5.34,1.05-5.34,7.63,0,4,1,5.88,2.16,5.88,1.64,0,2.68-2.8,3-5.67a16.13,16.13,0,0,0,.13-2ZM704.39,489c0-3.71,1-6.65,2.65-6.65s2.58,2.88,2.58,6.58-1.12,6.44-2.6,6.44S704.39,492.55,704.39,489Zm4-.14c0-2.09-.53-3.84-1.36-3.84s-1.27,1.81-1.27,4c0,1.82.52,3.78,1.27,3.78S708.35,490.94,708.35,488.84Z"/><path d="M715.22,508.23c0-3.5,0-6.37-.11-9.17h2l.13,5.6h.05c.63-3.22,2.08-6.37,4.17-6.37,1.74,0,4.44,2.8,4.44,14.42v20.23h-2.28V513.41c0-5.46-.76-10-2.92-10-1.51,0-2.68,2.87-3.07,6.3a24,24,0,0,0-.15,2.87v20.37h-2.29Z"/><path d="M740.53,483.25v40.94c0,3,0,6.44.11,8.75h-2.06l-.1-5.88h-.05c-.71,3.78-2.24,6.65-4.3,6.65-3,0-5.38-6.93-5.38-17.22,0-11.27,2.57-18.2,5.64-18.2,1.93,0,3.23,2.45,3.8,5.18h0V483.25Zm-2.29,29.6c0-.77,0-1.82-.1-2.59-.34-3.92-1.59-7.14-3.31-7.14-2.36,0-3.77,5.6-3.77,13.09,0,6.86,1.25,12.53,3.72,12.53,1.54,0,2.94-2.73,3.36-7.35.08-.84.1-1.68.1-2.66Z"/><path d="M745.61,517.12c0,8.33,2,11.76,4.32,11.76a4.33,4.33,0,0,0,3.48-1.75l.39,4.41a5.37,5.37,0,0,1-4.18,2.1c-3.88,0-6.2-6.86-6.2-17.08s2.24-18.27,5.91-18.27c4.11,0,5.2,9.73,5.2,16,0,1.26,0,2.24-.08,2.87Zm6.71-4.41c0-3.92-.6-10-3.17-10-2.32,0-3.33,5.74-3.51,10Z"/><path d="M757.37,509.63c0-4,0-7.42-.1-10.57h2l.08,6.65h.1c.57-4.55,1.95-7.42,3.49-7.42a1.07,1.07,0,0,1,.65.21v5.81a1.45,1.45,0,0,0-.78-.21c-1.61,0-2.76,3.29-3.07,7.91,0,.84-.11,1.82-.11,2.87v18.06h-2.26Z"/><path d="M766,508.23c0-3.5,0-6.37-.1-9.17h2l.13,5.6h.05c.63-3.22,2.08-6.37,4.16-6.37,1.75,0,4.45,2.8,4.45,14.42v20.23h-2.29V513.41c0-5.46-.75-10-2.91-10-1.51,0-2.68,2.87-3.07,6.3a23.76,23.76,0,0,0-.16,2.87v20.37H766Z"/><path d="M781.7,517.12c0,8.33,2,11.76,4.32,11.76a4.37,4.37,0,0,0,3.49-1.75l.39,4.41a5.41,5.41,0,0,1-4.19,2.1c-3.88,0-6.19-6.86-6.19-17.08s2.23-18.27,5.9-18.27c4.11,0,5.2,9.73,5.2,16,0,1.26,0,2.24-.07,2.87Zm6.71-4.41c0-3.92-.6-10-3.17-10-2.32,0-3.33,5.74-3.51,10Z"/><path d="M791.67,541.55c.57-4.13,1.27-11.62,1.56-16.73l2.55-.7c-.6,6-1.74,13.72-2.47,17Z"/><path d="M814.93,483.25v40.94c0,3,0,6.44.1,8.75h-2l-.11-5.88h0c-.7,3.78-2.24,6.65-4.29,6.65-3,0-5.39-6.93-5.39-17.22,0-11.27,2.58-18.2,5.65-18.2,1.92,0,3.22,2.45,3.8,5.18h0V483.25Zm-2.29,29.6c0-.77,0-1.82-.11-2.59-.33-3.92-1.58-7.14-3.3-7.14-2.37,0-3.77,5.6-3.77,13.09,0,6.86,1.25,12.53,3.72,12.53,1.53,0,2.94-2.73,3.35-7.35.08-.84.11-1.68.11-2.66Z"/><path d="M825.7,532.94l-.18-4.27h-.08c-.7,2.66-2.05,5-3.85,5-2.55,0-3.85-4.83-3.85-9.73,0-8.19,2.71-12.67,7.57-12.6v-.7c0-2.8-.28-7.84-2.86-7.84-1.17,0-2.39,1-3.28,2.52l-.52-4.06c1-1.82,2.55-3,4.14-3,3.85,0,4.79,7.07,4.79,13.86v12.67c0,2.94,0,5.81.2,8.12Zm-.34-17.29c-2.49-.14-5.33,1.05-5.33,7.63,0,4,1,5.88,2.16,5.88,1.64,0,2.68-2.8,3-5.67a16.13,16.13,0,0,0,.13-2Z"/><path d="M847.66,483.25v40.94c0,3,0,6.44.11,8.75h-2.06l-.1-5.88h-.05c-.71,3.78-2.24,6.65-4.3,6.65-3,0-5.38-6.93-5.38-17.22,0-11.27,2.57-18.2,5.64-18.2,1.93,0,3.23,2.45,3.8,5.18h0V483.25Zm-2.29,29.6c0-.77,0-1.82-.1-2.59-.34-3.92-1.59-7.14-3.3-7.14-2.37,0-3.78,5.6-3.78,13.09,0,6.86,1.25,12.53,3.72,12.53,1.54,0,2.94-2.73,3.36-7.35.08-.84.1-1.68.1-2.66Z"/><path d="M852.74,517.12c0,8.33,2,11.76,4.32,11.76a4.33,4.33,0,0,0,3.48-1.75l.39,4.41a5.37,5.37,0,0,1-4.18,2.1c-3.88,0-6.2-6.86-6.2-17.08s2.24-18.27,5.91-18.27c4.11,0,5.2,9.73,5.2,16,0,1.26,0,2.24-.08,2.87Zm6.71-4.41c0-3.92-.6-10-3.17-10-2.32,0-3.33,5.74-3.51,10Z"/><path d="M870.9,499.06l2.47,19c.42,3.08.76,5.88,1,8.68h.08c.28-2.8.65-5.6,1.06-8.68l2.45-19h2.39l-4.94,33.88h-2.19l-4.78-33.88Z"/><path d="M885.08,489.54c0,2.1-.54,3.78-1.45,3.78s-1.38-1.68-1.38-3.78.6-3.85,1.43-3.85S885.08,487.38,885.08,489.54Zm-2.54,43.4V499.06h2.28v33.88Z"/><path d="M888.62,483.25h2.29v49.69h-2.29Z"/><path d="M900,526.64c.68,1.19,1.87,2.45,3,2.45,1.66,0,2.44-2.24,2.44-5s-.65-4.55-2.34-6.23c-2.26-2.17-3.33-5.53-3.33-9.59,0-5.46,1.64-9.94,4.35-9.94a4,4,0,0,1,3.09,2.1l-.57,4.48c-.5-.84-1.41-2-2.58-2-1.35,0-2.1,2.1-2.1,4.62a7,7,0,0,0,2.39,5.74c2.19,2.24,3.3,5.18,3.3,10.22,0,6-1.71,10.15-4.71,10.15a4.38,4.38,0,0,1-3.53-2.31Z"/><path d="M910.59,483.25h2.29v49.69h-2.29Z"/><path d="M923.7,532.94l-.18-4.27h-.08c-.7,2.66-2.06,5-3.85,5-2.55,0-3.85-4.83-3.85-9.73,0-8.19,2.7-12.67,7.57-12.6v-.7c0-2.8-.29-7.84-2.86-7.84-1.17,0-2.4,1-3.28,2.52l-.52-4.06c1-1.82,2.55-3,4.14-3,3.85,0,4.78,7.07,4.78,13.86v12.67c0,2.94,0,5.81.21,8.12Zm-.34-17.29c-2.5-.14-5.33,1.05-5.33,7.63,0,4,1,5.88,2.16,5.88,1.64,0,2.68-2.8,3-5.67a16.13,16.13,0,0,0,.13-2ZM918.44,489c0-3.71,1-6.65,2.66-6.65s2.57,2.88,2.57,6.58-1.12,6.44-2.6,6.44S918.44,492.55,918.44,489Zm4-.14c0-2.09-.52-3.84-1.36-3.84s-1.27,1.81-1.27,4c0,1.82.52,3.78,1.27,3.78S922.4,490.94,922.4,488.84Z"/><path d="M945.66,483.25v40.94c0,3,0,6.44.1,8.75h-2l-.1-5.88h-.06c-.7,3.78-2.23,6.65-4.29,6.65-3,0-5.38-6.93-5.38-17.22,0-11.27,2.57-18.2,5.64-18.2,1.93,0,3.23,2.45,3.8,5.18h0V483.25Zm-2.29,29.6c0-.77,0-1.82-.1-2.59-.34-3.92-1.59-7.14-3.31-7.14-2.36,0-3.77,5.6-3.77,13.09,0,6.86,1.25,12.53,3.72,12.53,1.54,0,2.94-2.73,3.36-7.35.08-.84.1-1.68.1-2.66Z"/><path d="M952,489.54c0,2.1-.55,3.78-1.46,3.78s-1.37-1.68-1.37-3.78.59-3.85,1.43-3.85S952,487.38,952,489.54Zm-2.55,43.4V499.06h2.29v33.88Z"/><path d="M966.4,499.06c0,2.45-.11,5.18-.11,9.31V528c0,7.77-.57,12.53-1.79,15.47s-3,4.06-4.58,4.06a5,5,0,0,1-4.19-2.8l.57-4.69c.84,1.4,2.14,2.66,3.7,2.66,2.34,0,4.06-3.29,4.06-11.83v-3.78h0c-.71,3.15-2.06,5.67-4,5.67-3.12,0-5.36-7.14-5.36-16.52,0-11.48,2.78-18,5.67-18,2.19,0,3.38,3.08,3.93,5.88h0l.11-5.11ZM964,512.43a21.85,21.85,0,0,0-.13-2.8c-.41-3.57-1.53-6.51-3.2-6.51-2.18,0-3.74,5-3.74,12.81,0,6.65,1.24,12.18,3.72,12.18,1.4,0,2.68-2.38,3.17-6.3a27.9,27.9,0,0,0,.18-3.29Z"/><path d="M978.16,489.54c0,2.1-.54,3.78-1.45,3.78s-1.38-1.68-1.38-3.78.59-3.85,1.43-3.85S978.16,487.38,978.16,489.54Zm-2.55,43.4V499.06h2.29v33.88Z"/><path d="M981.7,483.25H984v21.13h0a12.91,12.91,0,0,1,1.64-4.34,3.15,3.15,0,0,1,2.34-1.75c1.7,0,4.4,2.8,4.4,14.49v20.16h-2.29V513.48c0-5.46-.75-10.08-2.91-10.08-1.48,0-2.66,2.8-3.07,6.16a19.3,19.3,0,0,0-.16,2.94v20.44H981.7Z"/><path d="M993.07,542.74a3.43,3.43,0,0,0,2.5-2.59c.63-2,.86-4.62.86-12.74V499.06h2.29v30.73c0,6.58-.39,10.85-1.51,13.93-1,2.73-2.68,3.85-3.9,3.85Zm5.91-53.2c0,2-.52,3.78-1.43,3.78s-1.41-1.75-1.41-3.78.6-3.85,1.46-3.85S999,487.38,999,489.54Z"/><path d="M1003.74,517.12c0,8.33,2,11.76,4.32,11.76a4.37,4.37,0,0,0,3.49-1.75l.39,4.41a5.41,5.41,0,0,1-4.19,2.1c-3.88,0-6.19-6.86-6.19-17.08s2.23-18.27,5.9-18.27c4.11,0,5.21,9.73,5.21,16,0,1.26-.06,2.24-.08,2.87Zm6.71-4.41c0-3.92-.59-10-3.17-10-2.32,0-3.33,5.74-3.51,10Z"/><path d="M1015.5,483.25h2.29v49.69h-2.29Z"/><path d="M1021.2,529.37c0-2.52.65-4.34,1.54-4.34s1.53,1.82,1.53,4.34-.6,4.34-1.53,4.34S1021.2,531.82,1021.2,529.37Zm.65-10-.36-33.6h2.5l-.37,33.6Z"/></svg>
