<svg xmlns="http://www.w3.org/2000/svg" xmlns:xlink="http://www.w3.org/1999/xlink" width="1600" height="900" viewBox="0 0 1600 900"><defs><style>.cls-1{fill:none;}.cls-2{fill:#51688f;}.cls-3{fill:#e1e3e6;}.cls-4{clip-path:url(#clip-path);}.cls-5{fill:#191715;}.cls-6{opacity:0.4;}.cls-7{clip-path:url(#clip-path-2);}</style><clipPath id="clip-path"><rect class="cls-1" x="891" y="-921" width="1599" height="900"/></clipPath><clipPath id="clip-path-2"><path class="cls-1" d="M1500.5-510.21c1.72-95.4,2.78-108.88,10.43-130.55,17.69-50.11,48.62-81.75,68.81-102.42,21.69-22.19,58.65-59.15,117.09-76.79,26.9-8.11,63.8-19.25,105-3.53,44.62,17,66.4,54.83,73.23,67.1,17.18,30.84,19.38,59,22.94,104.69a436,436,0,0,1-1.9,88.29c-2,15.25-2.85,15.42-23.88,98.77-13.51,53.55-15.15,61.44-24,73.71-6.35,8.83-14.06,16.63-58.52,44.66-54.71,34.49-52,28.3-70.9,42.72-24.24,18.45-20.1,22-75.8,79.06-33,33.83-30.53,28.52-50.23,50.13s-30.42,35.93-52.06,53.09c-22.33,17.7-34.63,27.45-43.47,23.35-14.72-6.81-7.43-46.23-2.85-124.74.43-7.32,1.36-40.27,3.2-106.18C1499.3-388.29,1498.62-405.52,1500.5-510.21Z"/></clipPath></defs><title>luk_knap</title><g id="Lag_2" data-name="Lag 2"><g id="luk_knap"><rect class="cls-2" x="730" y="259" width="186" height="163" rx="12"/><rect class="cls-3" x="804.22" y="270.69" width="27.76" height="144.42" rx="12" transform="translate(15.3 720.24) rotate(-47.92)"/><rect class="cls-3" x="804.22" y="270.69" width="27.76" height="144.42" rx="12" transform="translate(1111.93 1179.89) rotate(-132.08)"/></g><g class="cls-4"><rect class="cls-5" x="880" y="-79" width="1610" height="89" rx="12"/></g><g class="cls-6"><g class="cls-7"><image width="754" height="1146" transform="translate(1276 -1013)" xlink:href="luk_knap1.png"/></g></g></g></svg>
