<svg id="Lag_2" data-name="Lag 2" xmlns="http://www.w3.org/2000/svg" width="1600" height="900" viewBox="0 0 1600 900"><defs><style>.cls-1{opacity:0.85;}.cls-2{fill:#f1e94f;}.cls-3{fill:#191715;}</style></defs><title>play</title><g class="cls-1"><ellipse class="cls-2" cx="712.5" cy="370" rx="258.7" ry="266.42"/><path d="M712.5,642c-70.27,0-136.37-28.21-186.11-79.44a271.67,271.67,0,0,1-56.59-86.45,281.06,281.06,0,0,1,0-212.22,271.67,271.67,0,0,1,56.59-86.45C576.13,126.21,642.23,98,712.5,98s136.37,28.21,186.11,79.44a271.67,271.67,0,0,1,56.59,86.45,281.06,281.06,0,0,1,0,212.22,271.67,271.67,0,0,1-56.59,86.45C848.87,613.79,782.77,642,712.5,642Zm0-532.83c-67.93,0-131.76,27.21-179.74,76.62C484.94,235,458.61,300.46,458.61,370s26.33,135,74.15,184.21c48,49.41,111.81,76.62,179.74,76.62s131.76-27.21,179.74-76.62C940.06,505,966.39,439.54,966.39,370s-26.33-135-74.15-184.21C844.26,136.38,780.43,109.17,712.5,109.17Z"/><polygon class="cls-3" points="615.3 460.81 619.37 374.88 623.44 288.95 747.36 338.49 871.29 388.03 743.29 424.42 615.3 460.81"/></g></svg>
