<svg id="Lag_2" data-name="Lag 2" xmlns="http://www.w3.org/2000/svg" width="1600" height="900" viewBox="0 0 1600 900"><defs><style>.cls-1{fill:none;}</style></defs><title>settings_button</title><g id="settings_button"><path d="M516.43,506.76a109,109,0,0,1-76.65-31.18,107.54,107.54,0,0,1-23.61-34.33,107.37,107.37,0,0,1,0-84.91A107.61,107.61,0,0,1,439.78,322a109.8,109.8,0,0,1,153.3,0,107.61,107.61,0,0,1,23.61,34.32,107.37,107.37,0,0,1,0,84.91,107.54,107.54,0,0,1-23.61,34.33A109,109,0,0,1,516.43,506.76Zm0-177.7c-40,0-72.49,31.28-72.49,69.74s32.52,69.74,72.49,69.74,72.49-31.28,72.49-69.74S556.4,329.06,516.43,329.06Z"/><rect x="495.28" y="262.71" width="42.1" height="57.34" rx="12" transform="translate(807.71 -224.94) rotate(90)"/><path d="M566,319.4,587.05,295a4.26,4.26,0,0,1,6.19-.32l36,34.08a4.75,4.75,0,0,1,.31,6.48l-21.1,24.42a4.26,4.26,0,0,1-6.19.33l-36-34.09A4.74,4.74,0,0,1,566,319.4Z"/><path d="M412.63,392.76l-30.07,9.7a4.63,4.63,0,0,0-2.9,5.73L394,456.76a4.37,4.37,0,0,0,5.48,3l30.07-9.7a4.64,4.64,0,0,0,2.9-5.73L418.1,395.8A4.36,4.36,0,0,0,412.63,392.76Z"/><path d="M436.6,294l23.34,22.08a4.75,4.75,0,0,1,.31,6.48l-32.57,37.7a4.26,4.26,0,0,1-6.19.33l-23.34-22.08a4.76,4.76,0,0,1-.32-6.48l32.58-37.7A4.26,4.26,0,0,1,436.6,294Z"/><path d="M617.36,385.12l30.49,8.14a4.61,4.61,0,0,1,3.16,5.57l-12,49.25a4.38,4.38,0,0,1-5.33,3.31l-30.49-8.14a4.6,4.6,0,0,1-3.16-5.57l12-49.25A4.39,4.39,0,0,1,617.36,385.12Z"/><path d="M585.86,462.63,603,490.25a4.73,4.73,0,0,1-1.29,6.34L561,524.26a4.27,4.27,0,0,1-6.06-1.34L537.76,495.3a4.73,4.73,0,0,1,1.29-6.34l40.74-27.68A4.3,4.3,0,0,1,585.86,462.63Z"/><path d="M437.55,505.9,445.32,474a4.39,4.39,0,0,1,5.33-3.31l47.07,12.57a4.61,4.61,0,0,1,3.16,5.57l-7.78,31.91a4.38,4.38,0,0,1-5.33,3.31l-47.06-12.57A4.6,4.6,0,0,1,437.55,505.9Z"/><ellipse class="cls-1" cx="516.43" cy="398.86" rx="55.33" ry="54.17"/><path d="M725.45,473.41H713V376.86h12.46Z"/><path d="M756.07,415.06a39.12,39.12,0,0,1,4.5-4.51,28.8,28.8,0,0,1,5-3.47,24.72,24.72,0,0,1,5.65-2.23,25.92,25.92,0,0,1,6.45-.77,22.64,22.64,0,0,1,9.41,1.85,18.38,18.38,0,0,1,6.8,5.26,23.45,23.45,0,0,1,4.14,8.18A37.35,37.35,0,0,1,799.48,430v43.46H788V430q0-7.74-3.37-12t-10.24-4.27a18.47,18.47,0,0,0-9.47,2.56,31.38,31.38,0,0,0-8.12,6.94v50.26H745.29V405.16h6.87a2.85,2.85,0,0,1,3,2.49Z"/><path d="M854.82,416.41a2.5,2.5,0,0,1-2.37,1.48,4.38,4.38,0,0,1-2.19-.74c-.81-.49-1.81-1-3-1.65a27.25,27.25,0,0,0-4.21-1.69,19.36,19.36,0,0,0-5.78-.77,16.52,16.52,0,0,0-5.2.77,12.44,12.44,0,0,0-4,2.13,9.24,9.24,0,0,0-2.5,3.13,8.71,8.71,0,0,0-.87,3.87,6.59,6.59,0,0,0,1.45,4.38,12.61,12.61,0,0,0,3.82,3,32.48,32.48,0,0,0,5.39,2.25q3,1,6.2,2.09t6.19,2.46a22.46,22.46,0,0,1,5.4,3.37,15.5,15.5,0,0,1,3.82,5,15.84,15.84,0,0,1,1.44,7,23.25,23.25,0,0,1-1.6,8.73,19.2,19.2,0,0,1-4.75,6.94,22.72,22.72,0,0,1-7.71,4.61,30.13,30.13,0,0,1-10.53,1.69,31.47,31.47,0,0,1-12.33-2.33,30.94,30.94,0,0,1-9.37-6l2.7-4.58a4,4,0,0,1,1.22-1.35,3.17,3.17,0,0,1,1.79-.47,4.15,4.15,0,0,1,2.44.94c.86.63,1.9,1.33,3.12,2.09a22.69,22.69,0,0,0,4.46,2.09,19.57,19.57,0,0,0,6.55.94,17,17,0,0,0,5.84-.91,12,12,0,0,0,4.17-2.45,9.8,9.8,0,0,0,2.48-3.58,11.63,11.63,0,0,0,.8-4.31,7.34,7.34,0,0,0-1.45-4.68,12.2,12.2,0,0,0-3.82-3.17,30.56,30.56,0,0,0-5.42-2.29c-2-.65-4.11-1.34-6.23-2.05s-4.19-1.54-6.23-2.46a21.74,21.74,0,0,1-5.42-3.47,15.55,15.55,0,0,1-3.82-5.16,17.23,17.23,0,0,1-1.45-7.44,19.09,19.09,0,0,1,1.54-7.52A18.45,18.45,0,0,1,820,410a21.89,21.89,0,0,1,7.25-4.35,28,28,0,0,1,9.83-1.61,29.83,29.83,0,0,1,11.52,2.12,27.08,27.08,0,0,1,8.83,5.83Z"/><path d="M932.9,473.41H921.47V415.19H888v41c0,2.88.67,5,2,6.4a6.76,6.76,0,0,0,5.14,2.09,8.78,8.78,0,0,0,3.11-.5,12.75,12.75,0,0,0,2.28-1.12c.64-.4,1.19-.77,1.64-1.11a2,2,0,0,1,1.19-.5,2,2,0,0,1,1.6,1.14l3.34,5.73a21.11,21.11,0,0,1-7.13,4.55,23.19,23.19,0,0,1-8.6,1.65c-5.14,0-9.08-1.51-11.85-4.52s-4.14-7.34-4.14-13V415.19h-7.83a2.47,2.47,0,0,1-1.73-.64,2.53,2.53,0,0,1-.71-2v-4.79l10.66-1.48,2.63-21a2.94,2.94,0,0,1,.87-1.65,2.44,2.44,0,0,1,1.76-.64H888V406.5H932.9Zm2.82-90.15a8,8,0,0,1-.67,3.27,9.05,9.05,0,0,1-1.8,2.66,8.77,8.77,0,0,1-2.6,1.82,7.49,7.49,0,0,1-3.15.67,7.24,7.24,0,0,1-3.11-.67,8.51,8.51,0,0,1-2.54-1.82,9,9,0,0,1-1.73-2.66,8.29,8.29,0,0,1-.64-3.27,8.78,8.78,0,0,1,.64-3.34,9.29,9.29,0,0,1,1.73-2.76,8.1,8.1,0,0,1,2.54-1.85,7.25,7.25,0,0,1,3.11-.68,7.49,7.49,0,0,1,3.15.68,8.35,8.35,0,0,1,2.6,1.85,9.27,9.27,0,0,1,1.8,2.76A8.44,8.44,0,0,1,935.72,383.26Z"/><path d="M963.46,374.16v99.25H952V374.16Z"/><path d="M993.76,374.16v99.25H982.33V374.16Z"/><path d="M1026.76,383.73a7.94,7.94,0,0,1-.67,3.27,9.33,9.33,0,0,1-1.8,2.69,8,8,0,0,1-2.63,1.85,7.73,7.73,0,0,1-3.18.68,7.25,7.25,0,0,1-3.11-.68,8,8,0,0,1-2.54-1.85,9.12,9.12,0,0,1-1.73-2.69,8.26,8.26,0,0,1-.64-3.27,8.78,8.78,0,0,1,.64-3.34,9.09,9.09,0,0,1,1.73-2.76,8.26,8.26,0,0,1,2.54-1.85,7.25,7.25,0,0,1,3.11-.68,7.73,7.73,0,0,1,3.18.68,8.29,8.29,0,0,1,2.63,1.85,9.27,9.27,0,0,1,1.8,2.76A8.44,8.44,0,0,1,1026.76,383.73Zm-2.44,21.43v68.25H1012.9V405.16Z"/><path d="M1053.86,415.06a39,39,0,0,1,4.49-4.51,29.56,29.56,0,0,1,5-3.47,24.9,24.9,0,0,1,5.65-2.23,25.94,25.94,0,0,1,6.46-.77,22.59,22.59,0,0,1,9.4,1.85,18.33,18.33,0,0,1,6.81,5.26,23.45,23.45,0,0,1,4.14,8.18,37.36,37.36,0,0,1,1.41,10.58v43.46h-11.49V430q0-7.74-3.37-12t-10.24-4.27a18.47,18.47,0,0,0-9.47,2.56,31.42,31.42,0,0,0-8.13,6.94v50.26h-11.49V405.16h6.87a2.85,2.85,0,0,1,3,2.49Z"/><path d="M1169.62,407.85v4.45c0,1.48-.9,2.42-2.69,2.83l-7.39,1a23.27,23.27,0,0,1,.36,18.9,20.63,20.63,0,0,1-5,7,22.15,22.15,0,0,1-7.71,4.45,29.85,29.85,0,0,1-9.76,1.55,31.13,31.13,0,0,1-8.6-1.15,11.85,11.85,0,0,0-3.15,2.87,5.18,5.18,0,0,0-1.09,3.06,4.11,4.11,0,0,0,1.89,3.67,13.1,13.1,0,0,0,5,1.79,51.22,51.22,0,0,0,7,.67q3.94.13,8.09.44a70.65,70.65,0,0,1,8.09,1.05,23.61,23.61,0,0,1,7,2.42,13.55,13.55,0,0,1,5,4.65,14.09,14.09,0,0,1,1.89,7.68,18.43,18.43,0,0,1-2.09,8.49,22.65,22.65,0,0,1-6,7.31,30.22,30.22,0,0,1-9.6,5.12A39.9,39.9,0,0,1,1138,498a46.61,46.61,0,0,1-12.45-1.48,28.5,28.5,0,0,1-8.86-4,17.12,17.12,0,0,1-5.3-5.76,14.18,14.18,0,0,1-1.77-6.84,12.67,12.67,0,0,1,3-8.56,20.7,20.7,0,0,1,8.28-5.59,12,12,0,0,1-4.59-3.61,9.93,9.93,0,0,1-1.7-6.1,9.69,9.69,0,0,1,.52-3.06,12.63,12.63,0,0,1,1.57-3.17,16.7,16.7,0,0,1,6.19-5.49,20.49,20.49,0,0,1-7.51-7.51,21.39,21.39,0,0,1-2.69-10.88,21.91,21.91,0,0,1,1.83-9.07,20.06,20.06,0,0,1,5.1-6.94,22.9,22.9,0,0,1,7.8-4.41,32.44,32.44,0,0,1,17.82-.57,24.37,24.37,0,0,1,6.68,2.86ZM1158,477.12a6,6,0,0,0-1.35-4.05,9,9,0,0,0-3.62-2.42,22.31,22.31,0,0,0-5.3-1.25q-3-.37-6.39-.57l-6.84-.41q-3.46-.19-6.68-.67a18.09,18.09,0,0,0-5.87,4.41,9.29,9.29,0,0,0-2.28,6.24,8.51,8.51,0,0,0,1.12,4.27,9.83,9.83,0,0,0,3.44,3.44,19.4,19.4,0,0,0,5.81,2.29,40.38,40.38,0,0,0,16.53,0,20.59,20.59,0,0,0,6.2-2.49,11.89,11.89,0,0,0,3.88-3.85A9.28,9.28,0,0,0,1158,477.12Zm-20.61-37.06a17,17,0,0,0,6.1-1,12.44,12.44,0,0,0,4.43-2.83,11.67,11.67,0,0,0,2.7-4.35,16.46,16.46,0,0,0,.9-5.56q0-6.27-3.63-10t-10.5-3.71q-6.93,0-10.56,3.71t-3.63,10a16,16,0,0,0,.93,5.56,12,12,0,0,0,2.73,4.35,12.53,12.53,0,0,0,4.43,2.83A17.07,17.07,0,0,0,1137.39,440.06Z"/><path d="M1233.25,463.84a22.06,22.06,0,0,1-5.07,4.69,31,31,0,0,1-6.33,3.26,37.53,37.53,0,0,1-7,1.92,40.38,40.38,0,0,1-7.13.64,31.57,31.57,0,0,1-12.42-2.39,27.17,27.17,0,0,1-9.83-7,32.41,32.41,0,0,1-6.45-11.42,48.5,48.5,0,0,1-2.31-15.63,41.3,41.3,0,0,1,2.09-13.34,31.93,31.93,0,0,1,6-10.75,27.7,27.7,0,0,1,9.57-7.14,30.08,30.08,0,0,1,12.71-2.59,28.1,28.1,0,0,1,10.82,2.05,24.51,24.51,0,0,1,8.6,5.93,27.4,27.4,0,0,1,5.68,9.57,38.08,38.08,0,0,1,2.06,13,8.07,8.07,0,0,1-.58,3.77,2.35,2.35,0,0,1-2.18.95h-43.47a41.62,41.62,0,0,0,1.7,11.25,22.91,22.91,0,0,0,4.21,8,16.89,16.89,0,0,0,6.42,4.79,21.2,21.2,0,0,0,8.34,1.58,23.64,23.64,0,0,0,7.42-1,34.45,34.45,0,0,0,5.36-2.26,40.32,40.32,0,0,0,3.76-2.26,4.85,4.85,0,0,1,2.6-1,2.47,2.47,0,0,1,2.18,1.14Zm-9.24-32a24.67,24.67,0,0,0-1.13-7.65,17.57,17.57,0,0,0-3.27-6,14.7,14.7,0,0,0-5.24-3.9,16.9,16.9,0,0,0-7-1.39q-8.22,0-13,5t-5.94,13.92Z"/><path d="M1259.13,418.83a30.79,30.79,0,0,1,7.57-10.95,16.12,16.12,0,0,1,11-3.94,16.5,16.5,0,0,1,4,.47,10.31,10.31,0,0,1,3.37,1.49l-.83,9a1.87,1.87,0,0,1-1.93,1.68,12.49,12.49,0,0,1-2.63-.4,17.29,17.29,0,0,0-3.92-.41,15,15,0,0,0-5.49.95,12.85,12.85,0,0,0-4.3,2.79,19.84,19.84,0,0,0-3.4,4.58,39.48,39.48,0,0,0-2.73,6.24v43.12h-11.49V405.16h6.54a3.46,3.46,0,0,1,2.57.74,4.7,4.7,0,0,1,1,2.56Z"/></g></svg>
