<svg id="Lag_2" data-name="Lag 2" xmlns="http://www.w3.org/2000/svg" width="1600" height="900" viewBox="0 0 1600 900"><defs><style>.cls-1{fill:none;}</style></defs><title>settings</title><g id="settings_button"><path d="M692.5,787c-79.11,0-153.64-29-209.88-81.59A281.21,281.21,0,0,1,418,615.6a269.46,269.46,0,0,1,0-222.2,281.21,281.21,0,0,1,64.65-89.81C538.86,251,613.39,222,692.5,222s153.64,29,209.88,81.59A281.21,281.21,0,0,1,967,393.4a269.46,269.46,0,0,1,0,222.2,281.21,281.21,0,0,1-64.65,89.81C846.14,758,771.61,787,692.5,787Zm0-465C583.05,322,494,403.87,494,504.5S583.05,687,692.5,687,891,605.13,891,504.5,802,322,692.5,322Z"/><rect x="637.14" y="146.91" width="110.16" height="157" rx="12" transform="translate(917.63 -466.8) rotate(90)"/><rect x="859.14" y="238.91" width="110.16" height="157" rx="12" transform="translate(1762.77 -147.87) rotate(132.12)"/><rect x="335.14" y="497.91" width="110.16" height="157" rx="12" transform="translate(-152.45 140.48) rotate(-17.13)"/><rect x="398.14" y="238.91" width="110.16" height="157" rx="12" transform="translate(576.54 856.81) rotate(-137.88)"/><rect x="920.14" y="476.91" width="110.16" height="157" rx="12" transform="translate(1782.9 1334.63) rotate(-165.69)"/><rect x="800.14" y="647.91" width="110.16" height="157" rx="12" transform="translate(711.53 1839.26) rotate(-122.99)"/><rect x="538.14" y="683.91" width="110.16" height="157" rx="12" transform="translate(1478.59 376.04) rotate(104.31)"/><ellipse class="cls-1" cx="692.5" cy="504.66" rx="151.5" ry="141.75"/></g></svg>
