<svg id="Lag_2" data-name="Lag 2" xmlns="http://www.w3.org/2000/svg" width="1600" height="900" viewBox="0 0 1600 900"><defs><style>.cls-1{fill:#e1e3e6;}.cls-2{fill:#51688f;}</style></defs><title>settings_skearm</title><g id="settings_skearm"><rect class="cls-1" x="270" y="106" width="1026" height="688" rx="12"/><rect class="cls-2" x="354" y="343" width="310" height="164" rx="12"/><path d="M454.14,394.54v70.89h-8V413.34c0-.69,0-1.43.07-2.23s.1-1.6.17-2.42L423.14,453a3.5,3.5,0,0,1-3.3,2.22h-1.32a3.52,3.52,0,0,1-3.31-2.22l-23.68-44.53a47.87,47.87,0,0,1,.28,4.85v52.09h-8V394.54h6.75a5.46,5.46,0,0,1,1.88.25,2.8,2.8,0,0,1,1.28,1.38l23.35,43.64c.38.79.75,1.61,1.11,2.47s.7,1.73,1,2.62q.46-1.33,1-2.64a24.89,24.89,0,0,1,1.13-2.5l22.93-43.59a2.6,2.6,0,0,1,1.25-1.38,5.75,5.75,0,0,1,1.92-.25Z"/><path d="M507.89,415.32v50.11h-5a2.17,2.17,0,0,1-2.27-1.83l-.66-5.39a26.21,26.21,0,0,1-7,5.81,17.61,17.61,0,0,1-8.87,2.21,16.64,16.64,0,0,1-6.91-1.36,13.77,13.77,0,0,1-5-3.84,16.45,16.45,0,0,1-3-6,27.71,27.71,0,0,1-1-7.76v-32h8.4v32c0,3.79.83,6.73,2.48,8.8s4.18,3.12,7.57,3.12a13.79,13.79,0,0,0,7-1.85,22.39,22.39,0,0,0,6-5.12V415.32Z"/><path d="M549,423.58a1.85,1.85,0,0,1-1.75,1.09,3.12,3.12,0,0,1-1.6-.55c-.6-.36-1.33-.76-2.2-1.21a20.26,20.26,0,0,0-3.09-1.23,14,14,0,0,0-4.24-.57,12,12,0,0,0-3.83.57,9.22,9.22,0,0,0-2.9,1.55,6.9,6.9,0,0,0-1.84,2.31,6.46,6.46,0,0,0-.64,2.84A4.89,4.89,0,0,0,528,431.6a9.2,9.2,0,0,0,2.8,2.22,23.94,23.94,0,0,0,4,1.66c1.48.48,3,1,4.55,1.53s3.08,1.15,4.56,1.81a16.63,16.63,0,0,1,4,2.47,11.28,11.28,0,0,1,2.81,3.64,11.68,11.68,0,0,1,1.06,5.17,17.14,17.14,0,0,1-1.18,6.4,14,14,0,0,1-3.49,5.1,16.47,16.47,0,0,1-5.67,3.39,22.34,22.34,0,0,1-7.73,1.24,23.08,23.08,0,0,1-9.06-1.71,22.71,22.71,0,0,1-6.89-4.38l2-3.36a3,3,0,0,1,.89-1,2.37,2.37,0,0,1,1.33-.35,3.09,3.09,0,0,1,1.79.69c.63.47,1.39,1,2.29,1.54a16.79,16.79,0,0,0,3.28,1.53,14.44,14.44,0,0,0,4.81.69,12.64,12.64,0,0,0,4.29-.66,9,9,0,0,0,3.07-1.81,7.21,7.21,0,0,0,1.82-2.62,8.59,8.59,0,0,0,.59-3.17,5.49,5.49,0,0,0-1.06-3.44,9.17,9.17,0,0,0-2.81-2.32,23,23,0,0,0-4-1.68q-2.24-.72-4.58-1.51c-1.55-.53-3.08-1.13-4.57-1.81a15.45,15.45,0,0,1-4-2.55,11.54,11.54,0,0,1-2.81-3.78,12.71,12.71,0,0,1-1.06-5.47,13.93,13.93,0,0,1,1.13-5.51,13.44,13.44,0,0,1,3.31-4.65,16.08,16.08,0,0,1,5.33-3.2,20.44,20.44,0,0,1,7.22-1.18,21.89,21.89,0,0,1,8.47,1.56,19.78,19.78,0,0,1,6.49,4.28Z"/><path d="M572.73,399.59a5.86,5.86,0,0,1-.5,2.4,6.81,6.81,0,0,1-1.32,2,6.12,6.12,0,0,1-1.93,1.37,5.68,5.68,0,0,1-2.34.49,5.35,5.35,0,0,1-2.29-.49,5.83,5.83,0,0,1-1.86-1.37,6.69,6.69,0,0,1-1.28-2,6.19,6.19,0,0,1-.47-2.4,6.51,6.51,0,0,1,.47-2.45,6.61,6.61,0,0,1,1.28-2,5.8,5.8,0,0,1,1.86-1.36,5.36,5.36,0,0,1,2.29-.5,5.69,5.69,0,0,1,2.34.5,6.09,6.09,0,0,1,1.93,1.36,6.71,6.71,0,0,1,1.32,2A6.17,6.17,0,0,1,572.73,399.59Zm-1.8,15.73v50.11h-8.4V415.32Z"/><path d="M593.16,392.56v42.89h2.17a4.07,4.07,0,0,0,1.58-.27,3.86,3.86,0,0,0,1.34-1.11l15.1-17a5.68,5.68,0,0,1,1.4-1.31,3.58,3.58,0,0,1,2-.47h7.6L606.7,435a10.68,10.68,0,0,1-2.74,2.62,9.09,9.09,0,0,1,1.54,1.36,12.32,12.32,0,0,1,1.29,1.76l18.69,24.73H618a4.27,4.27,0,0,1-1.87-.37,3.19,3.19,0,0,1-1.34-1.36l-15.71-20.53a3.92,3.92,0,0,0-1.4-1.36,5.23,5.23,0,0,0-2.1-.32h-2.4v23.94h-8.45V392.56Z"/><rect class="cls-2" x="354" y="556" width="310" height="164" rx="12"/><path d="M392.63,653.3v6.54H368.44V602.37h5.75V653.3Z"/><path d="M418.18,619.21l-16.8,52.62a4,4,0,0,1-.67,1.28,1.5,1.5,0,0,1-1.24.49h-3.92l5.5-16.13-12.44-38.26h4.59a1.39,1.39,0,0,1,1.08.46,2.52,2.52,0,0,1,.55,1l8.06,25.58c.32,1.13.59,2.3.81,3.53.27-1.25.57-2.44.89-3.57l7.82-25.54a2.46,2.46,0,0,1,.61-1.07,1.36,1.36,0,0,1,1-.42Z"/><path d="M447,600.77v59.07H443.8c-.76,0-1.23-.49-1.43-1.48l-.48-4.94a18.76,18.76,0,0,1-4.4,5.06,9,9,0,0,1-5.71,1.92,8.61,8.61,0,0,1-4.7-1.34,11,11,0,0,1-3.6-3.95,22.13,22.13,0,0,1-2.29-6.5,44.17,44.17,0,0,1-.8-8.94,36.83,36.83,0,0,1,.89-8.36,23.76,23.76,0,0,1,2.56-6.72,13.32,13.32,0,0,1,4.09-4.47,9.51,9.51,0,0,1,5.46-1.63,8.64,8.64,0,0,1,4.74,1.26,12.65,12.65,0,0,1,3.53,3.51V600.77Zm-5.29,28.11a10,10,0,0,0-3.22-3.75,7.2,7.2,0,0,0-3.86-1.06,7.07,7.07,0,0,0-6.46,4q-2.26,4.05-2.26,11.55a38.85,38.85,0,0,0,.51,6.79,15.68,15.68,0,0,0,1.48,4.66,6.69,6.69,0,0,0,2.41,2.66,6.21,6.21,0,0,0,3.25.85,7,7,0,0,0,4.56-1.61,15.71,15.71,0,0,0,3.59-4.53Z"/><path d="M479.79,654.14a11.54,11.54,0,0,1-2.35,2.79,13.35,13.35,0,0,1-2.93,2,14.54,14.54,0,0,1-3.22,1.14,15,15,0,0,1-3.31.38,11.86,11.86,0,0,1-5.75-1.42,13.22,13.22,0,0,1-4.55-4.17,21.19,21.19,0,0,1-3-6.8,36.24,36.24,0,0,1-1.07-9.3,31.49,31.49,0,0,1,1-8,21,21,0,0,1,2.78-6.39,13.61,13.61,0,0,1,4.44-4.25,11.34,11.34,0,0,1,5.89-1.55,10.6,10.6,0,0,1,5,1.22,11.82,11.82,0,0,1,4,3.53,17.9,17.9,0,0,1,2.63,5.7,28.77,28.77,0,0,1,.95,7.72A6.11,6.11,0,0,1,480,639a1,1,0,0,1-1,.56H458.85a31.09,31.09,0,0,0,.79,6.69,15.46,15.46,0,0,0,1.95,4.76,8.26,8.26,0,0,0,3,2.84,7.92,7.92,0,0,0,3.87.95,8.77,8.77,0,0,0,3.44-.62,14.61,14.61,0,0,0,2.48-1.35,20.31,20.31,0,0,0,1.74-1.34,2,2,0,0,1,1.21-.62,1.1,1.1,0,0,1,1,.68Zm-4.28-19a18.55,18.55,0,0,0-.52-4.56,11.59,11.59,0,0,0-1.52-3.57,7.22,7.22,0,0,0-2.42-2.32,6.34,6.34,0,0,0-3.24-.82,7.11,7.11,0,0,0-6,3A16.61,16.61,0,0,0,459,635.1Z"/><path d="M488.42,659.84V625.31l-3.33-.52a2.38,2.38,0,0,1-1-.62,1.75,1.75,0,0,1-.4-1.23V620h4.76v-3.33a24.2,24.2,0,0,1,.73-6.2,14,14,0,0,1,2.08-4.57,9.14,9.14,0,0,1,3.26-2.83,9.4,9.4,0,0,1,4.29-1,8.64,8.64,0,0,1,3.71.8l-.11,3.61c-.05.64-.31,1-.79,1a17.13,17.13,0,0,1-1.95.08,6.65,6.65,0,0,0-2.49.46,4.56,4.56,0,0,0-1.91,1.55,7.86,7.86,0,0,0-1.24,2.87,18.87,18.87,0,0,0-.43,4.39V620h13.59v-4.38a24.12,24.12,0,0,1,.73-6.19,13.68,13.68,0,0,1,2.09-4.57,8.93,8.93,0,0,1,3.25-2.83,9.4,9.4,0,0,1,4.29-1,8.63,8.63,0,0,1,3.72.8l-.12,3.57c0,.64-.31,1-.79,1s-1.14.08-2,.08a6.2,6.2,0,0,0-2.48.48,4.57,4.57,0,0,0-1.92,1.57,7.86,7.86,0,0,0-1.24,2.84,19.24,19.24,0,0,0-.43,4.37V620H521v5.17h-8.51v34.65h-5.33V625.19H493.75v34.65Z"/><path d="M549.53,654.14a12,12,0,0,1-2.35,2.79,13.59,13.59,0,0,1-2.93,2A14.62,14.62,0,0,1,541,660a15,15,0,0,1-3.3.38A11.9,11.9,0,0,1,532,659a13.31,13.31,0,0,1-4.55-4.17,21.19,21.19,0,0,1-3-6.8,36.69,36.69,0,0,1-1.07-9.3,31,31,0,0,1,1-8,20.71,20.71,0,0,1,2.78-6.39,13.58,13.58,0,0,1,4.43-4.25,11.36,11.36,0,0,1,5.89-1.55,10.57,10.57,0,0,1,5,1.22,11.82,11.82,0,0,1,4,3.53,17.68,17.68,0,0,1,2.63,5.7,28.37,28.37,0,0,1,1,7.72,6.41,6.41,0,0,1-.26,2.25,1,1,0,0,1-1,.56H528.58a31.73,31.73,0,0,0,.79,6.69,15.46,15.46,0,0,0,2,4.76,8.29,8.29,0,0,0,3,2.84,7.91,7.91,0,0,0,3.86.95,8.74,8.74,0,0,0,3.44-.62,14.61,14.61,0,0,0,2.48-1.35,17.58,17.58,0,0,0,1.74-1.34,2,2,0,0,1,1.21-.62,1.1,1.1,0,0,1,1,.68Zm-4.29-19a18.55,18.55,0,0,0-.52-4.56,11.58,11.58,0,0,0-1.51-3.57,7.34,7.34,0,0,0-2.43-2.32,6.34,6.34,0,0,0-3.24-.82,7.11,7.11,0,0,0-6,3,16.71,16.71,0,0,0-2.75,8.29Z"/><path d="M561.81,600.77v34.77h1.37a2.14,2.14,0,0,0,1-.22,2.7,2.7,0,0,0,.85-.91l9.52-13.75a4.25,4.25,0,0,1,.87-1.07,1.91,1.91,0,0,1,1.24-.38h4.79l-11.1,15.93a8.09,8.09,0,0,1-1.72,2.12,6.37,6.37,0,0,1,1,1.1,10.57,10.57,0,0,1,.82,1.43l11.78,20.05h-4.73a2.19,2.19,0,0,1-1.17-.3,2.38,2.38,0,0,1-.85-1.1l-9.91-16.65a2.77,2.77,0,0,0-.87-1.1,2.69,2.69,0,0,0-1.33-.26h-1.52v19.41h-5.32V600.77Z"/><path d="M596,660.48a6.32,6.32,0,0,1-5.49-2.69q-1.92-2.68-1.92-7.74V625.19h-3.63a1,1,0,0,1-.8-.38,1.8,1.8,0,0,1-.33-1.19v-2.84l4.94-.84L590,607.38a2,2,0,0,1,.4-1,1,1,0,0,1,.82-.38h2.67v14h8.72v5.17h-8.72v24.38a6.36,6.36,0,0,0,.93,3.81,2.83,2.83,0,0,0,2.38,1.25,3.25,3.25,0,0,0,1.44-.3,6.23,6.23,0,0,0,1.06-.67c.29-.24.55-.46.75-.66a.89.89,0,0,1,.55-.3c.28,0,.53.23.75.68l1.54,3.41a9.92,9.92,0,0,1-3.3,2.71A8.76,8.76,0,0,1,596,660.48Z"/><path d="M632.35,654.14a11.77,11.77,0,0,1-2.35,2.79,13.59,13.59,0,0,1-2.93,2,14.62,14.62,0,0,1-3.23,1.14,15,15,0,0,1-3.3.38,11.93,11.93,0,0,1-5.76-1.42,13.31,13.31,0,0,1-4.55-4.17,21.41,21.41,0,0,1-3-6.8,36.69,36.69,0,0,1-1.07-9.3,31,31,0,0,1,1-8,20.71,20.71,0,0,1,2.78-6.39,13.68,13.68,0,0,1,4.43-4.25,11.39,11.39,0,0,1,5.89-1.55,10.55,10.55,0,0,1,5,1.22,11.82,11.82,0,0,1,4,3.53,17.68,17.68,0,0,1,2.63,5.7,28.36,28.36,0,0,1,1,7.72,6.11,6.11,0,0,1-.27,2.25,1,1,0,0,1-1,.56H611.41a31.78,31.78,0,0,0,.78,6.69,15.46,15.46,0,0,0,1.95,4.76,8.37,8.37,0,0,0,3,2.84,7.92,7.92,0,0,0,3.87.95,8.72,8.72,0,0,0,3.43-.62,15.13,15.13,0,0,0,2.49-1.35,20.31,20.31,0,0,0,1.74-1.34,1.92,1.92,0,0,1,1.2-.62,1.09,1.09,0,0,1,1,.68Zm-4.28-19a18.53,18.53,0,0,0-.53-4.56A11.58,11.58,0,0,0,626,627a7.25,7.25,0,0,0-2.43-2.32,6.34,6.34,0,0,0-3.24-.82,7.08,7.08,0,0,0-6,3,16.61,16.61,0,0,0-2.76,8.29Z"/><path d="M644.34,627.36a19,19,0,0,1,3.51-6.52,6.53,6.53,0,0,1,5.09-2.35,6.24,6.24,0,0,1,1.83.28,4.34,4.34,0,0,1,1.56.89l-.39,5.33c-.12.67-.42,1-.89,1a4.63,4.63,0,0,1-1.22-.24,6.37,6.37,0,0,0-1.82-.24,5.62,5.62,0,0,0-2.54.56,6,6,0,0,0-2,1.67,11.81,11.81,0,0,0-1.58,2.72,26.74,26.74,0,0,0-1.26,3.71v25.67h-5.33V619.21h3a1.39,1.39,0,0,1,1.19.45,3.35,3.35,0,0,1,.44,1.52Z"/><path d="M553.45,257.41H541V160.86h12.46Z"/><path d="M584.07,199.06a38.34,38.34,0,0,1,4.5-4.51,28.8,28.8,0,0,1,5-3.47,24.72,24.72,0,0,1,5.65-2.23,25.92,25.92,0,0,1,6.45-.77,22.64,22.64,0,0,1,9.41,1.85,18.38,18.38,0,0,1,6.8,5.26,23.45,23.45,0,0,1,4.14,8.18A37.35,37.35,0,0,1,627.48,214v43.46H616V214q0-7.74-3.37-12t-10.24-4.27a18.47,18.47,0,0,0-9.47,2.56,31.38,31.38,0,0,0-8.12,6.94v50.26H573.29V189.16h6.87a2.85,2.85,0,0,1,3,2.49Z"/><path d="M682.82,200.41a2.5,2.5,0,0,1-2.37,1.48,4.38,4.38,0,0,1-2.19-.74c-.81-.49-1.81-1.05-3-1.65a27.25,27.25,0,0,0-4.21-1.69,19.4,19.4,0,0,0-5.78-.77,16.52,16.52,0,0,0-5.2.77,12.44,12.44,0,0,0-4,2.13,9.24,9.24,0,0,0-2.5,3.13,8.71,8.71,0,0,0-.87,3.87,6.59,6.59,0,0,0,1.45,4.38,12.61,12.61,0,0,0,3.82,3,32.48,32.48,0,0,0,5.39,2.25q3,1,6.2,2.09t6.19,2.46a22.46,22.46,0,0,1,5.4,3.37,15.5,15.5,0,0,1,3.82,4.95,15.84,15.84,0,0,1,1.44,7,23.25,23.25,0,0,1-1.6,8.73,19.2,19.2,0,0,1-4.75,6.94,22.72,22.72,0,0,1-7.71,4.61,30.13,30.13,0,0,1-10.53,1.69,31.47,31.47,0,0,1-12.33-2.33,30.94,30.94,0,0,1-9.37-6l2.7-4.58a4,4,0,0,1,1.22-1.35,3.17,3.17,0,0,1,1.79-.47,4.15,4.15,0,0,1,2.44.94c.86.63,1.9,1.33,3.12,2.09a22.69,22.69,0,0,0,4.46,2.09,19.57,19.57,0,0,0,6.55.94,17,17,0,0,0,5.84-.91,12,12,0,0,0,4.17-2.45,9.8,9.8,0,0,0,2.48-3.58,11.63,11.63,0,0,0,.8-4.31,7.34,7.34,0,0,0-1.45-4.68,12.2,12.2,0,0,0-3.82-3.17,30.56,30.56,0,0,0-5.42-2.29c-2-.65-4.11-1.34-6.23-2.05s-4.19-1.54-6.23-2.46a21.74,21.74,0,0,1-5.42-3.47,15.55,15.55,0,0,1-3.82-5.16,17.23,17.23,0,0,1-1.45-7.44,19.09,19.09,0,0,1,1.54-7.52A18.45,18.45,0,0,1,648,194a21.89,21.89,0,0,1,7.25-4.35,28,28,0,0,1,9.83-1.61,29.83,29.83,0,0,1,11.52,2.12,27.08,27.08,0,0,1,8.83,5.83Z"/><path d="M760.9,257.41H749.47V199.19H716v41c0,2.88.67,5,2,6.4a6.76,6.76,0,0,0,5.14,2.09,8.78,8.78,0,0,0,3.11-.5,12.75,12.75,0,0,0,2.28-1.12c.64-.4,1.19-.77,1.64-1.11a2,2,0,0,1,1.19-.5,2,2,0,0,1,1.6,1.14l3.34,5.73a21.11,21.11,0,0,1-7.13,4.55,23.19,23.19,0,0,1-8.6,1.65q-7.71,0-11.84-4.52t-4.15-13V199.19h-7.83a2.47,2.47,0,0,1-1.73-.64,2.53,2.53,0,0,1-.71-2v-4.79l10.66-1.48,2.63-21a2.94,2.94,0,0,1,.87-1.65,2.44,2.44,0,0,1,1.76-.64H716V190.5H760.9Zm2.82-90.15a8,8,0,0,1-.67,3.27,9.05,9.05,0,0,1-1.8,2.66,8.77,8.77,0,0,1-2.6,1.82,7.49,7.49,0,0,1-3.15.67,7.24,7.24,0,0,1-3.11-.67,8.51,8.51,0,0,1-2.54-1.82,8.85,8.85,0,0,1-1.73-2.66,8.29,8.29,0,0,1-.64-3.27,8.78,8.78,0,0,1,.64-3.34,9.09,9.09,0,0,1,1.73-2.76,8.1,8.1,0,0,1,2.54-1.85,7.25,7.25,0,0,1,3.11-.68,7.49,7.49,0,0,1,3.15.68,8.35,8.35,0,0,1,2.6,1.85,9.27,9.27,0,0,1,1.8,2.76A8.44,8.44,0,0,1,763.72,167.26Z"/><path d="M791.46,158.16v99.25H780V158.16Z"/><path d="M821.76,158.16v99.25H810.33V158.16Z"/><path d="M854.76,167.73a7.94,7.94,0,0,1-.67,3.27,9.33,9.33,0,0,1-1.8,2.69,8,8,0,0,1-2.63,1.85,7.73,7.73,0,0,1-3.18.68,7.25,7.25,0,0,1-3.11-.68,7.84,7.84,0,0,1-2.54-1.85A9.12,9.12,0,0,1,839.1,171a8.26,8.26,0,0,1-.64-3.27,8.78,8.78,0,0,1,.64-3.34,9.09,9.09,0,0,1,1.73-2.76,8.14,8.14,0,0,1,2.54-1.85,7.25,7.25,0,0,1,3.11-.68,7.73,7.73,0,0,1,3.18.68,8.29,8.29,0,0,1,2.63,1.85,9.27,9.27,0,0,1,1.8,2.76A8.44,8.44,0,0,1,854.76,167.73Zm-2.44,21.43v68.25H840.9V189.16Z"/><path d="M881.86,199.06a39,39,0,0,1,4.49-4.51,29.56,29.56,0,0,1,5-3.47,24.9,24.9,0,0,1,5.65-2.23,25.94,25.94,0,0,1,6.46-.77,22.59,22.59,0,0,1,9.4,1.85,18.33,18.33,0,0,1,6.81,5.26,23.45,23.45,0,0,1,4.14,8.18A37.36,37.36,0,0,1,925.26,214v43.46H913.77V214q0-7.74-3.37-12t-10.24-4.27a18.47,18.47,0,0,0-9.47,2.56,31.42,31.42,0,0,0-8.13,6.94v50.26H871.07V189.16h6.87a2.85,2.85,0,0,1,3,2.49Z"/><path d="M997.62,191.85v4.45c0,1.48-.9,2.42-2.69,2.83l-7.39,1a23.27,23.27,0,0,1,.36,18.9,20.63,20.63,0,0,1-5,7,22.15,22.15,0,0,1-7.71,4.45,29.85,29.85,0,0,1-9.76,1.55,31.13,31.13,0,0,1-8.6-1.15,11.85,11.85,0,0,0-3.15,2.87,5.18,5.18,0,0,0-1.09,3.06,4.11,4.11,0,0,0,1.89,3.67,13.1,13.1,0,0,0,5,1.79,51.22,51.22,0,0,0,7,.67q3.94.14,8.09.44a70.65,70.65,0,0,1,8.09,1,23.61,23.61,0,0,1,7,2.42,13.55,13.55,0,0,1,5,4.65,14.09,14.09,0,0,1,1.89,7.68,18.55,18.55,0,0,1-2.09,8.49,22.65,22.65,0,0,1-6,7.31,30.22,30.22,0,0,1-9.6,5.12A39.9,39.9,0,0,1,966,282a46.61,46.61,0,0,1-12.45-1.48,28.5,28.5,0,0,1-8.86-4,17.12,17.12,0,0,1-5.3-5.76,14.18,14.18,0,0,1-1.77-6.84,12.67,12.67,0,0,1,3-8.56A20.7,20.7,0,0,1,949,249.8a12,12,0,0,1-4.59-3.61,9.93,9.93,0,0,1-1.7-6.1,9.69,9.69,0,0,1,.52-3.06,12.63,12.63,0,0,1,1.57-3.17,16.7,16.7,0,0,1,6.19-5.49,20.49,20.49,0,0,1-7.51-7.51A21.39,21.39,0,0,1,940.74,210a21.91,21.91,0,0,1,1.83-9.07,20.06,20.06,0,0,1,5.1-6.94,22.9,22.9,0,0,1,7.8-4.41,32.44,32.44,0,0,1,17.82-.57,24.37,24.37,0,0,1,6.68,2.86ZM986,261.12a6,6,0,0,0-1.35-4.05,9,9,0,0,0-3.62-2.42,22.31,22.31,0,0,0-5.3-1.25q-3-.37-6.39-.57l-6.84-.41q-3.46-.19-6.68-.67a18.09,18.09,0,0,0-5.87,4.41,9.29,9.29,0,0,0-2.28,6.24,8.51,8.51,0,0,0,1.12,4.27,9.83,9.83,0,0,0,3.44,3.44A19.4,19.4,0,0,0,958,272.4a40.38,40.38,0,0,0,16.53,0,20.59,20.59,0,0,0,6.2-2.49,11.89,11.89,0,0,0,3.88-3.85A9.28,9.28,0,0,0,986,261.12Zm-20.61-37.06a17,17,0,0,0,6.1-1,12.44,12.44,0,0,0,4.43-2.83,11.67,11.67,0,0,0,2.7-4.35,16.46,16.46,0,0,0,.9-5.56q0-6.27-3.63-10t-10.5-3.71q-6.93,0-10.56,3.71t-3.63,10a16,16,0,0,0,.93,5.56,12,12,0,0,0,2.73,4.35,12.53,12.53,0,0,0,4.43,2.83A17.07,17.07,0,0,0,965.39,224.06Z"/><path d="M1061.25,247.84a22.06,22.06,0,0,1-5.07,4.69,31,31,0,0,1-6.33,3.26,37.53,37.53,0,0,1-7,1.92,40.38,40.38,0,0,1-7.13.64,31.57,31.57,0,0,1-12.42-2.39,27.17,27.17,0,0,1-9.83-7,32.41,32.41,0,0,1-6.45-11.42,48.5,48.5,0,0,1-2.31-15.63,41.3,41.3,0,0,1,2.09-13.34,31.93,31.93,0,0,1,6-10.75,27.7,27.7,0,0,1,9.57-7.14,30.08,30.08,0,0,1,12.71-2.59,28.1,28.1,0,0,1,10.82,2,24.51,24.51,0,0,1,8.6,5.93,27.4,27.4,0,0,1,5.68,9.57,38.08,38.08,0,0,1,2.06,13,8.07,8.07,0,0,1-.58,3.77,2.35,2.35,0,0,1-2.18.95h-43.47a41.62,41.62,0,0,0,1.7,11.25,22.91,22.91,0,0,0,4.21,8,16.89,16.89,0,0,0,6.42,4.79,21.2,21.2,0,0,0,8.34,1.58,23.64,23.64,0,0,0,7.42-1,34.45,34.45,0,0,0,5.36-2.26,40.32,40.32,0,0,0,3.76-2.26,4.85,4.85,0,0,1,2.6-1,2.47,2.47,0,0,1,2.18,1.14Zm-9.25-32a24.67,24.67,0,0,0-1.12-7.65,17.57,17.57,0,0,0-3.27-6,14.7,14.7,0,0,0-5.24-3.9,16.9,16.9,0,0,0-7-1.39q-8.22,0-13,5t-5.94,13.92Z"/><path d="M1087.13,202.83a30.79,30.79,0,0,1,7.57-11,16.12,16.12,0,0,1,11-3.94,16.5,16.5,0,0,1,4,.47,10.31,10.31,0,0,1,3.37,1.49l-.83,9a1.87,1.87,0,0,1-1.93,1.68,12.49,12.49,0,0,1-2.63-.4,17.29,17.29,0,0,0-3.92-.41,15,15,0,0,0-5.49,1,12.85,12.85,0,0,0-4.3,2.79,19.84,19.84,0,0,0-3.4,4.58,39.48,39.48,0,0,0-2.73,6.24v43.12h-11.5V189.16h6.55a3.48,3.48,0,0,1,2.57.74,4.7,4.7,0,0,1,1,2.56Z"/></g></svg>
