<svg xmlns="http://www.w3.org/2000/svg" xmlns:xlink="http://www.w3.org/1999/xlink" width="1600" height="900" viewBox="0 0 1600 900"><defs><style>.cls-1{isolation:isolate;}.cls-2{fill:#191715;}.cls-3{fill:#e1e3e6;}.cls-4{fill:#f1e94f;}.cls-5{opacity:0.9;mix-blend-mode:screen;}.cls-6{fill:url(#Ikke-navngivet_forløb_70);}.cls-7{fill:url(#Ikke-navngivet_forløb_70-2);}</style><radialGradient id="Ikke-navngivet_forløb_70" cx="1750.01" cy="194.17" r="14.5" gradientTransform="translate(-365.86 335.25) scale(0.62 0.61)" gradientUnits="userSpaceOnUse"><stop offset="0.54" stop-color="#e1e3e6"/><stop offset="0.94" stop-color="#322e2d"/></radialGradient><radialGradient id="Ikke-navngivet_forløb_70-2" cx="1801.01" cy="194.17" r="14.5" xlink:href="#Ikke-navngivet_forløb_70"/></defs><title>spil_forgrund</title><g class="cls-1"><g id="Lag_2" data-name="Lag 2"><g id="spil_forgrund"><g id="spil_forgrund-2" data-name="spil_forgrund"><path class="cls-2" d="M1384,877.35l-82-34.13-57-86.45,9-111.48,14-87.6,36,46.64,69-31.85s16,76.22,23,76.22,70-101.24,70-101.24L1403,461h63l53,42.09,81,196.8V891Z"/><path class="cls-2" d="M216,852.35l82-34.13,57-86.45-9-111.48-14-87.6-36,46.64-69-31.85s-16,76.22-23,76.22-70-101.24-70-101.24L197,436H134L81,478.09,0,674.89V866Z"/><path class="cls-2" d="M1273.2,832.81l60-20.48L1375,760.46l-6.59-66.89L1358.15,641l-26.36,28-50.54-19.11s-11.71,45.73-16.84,45.73-51.27-60.75-51.27-60.75L1259.28,583h-46.14l-38.82,25.25L1115,726.33V841Z"/><path class="cls-2" d="M350.8,857.81l-60.05-20.48L249,785.46l6.59-66.89L265.85,666l26.36,28,50.54-19.11s11.71,45.73,16.84,45.73,51.27-60.75,51.27-60.75L364.72,608h46.14l38.82,25.25L509,751.33V866Z"/><path class="cls-2" d="M1446.67,780.56l-58.21-41.12L1348,635.3l6.39-134.3,9.94-105.52,25.55,56.19,49-38.37s11.36,91.81,16.33,91.81,49.69-122,49.69-122L1460.16,279h44.72l37.62,50.7L1600,566.78V797Z"/><path class="cls-2" d="M1492.3,551.56l-40.88-41.12L1423,406.3l4.49-134.3,7-105.52,18,56.19,34.4-38.37s8,91.81,11.47,91.81,34.9-122,34.9-122L1501.78,50h31.41l26.42,50.7L1600,337.78V568Z"/><path class="cls-2" d="M350.8,725.13l-60.05-29.69L249,620.25l6.59-97,10.26-76.19,26.36,40.57L342.75,460s11.71,66.29,16.84,66.29,51.27-88.05,51.27-88.05L364.72,363h46.14l38.82,36.61L509,570.78V737Z"/></g><path class="cls-2" d="M918.39,475.82c-1.88-.21-2.85,4.21-7.39,11.36a84.31,84.31,0,0,1-12.94,15.15,72,72,0,0,1-22.79,13.89c-3.48,1.37-5.52,1.9-23.41,5.68-18.63,3.93-21,4.33-24,5-1.7.36-3,.66-3.12.7-7.26,1.68-19.1,2.52-19.1,2.52-.92.07-2.06.15-3.4.23-.65-6.6-1.64-12.85-5.23-20a51.21,51.21,0,0,0-14.17-17.68c-4-3.19-8.22-5.34-16.63-9.64a74.93,74.93,0,0,0-9.24-3.75c-5.59-1.88-7.4-1.82-8.52-1.62l4.82-24.35,4.31-15.84,11.09,6.7h16.64l-13.56-6.7-14.17-7.92h27.73l-27.73-7.31-20.4-4.54,20.4.27,3.7-9.75h-24l-6.77-18.28V403.3l-16-1.83V371l-11.09,26.2-11.09,4.88-32.66-4.88,17.87,10.36L643,422.19,671.34,421,643,464.84l23.41-12.79-1.23,18.28,8.39-6,2.08,10.28,9.24,12.8,14.79,8.53h10.45c-.1,2.85-.48,6.68-3.06,8.94-3.52,3.08-7.35-.13-16.63,1.26-3.59.53-8.91,1.33-12.94,5.05s-4.84,8.3-6.16,16.41c-2.05,12.61-3.08,18.92-3.7,26.51-2.06,25.42-4,22.9-4.31,37.87-.25,11.67-.46,21.42,3.08,33.46,2.64,9,6.48,15.44,14.17,28.4,4.49,7.57,5,7.63,17.87,27.15,13.78,20.88,11,17.53,17.25,26.51,10,14.42,11.88,15.62,14.17,22.09,4,11.44,3,21.7,2.46,26.51-.79,7.09-1.74,15.55-7.39,23.36-3.27,4.52-10,8.33-23.41,15.78-14.76,8.21-22.15,12.32-25.88,13.88-8.8,3.7-13.54,4.68-14.78,8.84-1.73,5.76,4.78,12.47,6.77,14.52,5.91,6.08,12.6,7.73,22.18,10.1,8.27,2,12.71,3.08,14.79.63,2.54-3,.64-10.19-3.08-14.52-4.51-5.23-9.92-4.22-11.09-8.2-1-3.43,1.95-7.79,4.93-10.1,5.61-4.37,10.69-1,19.71-2.53,11.62-1.94,19.34-10.18,22.8-13.88,7.41-7.92,10.13-16.14,12.32-22.73a75.32,75.32,0,0,0,3.7-29.67A74.14,74.14,0,0,0,747.12,717c-3.42-7.19-4.64-6.61-8.63-15.15-1.84-4-1.9-4.76-7.39-20.83-3.79-11.1-4.77-13.67-3.69-14.52,1.71-1.36,7,2.9,13.55,8.2s11.58,9.36,17.25,16.42A80.14,80.14,0,0,1,769.92,710c3.42,7.94,4.38,14.45,6.16,27.15,2.76,19.74,4.14,29.61,1.23,41.66a115.11,115.11,0,0,1-6.78,18.93c-3.18,7.19-4.77,10.79-8,15.15-5,6.79-7.95,7.31-8.62,11.36-1.23,7.34,6.91,14.23,8,15.15,11.56,9.79,27.18,4.43,29,3.79,3.25-1.17,9.88-3.57,10.48-8.21.55-4.34-4.46-8.74-8-10.73-6.23-3.48-10.55-1-13.56-4.41-1.94-2.2-2.07-5.43-1.23-11.37a107.58,107.58,0,0,1,7.39-25.88c2.76-7,6.18-15.77,8-25.25,2-10.61,1.37-18.43,0-34.08-1.45-16.7-2.18-25-6.16-33.46-1.58-3.33-6.39-9.8-16-22.72-9.46-12.71-11.61-14.82-14.17-20.83-3.8-9-1.54-10.19-4.93-22.09-5.15-18.1-11.49-19.18-12.32-31.56-.2-3-.59-14.49,6.58-23.72,6.41,5.59,16.1,7.43,21.15,8.38,3.29.63,25.83,4.89,33.27-4.28,1.95-2.42,1.23-3.75,1.23-21.43,0-1.72,0-3.22,0-4.52,27.54-5.24,29.27-5,44.34-8.09,32-6.52,39.49-10.65,44.36-13.89,5.77-3.83,10.62-8.65,20.33-18.3,6-5.95,8.61-9.11,9.86-13.89C923.53,485,921,476.11,918.39,475.82ZM728,509.9c-.86-1.59-2.85-6.1-.81-14h9.44l8.26-9.13c1.7,1.07,4.18,2.4,7.75,4.23,13.14,6.71,15.13,6.86,19.1,10.17a35.33,35.33,0,0,1,8.63,10.72c2,3.73,2.81,7.18,4.31,13.93.38,1.7.74,3.34,1.07,5q-4.47,0-9.69-.08c-13-.3-16.05-1.06-18.49-1.9-2.77-1-6.81-3.38-14.78-8.2C730.29,513.06,729,511.79,728,509.9ZM784.7,558c-4.74,4.18-13.83,3-18.48,1.61a21.7,21.7,0,0,1-3-1.18c.95-.38,2-.76,3-1.16,7.93-3,15.2-5.16,21.14-6.75C787.22,554,786.57,556.33,784.7,558Z"/><rect class="cls-3" x="920.24" y="457.53" width="10.47" height="36.56" rx="5.24"/><path class="cls-4" d="M921.64,438.83c-.35.27-.18.62-.69,4.36-.25,1.82-.3,1.81-.41,2.86-.31,2.89-.47,4.33,0,5.21,1.11,2.1,4.39,2,5.88,2,1.67,0,3.21-.06,4-1.2,1.36-1.88-.23-5.32-.73-6.42C927.57,441,923,437.81,921.64,438.83Z"/><image class="cls-5" width="499" height="499" transform="translate(463 204)" xlink:href="spil_forgrund1.png"/><ellipse class="cls-6" cx="712.31" cy="453.57" rx="8.93" ry="8.84"/><image class="cls-5" width="499" height="499" transform="translate(494 204)" xlink:href="spil_forgrund2.png"/><ellipse class="cls-7" cx="743.73" cy="453.57" rx="8.93" ry="8.84"/></g></g></g></svg>
