<svg id="Lag_2" data-name="Lag 2" xmlns="http://www.w3.org/2000/svg" width="1600" height="900" viewBox="0 0 1600 900"><defs><style>.cls-1{opacity:0.7;}.cls-2{fill:#fff;}.cls-3{opacity:0.8;}</style></defs><title>spogelse</title><g id="spogelse"><g class="cls-1"><ellipse cx="772.59" cy="497.17" rx="102.41" ry="108.17"/><polygon points="730.76 657 716.53 627.33 707.12 605.33 688.07 566.3 668.57 533.67 661 497 661 449.33 676.6 415.33 695.88 389 735.58 380 762.88 380 807.63 389 828.97 409.33 847.79 445 853.29 488.33 853.29 533.67 845.26 571.33 819.56 598.67 790.42 605.33 768.39 618 753.02 639.67 747.28 657 730.76 657"/><ellipse class="cls-2" cx="765.81" cy="495.61" rx="76.28" ry="80.57"/><path class="cls-2" d="M734.65,614.67l-10.6-22.1-7-16.39-14.19-29.07-9.66-16.18-4.86-8.13q-2.83-13.66-5.65-27.32V460l11.63-25.33L708.67,415l29.57-6.71h20.34L791.91,415l15.89,15.14,14,26.57,4.1,32.28V522.8l-6,28.05L800.8,571.22l-21.71,5-16.41,9.44-11.45,16.14L747,614.67Z"/></g><g class="cls-3"><path d="M696.78,504.55c-.12,4.72,12.57,8.48,24.46,6.56,4.76-.77,14-2.25,21.36-10.81,4.27-4.93,6.06-10.83,9.63-22.62,4.06-13.36,6.08-20,3.73-26-3.28-8.27-11.87-9.36-12.25-9.4-5.2-.56-12.18,1.56-15.85,7.2-1.91,2.92-.89,3.66-3.3,12.86a76,76,0,0,1-6.83,18.27,64.17,64.17,0,0,1-5.45,8.21C703.69,499.89,696.87,501.11,696.78,504.55Z"/></g><g class="cls-3"><path d="M802.33,524.73c-2.09,4-12.53,4.45-19.8.38-2.9-1.63-8.53-4.77-9.66-13.43-.65-5,.84-10.27,3.83-20.82,3.39-12,5.08-17.94,9.43-22.38,6.06-6.2,12.45-5.32,12.74-5.28a9,9,0,0,1,7.54,9.29c0,2.83-1.08,3.23-3.67,11.38A76.11,76.11,0,0,0,799,500.49a51,51,0,0,0,0,8C799.74,519.42,803.85,521.85,802.33,524.73Z"/></g><path d="M689.52,495.82l-.16-.3a32.48,32.48,0,0,0,14.14-11.94c4.25-6.78,4.45-13.7,4.6-19.25A42.69,42.69,0,0,0,707,453.11c-.61-2.86-1-4.93,0-8.16,3.08-9.31,13.68-13.67,17.16-15.1,14.44-5.94,28.53-1.28,33.92,1l-.15.3c-5.34-2.26-19.32-6.88-33.62-1-3.45,1.42-13.94,5.73-17,14.9-1,3.15-.61,5.18,0,8a43.05,43.05,0,0,1,1.09,11.29c-.16,5.59-.35,12.55-4.65,19.41A32.79,32.79,0,0,1,689.52,495.82Z"/><path d="M816.4,522.62c-4.62-4.47-7-9.11-7.16-13.78-.09-3,.78-4.89,2.23-8.09.66-1.47,1.49-3.3,2.4-5.64,1.73-4.45,4.36-11.17,5-18.29.48-5.54,1.27-14.82-4.93-21.54-7.89-8.56-21.39-7.29-24-6.95l0-.33c2.66-.34,16.32-1.62,24.33,7.06,6.3,6.82,5.5,16.19,5,21.79-.61,7.16-3.25,13.91-5,18.37-.91,2.35-1.74,4.19-2.41,5.66-1.47,3.27-2.28,5.06-2.2,7.95.13,4.59,2.51,9.15,7.06,13.55Z"/><g class="cls-3"><path d="M736.92,539.38c2.89-8.1,10.8-12.92,17.66-10.77s10.09,10.46,7.2,18.56"/></g><g class="cls-3"><path d="M732.44,550.12a10.46,10.46,0,0,1,12.35-1.39c5.1,2.89,9.34,11.1,9.35,11.1h0a137.24,137.24,0,0,0-10.35,26.84,91.19,91.19,0,0,0-2.25,10.77c-.83,6-.4,7.78-1.09,8.2-2.36,1.43-13.71-14.93-13.69-34.7C726.77,566.35,726.79,555.38,732.44,550.12Z"/></g><path d="M714.59,564.69l-.35-.05a42.15,42.15,0,0,0-4.43-25.28,56.58,56.58,0,0,0-13.28-16.57l.24-.25a57.13,57.13,0,0,1,13.36,16.68A42.46,42.46,0,0,1,714.59,564.69Z"/><path d="M754.82,587.92l-.3-.17a61,61,0,0,1,9.62-11.37c3.81-3.52,7.74-7.15,13.57-9.37,8.74-3.32,17.45-1.83,23.23,0l-.11.31c-5.72-1.81-14.35-3.28-23,0-5.76,2.19-9.67,5.8-13.45,9.3A61,61,0,0,0,754.82,587.92Z"/></g></svg>
