<svg id="tabt" xmlns="http://www.w3.org/2000/svg" width="1600" height="900" viewBox="0 0 1600 900"><defs><style>.cls-1{fill:#e1e3e6;}</style></defs><title>tabt</title><g id="tabt-2" data-name="tabt"><rect class="cls-1" x="287" y="106" width="1026" height="688" rx="12"/><path d="M742.47,192.86q0,10.41-.83,18.94a101.77,101.77,0,0,1-2.34,14.61,32.25,32.25,0,0,1-3.63,9.4q-2.11,3.33-4.68,3.33H722.3V146.51H731q2.57,0,4.68,3.33a32.25,32.25,0,0,1,3.63,9.43,103.12,103.12,0,0,1,2.34,14.65Q742.47,182.44,742.47,192.86Zm-3.23,0q0-8.54-.59-15.26A85.34,85.34,0,0,0,737,166.22a24.16,24.16,0,0,0-2.6-7.11c-1-1.63-2.16-2.45-3.41-2.45h-5.54V229H731c1.25,0,2.39-.82,3.41-2.45a24.15,24.15,0,0,0,2.6-7.08,83.84,83.84,0,0,0,1.65-11.35Q739.23,201.39,739.24,192.86Z"/><path d="M756,229.19c1,0,1.83-.65,2.59-1.94a19.7,19.7,0,0,0,1.92-5.43,61.1,61.1,0,0,0,1.2-8.34q.42-4.84.42-10.67v-56.3h3.13v56.3q0,8-.64,14.87a86.29,86.29,0,0,1-1.84,11.86,27.78,27.78,0,0,1-2.91,7.86q-1.73,2.83-3.87,2.84c-1.43,0-2.71-1-3.86-2.84a28.36,28.36,0,0,1-2.93-7.86,86.29,86.29,0,0,1-1.84-11.86q-.65-6.85-.64-14.87v-56.3h3.13v56.24q0,5.82.42,10.66a60.64,60.64,0,0,0,1.2,8.34,19.92,19.92,0,0,0,1.93,5.46C754.16,228.53,755,229.19,756,229.19Z"/><path d="M794,157h-7.53v82.1H783.3V157h-7.55V146.51H794Z"/><path d="M814.07,239.14h-2.44c-.28,0-.51-.28-.68-.84a10.89,10.89,0,0,1-.39-2.13l-2.18-22.37H797.94l-2.18,22.37a10.08,10.08,0,0,1-.37,2.07c-.19.6-.41.9-.68.9h-2.44l9.31-92.63h3.18Zm-6.57-34.39-3.65-37.69c-.11-1.12-.22-2.42-.34-3.91s-.23-3.07-.34-4.75q-.34,5.23-.7,8.73l-3.65,37.62Z"/><path d="M824.56,146.51a4.84,4.84,0,0,1,3.69,1.68A12.55,12.55,0,0,1,830.8,153a37.53,37.53,0,0,1,1.47,7.6,95.78,95.78,0,0,1,.48,10.11q0,3.44-.27,6.57a53.64,53.64,0,0,1-.81,5.85,30.61,30.61,0,0,1-1.35,4.88,12.76,12.76,0,0,1-1.93,3.52c1.71,1.29,3,3.72,3.86,7.27a61.55,61.55,0,0,1,1.29,14A97.46,97.46,0,0,1,833,223.5a49.59,49.59,0,0,1-1.59,8.34,16,16,0,0,1-2.58,5.39,4.39,4.39,0,0,1-3.47,1.91h-8.22V146.51Zm-4.29,9.89V188h4.16a2.93,2.93,0,0,0,2.31-1.17,9.1,9.1,0,0,0,1.63-3.23,26.63,26.63,0,0,0,1-5,63.42,63.42,0,0,0,.31-6.43q0-8.21-1.24-12t-3.83-3.78Zm5,72.79a2.88,2.88,0,0,0,2.32-1.23,9.88,9.88,0,0,0,1.6-3.46,30.76,30.76,0,0,0,.92-5.3q.29-3.07.29-6.76a40.19,40.19,0,0,0-1.28-11.34q-1.29-4.17-3.85-4.17h-5v32.26Z"/><path d="M853.39,157h-7.54v82.1h-3.13V157h-7.55V146.51h18.22Z"/><path d="M871.19,228.93l0,10.21H856.83V146.51h14.34v10.21H860v30.77h9.07v9.83H860v31.61Z"/><path d="M874.93,232c0-1.12.05-2.17.15-3.17a18.68,18.68,0,0,1,.43-2.58,7.48,7.48,0,0,1,.64-1.75c.25-.43.52-.64.81-.64s.54.21.79.64a7.48,7.48,0,0,1,.64,1.75,20.18,20.18,0,0,1,.44,2.58A31.7,31.7,0,0,1,879,232a31.25,31.25,0,0,1-.16,3.2,20.26,20.26,0,0,1-.44,2.55,6.87,6.87,0,0,1-.64,1.72c-.25.41-.51.61-.79.61s-.56-.2-.81-.61a6.87,6.87,0,0,1-.64-1.72,18.71,18.71,0,0,1-.43-2.55A31.41,31.41,0,0,1,874.93,232Zm3.46-85.52v37c0,1.94,0,3.84,0,5.69s0,3.72-.08,5.59-.07,3.8-.12,5.76-.1,4.06-.17,6.3h-2q-.09-3.36-.17-6.3t-.12-5.76c0-1.87-.06-3.73-.08-5.59s0-3.75,0-5.69v-37Z"/><path d="M334.35,362.06h-1.82c-.21,0-.38-.17-.51-.49a4.86,4.86,0,0,1-.29-1.22L330.1,347.5h-7.8l-1.62,12.85a4.62,4.62,0,0,1-.28,1.19c-.14.34-.31.52-.51.52h-1.82L325,308.83h2.38Zm-4.9-19.76-2.73-21.66c-.08-.64-.17-1.39-.26-2.24s-.17-1.77-.25-2.73c-.17,2-.34,3.67-.52,5L323,342.3ZM323.9,299a18.46,18.46,0,0,1,.19-2.68,11.36,11.36,0,0,1,.5-2.08,4.43,4.43,0,0,1,.72-1.33,1.16,1.16,0,0,1,.87-.49,1.18,1.18,0,0,1,.9.49,4.23,4.23,0,0,1,.74,1.33,11.3,11.3,0,0,1,.51,2.08,18.53,18.53,0,0,1,.18,2.68,17.63,17.63,0,0,1-.18,2.63,11.14,11.14,0,0,1-.51,2,4.23,4.23,0,0,1-.74,1.33,1.18,1.18,0,0,1-.9.49,1.16,1.16,0,0,1-.87-.49,4.43,4.43,0,0,1-.72-1.33,11.19,11.19,0,0,1-.5-2A17.55,17.55,0,0,1,323.9,299Zm1.08,0a9,9,0,0,0,.33,2.67c.22.69.52,1,.91,1s.66-.35.88-1a9,9,0,0,0,.33-2.67,9.13,9.13,0,0,0-.33-2.71c-.22-.7-.52-1-.88-1s-.69.34-.91,1A9.13,9.13,0,0,0,325,299Z"/><path d="M338.12,329.89c.26-.91.55-1.74.84-2.49a11.7,11.7,0,0,1,1-1.91,4.71,4.71,0,0,1,1.06-1.23,2,2,0,0,1,1.22-.42,2.21,2.21,0,0,1,1.78,1,8.66,8.66,0,0,1,1.28,2.9,27.24,27.24,0,0,1,.79,4.51q.26,2.64.26,5.83v24h-2.17v-24a27,27,0,0,0-.63-6.63c-.43-1.57-1.07-2.36-1.94-2.36-.64,0-1.23.47-1.79,1.41a17.42,17.42,0,0,0-1.53,3.83v27.71h-2.17V324.43h1.3q.45,0,.57,1.38Z"/><path d="M359.77,307.35v54.71h-1.28c-.31,0-.5-.46-.58-1.38l-.2-4.57a20.58,20.58,0,0,1-1.79,4.68c-.67,1.19-1.45,1.79-2.33,1.79a2.41,2.41,0,0,1-1.92-1.25,11.48,11.48,0,0,1-1.46-3.66,39.53,39.53,0,0,1-.94-6c-.22-2.41-.32-5.17-.32-8.29q0-4.15.36-7.74a42.47,42.47,0,0,1,1-6.22,13.8,13.8,0,0,1,1.67-4.14,2.74,2.74,0,0,1,2.22-1.51,2.33,2.33,0,0,1,1.94,1.17,11.87,11.87,0,0,1,1.44,3.25V307.35Zm-2.15,26a11.15,11.15,0,0,0-1.31-3.47,2,2,0,0,0-1.58-1q-1.71,0-2.63,3.75a47.1,47.1,0,0,0-.92,10.69c0,2.46.07,4.55.2,6.3A29,29,0,0,0,352,354a7,7,0,0,0,1,2.47,1.65,1.65,0,0,0,1.32.78c.71,0,1.33-.5,1.86-1.49a18.82,18.82,0,0,0,1.47-4.2Z"/><path d="M373.16,356.78a12.44,12.44,0,0,1-1,2.58,8.38,8.38,0,0,1-1.19,1.8,4.66,4.66,0,0,1-1.32,1.06,2.84,2.84,0,0,1-1.34.36,3,3,0,0,1-2.35-1.32,11.63,11.63,0,0,1-1.85-3.87,34.91,34.91,0,0,1-1.22-6.29,75.5,75.5,0,0,1-.44-8.62,65,65,0,0,1,.39-7.35A36.8,36.8,0,0,1,364,329.2a12.22,12.22,0,0,1,1.81-3.93,3,3,0,0,1,2.4-1.43,2.66,2.66,0,0,1,2,1.13,9.75,9.75,0,0,1,1.62,3.27,29,29,0,0,1,1.08,5.27,58.66,58.66,0,0,1,.39,7.15,12.71,12.71,0,0,1-.11,2.08c-.08.35-.21.52-.42.52h-8.21q0,3.57.33,6.2a26.6,26.6,0,0,0,.79,4.41A7.61,7.61,0,0,0,367,356.5a2,2,0,0,0,1.58.88,2,2,0,0,0,1.4-.58,6.94,6.94,0,0,0,1-1.24,12,12,0,0,0,.71-1.25c.19-.38.36-.57.49-.57s.32.21.42.63Zm-1.74-17.64a38.77,38.77,0,0,0-.22-4.22,18.7,18.7,0,0,0-.62-3.3,6.61,6.61,0,0,0-1-2.16,1.68,1.68,0,0,0-1.32-.76c-1,0-1.86.93-2.46,2.77a29.88,29.88,0,0,0-1.12,7.67Z"/><path d="M378.05,332a29,29,0,0,1,1.43-6c.57-1.45,1.26-2.18,2.07-2.18a1.29,1.29,0,0,1,.75.26,2.32,2.32,0,0,1,.64.82l-.16,4.94q-.07.93-.36.93a1.1,1.1,0,0,1-.5-.22,1.3,1.3,0,0,0-.74-.23,1.37,1.37,0,0,0-1,.52,4.86,4.86,0,0,0-.81,1.54,18.13,18.13,0,0,0-.64,2.53c-.19,1-.37,2.15-.52,3.44v23.77H376V324.43h1.24a.5.5,0,0,1,.48.41,5.88,5.88,0,0,1,.18,1.41Z"/><path d="M386.87,329.89c.26-.91.55-1.74.84-2.49a11.7,11.7,0,0,1,1-1.91,4.71,4.71,0,0,1,1.06-1.23,2,2,0,0,1,1.22-.42,2.22,2.22,0,0,1,1.78,1,8.66,8.66,0,0,1,1.28,2.9,27.24,27.24,0,0,1,.79,4.51q.26,2.64.26,5.83v24h-2.17v-24a27,27,0,0,0-.63-6.63c-.43-1.57-1.07-2.36-1.94-2.36-.64,0-1.23.47-1.79,1.41a17.42,17.42,0,0,0-1.53,3.83v27.71h-2.17V324.43h1.3q.45,0,.57,1.38Z"/><path d="M408.33,356.78a13.69,13.69,0,0,1-1,2.58,8.38,8.38,0,0,1-1.19,1.8,4.81,4.81,0,0,1-1.32,1.06,2.85,2.85,0,0,1-1.35.36,3,3,0,0,1-2.34-1.32,11.43,11.43,0,0,1-1.86-3.87,36.75,36.75,0,0,1-1.22-6.29,75.68,75.68,0,0,1-.43-8.62,65,65,0,0,1,.39-7.35,34.74,34.74,0,0,1,1.14-5.93,12.44,12.44,0,0,1,1.8-3.93,3,3,0,0,1,2.4-1.43,2.66,2.66,0,0,1,2.05,1.13,9.94,9.94,0,0,1,1.62,3.27,28.28,28.28,0,0,1,1.07,5.27,58.66,58.66,0,0,1,.39,7.15,11.63,11.63,0,0,1-.11,2.08c-.07.35-.21.52-.41.52h-8.21c0,2.38.13,4.45.32,6.2a26.49,26.49,0,0,0,.8,4.41,7.61,7.61,0,0,0,1.21,2.63,2,2,0,0,0,1.58.88,2,2,0,0,0,1.4-.58,6.94,6.94,0,0,0,1-1.24,14.14,14.14,0,0,0,.71-1.25c.19-.38.35-.57.49-.57s.32.21.41.63Zm-1.75-17.64a38.91,38.91,0,0,0-.21-4.22,19.66,19.66,0,0,0-.62-3.3,6.61,6.61,0,0,0-1-2.16,1.65,1.65,0,0,0-1.32-.76c-1,0-1.85.93-2.45,2.77a29.44,29.44,0,0,0-1.12,7.67Z"/><path d="M421.15,362.65c-1,0-1.72-.83-2.24-2.49a25.28,25.28,0,0,1-.78-7.17V330h-1.48q-.19,0-.33-.36a3.27,3.27,0,0,1-.13-1.09v-2.64l2-.78.5-11.63a3.31,3.31,0,0,1,.16-.9q.13-.36.33-.36h1.1v13h3.55V330h-3.55v22.58a12.33,12.33,0,0,0,.37,3.53c.25.76.58,1.15,1,1.15a.79.79,0,0,0,.59-.28,3.72,3.72,0,0,0,.43-.61c.12-.23.22-.43.31-.62s.16-.28.22-.28.22.22.31.64l.63,3.15a7.56,7.56,0,0,1-1.35,2.51A2.19,2.19,0,0,1,421.15,362.65Z"/><path d="M431.19,323.84a3.09,3.09,0,0,1,2.42,1.37,12,12,0,0,1,1.85,3.9,35,35,0,0,1,1.17,6.11,80.5,80.5,0,0,1,0,16,34.9,34.9,0,0,1-1.17,6.09,11.69,11.69,0,0,1-1.85,3.88,3.11,3.11,0,0,1-2.42,1.36,3.14,3.14,0,0,1-2.45-1.36,11.69,11.69,0,0,1-1.85-3.88,36.87,36.87,0,0,1-1.17-6.09,80.5,80.5,0,0,1,0-16,36.94,36.94,0,0,1,1.17-6.11,12,12,0,0,1,1.85-3.9A3.13,3.13,0,0,1,431.19,323.84Zm0,33.57c1.21,0,2.12-1.24,2.71-3.73a61.06,61.06,0,0,0,0-20.89c-.59-2.5-1.5-3.75-2.71-3.75a2,2,0,0,0-1.61,1,8.37,8.37,0,0,0-1.14,2.79,29.12,29.12,0,0,0-.68,4.47q-.22,2.65-.22,6a46.78,46.78,0,0,0,.9,10.42Q429.34,357.42,431.19,357.41Z"/><path d="M450.07,325.92v2.45q0,1.23-.51,1.56l-1.4.56a32.16,32.16,0,0,1,.42,5.42,32.91,32.91,0,0,1-.35,5,19.51,19.51,0,0,1-1,3.85,6.85,6.85,0,0,1-1.46,2.45,2.55,2.55,0,0,1-1.84.85,2.51,2.51,0,0,1-1.62-.63,7.16,7.16,0,0,0-.6,1.58,6.91,6.91,0,0,0-.2,1.69,4.46,4.46,0,0,0,.35,2,2.21,2.21,0,0,0,.94,1,3.68,3.68,0,0,0,1.33.37,14.24,14.24,0,0,1,1.53.24,5.72,5.72,0,0,1,1.53.58,3.73,3.73,0,0,1,1.32,1.33,8,8,0,0,1,.94,2.57,20.29,20.29,0,0,1,.36,4.23,27.54,27.54,0,0,1-.39,4.68,18.25,18.25,0,0,1-1.14,4,8.32,8.32,0,0,1-1.81,2.82,3.34,3.34,0,0,1-2.42,1.06,3.6,3.6,0,0,1-2.35-.82,6.18,6.18,0,0,1-1.67-2.19,12,12,0,0,1-1-3.17,20,20,0,0,1-.34-3.77,16.88,16.88,0,0,1,.57-4.72,8.11,8.11,0,0,1,1.57-3.08,5.65,5.65,0,0,1-.87-2,13.7,13.7,0,0,1-.32-3.36,14.16,14.16,0,0,1,.1-1.69,15,15,0,0,1,.29-1.74,14.74,14.74,0,0,1,.49-1.66,7,7,0,0,1,.68-1.37,13.65,13.65,0,0,1-1.42-4.14,31.23,31.23,0,0,1-.51-6,33.14,33.14,0,0,1,.35-5,18.31,18.31,0,0,1,1-3.82,7.21,7.21,0,0,1,1.48-2.44,2.59,2.59,0,0,1,1.87-.85,2.38,2.38,0,0,1,1.49.54,5,5,0,0,1,1.26,1.58Zm-2.2,38.18a8,8,0,0,0-.25-2.23,3.44,3.44,0,0,0-.69-1.34,2.32,2.32,0,0,0-1-.68,6.61,6.61,0,0,0-1.2-.32l-1.3-.22a6.27,6.27,0,0,1-1.26-.37,8.31,8.31,0,0,0-1.11,2.43,12.5,12.5,0,0,0-.43,3.43,11.69,11.69,0,0,0,.22,2.36,6.34,6.34,0,0,0,.65,1.9,3.64,3.64,0,0,0,1.09,1.26,2.64,2.64,0,0,0,1.56.46,2.67,2.67,0,0,0,1.56-.48,3.69,3.69,0,0,0,1.17-1.37,7.87,7.87,0,0,0,.74-2.12A13.36,13.36,0,0,0,447.87,364.1ZM444,343.67a1.47,1.47,0,0,0,1.15-.56,4.55,4.55,0,0,0,.84-1.56,11.57,11.57,0,0,0,.51-2.39,26.16,26.16,0,0,0,.17-3.07,17.65,17.65,0,0,0-.69-5.49c-.45-1.36-1.11-2.05-2-2.05s-1.54.69-2,2.05a17.65,17.65,0,0,0-.69,5.49,24.06,24.06,0,0,0,.18,3.07,12.27,12.27,0,0,0,.51,2.39,4.55,4.55,0,0,0,.84,1.56A1.47,1.47,0,0,0,444,343.67Z"/><path d="M468.68,307.35v54.71H467.4c-.31,0-.5-.46-.59-1.38l-.19-4.57a20.58,20.58,0,0,1-1.79,4.68c-.67,1.19-1.45,1.79-2.33,1.79a2.4,2.4,0,0,1-1.92-1.25,11.7,11.7,0,0,1-1.47-3.66,41,41,0,0,1-.93-6q-.33-3.62-.33-8.29a74.68,74.68,0,0,1,.37-7.74,42.47,42.47,0,0,1,1-6.22,13.8,13.8,0,0,1,1.67-4.14,2.74,2.74,0,0,1,2.22-1.51,2.34,2.34,0,0,1,1.94,1.17,12.2,12.2,0,0,1,1.43,3.25V307.35Zm-2.16,26a10.67,10.67,0,0,0-1.31-3.47,1.93,1.93,0,0,0-1.57-1q-1.71,0-2.63,3.75a47,47,0,0,0-.93,10.69c0,2.46.07,4.55.21,6.3a29,29,0,0,0,.61,4.31,6.8,6.8,0,0,0,1,2.47,1.65,1.65,0,0,0,1.32.78c.71,0,1.33-.5,1.86-1.49a18.38,18.38,0,0,0,1.46-4.2Z"/><path d="M474.84,312.62a11.28,11.28,0,0,1-.13,1.8,9.18,9.18,0,0,1-.33,1.49,3.72,3.72,0,0,1-.5,1,.77.77,0,0,1-.6.37.74.74,0,0,1-.59-.37,3.74,3.74,0,0,1-.48-1,9.18,9.18,0,0,1-.33-1.49,12.64,12.64,0,0,1-.12-1.8,13.54,13.54,0,0,1,.12-1.84,8.89,8.89,0,0,1,.33-1.52,3.74,3.74,0,0,1,.48-1,.74.74,0,0,1,.59-.37.77.77,0,0,1,.6.37,3.72,3.72,0,0,1,.5,1,8.89,8.89,0,0,1,.33,1.52A12.08,12.08,0,0,1,474.84,312.62Zm-.46,11.81v37.63h-2.16V324.43Z"/><path d="M488.29,325.92v2.45q0,1.23-.51,1.56l-1.39.56a33.3,33.3,0,0,1,.41,5.42,32.91,32.91,0,0,1-.35,5,18.83,18.83,0,0,1-.95,3.85,7,7,0,0,1-1.45,2.45,2.57,2.57,0,0,1-1.85.85,2.51,2.51,0,0,1-1.62-.63A7.16,7.16,0,0,0,480,349a7.43,7.43,0,0,0-.2,1.69,4.61,4.61,0,0,0,.35,2,2.26,2.26,0,0,0,.94,1,3.74,3.74,0,0,0,1.33.37,14.24,14.24,0,0,1,1.53.24,5.72,5.72,0,0,1,1.53.58,3.75,3.75,0,0,1,1.33,1.33,8.48,8.48,0,0,1,.94,2.57,21.09,21.09,0,0,1,.35,4.23,27.54,27.54,0,0,1-.39,4.68,18.82,18.82,0,0,1-1.13,4,8.49,8.49,0,0,1-1.82,2.82,3.34,3.34,0,0,1-2.42,1.06,3.6,3.6,0,0,1-2.35-.82,6.18,6.18,0,0,1-1.67-2.19,12,12,0,0,1-1-3.17,20.89,20.89,0,0,1-.34-3.77,16.88,16.88,0,0,1,.57-4.72,8.11,8.11,0,0,1,1.57-3.08,5.84,5.84,0,0,1-.87-2,16.47,16.47,0,0,1-.22-5.05,15,15,0,0,1,.29-1.74,14.74,14.74,0,0,1,.49-1.66,7,7,0,0,1,.68-1.37,13.65,13.65,0,0,1-1.42-4.14,32.12,32.12,0,0,1-.5-6,33.21,33.21,0,0,1,.34-5,17.67,17.67,0,0,1,1-3.82,7.05,7.05,0,0,1,1.47-2.44,2.59,2.59,0,0,1,1.87-.85,2.36,2.36,0,0,1,1.49.54,5,5,0,0,1,1.27,1.58Zm-2.2,38.18a8,8,0,0,0-.25-2.23,3.58,3.58,0,0,0-.68-1.34,2.35,2.35,0,0,0-1-.68,6.61,6.61,0,0,0-1.2-.32l-1.29-.22a5.91,5.91,0,0,1-1.26-.37,7.82,7.82,0,0,0-1.11,2.43,12.13,12.13,0,0,0-.43,3.43,12.48,12.48,0,0,0,.21,2.36,6.63,6.63,0,0,0,.65,1.9,3.64,3.64,0,0,0,1.09,1.26,2.64,2.64,0,0,0,1.56.46,2.7,2.7,0,0,0,1.57-.48,3.88,3.88,0,0,0,1.17-1.37,7.87,7.87,0,0,0,.73-2.12A13.36,13.36,0,0,0,486.09,364.1Zm-3.89-20.43a1.47,1.47,0,0,0,1.15-.56,4.39,4.39,0,0,0,.84-1.56,11.57,11.57,0,0,0,.51-2.39,26.16,26.16,0,0,0,.17-3.07,18,18,0,0,0-.68-5.49c-.46-1.36-1.12-2.05-2-2.05s-1.54.69-2,2.05a17.65,17.65,0,0,0-.69,5.49,24.06,24.06,0,0,0,.18,3.07,13.05,13.05,0,0,0,.51,2.39,4.55,4.55,0,0,0,.84,1.56A1.48,1.48,0,0,0,482.2,343.67Z"/><path d="M490.17,358a15,15,0,0,1,.11-1.82,9.46,9.46,0,0,1,.32-1.48,3.17,3.17,0,0,1,.48-1,.74.74,0,0,1,.59-.37.77.77,0,0,1,.6.37,3.66,3.66,0,0,1,.48,1,8.38,8.38,0,0,1,.33,1.48,14,14,0,0,1,0,3.66,8.68,8.68,0,0,1-.33,1.47,3.31,3.31,0,0,1-.48,1,.77.77,0,0,1-.6.35.74.74,0,0,1-.59-.35,2.89,2.89,0,0,1-.48-1,9.84,9.84,0,0,1-.32-1.47A14.8,14.8,0,0,1,490.17,358Z"/><path d="M495.89,358a13.14,13.14,0,0,1,.12-1.82,8.5,8.5,0,0,1,.31-1.48,3.66,3.66,0,0,1,.48-1,.77.77,0,0,1,.6-.37.76.76,0,0,1,.59.37,3.39,3.39,0,0,1,.49,1,9.46,9.46,0,0,1,.32,1.48,14,14,0,0,1,0,3.66,9.84,9.84,0,0,1-.32,1.47,3.08,3.08,0,0,1-.49,1,.76.76,0,0,1-.59.35.77.77,0,0,1-.6-.35,3.31,3.31,0,0,1-.48-1,8.78,8.78,0,0,1-.31-1.47A13,13,0,0,1,495.89,358Z"/><path d="M523.76,335.46a87.68,87.68,0,0,1-.62,10.88,46.69,46.69,0,0,1-1.74,8.4,16.34,16.34,0,0,1-2.72,5.4,4.51,4.51,0,0,1-3.49,1.92H508.7V308.83h6.49a4.51,4.51,0,0,1,3.49,1.92,16.36,16.36,0,0,1,2.72,5.42,47,47,0,0,1,1.74,8.41A87.91,87.91,0,0,1,523.76,335.46Zm-2.41,0a78.76,78.76,0,0,0-.44-8.76,37.24,37.24,0,0,0-1.24-6.54,11.93,11.93,0,0,0-1.94-4.08,3.25,3.25,0,0,0-2.54-1.42h-4.14v41.56h4.14a3.26,3.26,0,0,0,2.54-1.41,11.91,11.91,0,0,0,1.94-4.06,37,37,0,0,0,1.24-6.52A79.07,79.07,0,0,0,521.35,335.46Z"/><path d="M536.54,324.43v37.63h-1.29c-.3,0-.5-.46-.58-1.38l-.17-4.05a19,19,0,0,1-1.79,4.37,2.77,2.77,0,0,1-2.28,1.65,2.22,2.22,0,0,1-1.78-1,8.83,8.83,0,0,1-1.29-2.88,26.05,26.05,0,0,1-.78-4.49q-.26-2.64-.26-5.84v-24h2.16v24a26.85,26.85,0,0,0,.63,6.62q.64,2.34,1.95,2.34c.64,0,1.23-.47,1.79-1.4a16.93,16.93,0,0,0,1.53-3.84V324.43Z"/><path d="M548.4,307.35v54.71h-2.16V307.35Z"/><path d="M561.86,356.78a13.69,13.69,0,0,1-1,2.58,8.38,8.38,0,0,1-1.19,1.8,4.81,4.81,0,0,1-1.32,1.06,2.84,2.84,0,0,1-1.34.36,3,3,0,0,1-2.35-1.32,11.62,11.62,0,0,1-1.86-3.87,35.89,35.89,0,0,1-1.21-6.29,73.27,73.27,0,0,1-.44-8.62,65,65,0,0,1,.39-7.35,35.74,35.74,0,0,1,1.14-5.93,12.44,12.44,0,0,1,1.8-3.93,3,3,0,0,1,2.4-1.43A2.66,2.66,0,0,1,559,325a9.94,9.94,0,0,1,1.62,3.27,29,29,0,0,1,1.08,5.27,60.9,60.9,0,0,1,.38,7.15,13.11,13.11,0,0,1-.1,2.08c-.08.35-.21.52-.42.52h-8.21q0,3.57.32,6.2a26.49,26.49,0,0,0,.8,4.41,7.61,7.61,0,0,0,1.21,2.63,2,2,0,0,0,1.58.88,2,2,0,0,0,1.4-.58,6.94,6.94,0,0,0,1-1.24,14.14,14.14,0,0,0,.71-1.25c.19-.38.35-.57.49-.57s.32.21.41.63Zm-1.75-17.64a38.91,38.91,0,0,0-.21-4.22,19.66,19.66,0,0,0-.62-3.3,6.61,6.61,0,0,0-1-2.16,1.65,1.65,0,0,0-1.32-.76c-1,0-1.85.93-2.45,2.77a29.88,29.88,0,0,0-1.12,7.67Z"/><path d="M575,324.43l-5,37.63H568l-5-37.63h1.76c.18,0,.32.14.44.41a3.54,3.54,0,0,1,.23,1L568.54,350c.1.92.18,1.81.26,2.68s.14,1.73.2,2.6l.21-2.6c.07-.87.16-1.76.27-2.68l3.15-24.21a3.78,3.78,0,0,1,.24-1c.11-.26.25-.39.4-.39Z"/><path d="M586.58,356.78a13.69,13.69,0,0,1-1,2.58,8,8,0,0,1-1.2,1.8,4.63,4.63,0,0,1-1.31,1.06,2.88,2.88,0,0,1-1.35.36,3,3,0,0,1-2.34-1.32,11.43,11.43,0,0,1-1.86-3.87,35.8,35.8,0,0,1-1.22-6.29,75.5,75.5,0,0,1-.44-8.62,64.93,64.93,0,0,1,.4-7.35,35.81,35.81,0,0,1,1.13-5.93,12.43,12.43,0,0,1,1.81-3.93,3,3,0,0,1,2.4-1.43,2.63,2.63,0,0,1,2,1.13,9.94,9.94,0,0,1,1.63,3.27,30,30,0,0,1,1.07,5.27,58.66,58.66,0,0,1,.39,7.15,12.71,12.71,0,0,1-.11,2.08c-.07.35-.21.52-.41.52H578q0,3.57.32,6.2a26.6,26.6,0,0,0,.79,4.41,7.6,7.6,0,0,0,1.22,2.63,2,2,0,0,0,1.57.88,2,2,0,0,0,1.4-.58,7,7,0,0,0,1-1.24,14.14,14.14,0,0,0,.71-1.25c.19-.38.35-.57.49-.57s.31.21.41.63Zm-1.75-17.64a38.91,38.91,0,0,0-.21-4.22,19.66,19.66,0,0,0-.62-3.3,6.61,6.61,0,0,0-1-2.16,1.68,1.68,0,0,0-1.32-.76c-1,0-1.86.93-2.46,2.77a30.32,30.32,0,0,0-1.12,7.67Z"/><path d="M591.46,332a29.63,29.63,0,0,1,1.43-6c.57-1.45,1.26-2.18,2.08-2.18a1.26,1.26,0,0,1,.74.26,2.32,2.32,0,0,1,.64.82l-.16,4.94q-.08.93-.36.93a1.1,1.1,0,0,1-.5-.22,1.27,1.27,0,0,0-.74-.23,1.39,1.39,0,0,0-1,.52,4.86,4.86,0,0,0-.81,1.54,18.13,18.13,0,0,0-.64,2.53c-.19,1-.36,2.15-.52,3.44v23.77h-2.17V324.43h1.24a.49.49,0,0,1,.48.41,6.3,6.3,0,0,1,.19,1.41Z"/><path d="M606,329.89a25.75,25.75,0,0,1,.85-2.49,11,11,0,0,1,.95-1.91,4.55,4.55,0,0,1,1.07-1.23,2,2,0,0,1,1.21-.42,2.2,2.2,0,0,1,1.78,1,8.86,8.86,0,0,1,1.29,2.9,28.42,28.42,0,0,1,.78,4.51,57.74,57.74,0,0,1,.26,5.83v24H612v-24a27,27,0,0,0-.63-6.63c-.43-1.57-1.07-2.36-1.94-2.36-.64,0-1.23.47-1.79,1.41a17.42,17.42,0,0,0-1.53,3.83v27.71h-2.17V324.43h1.3c.3,0,.5.46.57,1.38Z"/><path d="M627.58,324.43v37.63h-1.29c-.31,0-.5-.46-.58-1.38l-.17-4.05a19,19,0,0,1-1.8,4.37,2.77,2.77,0,0,1-2.28,1.65,2.19,2.19,0,0,1-1.77-1,8.43,8.43,0,0,1-1.29-2.88,27,27,0,0,1-.79-4.49q-.25-2.64-.26-5.84v-24h2.16v24a26.29,26.29,0,0,0,.64,6.62c.42,1.56,1.07,2.34,1.94,2.34.64,0,1.24-.47,1.79-1.4a16.44,16.44,0,0,0,1.54-3.84V324.43Z"/><path d="M638,362.06v-32l-1.35-.49a1.29,1.29,0,0,1-.42-.57,3,3,0,0,1-.17-1.13v-2.72H638v-3.64a48.67,48.67,0,0,1,.3-5.73,22.9,22.9,0,0,1,.85-4.24,7.51,7.51,0,0,1,1.33-2.62,2.28,2.28,0,0,1,1.74-.89,2.07,2.07,0,0,1,1.52.74l0,3.31c0,.6-.12.92-.32,1a3.39,3.39,0,0,1-.79.07,1.42,1.42,0,0,0-1,.45,3.59,3.59,0,0,0-.78,1.45,12.56,12.56,0,0,0-.5,2.63,38,38,0,0,0-.18,4.05v3.45h3.54V330h-3.47v32.09Z"/><path d="M650.48,323.84a3.09,3.09,0,0,1,2.43,1.37,12,12,0,0,1,1.84,3.9,35,35,0,0,1,1.17,6.11,78.55,78.55,0,0,1,0,16,34.9,34.9,0,0,1-1.17,6.09,11.7,11.7,0,0,1-1.84,3.88,2.86,2.86,0,0,1-4.87,0,11.5,11.5,0,0,1-1.85-3.88,34.9,34.9,0,0,1-1.17-6.09,78.55,78.55,0,0,1,0-16,35,35,0,0,1,1.17-6.11,11.82,11.82,0,0,1,1.85-3.9A3.11,3.11,0,0,1,650.48,323.84Zm0,33.57q1.82,0,2.72-3.73a61.06,61.06,0,0,0,0-20.89q-.9-3.75-2.72-3.75a2,2,0,0,0-1.6,1,8.37,8.37,0,0,0-1.14,2.79,27.94,27.94,0,0,0-.68,4.47q-.22,2.65-.23,6a46.08,46.08,0,0,0,.91,10.42Q648.64,357.42,650.48,357.41Z"/><path d="M661.1,332a28.89,28.89,0,0,1,1.44-6c.56-1.45,1.25-2.18,2.07-2.18a1.24,1.24,0,0,1,.74.26,2.32,2.32,0,0,1,.64.82l-.16,4.94c0,.62-.17.93-.36.93a1.15,1.15,0,0,1-.5-.22,1.27,1.27,0,0,0-.74-.23,1.35,1.35,0,0,0-1,.52,4.66,4.66,0,0,0-.82,1.54,18.13,18.13,0,0,0-.64,2.53c-.19,1-.36,2.15-.51,3.44v23.77h-2.18V324.43h1.24a.5.5,0,0,1,.49.41,5.88,5.88,0,0,1,.18,1.41Z"/><path d="M677.35,356.78a13,13,0,0,1-1,2.58,8.39,8.39,0,0,1-1.2,1.8,4.63,4.63,0,0,1-1.31,1.06,2.91,2.91,0,0,1-1.35.36,3,3,0,0,1-2.35-1.32,11.63,11.63,0,0,1-1.85-3.87,35.8,35.8,0,0,1-1.22-6.29,75.5,75.5,0,0,1-.44-8.62,62.68,62.68,0,0,1,.4-7.35,35.81,35.81,0,0,1,1.13-5.93,12.43,12.43,0,0,1,1.81-3.93,3,3,0,0,1,2.4-1.43,2.66,2.66,0,0,1,2,1.13,9.94,9.94,0,0,1,1.63,3.27,30,30,0,0,1,1.07,5.27,58.66,58.66,0,0,1,.39,7.15,12.71,12.71,0,0,1-.11,2.08c-.07.35-.21.52-.41.52h-8.21q0,3.57.32,6.2a26.6,26.6,0,0,0,.79,4.41,7.8,7.8,0,0,0,1.21,2.63,2,2,0,0,0,1.58.88,2,2,0,0,0,1.4-.58,6.94,6.94,0,0,0,1-1.24,12,12,0,0,0,.71-1.25c.19-.38.36-.57.49-.57s.32.21.42.63Zm-1.74-17.64a38.91,38.91,0,0,0-.21-4.22,20.73,20.73,0,0,0-.62-3.3,6.61,6.61,0,0,0-1-2.16,1.68,1.68,0,0,0-1.32-.76c-1,0-1.86.93-2.46,2.77a30.32,30.32,0,0,0-1.12,7.67Z"/><path d="M690.45,324.43l-5,37.63H683.5l-5-37.63h1.76c.18,0,.33.14.44.41a3.54,3.54,0,0,1,.23,1L684,350c.09.92.18,1.81.25,2.68l.21,2.6c.06-.87.13-1.74.2-2.6s.16-1.76.27-2.68l3.15-24.21a3.78,3.78,0,0,1,.24-1c.12-.26.25-.39.4-.39Z"/><path d="M695.18,312.62a11.28,11.28,0,0,1-.13,1.8,9.13,9.13,0,0,1-.34,1.49,3.46,3.46,0,0,1-.49,1,.77.77,0,0,1-.6.37.74.74,0,0,1-.59-.37,3.74,3.74,0,0,1-.48-1,9.18,9.18,0,0,1-.33-1.49,12.64,12.64,0,0,1-.12-1.8,13.54,13.54,0,0,1,.12-1.84,8.89,8.89,0,0,1,.33-1.52,3.74,3.74,0,0,1,.48-1,.74.74,0,0,1,.59-.37.77.77,0,0,1,.6.37,3.46,3.46,0,0,1,.49,1,8.84,8.84,0,0,1,.34,1.52A12.08,12.08,0,0,1,695.18,312.62Zm-.46,11.81v37.63h-2.16V324.43Z"/><path d="M708.63,325.92v2.45q0,1.23-.51,1.56l-1.4.56a32.16,32.16,0,0,1,.42,5.42,32.91,32.91,0,0,1-.35,5,19.51,19.51,0,0,1-.95,3.85,7,7,0,0,1-1.46,2.45,2.55,2.55,0,0,1-1.84.85,2.49,2.49,0,0,1-1.62-.63,7.16,7.16,0,0,0-.6,1.58,6.91,6.91,0,0,0-.2,1.69,4.46,4.46,0,0,0,.35,2,2.21,2.21,0,0,0,.94,1,3.68,3.68,0,0,0,1.33.37,14.24,14.24,0,0,1,1.53.24,5.72,5.72,0,0,1,1.53.58,3.73,3.73,0,0,1,1.32,1.33,8,8,0,0,1,.94,2.57,20.29,20.29,0,0,1,.36,4.23,27.54,27.54,0,0,1-.39,4.68,18.81,18.81,0,0,1-1.14,4,8.32,8.32,0,0,1-1.81,2.82,3.34,3.34,0,0,1-2.42,1.06,3.58,3.58,0,0,1-2.35-.82,6.18,6.18,0,0,1-1.67-2.19,12.42,12.42,0,0,1-1-3.17,20.91,20.91,0,0,1-.33-3.77,16.88,16.88,0,0,1,.57-4.72,8.11,8.11,0,0,1,1.57-3.08,5.65,5.65,0,0,1-.87-2,13.7,13.7,0,0,1-.32-3.36,16.53,16.53,0,0,1,.09-1.69,17.59,17.59,0,0,1,.3-1.74,14.74,14.74,0,0,1,.49-1.66,7,7,0,0,1,.68-1.37,13.65,13.65,0,0,1-1.42-4.14,31.23,31.23,0,0,1-.51-6,33.14,33.14,0,0,1,.35-5,18.31,18.31,0,0,1,1-3.82,7.21,7.21,0,0,1,1.48-2.44,2.59,2.59,0,0,1,1.87-.85,2.38,2.38,0,0,1,1.49.54,5,5,0,0,1,1.26,1.58Zm-2.2,38.18a8,8,0,0,0-.25-2.23,3.44,3.44,0,0,0-.69-1.34,2.32,2.32,0,0,0-1-.68,6.61,6.61,0,0,0-1.2-.32l-1.3-.22a6.27,6.27,0,0,1-1.26-.37,8.31,8.31,0,0,0-1.11,2.43,12.5,12.5,0,0,0-.43,3.43,11.69,11.69,0,0,0,.22,2.36,6.63,6.63,0,0,0,.64,1.9,3.77,3.77,0,0,0,1.1,1.26,2.64,2.64,0,0,0,1.56.46,2.67,2.67,0,0,0,1.56-.48,3.79,3.79,0,0,0,1.17-1.37,7.87,7.87,0,0,0,.74-2.12A13.36,13.36,0,0,0,706.43,364.1Zm-3.89-20.43a1.47,1.47,0,0,0,1.15-.56,4.55,4.55,0,0,0,.84-1.56,13.05,13.05,0,0,0,.51-2.39,26.16,26.16,0,0,0,.17-3.07,17.65,17.65,0,0,0-.69-5.49c-.45-1.36-1.11-2.05-2-2.05s-1.54.69-2,2.05a17.65,17.65,0,0,0-.69,5.49,24.06,24.06,0,0,0,.18,3.07,12.27,12.27,0,0,0,.51,2.39,4.55,4.55,0,0,0,.84,1.56A1.47,1.47,0,0,0,702.54,343.67Z"/><path d="M714.64,362.65c-1,0-1.71-.83-2.23-2.49a24.86,24.86,0,0,1-.79-7.17V330h-1.48c-.13,0-.23-.12-.32-.36a3.22,3.22,0,0,1-.14-1.09v-2.64l2-.78.49-11.63a3.27,3.27,0,0,1,.17-.9q.12-.36.33-.36h1.09v13h3.55V330h-3.55v22.58a12.26,12.26,0,0,0,.38,3.53c.25.76.57,1.15,1,1.15a.81.81,0,0,0,.59-.28,4.45,4.45,0,0,0,.43-.61l.31-.62c.08-.18.16-.28.22-.28s.21.22.3.64l.63,3.15a7.74,7.74,0,0,1-1.34,2.51A2.2,2.2,0,0,1,714.64,362.65Z"/><path d="M731,323.84a3.09,3.09,0,0,1,2.43,1.37,12,12,0,0,1,1.84,3.9,35,35,0,0,1,1.17,6.11,78.55,78.55,0,0,1,0,16,34.9,34.9,0,0,1-1.17,6.09,11.7,11.7,0,0,1-1.84,3.88,2.86,2.86,0,0,1-4.87,0,11.69,11.69,0,0,1-1.85-3.88,34.9,34.9,0,0,1-1.17-6.09,78.55,78.55,0,0,1,0-16,35,35,0,0,1,1.17-6.11,12,12,0,0,1,1.85-3.9A3.11,3.11,0,0,1,731,323.84Zm0,33.57c1.22,0,2.12-1.24,2.72-3.73a61.06,61.06,0,0,0,0-20.89c-.6-2.5-1.5-3.75-2.72-3.75a2,2,0,0,0-1.6,1,8.37,8.37,0,0,0-1.14,2.79,27.94,27.94,0,0,0-.68,4.47q-.22,2.65-.23,6a46.08,46.08,0,0,0,.91,10.42Q729.11,357.42,731,357.41Z"/><path d="M749.83,325.92v2.45q0,1.23-.51,1.56l-1.39.56A36.39,36.39,0,0,1,748,340.9a18.79,18.79,0,0,1-1,3.85,7,7,0,0,1-1.45,2.45,2.56,2.56,0,0,1-1.84.85,2.52,2.52,0,0,1-1.63-.63,6.67,6.67,0,0,0-.59,1.58,6.92,6.92,0,0,0-.21,1.69,4.45,4.45,0,0,0,.36,2,2.21,2.21,0,0,0,.94,1,3.68,3.68,0,0,0,1.33.37,14.47,14.47,0,0,1,1.52.24,5.6,5.6,0,0,1,1.53.58,3.75,3.75,0,0,1,1.33,1.33,8.22,8.22,0,0,1,.94,2.57,20.29,20.29,0,0,1,.36,4.23,26.55,26.55,0,0,1-.4,4.68,18.82,18.82,0,0,1-1.13,4,8.47,8.47,0,0,1-1.81,2.82,3.37,3.37,0,0,1-2.42,1.06,3.61,3.61,0,0,1-2.36-.82,6.3,6.3,0,0,1-1.67-2.19,12.43,12.43,0,0,1-1-3.17,20.91,20.91,0,0,1-.33-3.77,16.88,16.88,0,0,1,.57-4.72,8.24,8.24,0,0,1,1.56-3.08,6,6,0,0,1-.87-2,16.47,16.47,0,0,1-.22-5.05,13.2,13.2,0,0,1,.3-1.74,11.5,11.5,0,0,1,.49-1.66,6.48,6.48,0,0,1,.68-1.37,13.38,13.38,0,0,1-1.42-4.14,31.23,31.23,0,0,1-.51-6,33.21,33.21,0,0,1,.34-5,18.91,18.91,0,0,1,1-3.82,7.05,7.05,0,0,1,1.47-2.44,2.61,2.61,0,0,1,1.88-.85,2.38,2.38,0,0,1,1.49.54,5,5,0,0,1,1.26,1.58Zm-2.19,38.18a8,8,0,0,0-.26-2.23,3.44,3.44,0,0,0-.68-1.34,2.38,2.38,0,0,0-1-.68,6.5,6.5,0,0,0-1.21-.32l-1.29-.22a5.91,5.91,0,0,1-1.26-.37,8.31,8.31,0,0,0-1.11,2.43,12.13,12.13,0,0,0-.43,3.43,12.48,12.48,0,0,0,.21,2.36,6.63,6.63,0,0,0,.65,1.9,3.66,3.66,0,0,0,1.1,1.26,2.64,2.64,0,0,0,1.56.46,2.67,2.67,0,0,0,1.56-.48,3.88,3.88,0,0,0,1.17-1.37,7.87,7.87,0,0,0,.73-2.12A13.33,13.33,0,0,0,747.64,364.1Zm-3.89-20.43a1.48,1.48,0,0,0,1.15-.56,4.38,4.38,0,0,0,.83-1.56,11.57,11.57,0,0,0,.51-2.39,24.16,24.16,0,0,0,.17-3.07,18,18,0,0,0-.68-5.49c-.46-1.36-1.12-2.05-2-2.05s-1.54.69-2,2.05a17.69,17.69,0,0,0-.68,5.49,24.16,24.16,0,0,0,.17,3.07,12.22,12.22,0,0,0,.52,2.39,4.38,4.38,0,0,0,.83,1.56A1.49,1.49,0,0,0,743.75,343.67Z"/><path d="M759.08,362.06v-32l-1.35-.49a1.29,1.29,0,0,1-.42-.57,3,3,0,0,1-.16-1.13v-2.72h1.93v-3.64a48.67,48.67,0,0,1,.3-5.73,22.9,22.9,0,0,1,.85-4.24,7.51,7.51,0,0,1,1.33-2.62,2.3,2.3,0,0,1,1.75-.89,2,2,0,0,1,1.51.74l-.05,3.31c0,.6-.12.92-.32,1a3.39,3.39,0,0,1-.79.07,1.44,1.44,0,0,0-1,.45,3.59,3.59,0,0,0-.78,1.45,13.24,13.24,0,0,0-.5,2.63,38,38,0,0,0-.18,4.05v3.45h3.54V330h-3.46v32.09Z"/><path d="M771.56,323.84a3.09,3.09,0,0,1,2.43,1.37,12,12,0,0,1,1.84,3.9,35,35,0,0,1,1.17,6.11,78.55,78.55,0,0,1,0,16,34.9,34.9,0,0,1-1.17,6.09,11.7,11.7,0,0,1-1.84,3.88,2.86,2.86,0,0,1-4.87,0,11.69,11.69,0,0,1-1.85-3.88,34.9,34.9,0,0,1-1.17-6.09,78.55,78.55,0,0,1,0-16,35,35,0,0,1,1.17-6.11,12,12,0,0,1,1.85-3.9A3.11,3.11,0,0,1,771.56,323.84Zm0,33.57c1.22,0,2.12-1.24,2.72-3.73a61.06,61.06,0,0,0,0-20.89c-.6-2.5-1.5-3.75-2.72-3.75a2,2,0,0,0-1.6,1,8.37,8.37,0,0,0-1.14,2.79,27.94,27.94,0,0,0-.68,4.47q-.23,2.65-.23,6a46.08,46.08,0,0,0,.91,10.42Q769.72,357.42,771.56,357.41Z"/><path d="M782.19,332a28.35,28.35,0,0,1,1.43-6c.56-1.45,1.25-2.18,2.07-2.18a1.29,1.29,0,0,1,.75.26,2.31,2.31,0,0,1,.63.82l-.15,4.94c0,.62-.17.93-.37.93a1.15,1.15,0,0,1-.5-.22,1.25,1.25,0,0,0-.74-.23,1.37,1.37,0,0,0-1,.52,4.66,4.66,0,0,0-.82,1.54,19.66,19.66,0,0,0-.64,2.53c-.19,1-.36,2.15-.51,3.44v23.77h-2.17V324.43h1.23a.5.5,0,0,1,.49.41,5.88,5.88,0,0,1,.18,1.41Z"/><path d="M792.74,362.65c-1,0-1.72-.83-2.24-2.49a25.28,25.28,0,0,1-.78-7.17V330h-1.48q-.19,0-.33-.36a3.27,3.27,0,0,1-.13-1.09v-2.64l2-.78.5-11.63a3.31,3.31,0,0,1,.16-.9q.13-.36.33-.36h1.1v13h3.55V330h-3.55v22.58a12.33,12.33,0,0,0,.37,3.53c.25.76.58,1.15,1,1.15a.79.79,0,0,0,.59-.28,3.72,3.72,0,0,0,.43-.61c.12-.23.22-.43.31-.62s.16-.28.22-.28.22.22.31.64l.63,3.15a7.74,7.74,0,0,1-1.35,2.51A2.2,2.2,0,0,1,792.74,362.65Z"/><path d="M797.34,329.74a15.19,15.19,0,0,1,2.2-4.49,3.33,3.33,0,0,1,2.61-1.49,2.32,2.32,0,0,1,1.83,1,8.92,8.92,0,0,1,1.34,2.9,25.67,25.67,0,0,1,.83,4.49,57.08,57.08,0,0,1,.28,5.8v24.07h-1a.55.55,0,0,1-.49-.32,3.83,3.83,0,0,1-.26-1.24l-.25-3.57c-.32.92-.64,1.73-.94,2.43a10.51,10.51,0,0,1-1,1.79,4.27,4.27,0,0,1-1.09,1.11,2.22,2.22,0,0,1-1.28.39,1.9,1.9,0,0,1-1.34-.61,5,5,0,0,1-1.1-1.84,14.88,14.88,0,0,1-.74-3.1,31.63,31.63,0,0,1-.27-4.44,22.15,22.15,0,0,1,.4-4.29,12,12,0,0,1,1.3-3.66,7.77,7.77,0,0,1,2.34-2.62,6.84,6.84,0,0,1,3.54-1.17V338a26.8,26.8,0,0,0-.62-6.63c-.41-1.5-1-2.25-1.81-2.25a1.74,1.74,0,0,0-1.34.61,6.68,6.68,0,0,0-.93,1.38c-.27.51-.49,1-.68,1.37s-.38.62-.56.62-.28-.12-.38-.36a3.74,3.74,0,0,1-.27-.87Zm7,15.38a6.66,6.66,0,0,0-2.54.72,5.1,5.1,0,0,0-1.71,1.51,6.06,6.06,0,0,0-1,2.19,12.2,12.2,0,0,0-.3,2.82,17.15,17.15,0,0,0,.16,2.56,7.9,7.9,0,0,0,.43,1.77,2.43,2.43,0,0,0,.64,1,1.22,1.22,0,0,0,.8.32,1.68,1.68,0,0,0,1-.36,3.66,3.66,0,0,0,.89-1,9.79,9.79,0,0,0,.8-1.59c.26-.62.5-1.33.75-2.12Z"/><path d="M811.88,329.85a18.19,18.19,0,0,1,1.76-4.38,2.72,2.72,0,0,1,2.24-1.63,2.42,2.42,0,0,1,2,1.26,11.43,11.43,0,0,1,1.47,3.66,37.65,37.65,0,0,1,.93,5.81c.22,2.28.32,4.84.32,7.69,0,3-.12,5.82-.36,8.32a41.77,41.77,0,0,1-1.05,6.41,13.59,13.59,0,0,1-1.67,4.12,2.72,2.72,0,0,1-2.2,1.47,2.41,2.41,0,0,1-2-1.4,15,15,0,0,1-1.45-3.95l-.1,3.41c-.07.95-.26,1.42-.56,1.42h-1.4V307.35h2.17Zm0,23.14a10.65,10.65,0,0,0,1.31,3.46,2,2,0,0,0,1.56,1c1.15,0,2-1.25,2.65-3.75a50.08,50.08,0,0,0,.92-11.18,45.23,45.23,0,0,0-.82-10.16c-.54-2.16-1.32-3.25-2.33-3.25-.7,0-1.32.5-1.84,1.49a19.55,19.55,0,0,0-1.45,4.19Z"/><path d="M826.91,362.65c-1,0-1.72-.83-2.24-2.49a25.28,25.28,0,0,1-.78-7.17V330h-1.48q-.2,0-.33-.36a3.27,3.27,0,0,1-.13-1.09v-2.64l2-.78.5-11.63a3.31,3.31,0,0,1,.16-.9c.09-.24.2-.36.34-.36h1.09v13h3.55V330h-3.55v22.58a12.33,12.33,0,0,0,.37,3.53c.25.76.58,1.15,1,1.15A.77.77,0,0,0,828,357a3.2,3.2,0,0,0,.43-.61c.12-.23.23-.43.31-.62s.16-.28.23-.28.21.22.3.64l.63,3.15a7.56,7.56,0,0,1-1.35,2.51A2.17,2.17,0,0,1,826.91,362.65Z"/><path d="M838,362.06V324.43h1.3q.45,0,.57,1.38l.16,3.86a21,21,0,0,1,1.52-4.2c.57-1.09,1.22-1.63,2-1.63s1.49.7,2,2.11a23.29,23.29,0,0,1,1.11,5.72,25.23,25.23,0,0,1,.69-3.52,12.33,12.33,0,0,1,.94-2.46,4.44,4.44,0,0,1,1.11-1.41,2,2,0,0,1,1.19-.44,2.18,2.18,0,0,1,1.73.94,8.23,8.23,0,0,1,1.29,2.77,25.83,25.83,0,0,1,.8,4.48,57.52,57.52,0,0,1,.28,6.07v24h-2.17v-24a26.8,26.8,0,0,0-.63-6.7c-.42-1.53-1-2.29-1.82-2.29a1.33,1.33,0,0,0-1,.58,5,5,0,0,0-.84,1.69,14.49,14.49,0,0,0-.58,2.8,32.18,32.18,0,0,0-.21,3.92v24h-2.17v-24a28.09,28.09,0,0,0-.6-6.76c-.39-1.49-1-2.23-1.73-2.23-.53,0-1,.44-1.48,1.32a17.34,17.34,0,0,0-1.25,3.58v28.05Z"/><path d="M868,356.78a13.69,13.69,0,0,1-1,2.58,8,8,0,0,1-1.2,1.8,4.63,4.63,0,0,1-1.31,1.06,2.85,2.85,0,0,1-1.35.36,3,3,0,0,1-2.34-1.32,11.43,11.43,0,0,1-1.86-3.87,35.8,35.8,0,0,1-1.22-6.29,75.68,75.68,0,0,1-.43-8.62,65,65,0,0,1,.39-7.35,35.81,35.81,0,0,1,1.13-5.93,12.66,12.66,0,0,1,1.81-3.93,3,3,0,0,1,2.4-1.43,2.63,2.63,0,0,1,2,1.13,9.94,9.94,0,0,1,1.63,3.27,29.12,29.12,0,0,1,1.07,5.27,58.66,58.66,0,0,1,.39,7.15,12.71,12.71,0,0,1-.11,2.08c-.07.35-.21.52-.41.52h-8.21q0,3.57.32,6.2a26.49,26.49,0,0,0,.8,4.41,7.43,7.43,0,0,0,1.21,2.63,2,2,0,0,0,1.57.88,1.93,1.93,0,0,0,1.4-.58,7,7,0,0,0,1-1.24,14.14,14.14,0,0,0,.71-1.25c.19-.38.35-.57.49-.57s.31.21.41.63Zm-1.75-17.64a38.91,38.91,0,0,0-.21-4.22,19.66,19.66,0,0,0-.62-3.3,6.61,6.61,0,0,0-1-2.16,1.68,1.68,0,0,0-1.32-.76c-1,0-1.85.93-2.46,2.77a30.32,30.32,0,0,0-1.12,7.67Z"/><path d="M881,307.35v54.71h-1.29c-.31,0-.5-.46-.58-1.38l-.2-4.57a20.58,20.58,0,0,1-1.79,4.68c-.67,1.19-1.45,1.79-2.33,1.79a2.39,2.39,0,0,1-1.91-1.25,11.24,11.24,0,0,1-1.47-3.66,39.53,39.53,0,0,1-.94-6q-.32-3.62-.32-8.29,0-4.15.36-7.74a42.47,42.47,0,0,1,1-6.22,14.07,14.07,0,0,1,1.67-4.14,2.74,2.74,0,0,1,2.23-1.51,2.32,2.32,0,0,1,1.93,1.17,11.87,11.87,0,0,1,1.44,3.25V307.35Zm-2.16,26a10.9,10.9,0,0,0-1.31-3.47,2,2,0,0,0-1.58-1q-1.71,0-2.63,3.75a47.69,47.69,0,0,0-.92,10.69c0,2.46.07,4.55.2,6.3a29,29,0,0,0,.61,4.31,7,7,0,0,0,1,2.47,1.65,1.65,0,0,0,1.32.78c.72,0,1.34-.5,1.87-1.49a18.88,18.88,0,0,0,1.46-4.2Z"/><path d="M900.75,307.35v54.71h-1.29c-.31,0-.5-.46-.58-1.38l-.2-4.57a20.58,20.58,0,0,1-1.79,4.68c-.67,1.19-1.45,1.79-2.33,1.79a2.39,2.39,0,0,1-1.91-1.25,11.24,11.24,0,0,1-1.47-3.66,39.53,39.53,0,0,1-.94-6q-.32-3.62-.32-8.29,0-4.15.36-7.74a42.47,42.47,0,0,1,1-6.22,14.07,14.07,0,0,1,1.67-4.14,2.74,2.74,0,0,1,2.23-1.51,2.32,2.32,0,0,1,1.93,1.17,11.87,11.87,0,0,1,1.44,3.25V307.35Zm-2.16,26a10.9,10.9,0,0,0-1.31-3.47,2,2,0,0,0-1.58-1q-1.71,0-2.63,3.75a47.69,47.69,0,0,0-.92,10.69c0,2.46.07,4.55.2,6.3A29,29,0,0,0,893,354a7,7,0,0,0,1,2.47,1.65,1.65,0,0,0,1.32.78c.72,0,1.34-.5,1.87-1.49a18.88,18.88,0,0,0,1.46-4.2Z"/><path d="M914.13,356.78a12.44,12.44,0,0,1-1,2.58,8,8,0,0,1-1.19,1.8,4.63,4.63,0,0,1-1.31,1.06,2.91,2.91,0,0,1-1.35.36,3,3,0,0,1-2.35-1.32,11.63,11.63,0,0,1-1.85-3.87,35.8,35.8,0,0,1-1.22-6.29,75.5,75.5,0,0,1-.44-8.62,62.68,62.68,0,0,1,.4-7.35A35.81,35.81,0,0,1,905,329.2a12.22,12.22,0,0,1,1.81-3.93,3,3,0,0,1,2.4-1.43,2.66,2.66,0,0,1,2,1.13,9.94,9.94,0,0,1,1.63,3.27,30,30,0,0,1,1.07,5.27,58.66,58.66,0,0,1,.39,7.15,12.71,12.71,0,0,1-.11,2.08c-.07.35-.21.52-.41.52H905.6q0,3.57.32,6.2a26.6,26.6,0,0,0,.79,4.41,7.8,7.8,0,0,0,1.21,2.63,2,2,0,0,0,1.58.88,2,2,0,0,0,1.4-.58,6.94,6.94,0,0,0,1-1.24,12,12,0,0,0,.71-1.25c.19-.38.36-.57.49-.57s.32.21.42.63Zm-1.74-17.64a36.4,36.4,0,0,0-.22-4.22,19.74,19.74,0,0,0-.61-3.3,6.61,6.61,0,0,0-1-2.16,1.68,1.68,0,0,0-1.32-.76c-1,0-1.86.93-2.46,2.77a29.88,29.88,0,0,0-1.12,7.67Z"/><path d="M922.86,329.74a15.44,15.44,0,0,1,2.2-4.49,3.33,3.33,0,0,1,2.61-1.49,2.32,2.32,0,0,1,1.83,1,8.92,8.92,0,0,1,1.34,2.9,25.67,25.67,0,0,1,.83,4.49A57.08,57.08,0,0,1,932,338v24.07h-1a.55.55,0,0,1-.49-.32,3.83,3.83,0,0,1-.26-1.24l-.24-3.57c-.33.92-.64,1.73-1,2.43a10.51,10.51,0,0,1-1,1.79,4.27,4.27,0,0,1-1.09,1.11,2.22,2.22,0,0,1-1.28.39,1.9,1.9,0,0,1-1.34-.61,5,5,0,0,1-1.1-1.84,14.88,14.88,0,0,1-.74-3.1,31.63,31.63,0,0,1-.27-4.44,22.15,22.15,0,0,1,.4-4.29,12,12,0,0,1,1.3-3.66,7.77,7.77,0,0,1,2.34-2.62,6.84,6.84,0,0,1,3.54-1.17V338a26.8,26.8,0,0,0-.62-6.63c-.41-1.5-1-2.25-1.81-2.25a1.74,1.74,0,0,0-1.34.61,6.68,6.68,0,0,0-.93,1.38c-.26.51-.49,1-.68,1.37s-.38.62-.56.62-.28-.12-.38-.36a4.29,4.29,0,0,1-.27-.87Zm7,15.38a6.66,6.66,0,0,0-2.54.72,5.1,5.1,0,0,0-1.71,1.51,6.24,6.24,0,0,0-1,2.19,12.2,12.2,0,0,0-.3,2.82,17.15,17.15,0,0,0,.16,2.56,7.9,7.9,0,0,0,.43,1.77,2.54,2.54,0,0,0,.64,1,1.22,1.22,0,0,0,.8.32,1.68,1.68,0,0,0,1-.36,3.66,3.66,0,0,0,.89-1,9.79,9.79,0,0,0,.8-1.59c.26-.62.5-1.33.75-2.12Z"/><path d="M937.27,329.89c.27-.91.55-1.74.85-2.49a12.58,12.58,0,0,1,1-1.91,4.73,4.73,0,0,1,1.07-1.23,2,2,0,0,1,1.22-.42,2.19,2.19,0,0,1,1.77,1,8.46,8.46,0,0,1,1.29,2.9,28.42,28.42,0,0,1,.78,4.51,57.57,57.57,0,0,1,.27,5.83v24H943.3v-24a26.91,26.91,0,0,0-.64-6.63c-.42-1.57-1.07-2.36-1.93-2.36-.64,0-1.24.47-1.79,1.41a16.9,16.9,0,0,0-1.54,3.83v27.71h-2.17V324.43h1.3q.47,0,.57,1.38Z"/><path d="M958.93,307.35v54.71h-1.29c-.3,0-.5-.46-.58-1.38l-.19-4.57a21,21,0,0,1-1.8,4.68c-.67,1.19-1.45,1.79-2.33,1.79a2.39,2.39,0,0,1-1.91-1.25,11.24,11.24,0,0,1-1.47-3.66,41,41,0,0,1-.93-6q-.33-3.62-.33-8.29,0-4.15.36-7.74a42.37,42.37,0,0,1,1-6.22,13.82,13.82,0,0,1,1.66-4.14,2.74,2.74,0,0,1,2.23-1.51,2.32,2.32,0,0,1,1.93,1.17,11.87,11.87,0,0,1,1.44,3.25V307.35Zm-2.16,26a10.67,10.67,0,0,0-1.31-3.47,2,2,0,0,0-1.58-1c-1.14,0-2,1.25-2.63,3.75a47.69,47.69,0,0,0-.92,10.69c0,2.46.07,4.55.21,6.3a29.19,29.19,0,0,0,.6,4.31,7,7,0,0,0,1,2.47,1.63,1.63,0,0,0,1.32.78c.71,0,1.33-.5,1.86-1.49a18.38,18.38,0,0,0,1.46-4.2Z"/><path d="M964.4,332a29,29,0,0,1,1.43-6c.56-1.45,1.25-2.18,2.07-2.18a1.29,1.29,0,0,1,.75.26,2.2,2.2,0,0,1,.63.82l-.15,4.94c0,.62-.17.93-.37.93a1.08,1.08,0,0,1-.49-.22,1.3,1.3,0,0,0-.74-.23,1.37,1.37,0,0,0-1,.52,4.86,4.86,0,0,0-.81,1.54,18,18,0,0,0-.65,2.53c-.19,1-.36,2.15-.51,3.44v23.77h-2.17V324.43h1.23a.5.5,0,0,1,.49.41,5.88,5.88,0,0,1,.18,1.41Z"/><path d="M980.65,356.78a13.69,13.69,0,0,1-1,2.58,8,8,0,0,1-1.2,1.8,4.63,4.63,0,0,1-1.31,1.06,2.85,2.85,0,0,1-1.35.36,3,3,0,0,1-2.34-1.32,11.43,11.43,0,0,1-1.86-3.87,35.8,35.8,0,0,1-1.22-6.29,75.68,75.68,0,0,1-.43-8.62,65,65,0,0,1,.39-7.35,35.81,35.81,0,0,1,1.13-5.93,12.66,12.66,0,0,1,1.81-3.93,3,3,0,0,1,2.4-1.43,2.63,2.63,0,0,1,2,1.13,9.94,9.94,0,0,1,1.63,3.27,29.12,29.12,0,0,1,1.07,5.27,58.66,58.66,0,0,1,.39,7.15,12.71,12.71,0,0,1-.11,2.08c-.07.35-.21.52-.41.52h-8.21q0,3.57.32,6.2a26.49,26.49,0,0,0,.8,4.41,7.43,7.43,0,0,0,1.21,2.63,2,2,0,0,0,1.57.88,2,2,0,0,0,1.41-.58,7.41,7.41,0,0,0,1-1.24,14.14,14.14,0,0,0,.71-1.25c.19-.38.35-.57.49-.57s.31.21.41.63Zm-1.75-17.64a38.91,38.91,0,0,0-.21-4.22,19.66,19.66,0,0,0-.62-3.3,6.61,6.61,0,0,0-1-2.16,1.68,1.68,0,0,0-1.32-.76c-1,0-1.85.93-2.46,2.77a30.32,30.32,0,0,0-1.12,7.67Z"/><path d="M991.86,329.85a18.19,18.19,0,0,1,1.76-4.38,2.72,2.72,0,0,1,2.25-1.63,2.42,2.42,0,0,1,1.94,1.26,11.65,11.65,0,0,1,1.48,3.66,39,39,0,0,1,.92,5.81c.22,2.28.32,4.84.32,7.69,0,3-.12,5.82-.36,8.32a41.77,41.77,0,0,1-1,6.41,13.34,13.34,0,0,1-1.67,4.12,2.72,2.72,0,0,1-2.2,1.47,2.41,2.41,0,0,1-2-1.4,15,15,0,0,1-1.45-3.95l-.1,3.41c-.07.95-.26,1.42-.56,1.42h-1.4V307.35h2.17Zm0,23.14a10.65,10.65,0,0,0,1.31,3.46,2,2,0,0,0,1.56,1c1.15,0,2-1.25,2.65-3.75a50.08,50.08,0,0,0,.92-11.18,45.23,45.23,0,0,0-.82-10.16c-.54-2.16-1.32-3.25-2.33-3.25-.7,0-1.32.5-1.84,1.49a19.55,19.55,0,0,0-1.45,4.19Z"/><path d="M1012.75,329.19a36.61,36.61,0,0,1,1.15,6.09,70.23,70.23,0,0,1,.4,7.94,71.62,71.62,0,0,1-.41,8,34.9,34.9,0,0,1-1.17,6.09,11.7,11.7,0,0,1-1.84,3.88,3.11,3.11,0,0,1-2.43,1.36,2.66,2.66,0,0,1-1.71-.64,5.76,5.76,0,0,1-1.45-1.82l-.67,2.75a3.65,3.65,0,0,1-.61,1.56,1,1,0,0,1-.72.45h-.82l1.76-7.28a34.6,34.6,0,0,1-1.22-6.18,78.33,78.33,0,0,1,0-16.2,35,35,0,0,1,1.17-6.11,12,12,0,0,1,1.85-3.9,3.11,3.11,0,0,1,2.44-1.37,2.68,2.68,0,0,1,1.78.7,6.75,6.75,0,0,1,1.5,2l.82-3.38a7.48,7.48,0,0,1,.42-1.45.64.64,0,0,1,.6-.41h1.08Zm-2.07,1.7c-.59-1.38-1.33-2.08-2.23-2.08a2,2,0,0,0-1.62,1,8.69,8.69,0,0,0-1.18,2.86,29.71,29.71,0,0,0-.73,4.55q-.24,2.68-.24,6a50.69,50.69,0,0,0,.72,9.55Zm-4.36,24.93c.56,1.18,1.28,1.78,2.13,1.78a2,2,0,0,0,1.61-1,8.81,8.81,0,0,0,1.18-2.84,28.44,28.44,0,0,0,.72-4.51q.24-2.65.24-6a54.43,54.43,0,0,0-.63-9.17Z"/><path d="M1019.06,332a28.89,28.89,0,0,1,1.44-6c.56-1.45,1.25-2.18,2.07-2.18a1.24,1.24,0,0,1,.74.26,2.32,2.32,0,0,1,.64.82l-.16,4.94c0,.62-.17.93-.36.93a1.15,1.15,0,0,1-.5-.22,1.27,1.27,0,0,0-.74-.23,1.35,1.35,0,0,0-1,.52,4.66,4.66,0,0,0-.82,1.54,18.13,18.13,0,0,0-.64,2.53c-.19,1-.36,2.15-.51,3.44v23.77H1017V324.43h1.24a.5.5,0,0,1,.49.41,5.88,5.88,0,0,1,.18,1.41Z"/><path d="M1027.88,329.89c.27-.91.55-1.74.85-2.49a11.71,11.71,0,0,1,1-1.91,4.73,4.73,0,0,1,1.07-1.23,2,2,0,0,1,1.22-.42,2.19,2.19,0,0,1,1.77,1,8.65,8.65,0,0,1,1.29,2.9,28.42,28.42,0,0,1,.78,4.51,57.57,57.57,0,0,1,.27,5.83v24h-2.17v-24a26.91,26.91,0,0,0-.64-6.63c-.42-1.57-1.07-2.36-1.93-2.36-.64,0-1.24.47-1.79,1.41a16.9,16.9,0,0,0-1.54,3.83v27.71h-2.17V324.43h1.3q.46,0,.57,1.38Z"/><path d="M1055.69,324.43v37.63h-1.29c-.31,0-.5-.46-.58-1.38l-.17-4.05a19,19,0,0,1-1.8,4.37,2.77,2.77,0,0,1-2.28,1.65,2.19,2.19,0,0,1-1.77-1,8.43,8.43,0,0,1-1.29-2.88,27,27,0,0,1-.79-4.49q-.26-2.64-.26-5.84v-24h2.16v24a26.29,26.29,0,0,0,.64,6.62c.42,1.56,1.07,2.34,1.94,2.34.64,0,1.24-.47,1.79-1.4a16.44,16.44,0,0,0,1.54-3.84V324.43Z"/><path d="M1069.27,307.35v54.71H1068c-.31,0-.5-.46-.58-1.38l-.19-4.57a21,21,0,0,1-1.8,4.68c-.67,1.19-1.45,1.79-2.33,1.79a2.39,2.39,0,0,1-1.91-1.25,11.24,11.24,0,0,1-1.47-3.66,38.44,38.44,0,0,1-.93-6q-.33-3.62-.33-8.29,0-4.15.36-7.74a42.47,42.47,0,0,1,1-6.22,14.07,14.07,0,0,1,1.67-4.14,2.74,2.74,0,0,1,2.23-1.51,2.32,2.32,0,0,1,1.93,1.17,11.87,11.87,0,0,1,1.44,3.25V307.35Zm-2.16,26a10.9,10.9,0,0,0-1.31-3.47,2,2,0,0,0-1.58-1c-1.14,0-2,1.25-2.63,3.75a47.69,47.69,0,0,0-.92,10.69c0,2.46.07,4.55.21,6.3a29.19,29.19,0,0,0,.6,4.31,7.18,7.18,0,0,0,1,2.47,1.66,1.66,0,0,0,1.33.78c.71,0,1.33-.5,1.86-1.49a18.88,18.88,0,0,0,1.46-4.2Z"/><path d="M1082.65,356.78a13,13,0,0,1-1,2.58,8.39,8.39,0,0,1-1.2,1.8,4.63,4.63,0,0,1-1.31,1.06,2.88,2.88,0,0,1-1.35.36,3,3,0,0,1-2.35-1.32,11.63,11.63,0,0,1-1.85-3.87,35.8,35.8,0,0,1-1.22-6.29,75.5,75.5,0,0,1-.44-8.62,62.68,62.68,0,0,1,.4-7.35,35.81,35.81,0,0,1,1.13-5.93,12.43,12.43,0,0,1,1.81-3.93,3,3,0,0,1,2.4-1.43,2.64,2.64,0,0,1,2,1.13,9.94,9.94,0,0,1,1.63,3.27,30,30,0,0,1,1.07,5.27,58.66,58.66,0,0,1,.39,7.15,12.71,12.71,0,0,1-.11,2.08c-.07.35-.21.52-.41.52h-8.21q0,3.57.32,6.2a26.6,26.6,0,0,0,.79,4.41,7.6,7.6,0,0,0,1.22,2.63,2,2,0,0,0,1.57.88,2,2,0,0,0,1.4-.58,7.47,7.47,0,0,0,1-1.24,11.79,11.79,0,0,0,.7-1.25c.19-.38.36-.57.5-.57s.31.21.41.63Zm-1.74-17.64a38.91,38.91,0,0,0-.21-4.22,20.73,20.73,0,0,0-.62-3.3,6.61,6.61,0,0,0-1-2.16,1.68,1.68,0,0,0-1.32-.76c-1,0-1.86.93-2.46,2.77a30.32,30.32,0,0,0-1.12,7.67Z"/><path d="M1094.44,312.62a11.28,11.28,0,0,1-.13,1.8,8.2,8.2,0,0,1-.34,1.49,3.46,3.46,0,0,1-.49,1,.77.77,0,0,1-.6.37.74.74,0,0,1-.59-.37,3.74,3.74,0,0,1-.48-1,9.18,9.18,0,0,1-.33-1.49,12.64,12.64,0,0,1-.12-1.8,13.54,13.54,0,0,1,.12-1.84,8.89,8.89,0,0,1,.33-1.52,3.74,3.74,0,0,1,.48-1,.74.74,0,0,1,.59-.37.77.77,0,0,1,.6.37,3.46,3.46,0,0,1,.49,1,8,8,0,0,1,.34,1.52A12.08,12.08,0,0,1,1094.44,312.62Zm-.46,11.81v37.63h-2.16V324.43Z"/><path d="M1113.89,307.35v54.71h-1.28c-.31,0-.5-.46-.59-1.38l-.19-4.57a20.58,20.58,0,0,1-1.79,4.68c-.67,1.19-1.45,1.79-2.33,1.79a2.4,2.4,0,0,1-1.92-1.25,11.7,11.7,0,0,1-1.47-3.66,41,41,0,0,1-.93-6q-.33-3.62-.33-8.29a74.68,74.68,0,0,1,.37-7.74,42.47,42.47,0,0,1,1-6.22,13.8,13.8,0,0,1,1.67-4.14,2.74,2.74,0,0,1,2.22-1.51,2.34,2.34,0,0,1,1.94,1.17,12.2,12.2,0,0,1,1.43,3.25V307.35Zm-2.16,26a10.67,10.67,0,0,0-1.31-3.47,1.93,1.93,0,0,0-1.57-1q-1.71,0-2.63,3.75a47,47,0,0,0-.93,10.69c0,2.46.07,4.55.21,6.3a29,29,0,0,0,.61,4.31,6.8,6.8,0,0,0,1,2.47,1.65,1.65,0,0,0,1.32.78c.71,0,1.33-.5,1.86-1.49a18.38,18.38,0,0,0,1.46-4.2Z"/><path d="M1127.28,356.78a13.69,13.69,0,0,1-1,2.58,8.38,8.38,0,0,1-1.19,1.8,4.81,4.81,0,0,1-1.32,1.06,2.85,2.85,0,0,1-1.35.36,3,3,0,0,1-2.34-1.32,11.62,11.62,0,0,1-1.86-3.87,36.75,36.75,0,0,1-1.22-6.29,75.68,75.68,0,0,1-.43-8.62,65,65,0,0,1,.39-7.35,34.74,34.74,0,0,1,1.14-5.93,12.44,12.44,0,0,1,1.8-3.93,3,3,0,0,1,2.4-1.43,2.66,2.66,0,0,1,2.05,1.13,9.94,9.94,0,0,1,1.62,3.27,28.28,28.28,0,0,1,1.07,5.27,58.66,58.66,0,0,1,.39,7.15,11.63,11.63,0,0,1-.11,2.08c-.07.35-.21.52-.41.52h-8.21c0,2.38.13,4.45.32,6.2a26.49,26.49,0,0,0,.8,4.41,7.61,7.61,0,0,0,1.21,2.63,2,2,0,0,0,1.58.88,2,2,0,0,0,1.4-.58,6.94,6.94,0,0,0,1-1.24,14.14,14.14,0,0,0,.71-1.25c.19-.38.35-.57.49-.57s.32.21.41.63Zm-1.75-17.64a38.91,38.91,0,0,0-.21-4.22,19.66,19.66,0,0,0-.62-3.3,6.61,6.61,0,0,0-1-2.16,1.65,1.65,0,0,0-1.32-.76c-1,0-1.85.93-2.45,2.77a29.44,29.44,0,0,0-1.12,7.67Z"/><path d="M1132.15,329.89c.27-.91.55-1.74.85-2.49a11.7,11.7,0,0,1,1-1.91,4.71,4.71,0,0,1,1.06-1.23,2,2,0,0,1,1.22-.42,2.22,2.22,0,0,1,1.78,1,8.66,8.66,0,0,1,1.28,2.9,26.31,26.31,0,0,1,.78,4.51,57.57,57.57,0,0,1,.27,5.83v24h-2.17v-24a26.43,26.43,0,0,0-.64-6.63c-.42-1.57-1.06-2.36-1.93-2.36-.64,0-1.23.47-1.79,1.41a17.42,17.42,0,0,0-1.53,3.83v27.71h-2.17V324.43h1.3c.3,0,.49.46.56,1.38Z"/><path d="M1149.86,362.06V324.43h1.3q.45,0,.57,1.38l.15,3.86a21.63,21.63,0,0,1,1.53-4.2c.57-1.09,1.22-1.63,2-1.63s1.49.7,2,2.11a23.29,23.29,0,0,1,1.11,5.72,25.23,25.23,0,0,1,.69-3.52,12.33,12.33,0,0,1,.94-2.46,4.44,4.44,0,0,1,1.11-1.41,2,2,0,0,1,1.19-.44,2.19,2.19,0,0,1,1.73.94,8.23,8.23,0,0,1,1.29,2.77,25.83,25.83,0,0,1,.8,4.48,57.52,57.52,0,0,1,.28,6.07v24h-2.17v-24a26.8,26.8,0,0,0-.63-6.7c-.42-1.53-1-2.29-1.82-2.29a1.32,1.32,0,0,0-1,.58,5,5,0,0,0-.84,1.69,14.49,14.49,0,0,0-.58,2.8,32.18,32.18,0,0,0-.21,3.92v24h-2.17v-24a28.09,28.09,0,0,0-.6-6.76c-.39-1.49-1-2.23-1.73-2.23-.54,0-1,.44-1.48,1.32A17.34,17.34,0,0,0,1152,334v28.05Z"/><path d="M1179.28,329.19a36.61,36.61,0,0,1,1.15,6.09,70.23,70.23,0,0,1,.4,7.94,71.62,71.62,0,0,1-.41,8,34.9,34.9,0,0,1-1.17,6.09,11.7,11.7,0,0,1-1.84,3.88,3.11,3.11,0,0,1-2.43,1.36,2.66,2.66,0,0,1-1.71-.64,5.9,5.9,0,0,1-1.45-1.82l-.67,2.75a3.65,3.65,0,0,1-.61,1.56,1,1,0,0,1-.72.45H1169l1.75-7.28a34.6,34.6,0,0,1-1.22-6.18,80.23,80.23,0,0,1,0-16.2,35,35,0,0,1,1.17-6.11,12,12,0,0,1,1.85-3.9,3.11,3.11,0,0,1,2.44-1.37,2.66,2.66,0,0,1,1.78.7,6.59,6.59,0,0,1,1.5,2l.82-3.38a7.48,7.48,0,0,1,.42-1.45.64.64,0,0,1,.6-.41h1.08Zm-2.06,1.7c-.59-1.38-1.34-2.08-2.24-2.08a2,2,0,0,0-1.62,1,8.91,8.91,0,0,0-1.18,2.86,28.64,28.64,0,0,0-.72,4.55q-.26,2.68-.25,6a50.69,50.69,0,0,0,.72,9.55Zm-4.37,24.93c.57,1.18,1.28,1.78,2.13,1.78a2,2,0,0,0,1.61-1,8.59,8.59,0,0,0,1.18-2.84,28.44,28.44,0,0,0,.72-4.51q.24-2.65.24-6a54.43,54.43,0,0,0-.63-9.17Z"/><path d="M1185.59,332a28.89,28.89,0,0,1,1.44-6c.56-1.45,1.25-2.18,2.07-2.18a1.29,1.29,0,0,1,.75.26,2.31,2.31,0,0,1,.63.82l-.16,4.94c0,.62-.17.93-.36.93a1.15,1.15,0,0,1-.5-.22,1.25,1.25,0,0,0-.74-.23,1.37,1.37,0,0,0-1,.52,4.66,4.66,0,0,0-.82,1.54,19.66,19.66,0,0,0-.64,2.53c-.19,1-.36,2.15-.51,3.44v23.77h-2.17V324.43h1.23a.5.5,0,0,1,.49.41,5.88,5.88,0,0,1,.18,1.41Z"/><path d="M1194.54,307.35v32.2h.56a.51.51,0,0,0,.41-.21,2.55,2.55,0,0,0,.34-.83l3.88-12.74a5.94,5.94,0,0,1,.36-1,.58.58,0,0,1,.51-.35h2L1198,339.18a9.11,9.11,0,0,1-.7,2,6.2,6.2,0,0,1,.4,1q.16.57.33,1.32l4.8,18.57h-1.93a.62.62,0,0,1-.48-.28,3,3,0,0,1-.34-1l-4-15.42a3.1,3.1,0,0,0-.36-1,.62.62,0,0,0-.54-.24h-.62v18h-2.17V307.35Z"/><path d="M1214,356.78a12.44,12.44,0,0,1-1,2.58,8.38,8.38,0,0,1-1.19,1.8,4.66,4.66,0,0,1-1.32,1.06,2.84,2.84,0,0,1-1.34.36,3,3,0,0,1-2.35-1.32,11.63,11.63,0,0,1-1.85-3.87,34.91,34.91,0,0,1-1.22-6.29,75.5,75.5,0,0,1-.44-8.62,65,65,0,0,1,.39-7.35,35.74,35.74,0,0,1,1.14-5.93,12.44,12.44,0,0,1,1.8-3.93,3,3,0,0,1,2.41-1.43,2.66,2.66,0,0,1,2,1.13,9.75,9.75,0,0,1,1.62,3.27,29,29,0,0,1,1.08,5.27,58.66,58.66,0,0,1,.39,7.15,12.71,12.71,0,0,1-.11,2.08c-.08.35-.21.52-.42.52h-8.21q0,3.57.33,6.2a26.6,26.6,0,0,0,.79,4.41,7.61,7.61,0,0,0,1.21,2.63,2,2,0,0,0,1.58.88,2,2,0,0,0,1.4-.58,6.94,6.94,0,0,0,1-1.24,12,12,0,0,0,.71-1.25c.19-.38.36-.57.49-.57s.32.21.42.63Zm-1.74-17.64a38.77,38.77,0,0,0-.22-4.22,18.7,18.7,0,0,0-.62-3.3,6.83,6.83,0,0,0-1-2.16,1.68,1.68,0,0,0-1.33-.76c-1,0-1.85.93-2.45,2.77a29.88,29.88,0,0,0-1.12,7.67Z"/><path d="M1230.17,330.63c-.09.55-.24.82-.45.82s-.25-.13-.41-.41-.34-.57-.56-.91a5.33,5.33,0,0,0-.8-.93,1.55,1.55,0,0,0-1.09-.42,1.38,1.38,0,0,0-1,.42,3.69,3.69,0,0,0-.75,1.17,8.49,8.49,0,0,0-.47,1.73,13,13,0,0,0-.16,2.14,9.1,9.1,0,0,0,.27,2.41,6.23,6.23,0,0,0,.72,1.67,6.62,6.62,0,0,0,1,1.25c.38.36.77.74,1.17,1.15a15.76,15.76,0,0,1,1.17,1.35,8.09,8.09,0,0,1,1,1.86,13.06,13.06,0,0,1,.72,2.73,24,24,0,0,1,.27,3.88,35.76,35.76,0,0,1-.3,4.81,18,18,0,0,1-.9,3.83,7.54,7.54,0,0,1-1.45,2.54,2.65,2.65,0,0,1-2,.93,3,3,0,0,1-2.33-1.28,11.56,11.56,0,0,1-1.77-3.29l.51-2.52a3.21,3.21,0,0,1,.23-.75c.09-.17.2-.26.34-.26s.3.18.46.52.36.73.59,1.15a5.37,5.37,0,0,0,.84,1.16,1.68,1.68,0,0,0,1.24.52,1.45,1.45,0,0,0,1.1-.51,3.79,3.79,0,0,0,.79-1.35,9.34,9.34,0,0,0,.47-2,17.76,17.76,0,0,0,.15-2.38,10.3,10.3,0,0,0-.27-2.58,6.65,6.65,0,0,0-.73-1.74,5.86,5.86,0,0,0-1-1.27c-.38-.35-.78-.73-1.18-1.13a12.21,12.21,0,0,1-1.17-1.35,7.83,7.83,0,0,1-1-1.92,13.75,13.75,0,0,1-.72-2.84,26.5,26.5,0,0,1-.27-4.1,29,29,0,0,1,.29-4.14,17.26,17.26,0,0,1,.85-3.5,7.23,7.23,0,0,1,1.37-2.39,2.43,2.43,0,0,1,1.85-.89A2.79,2.79,0,0,1,1229,325a10.42,10.42,0,0,1,1.67,3.21Z"/><path d="M1235.69,307.35v32.2h.56a.49.49,0,0,0,.4-.21,2.5,2.5,0,0,0,.35-.83l3.88-12.74a4.56,4.56,0,0,1,.36-1,.56.56,0,0,1,.5-.35h2l-4.52,14.75a9.68,9.68,0,0,1-.7,2,7.29,7.29,0,0,1,.39,1,12.68,12.68,0,0,1,.33,1.32l4.81,18.57h-1.93a.59.59,0,0,1-.48-.28,3,3,0,0,1-.35-1l-4-15.42a3.66,3.66,0,0,0-.36-1,.63.63,0,0,0-.54-.24h-.62v18h-2.17V307.35Z"/><path d="M1250.33,323.84a3.09,3.09,0,0,1,2.42,1.37,12,12,0,0,1,1.85,3.9,35,35,0,0,1,1.17,6.11,80.5,80.5,0,0,1,0,16,34.9,34.9,0,0,1-1.17,6.09,11.69,11.69,0,0,1-1.85,3.88,3.11,3.11,0,0,1-2.42,1.36,3.14,3.14,0,0,1-2.45-1.36,11.69,11.69,0,0,1-1.85-3.88,35.86,35.86,0,0,1-1.17-6.09,80.5,80.5,0,0,1,0-16,35.93,35.93,0,0,1,1.17-6.11,12,12,0,0,1,1.85-3.9A3.13,3.13,0,0,1,1250.33,323.84Zm0,33.57c1.21,0,2.12-1.24,2.71-3.73a61.06,61.06,0,0,0,0-20.89c-.59-2.5-1.5-3.75-2.71-3.75a2,2,0,0,0-1.61,1,8.37,8.37,0,0,0-1.14,2.79,29.12,29.12,0,0,0-.68,4.47q-.23,2.65-.22,6a46.78,46.78,0,0,0,.9,10.42Q1248.48,357.42,1250.33,357.41Z"/><path d="M1269.09,324.43l-5,37.63h-1.94l-5-37.63h1.76c.18,0,.32.14.43.41a3.21,3.21,0,0,1,.23,1l3.12,24.21c.1.92.18,1.81.26,2.68s.14,1.73.2,2.6l.21-2.6c.07-.87.16-1.76.27-2.68l3.15-24.21a3.78,3.78,0,0,1,.24-1c.11-.26.25-.39.4-.39Z"/><path d="M1269.9,358a15,15,0,0,1,.11-1.82,9.46,9.46,0,0,1,.32-1.48,3.17,3.17,0,0,1,.48-1,.74.74,0,0,1,.59-.37.77.77,0,0,1,.6.37,3.66,3.66,0,0,1,.48,1,8.38,8.38,0,0,1,.33,1.48,14,14,0,0,1,0,3.66,8.68,8.68,0,0,1-.33,1.47,3.31,3.31,0,0,1-.48,1,.77.77,0,0,1-.6.35.74.74,0,0,1-.59-.35,2.89,2.89,0,0,1-.48-1,9.84,9.84,0,0,1-.32-1.47A14.8,14.8,0,0,1,1269.9,358Z"/><path d="M1275.62,358a13.14,13.14,0,0,1,.12-1.82,8.5,8.5,0,0,1,.31-1.48,3.66,3.66,0,0,1,.48-1,.77.77,0,0,1,.6-.37.76.76,0,0,1,.59.37,3.39,3.39,0,0,1,.49,1,9.46,9.46,0,0,1,.32,1.48,14,14,0,0,1,0,3.66,9.84,9.84,0,0,1-.32,1.47,3.08,3.08,0,0,1-.49,1,.76.76,0,0,1-.59.35.77.77,0,0,1-.6-.35,3.31,3.31,0,0,1-.48-1,8.78,8.78,0,0,1-.31-1.47A13,13,0,0,1,1275.62,358Z"/></g></svg>
