<svg id="tabt" xmlns="http://www.w3.org/2000/svg" width="1600" height="900" viewBox="0 0 1600 900"><defs><style>.cls-1{fill:#e1e3e6;}.cls-2{isolation:isolate;}</style></defs><title>tabt</title><path class="cls-1" d="M299,106H1301a12,12,0,0,1,12,12V782a12,12,0,0,1-12,12H299a12,12,0,0,1-12-12V118A12,12,0,0,1,299,106Z"/><g class="cls-2"><g class="cls-2"><path d="M369.47,250.32V176h14.38a20.23,20.23,0,0,1,7.44,1.06,13.58,13.58,0,0,1,6.12,5.33,36.43,36.43,0,0,1,4.95,12.7A85.88,85.88,0,0,1,404,212.75a90.41,90.41,0,0,1-1.11,15A52.6,52.6,0,0,1,400,238.58a24.9,24.9,0,0,1-3.8,6.74,13.4,13.4,0,0,1-5,3.73,16.83,16.83,0,0,1-6.71,1.27Zm5.52-8.77h8.92a13,13,0,0,0,6.48-1.37,10.09,10.09,0,0,0,3.75-3.86,30.9,30.9,0,0,0,3.06-9.4,79.94,79.94,0,0,0,1.1-14.32q0-11.67-2.15-17.93t-5.23-8.39c-1.48-1-3.87-1.52-7.15-1.52H375Z"/><path d="M430.77,250.32v-7.91q-3.52,9.12-9.6,9.12a7.93,7.93,0,0,1-5-1.82,11,11,0,0,1-3.44-4.59,25.67,25.67,0,0,1-1.58-6.77,81.16,81.16,0,0,1-.32-8.52V196.47H416v29.87a94.22,94.22,0,0,0,.31,9.63,11.92,11.92,0,0,0,2.05,5.65,4.73,4.73,0,0,0,3.88,2.06,6,6,0,0,0,4.33-2.11,11.93,11.93,0,0,0,2.86-5.73,49.65,49.65,0,0,0,.84-10.52V196.47h5.13v53.85Z"/><path d="M470.8,242.15l.74,8.07a11.23,11.23,0,0,1-3.88.81,5.82,5.82,0,0,1-4.33-1.57,8.82,8.82,0,0,1-2.16-4.14c-.42-1.7-.63-5.3-.63-10.77v-31h-3.76v-7.1h3.76V183.14l5.1-5.48v18.81h5.16v7.1h-5.16v31.49a28,28,0,0,0,.27,5,3.89,3.89,0,0,0,.89,1.77,2.25,2.25,0,0,0,1.75.66A9.48,9.48,0,0,0,470.8,242.15Z"/><path d="M495.55,243.68a21.6,21.6,0,0,1-5.48,6.08,10,10,0,0,1-5.65,1.77,8.51,8.51,0,0,1-7.67-4.33,20.83,20.83,0,0,1-2.68-11.08,24.13,24.13,0,0,1,1-7.22,15.18,15.18,0,0,1,2.64-5.25,11.36,11.36,0,0,1,3.69-3,22.31,22.31,0,0,1,4.56-1.37,29.78,29.78,0,0,0,9.15-3.15c0-1.25,0-2,0-2.38q0-5.58-1.46-7.86a6.47,6.47,0,0,0-5.84-3.09,6.28,6.28,0,0,0-5.34,2.26q-1.72,2.25-2.55,8l-5-1.22a32.4,32.4,0,0,1,2.25-9.25,12,12,0,0,1,4.53-5.42,12.38,12.38,0,0,1,6.86-1.9,11.13,11.13,0,0,1,6.3,1.62,9.88,9.88,0,0,1,3.56,4.08,21.05,21.05,0,0,1,1.6,6.21c.17,1.56.25,4.36.25,8.42v12.16q0,12.74.33,16.1a31.71,31.71,0,0,0,1.3,6.47h-5.36A32.52,32.52,0,0,1,495.55,243.68Zm-.42-20.39a25,25,0,0,1-8.38,3.45,12.72,12.72,0,0,0-4.47,1.83,6.35,6.35,0,0,0-2,3,12.47,12.47,0,0,0-.72,4.34A11.05,11.05,0,0,0,481.1,242a5.05,5.05,0,0,0,4.54,2.43,7.24,7.24,0,0,0,5.27-2.3,13.79,13.79,0,0,0,3.39-6.31,37.9,37.9,0,0,0,.83-9.13Z"/><path d="M513,250.32h-4.76V176h5.13v26.52q3.24-7.26,8.29-7.25a8.26,8.26,0,0,1,5.28,2,14.63,14.63,0,0,1,4.11,5.63,38.31,38.31,0,0,1,2.52,8.74,63.34,63.34,0,0,1,.91,11q0,13.85-3.85,21.4t-9.23,7.55q-5.35,0-8.4-8ZM512.93,223q0,9.69,1.48,14Q516.84,244,521,244c2.24,0,4.17-1.73,5.81-5.2s2.45-8.62,2.45-15.49q0-10.54-2.35-15.56c-1.57-3.35-3.46-5-5.69-5s-4.17,1.73-5.81,5.2S512.93,216.43,512.93,223Z"/><path d="M551.9,242.15l.74,8.07a11.18,11.18,0,0,1-3.87.81,5.82,5.82,0,0,1-4.33-1.57,8.74,8.74,0,0,1-2.17-4.14c-.41-1.7-.62-5.3-.62-10.77v-31h-3.76v-7.1h3.76V183.14l5.1-5.48v18.81h5.15v7.1h-5.15v31.49a28,28,0,0,0,.27,5,3.89,3.89,0,0,0,.88,1.77,2.27,2.27,0,0,0,1.75.66A9.48,9.48,0,0,0,551.9,242.15Z"/><path d="M577.63,233l5.3,1.16q-1.26,8.27-4.65,12.83a10.35,10.35,0,0,1-8.66,4.56q-6.63,0-10.52-7.27t-3.89-20.41q0-13.59,3.93-21.09t10.2-7.5q6.06,0,9.91,7.35t3.85,20.68c0,.54,0,1.36,0,2.44H560.51q.29,8.86,2.82,13.58c1.69,3.15,3.79,4.72,6.32,4.72a5.9,5.9,0,0,0,4.82-2.64C575.79,239.64,576.85,236.83,577.63,233Zm-16.84-14.76h16.9q-.35-6.79-1.94-10.19c-1.64-3.51-3.75-5.27-6.35-5.27q-3.54,0-5.94,4.21C561.85,209.77,561,213.53,560.79,218.22Z"/><path d="M603.67,223.39q0-15,4.67-22.15,3.9-6,9.51-6,6.24,0,10.2,7.27t4,20.1q0,10.4-1.75,16.36a21.08,21.08,0,0,1-5.1,9.25,10.24,10.24,0,0,1-7.31,3.29q-6.35,0-10.27-7.25T603.67,223.39Zm5.27,0q0,10.35,2.53,15.49t6.38,5.15c2.55,0,4.66-1.72,6.36-5.17s2.53-8.7,2.53-15.77q0-10-2.55-15.13t-6.34-5.15q-3.84,0-6.38,5.12T608.94,223.39Z"/><path d="M637.08,254.78l5,1.32c.21,2.73.79,4.73,1.74,6a6.15,6.15,0,0,0,5.21,2.53,6.52,6.52,0,0,0,5.5-2.53,15.42,15.42,0,0,0,2.62-7.1,104.32,104.32,0,0,0,.37-11.71q-3.36,7-8.38,7-6.24,0-9.65-8t-3.42-19.22a61,61,0,0,1,1.56-14.22,24.5,24.5,0,0,1,4.55-10.07,8.89,8.89,0,0,1,7-3.54q5.36,0,8.83,7.7v-6.49h4.73V243q0,12.57-1.44,17.82a17.92,17.92,0,0,1-4.56,8.29,11.08,11.08,0,0,1-16.42-1.3Q637,263.5,637.08,254.78Zm4.25-32.35q0,10.6,2.36,15.47c1.58,3.24,3.55,4.86,5.93,4.86s4.33-1.61,5.92-4.84,2.4-8.29,2.4-15.18c0-6.6-.83-11.56-2.47-14.91s-3.62-5-5.94-5-4.22,1.65-5.81,4.94S641.33,215.94,641.33,222.43Z"/><path d="M706.42,243.68a21.75,21.75,0,0,1-5.48,6.08,10,10,0,0,1-5.66,1.77,8.5,8.5,0,0,1-7.66-4.33q-2.68-4.33-2.68-11.08a24.46,24.46,0,0,1,1-7.22,15.36,15.36,0,0,1,2.65-5.25,11.15,11.15,0,0,1,3.69-3,22.31,22.31,0,0,1,4.56-1.37,29.61,29.61,0,0,0,9.14-3.15c0-1.25,0-2,0-2.38q0-5.58-1.45-7.86a6.48,6.48,0,0,0-5.84-3.09,6.28,6.28,0,0,0-5.34,2.26q-1.73,2.25-2.55,8l-5-1.22a32.71,32.71,0,0,1,2.26-9.25,12,12,0,0,1,4.52-5.42,12.44,12.44,0,0,1,6.87-1.9,11.16,11.16,0,0,1,6.3,1.62,9.88,9.88,0,0,1,3.56,4.08,20.77,20.77,0,0,1,1.59,6.21c.17,1.56.26,4.36.26,8.42v12.16q0,12.74.33,16.1a31.7,31.7,0,0,0,1.29,6.47h-5.35A31.84,31.84,0,0,1,706.42,243.68ZM706,223.29a24.9,24.9,0,0,1-8.37,3.45,12.72,12.72,0,0,0-4.47,1.83,6.36,6.36,0,0,0-2,3,12.7,12.7,0,0,0-.71,4.34A11.13,11.13,0,0,0,692,242a5.07,5.07,0,0,0,4.55,2.43,7.25,7.25,0,0,0,5.27-2.3,13.79,13.79,0,0,0,3.39-6.31,38,38,0,0,0,.82-9.13Zm-12.25-40.81a12.7,12.7,0,0,1,1.53-6.39c1-1.79,2.22-2.69,3.6-2.69s2.61.91,3.62,2.72a15.07,15.07,0,0,1,0,13.15c-1,1.79-2.2,2.69-3.59,2.69s-2.64-.9-3.65-2.71A13.86,13.86,0,0,1,693.74,182.48Zm2.17.05a8.2,8.2,0,0,0,.9,4c.6,1.08,1.3,1.62,2.12,1.62s1.52-.54,2.12-1.62a8,8,0,0,0,.9-3.91,8.14,8.14,0,0,0-.88-3.9c-.59-1.08-1.31-1.63-2.14-1.63s-1.52.54-2.12,1.6A7.69,7.69,0,0,0,695.91,182.53Z"/><path d="M719.13,250.32V196.47h4.61v7.66q3.33-8.88,9.63-8.87a8.15,8.15,0,0,1,5,1.74,10.64,10.64,0,0,1,3.43,4.59,26.67,26.67,0,0,1,1.6,6.75c.19,1.69.28,4.64.28,8.87v33.11h-5.13V217.56a43.68,43.68,0,0,0-.59-8.34,9.22,9.22,0,0,0-2.13-4.41,4.69,4.69,0,0,0-3.57-1.64c-2.19,0-4.07,1.23-5.66,3.7s-2.38,7.15-2.38,14v29.41Z"/><path d="M771.2,250.32v-6.8q-2.88,8-8.46,8-3.62,0-6.65-3.55a24.75,24.75,0,0,1-4.7-9.91,57.92,57.92,0,0,1-1.67-14.62,65.78,65.78,0,0,1,1.51-14.63q1.51-6.57,4.53-10.07t6.75-3.49a6.85,6.85,0,0,1,4.88,2.05,15.26,15.26,0,0,1,3.47,5.35V176H776v74.33ZM755,223.45q0,10.34,2.45,15.46c1.64,3.41,3.56,5.12,5.79,5.12s4.14-1.63,5.71-4.89,2.35-8.24,2.35-14.93q0-11.06-2.39-16.23t-5.9-5.17q-3.42,0-5.71,5T755,223.45Z"/><path d="M804.73,233l5.3,1.16q-1.24,8.27-4.64,12.83a10.37,10.37,0,0,1-8.66,4.56q-6.65,0-10.53-7.27t-3.89-20.41q0-13.59,3.93-21.09t10.2-7.5q6.07,0,9.92,7.35t3.84,20.68c0,.54,0,1.36,0,2.44H787.61q.28,8.86,2.82,13.58t6.33,4.72a5.88,5.88,0,0,0,4.81-2.64C802.9,239.64,804,236.83,804.73,233ZM787.9,218.22h16.89q-.35-6.79-1.94-10.19-2.45-5.26-6.35-5.27-3.53,0-5.94,4.21C789,209.77,788.07,213.53,787.9,218.22Z"/><path d="M816.41,250.32V196.47H821v8.17c1.18-3.82,2.26-6.34,3.26-7.56a4.24,4.24,0,0,1,3.29-1.82q2.59,0,5.27,2.94l-1.77,8.46a5.32,5.32,0,0,0-3.76-2,3.79,3.79,0,0,0-3,1.8,11.81,11.81,0,0,0-1.9,5,61.67,61.67,0,0,0-.86,10.65v28.19Z"/><path d="M835.9,250.32V196.47h4.61v7.66q3.35-8.88,9.63-8.87a8.13,8.13,0,0,1,5,1.74,10.64,10.64,0,0,1,3.43,4.59,26.67,26.67,0,0,1,1.6,6.75c.19,1.69.28,4.64.28,8.87v33.11h-5.12V217.56a42.7,42.7,0,0,0-.6-8.34,9.22,9.22,0,0,0-2.13-4.41,4.69,4.69,0,0,0-3.57-1.64c-2.18,0-4.07,1.23-5.65,3.7S841,214,841,220.91v29.41Z"/><path d="M889.06,233l5.3,1.16q-1.26,8.27-4.65,12.83a10.35,10.35,0,0,1-8.66,4.56q-6.63,0-10.52-7.27t-3.89-20.41q0-13.59,3.93-21.09t10.2-7.5q6.06,0,9.91,7.35t3.85,20.68c0,.54,0,1.36,0,2.44H871.94q.28,8.86,2.82,13.58c1.69,3.15,3.79,4.72,6.32,4.72a5.9,5.9,0,0,0,4.82-2.64C887.22,239.64,888.28,236.83,889.06,233Zm-16.84-14.76h16.89q-.33-6.79-1.93-10.19c-1.64-3.51-3.75-5.27-6.36-5.27q-3.52,0-5.94,4.21C873.28,209.77,872.39,213.53,872.22,218.22Z"/><path d="M915,234.24l5.07-1.41q.43,5.41,2.38,8.31a6.21,6.21,0,0,0,5.46,2.89,5.86,5.86,0,0,0,5.24-2.56,10.57,10.57,0,0,0,1.71-6,7.28,7.28,0,0,0-1.51-4.87q-1-1.22-5.24-3.09a35.66,35.66,0,0,1-7.82-4.38,11.38,11.38,0,0,1-3.31-5.12,22.15,22.15,0,0,1-1.12-7.23,23.28,23.28,0,0,1,.92-6.67,15.44,15.44,0,0,1,2.52-5.09,9.62,9.62,0,0,1,3.27-2.66,9.28,9.28,0,0,1,4.43-1.09A10.69,10.69,0,0,1,937.17,202a29.38,29.38,0,0,1,1.77,8.34l-5,1.22a13.15,13.15,0,0,0-2-6.49,5.35,5.35,0,0,0-4.63-2.33q-3.54,0-5.05,2.08a8.1,8.1,0,0,0-1.51,4.87,7.8,7.8,0,0,0,.63,3.19,5.67,5.67,0,0,0,2,2.43q.76.51,4.53,2.34a46.78,46.78,0,0,1,7.59,4.23,10.73,10.73,0,0,1,3.37,4.79,21.58,21.58,0,0,1,1.23,7.81,24.44,24.44,0,0,1-1.5,8.59,13.68,13.68,0,0,1-4.31,6.24,10.09,10.09,0,0,1-6.38,2.2,10.33,10.33,0,0,1-9-4.36Q915.81,242.82,915,234.24Z"/><path d="M946.06,250.32V176h5.13v74.33Z"/><path d="M957.23,223.39q0-15,4.67-22.15,3.9-6,9.52-6c4.16,0,7.55,2.42,10.2,7.27s4,11.55,4,20.1q0,10.4-1.75,16.36a21,21,0,0,1-5.1,9.25,10.21,10.21,0,0,1-7.3,3.29q-6.36,0-10.27-7.25T957.23,223.39Zm5.27,0q0,10.35,2.54,15.49t6.38,5.15q3.81,0,6.35-5.17t2.53-15.77q0-10-2.55-15.13t-6.33-5.15q-3.85,0-6.38,5.12T962.5,223.39Z"/><path d="M990.65,254.78l5,1.32c.21,2.73.79,4.73,1.74,6a6.16,6.16,0,0,0,5.21,2.53,6.5,6.5,0,0,0,5.5-2.53,15.3,15.3,0,0,0,2.62-7.1,101.84,101.84,0,0,0,.37-11.71q-3.36,7-8.37,7-6.24,0-9.66-8t-3.42-19.22a60.43,60.43,0,0,1,1.57-14.22,24.5,24.5,0,0,1,4.54-10.07,8.91,8.91,0,0,1,7-3.54q5.35,0,8.83,7.7v-6.49h4.73V243q0,12.57-1.43,17.82a17.92,17.92,0,0,1-4.56,8.29,11.09,11.09,0,0,1-16.43-1.3Q990.53,263.5,990.65,254.78Zm4.24-32.35q0,10.6,2.36,15.47t5.93,4.86q3.52,0,5.93-4.84t2.39-15.18c0-6.6-.82-11.56-2.47-14.91s-3.62-5-5.94-5-4.21,1.65-5.81,4.94S994.89,215.94,994.89,222.43Z"/><path d="M1059.87,250.32v-6.8q-2.88,8-8.46,8-3.62,0-6.65-3.55a24.75,24.75,0,0,1-4.7-9.91,57.92,57.92,0,0,1-1.67-14.62,65.19,65.19,0,0,1,1.51-14.63q1.51-6.57,4.53-10.07t6.75-3.49a6.83,6.83,0,0,1,4.87,2.05,15.14,15.14,0,0,1,3.48,5.35V176h5.1v74.33Zm-16.21-26.87q0,10.34,2.45,15.46t5.78,5.12q3.36,0,5.72-4.89t2.35-14.93q0-11.06-2.4-16.23c-1.59-3.45-3.56-5.17-5.89-5.17s-4.19,1.66-5.72,5S1043.66,216.31,1043.66,223.45Z"/><path d="M1072.72,186.48V176h5.13v10.49Zm0,63.84V196.47h5.13v53.85Z"/><path d="M1084.71,254.78l5,1.32c.21,2.73.79,4.73,1.74,6a6.16,6.16,0,0,0,5.21,2.53,6.52,6.52,0,0,0,5.5-2.53,15.42,15.42,0,0,0,2.62-7.1,104.32,104.32,0,0,0,.37-11.71q-3.36,7-8.38,7-6.24,0-9.65-8t-3.42-19.22a61,61,0,0,1,1.56-14.22,24.5,24.5,0,0,1,4.55-10.07,8.89,8.89,0,0,1,7-3.54q5.36,0,8.83,7.7v-6.49h4.73V243q0,12.57-1.44,17.82a17.92,17.92,0,0,1-4.56,8.29,11.08,11.08,0,0,1-16.42-1.3Q1084.6,263.5,1084.71,254.78Zm4.25-32.35q0,10.6,2.36,15.47c1.58,3.24,3.55,4.86,5.93,4.86s4.33-1.61,5.92-4.84,2.4-8.29,2.4-15.18c0-6.6-.83-11.56-2.47-14.91s-3.62-5-5.94-5-4.21,1.65-5.81,4.94S1089,215.94,1089,222.43Z"/><path d="M1134.34,186.48V176h5.13v10.49Zm0,63.84V196.47h5.13v53.85Z"/><path d="M1147.27,250.32V176h5.13v26.67q3.58-7.41,9.06-7.4a8.19,8.19,0,0,1,5.84,2.35,13.47,13.47,0,0,1,3.55,6.52,51.78,51.78,0,0,1,1.06,12.07v34.12h-5.12V216.2q0-6.85-1.67-10a5.16,5.16,0,0,0-4.72-3.12,5.91,5.91,0,0,0-4.28,2.11,12.1,12.1,0,0,0-2.87,5.7,45.16,45.16,0,0,0-.85,9.94v29.46Z"/><path d="M1173.2,271.21l1-7.76a6.42,6.42,0,0,0,2.42.71,2.51,2.51,0,0,0,2.34-1.85c.51-1.24.77-4.32.77-9.26V196.47h5.13v56.79q0,9.93-1.45,13.84-1.86,5.07-6.16,5.07A8.93,8.93,0,0,1,1173.2,271.21Zm6.49-84.62V176h5.13v10.6Z"/><path d="M1213.39,233l5.3,1.16q-1.26,8.27-4.64,12.83a10.37,10.37,0,0,1-8.66,4.56q-6.65,0-10.53-7.27T1191,223.85q0-13.59,3.93-21.09t10.2-7.5q6.08,0,9.92,7.35t3.84,20.68c0,.54,0,1.36,0,2.44h-22.56q.29,8.86,2.82,13.58t6.33,4.72a5.89,5.89,0,0,0,4.81-2.64C1211.56,239.64,1212.61,236.83,1213.39,233Zm-16.83-14.76h16.89q-.35-6.79-1.94-10.19-2.44-5.26-6.35-5.27-3.54,0-5.94,4.21C1197.61,209.77,1196.73,213.53,1196.56,218.22Z"/><path d="M1225,250.32V176h5.13v74.33Z"/><path d="M1240.83,231.86l-1.57-39.39V176h6.35v16.48l-1.48,39.39Zm-1.34,18.46v-10.4h5.89v10.4Z"/></g></g></svg>
