<svg id="Lag_1" data-name="Lag 1" xmlns="http://www.w3.org/2000/svg" width="300" height="300" viewBox="0 0 300 300"><defs><style>.cls-1{fill:#fff;}.cls-2,.cls-3{fill:none;stroke:#000;stroke-miterlimit:10;}.cls-2{stroke-width:4px;}.cls-3{stroke-width:5px;}</style></defs><title>tid</title><path class="cls-1" d="M150.38,203C119.84,203,95,179.22,95,150s24.84-53,55.38-53,55.38,23.78,55.38,53S180.92,203,150.38,203Z"/><path d="M150.38,104c26.68,0,48.38,20.64,48.38,46s-21.7,46-48.38,46S102,175.36,102,150s21.7-46,48.38-46m0-14C115.93,90,88,116.86,88,150s27.93,60,62.38,60,62.38-26.86,62.38-60-27.93-60-62.38-60Z"/><line class="cls-2" x1="150.55" y1="191.64" x2="150.55" y2="204.56"/><line class="cls-2" x1="150.55" y1="94.08" x2="150.55" y2="109.38"/><line class="cls-3" x1="92.76" y1="150.34" x2="108.74" y2="150.34"/><line class="cls-3" x1="192.36" y1="150" x2="208.34" y2="150"/><line class="cls-3" x1="182.16" y1="103.26" x2="170.44" y2="114.99"/><line class="cls-3" x1="202.94" y1="121.57" x2="186.54" y2="130.16"/><line class="cls-3" x1="115.83" y1="172.62" x2="101.47" y2="180.92"/><line class="cls-3" x1="132.6" y1="185.39" x2="121.59" y2="200.27"/><line class="cls-3" x1="122.5" y1="101.73" x2="133.38" y2="112.61"/><line class="cls-3" x1="98.67" y1="120.92" x2="116.08" y2="129.1"/><line class="cls-3" x1="183.66" y1="167.5" x2="201.06" y2="175.68"/><line class="cls-3" x1="169.25" y1="186.2" x2="182.84" y2="199.8"/><circle class="cls-1" cx="150.72" cy="149.66" r="3.23"/><path d="M150.72,146.43a3.23,3.23,0,1,0,3.23,3.23,3.23,3.23,0,0,0-3.23-3.23Z"/><line class="cls-3" x1="152.59" y1="150.17" x2="169.93" y2="150.51"/><line class="cls-3" x1="150.72" y1="116.69" x2="150.04" y2="153.06"/></svg>
