<svg xmlns="http://www.w3.org/2000/svg" xmlns:xlink="http://www.w3.org/1999/xlink" width="1600" height="900" viewBox="0 0 1600 900"><defs><style>.cls-1{fill:none;}.cls-2{isolation:isolate;}.cls-3{clip-path:url(#clip-path);}.cls-4{clip-path:url(#clip-path-2);}.cls-5{clip-path:url(#clip-path-3);}.cls-6{clip-path:url(#clip-path-4);}.cls-7{clip-path:url(#clip-path-5);}.cls-8{clip-path:url(#clip-path-6);}.cls-9{opacity:0.9;mix-blend-mode:screen;}.cls-10{clip-path:url(#clip-path-7);}.cls-11{fill:#fff;}.cls-12{fill:#fffffc;}.cls-13{clip-path:url(#clip-path-8);}.cls-14{opacity:0.4;}.cls-15{clip-path:url(#clip-path-9);}.cls-16{clip-path:url(#clip-path-10);}.cls-17{clip-path:url(#clip-path-11);}.cls-18{fill:#191715;}.cls-19{fill:#f1e94f;}.cls-20{fill:#322e2d;}.cls-21{fill:#efec4b;}.cls-22{fill:#413960;}.cls-23{fill:#f1eb50;}.cls-24{clip-path:url(#clip-path-12);}.cls-25{fill:#e1e3e6;}</style><clipPath id="clip-path"><rect class="cls-1" y="-1" width="1599" height="900"/></clipPath><clipPath id="clip-path-2"><rect class="cls-1" x="0.5" y="-0.5" width="1599" height="900"/></clipPath><clipPath id="clip-path-3"><path class="cls-1" d="M1464.54,151.27c-78.49,4.68-156.09,27.5-227.9,67a599.84,599.84,0,0,0-59.6,37.59c-1.33,1-.13,3.52,1.21,2.56C1246,210,1321,177.32,1398.3,162.49a513.17,513.17,0,0,1,66.24-8.26c1.53-.09,1.54-3,0-3Z"/></clipPath><clipPath id="clip-path-4"><path class="cls-1" d="M338.22,174.73c67-6.8,135.52,10,192.14,46.36A292.44,292.44,0,0,1,575.7,257c1.38,1.34,3.51-.78,2.12-2.12C529,207.63,464,178.19,396.44,171.59a293.44,293.44,0,0,0-58.22.14c-1.9.19-1.92,3.19,0,3Z"/></clipPath><clipPath id="clip-path-5"><path class="cls-1" d="M424.85,329.51a1.5,1.5,0,0,0,0-3,1.5,1.5,0,0,0,0,3Z"/></clipPath><clipPath id="clip-path-6"><path class="cls-1" d="M805.72,302.14a1.5,1.5,0,0,0,0-3,1.5,1.5,0,0,0,0,3Z"/></clipPath><clipPath id="clip-path-7"><circle class="cls-1" cx="192.5" cy="183.5" r="132.5"/></clipPath><clipPath id="clip-path-8"><path class="cls-1" d="M794.22,39.73c67-6.8,135.52,10,192.14,46.36A292.44,292.44,0,0,1,1031.7,122c1.38,1.34,3.51-.78,2.12-2.12C985,72.63,920,43.19,852.44,36.59a293.44,293.44,0,0,0-58.22.14c-1.9.19-1.92,3.19,0,3Z"/></clipPath><clipPath id="clip-path-9"><path class="cls-1" d="M1169.72,198.14a1.5,1.5,0,0,0,0-3,1.5,1.5,0,0,0,0,3Z"/></clipPath><clipPath id="clip-path-10"><path class="cls-1" d="M383.22,78.73c67-6.8,135.52,10,192.14,46.36A292.44,292.44,0,0,1,620.7,161c1.38,1.34,3.51-.78,2.12-2.12C574,111.63,509,82.19,441.44,75.59a293.44,293.44,0,0,0-58.22.14c-1.9.19-1.92,3.19,0,3Z"/></clipPath><clipPath id="clip-path-11"><path class="cls-1" d="M850.72,206.14a1.5,1.5,0,0,0,0-3,1.5,1.5,0,0,0,0,3Z"/></clipPath><clipPath id="clip-path-12"><path class="cls-1" d="M609.5,409.79c1.72-95.4,2.78-108.88,10.43-130.55,17.69-50.11,48.62-81.75,68.81-102.42,21.69-22.19,58.65-59.15,117.09-76.79,26.9-8.11,63.8-19.25,105-3.53,44.62,17,66.4,54.83,73.23,67.1,17.18,30.84,19.38,59,22.94,104.69a436,436,0,0,1-1.9,88.29c-2,15.25-2.85,15.42-23.88,98.77-13.51,53.55-15.15,61.44-24,73.71-6.35,8.83-14.06,16.63-58.52,44.66-54.71,34.49-52,28.3-70.9,42.72-24.24,18.45-20.1,22-75.8,79.06-33,33.83-30.53,28.52-50.23,50.13s-30.42,35.93-52.06,53.09c-22.33,17.7-34.63,27.45-43.47,23.35-14.72-6.81-7.43-46.23-2.85-124.74.43-7.32,1.36-40.27,3.2-106.18C608.3,531.71,607.62,514.48,609.5,409.79Z"/></clipPath></defs><title>titel_baggrund</title><g class="cls-2"><g id="Lag_2" data-name="Lag 2"><g class="cls-3"><g class="cls-4"><image width="1604" height="909" transform="translate(-2 -5)" xlink:href="titel_baggrund1.png"/></g><g class="cls-5"><image width="290" height="110" transform="translate(1176 150)" xlink:href="titel_baggrund2.png"/></g><g class="cls-6"><image width="243" height="88" transform="translate(336 170)" xlink:href="titel_baggrund3.png"/></g><g class="cls-7"><image width="4" height="4" transform="translate(423 326)" xlink:href="titel_baggrund4.png"/></g><g class="cls-8"><image width="4" height="4" transform="translate(804 299)" xlink:href="titel_baggrund5.png"/></g><image class="cls-9" width="745" height="745" transform="translate(-180 -189)" xlink:href="titel_baggrund6.png"/><g class="cls-10"><image width="375" height="375" transform="translate(5 -4)" xlink:href="titel_baggrund7.png"/></g><rect class="cls-1" x="848.06" y="548.84" width="5.25" height="7.71"/><ellipse class="cls-11" cx="850.69" cy="552.69" rx="2.54" ry="3.73"/><path class="cls-12" d="M850.69,556.53c-1.46,0-2.65-1.73-2.65-3.84s1.19-3.84,2.65-3.84,2.65,1.72,2.65,3.84S852.15,556.53,850.69,556.53Zm0-7.46c-1.34,0-2.44,1.62-2.44,3.62s1.1,3.62,2.44,3.62,2.43-1.62,2.43-3.62S852,549.07,850.69,549.07Z"/><rect class="cls-1" x="959.62" y="497.89" width="5.54" height="8.12"/><ellipse class="cls-11" cx="962.39" cy="501.96" rx="2.68" ry="3.93"/><path class="cls-12" d="M962.39,506c-1.54,0-2.79-1.81-2.79-4s1.25-4,2.79-4,2.79,1.82,2.79,4S963.93,506,962.39,506Zm0-7.86c-1.41,0-2.56,1.71-2.56,3.82s1.15,3.82,2.56,3.82S965,504.06,965,502,963.81,498.14,962.39,498.14Z"/><rect class="cls-1" x="1149.24" y="489.2" width="5.6" height="8.21"/><ellipse class="cls-11" cx="1152.03" cy="493.31" rx="2.71" ry="3.97"/><path class="cls-12" d="M1152,497.39c-1.55,0-2.82-1.83-2.82-4.08s1.27-4.09,2.82-4.09,2.83,1.83,2.83,4.09S1153.59,497.39,1152,497.39Zm0-7.95c-1.43,0-2.59,1.74-2.59,3.87s1.16,3.86,2.59,3.86,2.6-1.74,2.6-3.86S1153.46,489.44,1152,489.44Z"/><rect class="cls-1" x="1032.12" y="435.18" width="5.98" height="8.78"/><ellipse class="cls-11" cx="1035.11" cy="439.56" rx="2.89" ry="4.25"/><path class="cls-12" d="M1035.11,443.93c-1.67,0-3-2-3-4.37s1.35-4.36,3-4.36,3,1.95,3,4.36S1036.77,443.93,1035.11,443.93Zm0-8.49c-1.53,0-2.78,1.85-2.78,4.12s1.25,4.13,2.78,4.13,2.77-1.85,2.77-4.13S1036.64,435.44,1035.11,435.44Z"/><rect class="cls-1" x="764.37" y="395.93" width="3.44" height="5.04"/><ellipse class="cls-11" cx="766.09" cy="398.45" rx="1.66" ry="2.44"/><path class="cls-12" d="M766.09,401c-1,0-1.73-1.12-1.73-2.51s.78-2.51,1.73-2.51,1.73,1.13,1.73,2.51S767.05,401,766.09,401Zm0-4.88c-.88,0-1.59,1.07-1.59,2.37s.71,2.38,1.59,2.38,1.6-1.07,1.6-2.38S767,396.08,766.09,396.08Z"/><rect class="cls-1" x="578.93" y="431.8" width="5.83" height="8.56"/><ellipse class="cls-11" cx="581.85" cy="436.08" rx="2.82" ry="4.14"/><path class="cls-12" d="M581.85,440.34c-1.62,0-2.94-1.91-2.94-4.26s1.32-4.26,2.94-4.26,2.94,1.91,2.94,4.26S583.47,440.34,581.85,440.34Zm0-8.28c-1.49,0-2.7,1.8-2.7,4s1.21,4,2.7,4,2.71-1.8,2.71-4S583.34,432.06,581.85,432.06Z"/><rect class="cls-1" x="518.59" y="393.03" width="3.44" height="5.05"/><ellipse class="cls-11" cx="520.31" cy="395.55" rx="1.66" ry="2.44"/><path class="cls-12" d="M520.31,398.06c-1,0-1.73-1.12-1.73-2.51s.77-2.51,1.73-2.51,1.73,1.13,1.73,2.51S521.26,398.06,520.31,398.06Zm0-4.88c-.88,0-1.6,1.07-1.6,2.37s.72,2.38,1.6,2.38,1.59-1.07,1.59-2.38S521.19,393.18,520.31,393.18Z"/><rect class="cls-1" x="213.87" y="450.59" width="2.93" height="4.31"/><ellipse class="cls-11" cx="215.34" cy="452.74" rx="1.42" ry="2.08"/><path class="cls-12" d="M215.34,454.89c-.81,0-1.48-1-1.48-2.15s.67-2.14,1.48-2.14,1.48,1,1.48,2.14S216.16,454.89,215.34,454.89Zm0-4.17c-.75,0-1.36.91-1.36,2s.61,2,1.36,2,1.36-.91,1.36-2S216.09,450.72,215.34,450.72Z"/><rect class="cls-1" x="165.97" y="479.34" width="6.45" height="9.47"/><ellipse class="cls-11" cx="169.2" cy="484.07" rx="3.12" ry="4.58"/><path class="cls-12" d="M169.2,488.79c-1.8,0-3.26-2.12-3.26-4.72s1.46-4.71,3.26-4.71,3.25,2.11,3.25,4.71S171,488.79,169.2,488.79Zm0-9.17c-1.65,0-3,2-3,4.45s1.34,4.45,3,4.45,3-2,3-4.45S170.85,479.62,169.2,479.62Z"/><rect class="cls-1" x="12" y="430.32" width="5.73" height="8.42"/><ellipse class="cls-11" cx="14.87" cy="434.53" rx="2.77" ry="4.07"/><path class="cls-12" d="M14.87,438.72c-1.6,0-2.89-1.88-2.89-4.19s1.29-4.19,2.89-4.19,2.89,1.88,2.89,4.19S16.46,438.72,14.87,438.72Zm0-8.15c-1.47,0-2.66,1.78-2.66,4s1.19,4,2.66,4,2.66-1.78,2.66-4S16.33,430.57,14.87,430.57Z"/><rect class="cls-1" x="241.08" y="584.64" width="5.69" height="8.36"/><ellipse class="cls-11" cx="243.92" cy="588.82" rx="2.75" ry="4.04"/><path class="cls-12" d="M243.92,593c-1.58,0-2.87-1.86-2.87-4.16s1.29-4.16,2.87-4.16,2.87,1.87,2.87,4.16S245.51,593,243.92,593Zm0-8.09c-1.45,0-2.64,1.77-2.64,3.93s1.19,3.93,2.64,3.93,2.64-1.76,2.64-3.93S245.38,584.89,243.92,584.89Z"/><rect class="cls-1" x="423.91" y="394.33" width="3.62" height="5.32"/><ellipse class="cls-11" cx="425.72" cy="396.99" rx="1.75" ry="2.57"/><path class="cls-12" d="M425.72,399.63c-1,0-1.82-1.18-1.82-2.64s.82-2.65,1.82-2.65,1.83,1.19,1.83,2.65S426.73,399.63,425.72,399.63Zm0-5.14c-.92,0-1.68,1.12-1.68,2.5s.76,2.5,1.68,2.5,1.68-1.13,1.68-2.5S426.65,394.49,425.72,394.49Z"/><rect class="cls-1" x="430.32" y="233.58" width="7.21" height="10.58"/><ellipse class="cls-11" cx="433.92" cy="238.87" rx="3.49" ry="5.12"/><path class="cls-12" d="M433.92,244.13c-2,0-3.63-2.36-3.63-5.26s1.63-5.27,3.63-5.27,3.64,2.37,3.64,5.27S435.93,244.13,433.92,244.13Zm0-10.23c-1.84,0-3.34,2.23-3.34,5s1.5,5,3.34,5,3.35-2.23,3.35-5S435.77,233.9,433.92,233.9Z"/><rect class="cls-1" x="473.79" y="184.79" width="7.31" height="10.74"/><ellipse class="cls-11" cx="477.44" cy="190.16" rx="3.54" ry="5.19"/><path class="cls-12" d="M477.44,195.5c-2,0-3.68-2.4-3.68-5.34s1.65-5.35,3.68-5.35,3.69,2.4,3.69,5.35S479.48,195.5,477.44,195.5Zm0-10.39c-1.87,0-3.39,2.26-3.39,5s1.52,5,3.39,5,3.39-2.26,3.39-5S479.31,185.11,477.44,185.11Z"/><rect class="cls-1" x="652.09" y="256.99" width="2.62" height="3.85"/><ellipse class="cls-11" cx="653.4" cy="258.92" rx="1.27" ry="1.86"/><path class="cls-12" d="M653.4,260.83c-.73,0-1.32-.86-1.32-1.91s.59-1.92,1.32-1.92,1.32.86,1.32,1.92S654.13,260.83,653.4,260.83Zm0-3.73c-.67,0-1.22.82-1.22,1.82s.55,1.81,1.22,1.81,1.21-.82,1.21-1.81S654.07,257.1,653.4,257.1Z"/><rect class="cls-1" x="712.32" y="172.35" width="5.48" height="8.04"/><ellipse class="cls-11" cx="715.06" cy="176.36" rx="2.65" ry="3.89"/><path class="cls-12" d="M715.06,180.36c-1.52,0-2.76-1.79-2.76-4s1.24-4,2.76-4,2.76,1.8,2.76,4S716.58,180.36,715.06,180.36Zm0-7.77c-1.4,0-2.54,1.69-2.54,3.77s1.14,3.78,2.54,3.78,2.54-1.69,2.54-3.78S716.46,172.59,715.06,172.59Z"/><rect class="cls-1" x="815.33" y="231.28" width="7.32" height="10.74"/><ellipse class="cls-11" cx="818.98" cy="236.65" rx="3.54" ry="5.2"/><path class="cls-12" d="M819,242c-2,0-3.69-2.4-3.69-5.34S817,231.3,819,231.3s3.69,2.4,3.69,5.35S821,242,819,242Zm0-10.39c-1.87,0-3.39,2.26-3.39,5.05s1.52,5,3.39,5,3.4-2.27,3.4-5S820.86,231.6,819,231.6Z"/><rect class="cls-1" x="918.78" y="227.88" width="5.5" height="8.08"/><ellipse class="cls-11" cx="921.53" cy="231.91" rx="2.66" ry="3.91"/><path class="cls-12" d="M921.53,235.93c-1.53,0-2.77-1.8-2.77-4s1.24-4,2.77-4,2.77,1.8,2.77,4S923.06,235.93,921.53,235.93Zm0-7.81c-1.41,0-2.55,1.7-2.55,3.79s1.14,3.8,2.55,3.8,2.55-1.7,2.55-3.8S922.94,228.12,921.53,228.12Z"/><rect class="cls-1" x="1129.81" y="250.77" width="6.86" height="10.06"/><ellipse class="cls-11" cx="1133.24" cy="255.81" rx="3.32" ry="4.87"/><path class="cls-12" d="M1133.24,260.81c-1.91,0-3.46-2.24-3.46-5s1.55-5,3.46-5,3.46,2.24,3.46,5S1135.15,260.81,1133.24,260.81Zm0-9.74c-1.75,0-3.18,2.13-3.18,4.74s1.43,4.73,3.18,4.73,3.18-2.13,3.18-4.73S1135,251.07,1133.24,251.07Z"/><rect class="cls-1" x="1028.08" y="168" width="3.95" height="5.79"/><rect class="cls-1" x="979.94" y="130.85" width="6.64" height="9.75"/><rect class="cls-1" x="745.51" y="142.44" width="6.46" height="9.49"/><ellipse class="cls-11" cx="748.74" cy="147.18" rx="3.13" ry="4.59"/><path class="cls-12" d="M748.75,151.91c-1.8,0-3.26-2.12-3.26-4.73s1.46-4.72,3.26-4.72,3.25,2.12,3.25,4.72S750.54,151.91,748.75,151.91Zm0-9.19c-1.66,0-3,2-3,4.46s1.34,4.46,3,4.46,3-2,3-4.46S750.4,142.72,748.75,142.72Z"/><rect class="cls-1" x="507.52" y="121.74" width="5.17" height="7.58"/><ellipse class="cls-11" cx="510.11" cy="125.53" rx="2.5" ry="3.67"/><path class="cls-12" d="M510.11,129.31c-1.44,0-2.61-1.7-2.61-3.78s1.17-3.77,2.61-3.77,2.6,1.69,2.6,3.77S511.54,129.31,510.11,129.31Zm0-7.34c-1.32,0-2.4,1.6-2.4,3.56s1.08,3.57,2.4,3.57,2.39-1.6,2.39-3.57S511.43,122,510.11,122Z"/><rect class="cls-1" x="443.12" y="288.1" width="3.14" height="4.6"/><ellipse class="cls-11" cx="444.69" cy="290.4" rx="1.52" ry="2.23"/><path class="cls-12" d="M444.69,292.7c-.87,0-1.58-1-1.58-2.3s.71-2.29,1.58-2.29,1.58,1,1.58,2.29S445.56,292.7,444.69,292.7Zm0-4.46c-.8,0-1.46,1-1.46,2.16s.66,2.17,1.46,2.17,1.45-1,1.45-2.17S445.49,288.24,444.69,288.24Z"/><rect class="cls-1" x="641.75" y="498.7" width="5.77" height="8.47"/><ellipse class="cls-11" cx="644.63" cy="502.93" rx="2.79" ry="4.1"/><path class="cls-12" d="M644.63,507.15c-1.6,0-2.91-1.89-2.91-4.22s1.31-4.21,2.91-4.21,2.91,1.89,2.91,4.21S646.24,507.15,644.63,507.15Zm0-8.2c-1.47,0-2.67,1.79-2.67,4s1.2,4,2.67,4,2.68-1.79,2.68-4S646.11,499,644.63,499Z"/><rect class="cls-1" x="681.18" y="489.2" width="6.77" height="9.93"/><ellipse class="cls-11" cx="684.56" cy="494.17" rx="3.27" ry="4.81"/><path class="cls-12" d="M684.56,499.11c-1.88,0-3.41-2.22-3.41-4.94s1.53-4.95,3.41-4.95,3.41,2.22,3.41,4.95S686.44,499.11,684.56,499.11Zm0-9.61c-1.73,0-3.14,2.09-3.14,4.67s1.41,4.66,3.14,4.66,3.14-2.09,3.14-4.66S686.29,489.5,684.56,489.5Z"/><rect class="cls-1" x="891.71" y="446.38" width="5.22" height="7.65"/><ellipse class="cls-11" cx="894.32" cy="450.21" rx="2.52" ry="3.7"/><path class="cls-12" d="M894.32,454c-1.45,0-2.63-1.71-2.63-3.81s1.18-3.81,2.63-3.81,2.63,1.71,2.63,3.81S895.77,454,894.32,454Zm0-7.41c-1.33,0-2.42,1.62-2.42,3.6s1.09,3.6,2.42,3.6,2.42-1.61,2.42-3.6S895.65,446.61,894.32,446.61Z"/><rect class="cls-1" x="1137.83" y="447.95" width="6.32" height="9.28"/><ellipse class="cls-11" cx="1140.99" cy="452.59" rx="3.06" ry="4.49"/><path class="cls-12" d="M1141,457.2c-1.76,0-3.19-2.07-3.19-4.61s1.43-4.62,3.19-4.62,3.19,2.07,3.19,4.62S1142.75,457.2,1141,457.2Zm0-9c-1.61,0-2.93,1.95-2.93,4.36s1.32,4.36,2.93,4.36,2.93-2,2.93-4.36S1142.61,448.23,1141,448.23Z"/><rect class="cls-1" x="1206.18" y="424.24" width="5.99" height="8.79"/><ellipse class="cls-11" cx="1209.17" cy="428.63" rx="2.9" ry="4.25"/><path class="cls-12" d="M1209.17,433c-1.66,0-3-2-3-4.38s1.36-4.37,3-4.37,3,2,3,4.37S1210.84,433,1209.17,433Zm0-8.51c-1.53,0-2.78,1.85-2.78,4.13s1.25,4.14,2.78,4.14,2.78-1.86,2.78-4.14S1210.7,424.5,1209.17,424.5Z"/><rect class="cls-1" x="453.03" y="302.7" width="8.02" height="8.02"/><circle class="cls-11" cx="457.04" cy="306.71" r="3.88"/><path class="cls-12" d="M457,310.72a4,4,0,1,1,4-4A4,4,0,0,1,457,310.72Zm0-7.76a3.75,3.75,0,1,0,3.76,3.75A3.75,3.75,0,0,0,457,303Z"/><rect class="cls-1" x="378.74" y="411.12" width="6.02" height="6.02"/><circle class="cls-11" cx="381.76" cy="414.14" r="2.91"/><path class="cls-12" d="M381.76,417.15a3,3,0,1,1,3-3A3,3,0,0,1,381.76,417.15Zm0-5.83a2.82,2.82,0,1,0,2.81,2.82A2.82,2.82,0,0,0,381.76,411.32Z"/><rect class="cls-1" x="789.66" y="187.3" width="4.75" height="4.75"/><circle class="cls-11" cx="792.04" cy="189.68" r="2.3"/><path class="cls-12" d="M792,192.05a2.38,2.38,0,1,1,2.37-2.37A2.38,2.38,0,0,1,792,192.05Zm0-4.59a2.22,2.22,0,1,0,2.22,2.22A2.21,2.21,0,0,0,792,187.46Z"/><g class="cls-13"><image width="243" height="88" transform="translate(792 35)" xlink:href="titel_baggrund8.png"/></g><g class="cls-14"><g class="cls-15"><image width="4" height="4" transform="translate(1168 195)" xlink:href="titel_baggrund9.png"/></g></g><g class="cls-14"><rect class="cls-1" x="1234.9" y="427.1" width="5.25" height="7.71"/><ellipse class="cls-11" cx="1237.52" cy="430.95" rx="2.54" ry="3.73"/><path class="cls-12" d="M1237.52,434.79c-1.46,0-2.64-1.72-2.64-3.84s1.18-3.84,2.64-3.84,2.65,1.73,2.65,3.84S1239,434.79,1237.52,434.79Zm0-7.46c-1.34,0-2.43,1.62-2.43,3.62s1.09,3.62,2.43,3.62S1240,433,1240,431,1238.87,427.33,1237.52,427.33Z"/><rect class="cls-1" x="1346.46" y="376.16" width="5.54" height="8.12"/><ellipse class="cls-11" cx="1349.22" cy="380.22" rx="2.68" ry="3.93"/><path class="cls-12" d="M1349.22,384.26c-1.54,0-2.79-1.81-2.79-4s1.25-4.05,2.79-4.05,2.79,1.82,2.79,4.05S1350.76,384.26,1349.22,384.26Zm0-7.86c-1.41,0-2.56,1.71-2.56,3.82s1.15,3.82,2.56,3.82,2.57-1.72,2.57-3.82S1350.64,376.4,1349.22,376.4Z"/><rect class="cls-1" x="1536.07" y="367.46" width="5.6" height="8.21"/><ellipse class="cls-11" cx="1538.87" cy="371.57" rx="2.71" ry="3.97"/><path class="cls-12" d="M1538.87,375.65c-1.56,0-2.83-1.83-2.83-4.08s1.27-4.09,2.83-4.09,2.82,1.83,2.82,4.09S1540.42,375.65,1538.87,375.65Zm0-7.94c-1.43,0-2.6,1.73-2.6,3.86s1.17,3.86,2.6,3.86,2.59-1.73,2.59-3.86S1540.3,367.71,1538.87,367.71Z"/><rect class="cls-1" x="1418.95" y="313.44" width="5.98" height="8.78"/><ellipse class="cls-11" cx="1421.94" cy="317.82" rx="2.89" ry="4.25"/><path class="cls-12" d="M1421.94,322.19c-1.66,0-3-2-3-4.37s1.36-4.36,3-4.36,3,2,3,4.36S1423.6,322.19,1421.94,322.19Zm0-8.49c-1.53,0-2.77,1.85-2.77,4.12s1.24,4.13,2.77,4.13,2.77-1.85,2.77-4.13S1423.47,313.7,1421.94,313.7Z"/><rect class="cls-1" x="1151.21" y="274.19" width="3.44" height="5.04"/><ellipse class="cls-11" cx="1152.92" cy="276.71" rx="1.66" ry="2.44"/><path class="cls-12" d="M1152.92,279.22c-1,0-1.73-1.12-1.73-2.51s.78-2.51,1.73-2.51,1.74,1.13,1.74,2.51S1153.88,279.22,1152.92,279.22Zm0-4.88c-.88,0-1.59,1.07-1.59,2.37s.71,2.38,1.59,2.38,1.6-1.07,1.6-2.38S1153.8,274.34,1152.92,274.34Z"/><rect class="cls-1" x="965.77" y="310.06" width="5.83" height="8.56"/><ellipse class="cls-11" cx="968.68" cy="314.34" rx="2.82" ry="4.14"/><path class="cls-12" d="M968.68,318.6c-1.62,0-2.94-1.91-2.94-4.26s1.32-4.26,2.94-4.26,2.94,1.91,2.94,4.26S970.31,318.6,968.68,318.6Zm0-8.28c-1.49,0-2.7,1.8-2.7,4s1.21,4,2.7,4,2.71-1.8,2.71-4S970.17,310.32,968.68,310.32Z"/><rect class="cls-1" x="905.42" y="271.29" width="3.44" height="5.05"/><ellipse class="cls-11" cx="907.14" cy="273.81" rx="1.66" ry="2.44"/><path class="cls-12" d="M907.14,276.33c-.95,0-1.73-1.13-1.73-2.52s.78-2.51,1.73-2.51,1.73,1.13,1.73,2.51S908.1,276.33,907.14,276.33Zm0-4.89c-.88,0-1.59,1.07-1.59,2.37s.71,2.38,1.59,2.38,1.59-1.07,1.59-2.38S908,271.44,907.14,271.44Z"/><rect class="cls-1" x="600.71" y="328.85" width="2.93" height="4.31"/><ellipse class="cls-11" cx="602.17" cy="331" rx="1.42" ry="2.08"/><path class="cls-12" d="M602.17,333.15c-.81,0-1.48-1-1.48-2.15s.67-2.14,1.48-2.14,1.48,1,1.48,2.14S603,333.15,602.17,333.15Zm0-4.17c-.75,0-1.36.91-1.36,2s.61,2,1.36,2,1.36-.91,1.36-2S602.92,329,602.17,329Z"/><rect class="cls-1" x="552.8" y="357.6" width="6.45" height="9.47"/><ellipse class="cls-11" cx="556.03" cy="362.33" rx="3.12" ry="4.58"/><path class="cls-12" d="M556,367.05c-1.79,0-3.25-2.12-3.25-4.72s1.46-4.71,3.25-4.71,3.25,2.11,3.25,4.71S557.82,367.05,556,367.05Zm0-9.17c-1.65,0-3,2-3,4.45s1.34,4.46,3,4.46,3-2,3-4.46S557.68,357.88,556,357.88Z"/><rect class="cls-1" x="398.83" y="308.58" width="5.73" height="8.42"/><ellipse class="cls-11" cx="401.7" cy="312.79" rx="2.77" ry="4.07"/><path class="cls-12" d="M401.7,317c-1.59,0-2.89-1.88-2.89-4.19s1.3-4.19,2.89-4.19,2.89,1.88,2.89,4.19S403.29,317,401.7,317Zm0-8.15c-1.47,0-2.66,1.78-2.66,4s1.19,4,2.66,4,2.66-1.78,2.66-4S403.17,308.83,401.7,308.83Z"/><rect class="cls-1" x="627.91" y="462.9" width="5.69" height="8.36"/><ellipse class="cls-11" cx="630.76" cy="467.08" rx="2.75" ry="4.04"/><path class="cls-12" d="M630.76,471.24c-1.59,0-2.87-1.86-2.87-4.16s1.28-4.16,2.87-4.16,2.87,1.87,2.87,4.16S632.34,471.24,630.76,471.24Zm0-8.08c-1.46,0-2.64,1.76-2.64,3.92s1.18,3.93,2.64,3.93,2.64-1.76,2.64-3.93S632.21,463.16,630.76,463.16Z"/><rect class="cls-1" x="810.74" y="272.59" width="3.62" height="5.32"/><ellipse class="cls-11" cx="812.56" cy="275.25" rx="1.75" ry="2.57"/><path class="cls-12" d="M812.56,277.89c-1,0-1.83-1.18-1.83-2.64s.82-2.65,1.83-2.65,1.82,1.19,1.82,2.65S813.56,277.89,812.56,277.89Zm0-5.14c-.93,0-1.68,1.12-1.68,2.5s.75,2.5,1.68,2.5,1.68-1.12,1.68-2.5S813.48,272.75,812.56,272.75Z"/><rect class="cls-1" x="817.15" y="111.84" width="7.21" height="10.58"/><ellipse class="cls-11" cx="820.76" cy="117.13" rx="3.49" ry="5.12"/><path class="cls-12" d="M820.76,122.39c-2,0-3.64-2.36-3.64-5.26s1.63-5.27,3.64-5.27,3.63,2.37,3.63,5.27S822.76,122.39,820.76,122.39Zm0-10.23c-1.85,0-3.35,2.23-3.35,5s1.5,5,3.35,5,3.34-2.23,3.34-5S822.6,112.16,820.76,112.16Z"/><rect class="cls-1" x="860.62" y="63.05" width="7.31" height="10.74"/><ellipse class="cls-11" cx="864.28" cy="68.42" rx="3.54" ry="5.19"/><path class="cls-12" d="M864.28,73.76c-2,0-3.69-2.4-3.69-5.34s1.65-5.35,3.69-5.35,3.68,2.4,3.68,5.35S866.31,73.76,864.28,73.76Zm0-10.39c-1.87,0-3.4,2.26-3.4,5.05s1.53,5,3.4,5,3.39-2.26,3.39-5S866.15,63.37,864.28,63.37Z"/><rect class="cls-1" x="1038.92" y="135.25" width="2.62" height="3.85"/><ellipse class="cls-11" cx="1040.23" cy="137.18" rx="1.27" ry="1.86"/><path class="cls-12" d="M1040.23,139.09c-.73,0-1.32-.86-1.32-1.91s.59-1.92,1.32-1.92,1.32.86,1.32,1.92S1041,139.09,1040.23,139.09Zm0-3.72c-.67,0-1.22.81-1.22,1.81s.55,1.81,1.22,1.81,1.22-.82,1.22-1.81S1040.9,135.37,1040.23,135.37Z"/><rect class="cls-1" x="1099.16" y="50.61" width="5.48" height="8.04"/><ellipse class="cls-11" cx="1101.89" cy="54.62" rx="2.65" ry="3.89"/><path class="cls-12" d="M1101.89,58.62c-1.52,0-2.76-1.79-2.76-4s1.24-4,2.76-4,2.76,1.79,2.76,4S1103.42,58.62,1101.89,58.62Zm0-7.77c-1.4,0-2.54,1.69-2.54,3.77s1.14,3.78,2.54,3.78,2.54-1.69,2.54-3.78S1103.29,50.85,1101.89,50.85Z"/><rect class="cls-1" x="1202.16" y="109.54" width="7.32" height="10.74"/><ellipse class="cls-11" cx="1205.82" cy="114.91" rx="3.54" ry="5.2"/><path class="cls-12" d="M1205.82,120.25c-2,0-3.69-2.39-3.69-5.34s1.65-5.35,3.69-5.35,3.69,2.4,3.69,5.35S1207.85,120.25,1205.82,120.25Zm0-10.39c-1.87,0-3.4,2.26-3.4,5s1.53,5,3.4,5,3.39-2.27,3.39-5S1207.69,109.86,1205.82,109.86Z"/><rect class="cls-1" x="1305.61" y="106.14" width="5.5" height="8.08"/><ellipse class="cls-11" cx="1308.36" cy="110.17" rx="2.66" ry="3.91"/><path class="cls-12" d="M1308.36,114.19c-1.53,0-2.77-1.8-2.77-4s1.24-4,2.77-4,2.78,1.8,2.78,4S1309.89,114.19,1308.36,114.19Zm0-7.81c-1.4,0-2.55,1.7-2.55,3.79s1.15,3.8,2.55,3.8,2.55-1.7,2.55-3.8S1309.77,106.38,1308.36,106.38Z"/><rect class="cls-1" x="1516.64" y="129.03" width="6.86" height="10.06"/><ellipse class="cls-11" cx="1520.07" cy="134.07" rx="3.32" ry="4.87"/><path class="cls-12" d="M1520.07,139.07c-1.9,0-3.45-2.24-3.45-5s1.55-5,3.45-5,3.46,2.24,3.46,5S1522,139.07,1520.07,139.07Zm0-9.74c-1.75,0-3.18,2.13-3.18,4.74s1.43,4.73,3.18,4.73,3.18-2.13,3.18-4.73S1521.83,129.33,1520.07,129.33Z"/><rect class="cls-1" x="1414.91" y="46.26" width="3.95" height="5.79"/><ellipse class="cls-11" cx="1416.89" cy="49.16" rx="1.91" ry="2.8"/><path class="cls-12" d="M1416.89,52c-1.1,0-2-1.29-2-2.88s.89-2.88,2-2.88,2,1.29,2,2.88S1418,52,1416.89,52Zm0-5.6c-1,0-1.83,1.22-1.83,2.72s.82,2.72,1.83,2.72,1.83-1.22,1.83-2.72S1417.9,46.44,1416.89,46.44Z"/><rect class="cls-1" x="1366.77" y="9.11" width="6.64" height="9.75"/><ellipse class="cls-11" cx="1370.09" cy="13.98" rx="3.21" ry="4.72"/><path class="cls-12" d="M1370.09,18.83c-1.84,0-3.35-2.17-3.35-4.85s1.51-4.85,3.35-4.85,3.35,2.18,3.35,4.85S1371.94,18.83,1370.09,18.83Zm0-9.43c-1.7,0-3.08,2.06-3.08,4.58s1.38,4.58,3.08,4.58,3.08-2,3.08-4.58S1371.79,9.4,1370.09,9.4Z"/><rect class="cls-1" x="1132.34" y="20.7" width="6.46" height="9.49"/><ellipse class="cls-11" cx="1135.58" cy="25.44" rx="3.13" ry="4.59"/><path class="cls-12" d="M1135.58,30.17c-1.8,0-3.26-2.12-3.26-4.73s1.46-4.72,3.26-4.72,3.26,2.12,3.26,4.72S1137.37,30.17,1135.58,30.17Zm0-9.19c-1.66,0-3,2-3,4.46s1.34,4.46,3,4.46,3-2,3-4.46S1137.23,21,1135.58,21Z"/><rect class="cls-1" x="894.36" width="5.17" height="7.58"/><ellipse class="cls-11" cx="896.94" cy="3.79" rx="2.5" ry="3.67"/><path class="cls-12" d="M896.94,7.57c-1.44,0-2.61-1.7-2.61-3.78S895.5,0,896.94,0s2.6,1.69,2.6,3.77S898.38,7.57,896.94,7.57Zm0-7.34c-1.32,0-2.4,1.6-2.4,3.56s1.08,3.57,2.4,3.57,2.4-1.6,2.4-3.57S898.26.23,896.94.23Z"/><rect class="cls-1" x="829.95" y="166.36" width="3.14" height="4.6"/><ellipse class="cls-11" cx="831.52" cy="168.67" rx="1.52" ry="2.23"/><path class="cls-12" d="M831.52,171c-.87,0-1.58-1-1.58-2.29s.71-2.3,1.58-2.3,1.58,1,1.58,2.3S832.39,171,831.52,171Zm0-4.46c-.8,0-1.45,1-1.45,2.17s.65,2.16,1.45,2.16,1.45-1,1.45-2.16S832.32,166.5,831.52,166.5Z"/><rect class="cls-1" x="1028.58" y="376.96" width="5.77" height="8.47"/><ellipse class="cls-11" cx="1031.47" cy="381.19" rx="2.79" ry="4.1"/><path class="cls-12" d="M1031.47,385.41c-1.61,0-2.91-1.89-2.91-4.22s1.3-4.21,2.91-4.21,2.91,1.89,2.91,4.21S1033.07,385.41,1031.47,385.41Zm0-8.2c-1.48,0-2.68,1.79-2.68,4s1.2,4,2.68,4,2.67-1.79,2.67-4S1032.94,377.21,1031.47,377.21Z"/><rect class="cls-1" x="1068.01" y="367.46" width="6.77" height="9.93"/><ellipse class="cls-11" cx="1071.39" cy="372.43" rx="3.27" ry="4.81"/><path class="cls-12" d="M1071.39,377.37c-1.88,0-3.41-2.22-3.41-4.94s1.53-4.95,3.41-4.95,3.41,2.22,3.41,4.95S1073.27,377.37,1071.39,377.37Zm0-9.61c-1.73,0-3.13,2.09-3.13,4.67s1.4,4.66,3.13,4.66,3.14-2.09,3.14-4.66S1073.12,367.76,1071.39,367.76Z"/><rect class="cls-1" x="1278.54" y="324.64" width="5.22" height="7.65"/><ellipse class="cls-11" cx="1281.15" cy="328.47" rx="2.52" ry="3.7"/><path class="cls-12" d="M1281.15,332.28c-1.45,0-2.63-1.71-2.63-3.81s1.18-3.81,2.63-3.81,2.63,1.71,2.63,3.81S1282.6,332.28,1281.15,332.28Zm0-7.41c-1.33,0-2.42,1.62-2.42,3.6s1.09,3.6,2.42,3.6,2.42-1.61,2.42-3.6S1282.48,324.87,1281.15,324.87Z"/><rect class="cls-1" x="1524.66" y="326.21" width="6.32" height="9.28"/><ellipse class="cls-11" cx="1527.82" cy="330.85" rx="3.06" ry="4.49"/><path class="cls-12" d="M1527.82,335.46c-1.75,0-3.18-2.07-3.18-4.61s1.43-4.62,3.18-4.62,3.19,2.07,3.19,4.62S1529.58,335.46,1527.82,335.46Zm0-9c-1.61,0-2.93,1.95-2.93,4.36s1.32,4.36,2.93,4.36,2.93-2,2.93-4.36S1529.44,326.49,1527.82,326.49Z"/><rect class="cls-1" x="1593.01" y="302.5" width="5.99" height="8.79"/><ellipse class="cls-11" cx="1596" cy="306.89" rx="2.9" ry="4.25"/><path class="cls-12" d="M1596,311.27c-1.66,0-3-2-3-4.37s1.36-4.38,3-4.38,3,2,3,4.38S1597.67,311.27,1596,311.27Zm0-8.51c-1.53,0-2.77,1.86-2.77,4.14s1.24,4.13,2.77,4.13,2.78-1.86,2.78-4.13S1597.54,302.76,1596,302.76Z"/></g><g class="cls-14"><rect class="cls-1" x="804.65" y="145.64" width="8.02" height="8.02"/><circle class="cls-11" cx="808.67" cy="149.65" r="3.88"/><path class="cls-12" d="M808.67,153.66a4,4,0,1,1,4-4A4,4,0,0,1,808.67,153.66Zm0-7.76a3.75,3.75,0,1,0,3.75,3.75A3.76,3.76,0,0,0,808.67,145.9Z"/><rect class="cls-1" x="746.9" y="227.5" width="6.02" height="6.02"/><circle class="cls-11" cx="749.91" cy="230.52" r="2.91"/><path class="cls-12" d="M749.91,233.53a3,3,0,1,1,3-3A3,3,0,0,1,749.91,233.53Zm0-5.83a2.82,2.82,0,1,0,2.82,2.82A2.82,2.82,0,0,0,749.91,227.7Z"/></g><g class="cls-14"><g class="cls-16"><image width="243" height="88" transform="translate(381 74)" xlink:href="titel_baggrund10.png"/></g></g><g class="cls-14"><g class="cls-17"><image width="4" height="4" transform="translate(849 203)" xlink:href="titel_baggrund11.png"/></g></g><g class="cls-14"><rect class="cls-1" x="869.6" y="451.68" width="5.25" height="7.71"/><ellipse class="cls-11" cx="872.23" cy="455.53" rx="2.54" ry="3.73"/><path class="cls-12" d="M872.22,459.37c-1.46,0-2.64-1.72-2.64-3.84s1.18-3.83,2.64-3.83,2.65,1.72,2.65,3.83S873.68,459.37,872.22,459.37Zm0-7.46c-1.34,0-2.43,1.62-2.43,3.62s1.09,3.63,2.43,3.63,2.44-1.63,2.44-3.63S873.57,451.91,872.22,451.91Z"/><rect class="cls-1" x="981.16" y="400.74" width="5.54" height="8.12"/><ellipse class="cls-11" cx="983.93" cy="404.8" rx="2.68" ry="3.93"/><path class="cls-12" d="M983.93,408.84c-1.54,0-2.79-1.81-2.79-4s1.25-4,2.79-4,2.79,1.81,2.79,4S985.46,408.84,983.93,408.84Zm0-7.86c-1.42,0-2.57,1.71-2.57,3.82s1.15,3.82,2.57,3.82,2.56-1.72,2.56-3.82S985.34,401,983.93,401Z"/><rect class="cls-1" x="1170.77" y="392.04" width="5.6" height="8.21"/><ellipse class="cls-11" cx="1173.57" cy="396.15" rx="2.71" ry="3.97"/><path class="cls-12" d="M1173.57,400.24c-1.56,0-2.82-1.84-2.82-4.09s1.26-4.09,2.82-4.09,2.82,1.83,2.82,4.09S1175.12,400.24,1173.57,400.24Zm0-7.95c-1.43,0-2.6,1.73-2.6,3.86s1.17,3.86,2.6,3.86,2.59-1.73,2.59-3.86S1175,392.29,1173.57,392.29Z"/><rect class="cls-1" x="1053.65" y="338.02" width="5.98" height="8.78"/><ellipse class="cls-11" cx="1056.64" cy="342.41" rx="2.89" ry="4.25"/><path class="cls-12" d="M1056.64,346.77c-1.66,0-3-2-3-4.36s1.35-4.37,3-4.37,3,2,3,4.37S1058.3,346.77,1056.64,346.77Zm0-8.49c-1.53,0-2.77,1.85-2.77,4.13s1.24,4.12,2.77,4.12,2.77-1.85,2.77-4.12S1058.17,338.28,1056.64,338.28Z"/><rect class="cls-1" x="785.91" y="298.77" width="3.44" height="5.04"/><ellipse class="cls-11" cx="787.63" cy="301.3" rx="1.66" ry="2.44"/><path class="cls-12" d="M787.63,303.81c-1,0-1.74-1.13-1.74-2.51s.78-2.51,1.74-2.51,1.73,1.12,1.73,2.51S788.58,303.81,787.63,303.81Zm0-4.89c-.88,0-1.6,1.07-1.6,2.38s.72,2.37,1.6,2.37,1.59-1.07,1.59-2.37S788.51,298.92,787.63,298.92Z"/><rect class="cls-1" x="600.47" y="334.64" width="5.83" height="8.56"/><ellipse class="cls-11" cx="603.39" cy="338.92" rx="2.82" ry="4.14"/><path class="cls-12" d="M603.39,343.18c-1.63,0-2.94-1.91-2.94-4.26s1.31-4.26,2.94-4.26,2.94,1.91,2.94,4.26S605,343.18,603.39,343.18Zm0-8.28c-1.49,0-2.71,1.8-2.71,4s1.22,4,2.71,4,2.7-1.81,2.7-4S604.88,334.9,603.39,334.9Z"/><rect class="cls-1" x="540.12" y="295.87" width="3.44" height="5.05"/><ellipse class="cls-11" cx="541.84" cy="298.4" rx="1.66" ry="2.44"/><path class="cls-12" d="M541.84,300.91c-1,0-1.73-1.13-1.73-2.51s.78-2.51,1.73-2.51,1.74,1.12,1.74,2.51S542.8,300.91,541.84,300.91Zm0-4.89c-.88,0-1.59,1.07-1.59,2.38s.71,2.37,1.59,2.37,1.6-1.07,1.6-2.37S542.72,296,541.84,296Z"/><rect class="cls-1" x="235.41" y="353.43" width="2.93" height="4.31"/><ellipse class="cls-11" cx="236.88" cy="355.58" rx="1.42" ry="2.08"/><path class="cls-12" d="M236.88,357.73c-.82,0-1.48-1-1.48-2.15s.66-2.14,1.48-2.14,1.48,1,1.48,2.14S237.69,357.73,236.88,357.73Zm0-4.17c-.75,0-1.36.91-1.36,2s.61,2,1.36,2,1.36-.91,1.36-2S237.63,353.56,236.88,353.56Z"/><rect class="cls-1" x="187.51" y="382.18" width="6.45" height="9.47"/><ellipse class="cls-11" cx="190.73" cy="386.92" rx="3.12" ry="4.58"/><path class="cls-12" d="M190.73,391.63c-1.79,0-3.25-2.12-3.25-4.71s1.46-4.72,3.25-4.72,3.25,2.12,3.25,4.72S192.53,391.63,190.73,391.63Zm0-9.17c-1.65,0-3,2-3,4.46s1.34,4.45,3,4.45,3-2,3-4.45S192.38,382.46,190.73,382.46Z"/><rect class="cls-1" x="33.53" y="333.16" width="5.73" height="8.42"/><ellipse class="cls-11" cx="36.4" cy="337.37" rx="2.77" ry="4.07"/><path class="cls-12" d="M36.4,341.56c-1.59,0-2.89-1.88-2.89-4.19s1.3-4.19,2.89-4.19,2.89,1.88,2.89,4.19S38,341.56,36.4,341.56Zm0-8.14c-1.46,0-2.66,1.77-2.66,3.95s1.2,4,2.66,4,2.66-1.78,2.66-4S37.87,333.42,36.4,333.42Z"/><rect class="cls-1" x="262.61" y="487.49" width="5.69" height="8.36"/><ellipse class="cls-11" cx="265.46" cy="491.66" rx="2.75" ry="4.04"/><path class="cls-12" d="M265.46,495.82c-1.58,0-2.87-1.86-2.87-4.15s1.29-4.16,2.87-4.16,2.87,1.86,2.87,4.16S267,495.82,265.46,495.82Zm0-8.08c-1.46,0-2.64,1.76-2.64,3.93s1.18,3.92,2.64,3.92,2.64-1.76,2.64-3.92S266.91,487.74,265.46,487.74Z"/><rect class="cls-1" x="445.45" y="297.17" width="3.62" height="5.32"/><ellipse class="cls-11" cx="447.26" cy="299.83" rx="1.75" ry="2.57"/><path class="cls-12" d="M447.26,302.48c-1,0-1.83-1.19-1.83-2.65s.82-2.65,1.83-2.65,1.83,1.19,1.83,2.65S448.27,302.48,447.26,302.48Zm0-5.15c-.93,0-1.68,1.12-1.68,2.5s.75,2.5,1.68,2.5,1.68-1.12,1.68-2.5S448.19,297.33,447.26,297.33Z"/><rect class="cls-1" x="451.85" y="136.42" width="7.21" height="10.58"/><ellipse class="cls-11" cx="455.46" cy="141.71" rx="3.49" ry="5.12"/><path class="cls-12" d="M455.46,147c-2,0-3.63-2.37-3.63-5.27s1.63-5.26,3.63-5.26,3.63,2.36,3.63,5.26S457.46,147,455.46,147Zm0-10.24c-1.84,0-3.34,2.23-3.34,5s1.5,5,3.34,5,3.34-2.23,3.34-5S457.3,136.74,455.46,136.74Z"/><rect class="cls-1" x="495.32" y="87.63" width="7.31" height="10.74"/><ellipse class="cls-11" cx="498.98" cy="93" rx="3.54" ry="5.19"/><path class="cls-12" d="M499,98.34c-2,0-3.69-2.4-3.69-5.34s1.65-5.34,3.69-5.34,3.69,2.39,3.69,5.34S501,98.34,499,98.34ZM499,88c-1.87,0-3.39,2.27-3.39,5s1.52,5,3.39,5,3.39-2.27,3.39-5S500.85,88,499,88Z"/><rect class="cls-1" x="673.62" y="159.83" width="2.62" height="3.85"/><ellipse class="cls-11" cx="674.93" cy="161.76" rx="1.27" ry="1.86"/><path class="cls-12" d="M674.93,163.67c-.73,0-1.32-.86-1.32-1.91s.59-1.92,1.32-1.92,1.33.86,1.33,1.92S675.66,163.67,674.93,163.67Zm0-3.72c-.67,0-1.21.81-1.21,1.81s.54,1.81,1.21,1.81,1.22-.81,1.22-1.81S675.6,160,674.93,160Z"/><rect class="cls-1" x="733.86" y="75.19" width="5.48" height="8.04"/><ellipse class="cls-11" cx="736.6" cy="79.21" rx="2.65" ry="3.89"/><path class="cls-12" d="M736.6,83.21c-1.53,0-2.76-1.8-2.76-4s1.23-4,2.76-4,2.76,1.79,2.76,4S738.12,83.21,736.6,83.21Zm0-7.78c-1.4,0-2.54,1.69-2.54,3.78S735.2,83,736.6,83s2.54-1.69,2.54-3.77S738,75.43,736.6,75.43Z"/><rect class="cls-1" x="836.86" y="134.12" width="7.32" height="10.74"/><ellipse class="cls-11" cx="840.52" cy="139.49" rx="3.54" ry="5.2"/><path class="cls-12" d="M840.52,144.83c-2,0-3.69-2.39-3.69-5.34s1.66-5.34,3.69-5.34,3.69,2.39,3.69,5.34S842.55,144.83,840.52,144.83Zm0-10.39c-1.87,0-3.39,2.27-3.39,5.05s1.52,5,3.39,5,3.39-2.27,3.39-5S842.39,134.44,840.52,134.44Z"/><rect class="cls-1" x="940.31" y="130.72" width="5.5" height="8.08"/><rect class="cls-1" x="1151.35" y="153.62" width="6.86" height="10.06"/><ellipse class="cls-11" cx="1154.78" cy="158.65" rx="3.32" ry="4.87"/><path class="cls-12" d="M1154.78,163.66c-1.91,0-3.46-2.25-3.46-5s1.55-5,3.46-5,3.45,2.25,3.45,5S1156.68,163.66,1154.78,163.66Zm0-9.74c-1.76,0-3.18,2.12-3.18,4.73s1.42,4.73,3.18,4.73,3.18-2.12,3.18-4.73S1156.53,153.92,1154.78,153.92Z"/><rect class="cls-1" x="1049.62" y="70.84" width="3.95" height="5.79"/><ellipse class="cls-11" cx="1051.59" cy="73.74" rx="1.91" ry="2.8"/><path class="cls-12" d="M1051.59,76.62c-1.1,0-2-1.29-2-2.88s.89-2.88,2-2.88,2,1.29,2,2.88S1052.69,76.62,1051.59,76.62Zm0-5.6c-1,0-1.83,1.22-1.83,2.72s.82,2.72,1.83,2.72,1.83-1.22,1.83-2.72S1052.6,71,1051.59,71Z"/><rect class="cls-1" x="1001.47" y="33.69" width="6.64" height="9.75"/><ellipse class="cls-11" cx="1004.79" cy="38.57" rx="3.21" ry="4.72"/><path class="cls-12" d="M1004.79,43.42c-1.84,0-3.34-2.18-3.34-4.85s1.5-4.85,3.34-4.85,3.35,2.17,3.35,4.85S1006.64,43.42,1004.79,43.42Zm0-9.44c-1.69,0-3.08,2.06-3.08,4.59s1.39,4.58,3.08,4.58,3.08-2.06,3.08-4.58S1006.49,34,1004.79,34Z"/><rect class="cls-1" x="767.05" y="45.28" width="6.46" height="9.49"/><ellipse class="cls-11" cx="770.28" cy="50.03" rx="3.13" ry="4.59"/><path class="cls-12" d="M770.28,54.75c-1.8,0-3.26-2.12-3.26-4.72s1.46-4.72,3.26-4.72,3.26,2.11,3.26,4.72S772.08,54.75,770.28,54.75Zm0-9.18c-1.65,0-3,2-3,4.46s1.35,4.46,3,4.46,3-2,3-4.46S771.93,45.57,770.28,45.57Z"/><rect class="cls-1" x="529.06" y="24.58" width="5.17" height="7.58"/><ellipse class="cls-11" cx="531.64" cy="28.37" rx="2.5" ry="3.67"/><path class="cls-12" d="M531.64,32.15c-1.43,0-2.6-1.7-2.6-3.78s1.17-3.77,2.6-3.77,2.61,1.69,2.61,3.77S533.08,32.15,531.64,32.15Zm0-7.34c-1.32,0-2.39,1.6-2.39,3.56s1.07,3.57,2.39,3.57,2.4-1.6,2.4-3.57S533,24.81,531.64,24.81Z"/><rect class="cls-1" x="464.65" y="190.95" width="3.14" height="4.6"/><ellipse class="cls-11" cx="466.22" cy="193.25" rx="1.52" ry="2.23"/><path class="cls-12" d="M466.22,195.54c-.87,0-1.58-1-1.58-2.29s.71-2.29,1.58-2.29,1.58,1,1.58,2.29S467.09,195.54,466.22,195.54Zm0-4.46c-.8,0-1.45,1-1.45,2.17s.65,2.16,1.45,2.16,1.46-1,1.46-2.16S467,191.08,466.22,191.08Z"/><rect class="cls-1" x="663.28" y="401.54" width="5.77" height="8.47"/><ellipse class="cls-11" cx="666.17" cy="405.78" rx="2.79" ry="4.1"/><path class="cls-12" d="M666.17,410c-1.61,0-2.91-1.89-2.91-4.21s1.3-4.22,2.91-4.22,2.91,1.89,2.91,4.22S667.77,410,666.17,410Zm0-8.2c-1.48,0-2.68,1.79-2.68,4s1.2,4,2.68,4,2.68-1.79,2.68-4S667.65,401.79,666.17,401.79Z"/><rect class="cls-1" x="702.71" y="392.04" width="6.77" height="9.93"/><ellipse class="cls-11" cx="706.1" cy="397.01" rx="3.27" ry="4.81"/><path class="cls-12" d="M706.1,402c-1.89,0-3.41-2.22-3.41-4.94s1.52-4.94,3.41-4.94,3.41,2.21,3.41,4.94S708,402,706.1,402Zm0-9.61c-1.73,0-3.14,2.09-3.14,4.67s1.41,4.67,3.14,4.67,3.13-2.1,3.13-4.67S707.83,392.34,706.1,392.34Z"/><rect class="cls-1" x="913.25" y="349.23" width="5.22" height="7.65"/><ellipse class="cls-11" cx="915.85" cy="353.05" rx="2.52" ry="3.7"/><path class="cls-12" d="M915.85,356.86c-1.45,0-2.63-1.71-2.63-3.81s1.18-3.8,2.63-3.8,2.63,1.7,2.63,3.8S917.3,356.86,915.85,356.86Zm0-7.4c-1.33,0-2.42,1.61-2.42,3.59s1.09,3.6,2.42,3.6,2.42-1.61,2.42-3.6S917.19,349.46,915.85,349.46Z"/><rect class="cls-1" x="1159.37" y="350.79" width="6.32" height="9.28"/><ellipse class="cls-11" cx="1162.53" cy="355.43" rx="3.06" ry="4.49"/><path class="cls-12" d="M1162.53,360.05c-1.76,0-3.19-2.07-3.19-4.62s1.43-4.62,3.19-4.62,3.18,2.07,3.18,4.62S1164.28,360.05,1162.53,360.05Zm0-9c-1.62,0-2.93,1.95-2.93,4.36s1.31,4.36,2.93,4.36,2.93-2,2.93-4.36S1164.14,351.07,1162.53,351.07Z"/><rect class="cls-1" x="1227.71" y="327.08" width="5.99" height="8.79"/></g><g class="cls-14"><rect class="cls-1" x="485.65" y="153.64" width="8.02" height="8.02"/><circle class="cls-11" cx="489.67" cy="157.65" r="3.88"/><path class="cls-12" d="M489.67,161.66a4,4,0,1,1,4-4A4,4,0,0,1,489.67,161.66Zm0-7.76a3.75,3.75,0,1,0,3.75,3.75A3.76,3.76,0,0,0,489.67,153.9Z"/><rect class="cls-1" x="427.9" y="235.5" width="6.02" height="6.02"/><circle class="cls-11" cx="430.91" cy="238.52" r="2.91"/><path class="cls-12" d="M430.91,241.53a3,3,0,1,1,3-3A3,3,0,0,1,430.91,241.53Zm0-5.83a2.82,2.82,0,1,0,2.82,2.82A2.82,2.82,0,0,0,430.91,235.7Z"/></g><rect class="cls-18" x="-11" y="841" width="1610" height="89" rx="12"/><ellipse class="cls-18" cx="1346" cy="852" rx="208" ry="93"/><polygon class="cls-18" points="1213 781 1219.07 851.89 1225.14 922.77 1059.99 901.21 894.85 879.64 1053.92 830.32 1213 781"/><path class="cls-18" d="M1100.18,833.39c-2.09-27.2,119.38-66.92,133.51-71.54a483,483,0,0,1,51.24-13.69c32.8-5.13,49.34-.9,54.12-10.66,4-8.2-3.81-21.7-19.48-48.7-12.88-22.19-20.81-30.34-18-41.1,2.38-9.28,9.74-8.83,14.43-21.31,3.08-8.19,5.1-22.18-1.44-31.2-8-10.94-23.72-8-24.54-13.7s15.58-7.65,19.49-19c5.18-15.1-15.12-36.86-29.59-47.19-7.64-5.45-16.77-12-29.59-12.17-20.61-.33-35.06,15.9-42.58,24.35-9.81,11-14.24,23.08-23.09,47.18a53.79,53.79,0,0,0-3.61,17.51,57,57,0,0,0,.41,8.16c1.21,10.93,3.53,16.17,5.78,25.73,2.88,12.29,4.32,18.44,2.47,23.18-2.82,7.24-10.32,13-16.6,15.22-.16.06-.94.34-2,.63-5.74,1.55-14.55,2.14-16-.63-1.75-3.36,9.22-8.1,14.43-19,9-18.77-10.31-32.29-6.49-65.45.75-6.51,3.6-24.32,3.61-24.35-7.29-3-18.9-6.31-25.26,0-.24.24-.41.42-.58.62-5.67,6.35-3.88,13.19-5.92,25.25a124.5,124.5,0,0,1-5,19c-3.39,2.45-8.49,6.24-14.48,11.18-10.79,8.88-13.68,12.57-15.11,11.65-2.34-1.53,3-15.48,13.72-43.38,11.59-37.31,22.73-46.3,31-47.18,4.63-.5,9.89,1.38,18-1.53,7.12-2.53,11.26-6.87,16.6-12.17,14.84-14.76,22.26-22.14,28.14-25.88,14.46-9.19,29.72-10.34,34.64-10.65,18-1.15,25.16,5,29.59,0,7.79-8.73-5.34-37.79-9.59-37.12-.92.14-2,1.76-2.1,3.24s1.1,3.28,2.1,3.23c1.18-.06,1.91-2.62,2.09-3.23,1.1-3.86-3.59-8.12-8-11.75-13-10.73-21.3-13.73-21.31-13.73-21.51-7.81-54.42-17.54-73.6-24.35-29.41-10.45-37.32-17-41.14-25.88-1.34-3.11.85-11.27-2.1-22.47-.67-2.56-1.35-4.48-1.51-4.92-4-11.23-21.59-23.86-49.07-29.68-23-4.89-39.06-.42-39.69-3.81-.84-4.52,27.12-16,28.67-13.12.41.76-.84,2.95-1.92,3-.92,0-2-1.5-1.92-3s1.37-2.55,1.92-3c5.56-4.38,28.88-3.31,29,.12,0,1.07-2.17,1.52-2.32,3.59-.12,1.75,1.28,3.69,2.32,3.59s1-2.6,2.32-3.59c2.38-1.76,7.65,2.64,16.26,9.35,6.33,4.93,16.45,12.63,15.19,15.29-.3.65-1.31,1-1.37,2.13s.75,2.18,1.37,2.13.69-1.63,1.38-2.13c2-1.43,11.54,4.88,15.9,15.3,4.28,10.21-.63,14.26,3.61,21.31,2.86,4.74,9.12,7,21.65,11.41,10.14,3.6,15.3,5.37,19.49,3.81,5.7-2.13,8.08-7.6,13-17.5,12.13-24.48,11.08-18.17,16.6-31.21,15.11-35.7,7.4-46.14,19.48-57.07,8.59-7.78,23.61-12.56,36.08-10.66,5.55.85,17.56,4.07,32.12.3l1.08-.3c16.86-4.82,23-18.48,24.54-17.5,2,1.26-2.58,27.4-19.49,35-10,4.48-15.25-1.52-36.08,1.52-9.47,1.38-16.17,2.36-22.37,6.85-10.51,7.59-10.52,19.55-15.88,40.33-10.64,41.26-24.28,49.72-18,60.88,2.36,4.23,14.8,8.66,39.69,17.51,13.15,4.67,19.8,6.55,26,13.7,4.52,5.23,4.44,8.25,10.1,20.54,5.94,12.9,7.76,13.35,16.6,29.68,14.78,27.31,11.24,28.94,18,35,15.92,14.2,39.54,9.08,42.58,8.37,9-2.09,10.69-5,28.15-16,35.46-22.27,49-23,59.17-41.1a63.53,63.53,0,0,0,6.93-19c.81-4.28,3.1-17.3-1.88-31.22-2.76-7.72-5.41-9.17-10.63-22.58-.5-1.28-2.55-6.6-3.8-10.91-1-3.52-7.48-27,1.44-44.9,7.53-15.06,17.8-9.71,28.15-25.87,10.89-17,8.38-36.84,7.94-40.34-2.62-20.63-14.62-31.34-13-32.72,2.32-2,29.7,17.16,31,44.9.43,9-2,15.82-5,24.35-7.11,19.95-15,21.5-23.1,41.86-3.39,8.55-7,17.72-6.49,29.68.63,14,6.31,16.31,11.54,34.24,2.51,8.57,7.84,26.84,2.89,47.19-3.93,16.17-12.76,27.08-17.32,32.72-5.31,6.57-7,6.84-25.26,24.35-17.09,16.41-19.32,19.74-19.48,24.36-.35,10.15,9.57,19.26,18,22.83,14.09,5.93,27.13-2.26,29.59-3.81,2.76-1.73,8-5.57,15.15-17.5,9.06-15.17,10.31-25.33,14.44-36.53,10.4-28.25,33.13-47,36.08-44.9,1.63,1.16-2.9,8.64-15.88,41.86-7.84,20.07-11.76,30.1-15.15,39.57-8.22,22.9-8.2,25.77-13,31.2-8.41,9.53-19.59,13.35-31.76,17.5-17.91,6.12-26.41,4.71-27.42,9.14-1.36,6,12.37,16.09,26,20.54,5,1.64,11.71,3.07,38.25,1.53,27.87-1.62,37.09-4.16,39,0,2,4.43-5.26,14.47-14.43,19-11.31,5.61-18.92-.39-38.25,0-12.38.25-11.45,2.75-29.59,5.33-33.53,4.76-43.39-2.83-50.52,5.33-9.13,10.45-2.45,33.82,5.05,47.18,1.95,3.45,4.78,7.74,32.48,31.2,18.6,15.76,27.9,23.64,34.64,28.92,14.7,11.52,20.51,15.15,26.7,24.35,6.58,9.78,9,19.53,10.83,26.64,4.17,16.27,4.13,30.9,3.6,34.24C1501.65,880.47,1103.92,882,1100.18,833.39Z"/><path class="cls-18" d="M1330,427.58c.21,5.18,2.49,6.8,1.2,11.17-.92,3.07-2.32,3.18-2.39,5.58-.12,4.17,4.1,5,4.37,8.81.34,4.65-5.5,8.56-6.75,9.41-4.33,2.9-7.14,2.35-9.55,5s-1.89,5.55-1.59,7.94c2.26,17.7-2.43,18.95,2.39,26.15,3.48,5.22,8.71,8.7,11.13,10.28a38.27,38.27,0,0,0,9.94,5,39.46,39.46,0,0,0,17.1,1.76,37.86,37.86,0,0,0,14.31-5c3.36-1.81,8.43-4.52,11.53-9.11s.7-5.83,2.39-16.75c1.25-8.09,3-10.13,2-15.87-.62-3.5-1.21-6.52-4.38-8.82-5.39-3.91-14.15-2.71-14.31-4.11-.13-1.09,5.22-1.29,10.73-4.7a23.56,23.56,0,0,0,6.76-6.47c2.58-3.34,5.14-6.66,4.38-10.57-.42-2.15-1.35-2-3.18-5.59-3.13-6.08-2.26-10-4-10.28-1.45-.2-1.93,2.64-5.17,5-5.49,4-14.15,3.11-30.22,1.47-3.12-.32-5.18-.62-7.15-1.76-5.39-3.1-4.45-9.08-6-9.11S1329.75,422,1330,427.58Z"/><ellipse class="cls-19" cx="1368.53" cy="440.21" rx="6.76" ry="5"/><ellipse class="cls-19" cx="1345.47" cy="440.21" rx="6.76" ry="5"/><ellipse class="cls-18" cx="1345.67" cy="440.21" rx="1.79" ry="4.11"/><ellipse class="cls-18" cx="1368.33" cy="441.1" rx="1.79" ry="4.11"/><ellipse class="cls-19" cx="1357.8" cy="448.59" rx="1.59" ry="3.38"/><polygon class="cls-18" points="490.31 710.05 496.81 822.78 496.81 841 725.52 841 718.37 816.52 716.42 775.53 714.47 710.05 771 710.05 696.28 625.79 630.65 559.75 609.21 531.85 581.27 492 480.56 639.46 387 714.04 490.31 710.05"/><path class="cls-20" d="M726.18,841.5H496.31V822.78l-6.47-112.21-104.34,4,94.69-75.49,101.08-148,28.35,40.45,21.43,27.88,65.58,66,75.48,85.11H715l1.93,65,2,40.93Zm-228.87-1H724.85l-7-24-2-41-2-66h55.93l-74-83.43-65.61-66-21.48-27.94-27.54-39.28L480.93,639.8l-.05.05L388.5,713.48l102.28-3.94,6.53,113.21Z"/><path class="cls-21" d="M585,840c0-32.58,12.09-59,27-59s27,26.42,27,59"/><path class="cls-21" d="M526,773c0-24.85,10.3-45,23-45s23,20.15,23,45"/><line class="cls-18" x1="547.51" y1="728" x2="551.09" y2="772.21"/><rect class="cls-22" x="546.8" y="727.93" width="5" height="44.36" transform="translate(-58.82 46.84) rotate(-4.64)"/><rect class="cls-22" x="532.62" y="735.96" width="33.41" height="3"/><rect class="cls-22" x="528.43" y="755.46" width="42.97" height="3"/><path class="cls-21" d="M692,773c0-24.85-10.3-45-23-45s-23,20.15-23,45"/><line class="cls-18" x1="670.49" y1="728" x2="666.91" y2="772.21"/><rect class="cls-22" x="646.52" y="747.61" width="44.36" height="5" transform="translate(-133.02 1355.96) rotate(-85.36)"/><rect class="cls-22" x="651.97" y="735.96" width="33.41" height="3"/><rect class="cls-22" x="646.6" y="755.46" width="42.97" height="3"/><ellipse class="cls-18" cx="427" cy="803.5" rx="5.39" ry="53.31" transform="translate(-120.16 76.48) rotate(-8.98)"/><rect class="cls-20" x="403" y="780.5" width="3" height="60"/><rect class="cls-20" x="377" y="781.5" width="3" height="59"/><rect class="cls-20" x="335" y="780.5" width="3" height="59"/><rect class="cls-20" x="293" y="758.5" width="3" height="81"/><rect class="cls-20" x="262.5" y="772.47" width="3" height="67.07" transform="translate(-35.79 12.62) rotate(-2.56)"/><rect class="cls-20" x="234" y="781.5" width="3" height="58"/><rect class="cls-20" x="191.5" y="772.5" width="3" height="68.01" transform="translate(-11.84 2.93) rotate(-0.84)"/><rect class="cls-20" x="124.98" y="809.5" width="59.03" height="3" transform="translate(-661.27 937.95) rotate(-88.06)"/><rect class="cls-20" x="115" y="781.5" width="3" height="58"/><rect class="cls-20" x="77" y="780.5" width="3" height="59"/><rect class="cls-20" x="38" y="781.5" width="3" height="58"/><rect class="cls-20" x="-23.01" y="809.5" width="60.02" height="3" transform="translate(-791.5 669) rotate(-79.42)"/><line class="cls-18" x1="420" y1="791" y2="799"/><rect class="cls-20" x="-0.04" y="793" width="420.08" height="4" transform="matrix(1, -0.02, 0.02, 1, -15.1, 4.14)"/><rect class="cls-20" x="-11" y="820.5" width="436" height="4" transform="translate(-1.81 0.46) rotate(-0.13)"/><polygon class="cls-18" points="89.62 857 127.16 797.76 118.73 767.4 77.37 767.4 30.64 774.8 0 760.73 13.79 760.73 45.96 760.73 75.84 760.73 63.58 728.89 45.96 721.48 45.96 693.34 63.58 693.34 60.52 701.49 60.52 711.86 81.2 728.89 89.62 755.55 110.31 755.55 127.16 728.89 131.75 674.83 146.31 668.9 127.16 628.92 100.35 628.92 60.52 628.92 45.96 620.03 30.64 594.11 5.36 590.41 26.05 582.26 45.96 590.41 45.96 601.52 60.52 620.03 89.62 611.14 103.41 611.14 129.46 611.14 148.61 647.43 118.73 582.26 89.62 581.52 60.52 564.49 60.52 544.5 45.96 514.87 45.96 489.7 60.52 476.37 60.52 441.56 45.96 421.57 60.52 428.97 72.01 454.89 72.01 480.81 79.67 465.26 89.62 441.56 101.88 416.38 144.01 394.17 127.16 421.57 107.24 436.38 89.62 480.81 72.01 511.17 79.67 542.27 89.62 553.38 101.88 561.53 118.73 569.67 144.01 574.12 158.56 590.41 180.01 578.56 180.78 556.34 186.91 514.13 189.21 421.57 147.84 341.59 73.54 343.81 144.01 329 180.78 355.66 189.21 388.24 205.29 452.67 205.29 525.24 205.29 564.49 225.97 525.24 241.29 460.07 280.36 382.32 397.56 349.74 448.12 372.69 390.67 368.99 320.96 388.24 290.32 406.76 363.09 425.27 409.05 427.49 494.08 404.53 512.47 334.92 517.83 382.32 501.74 426.01 443.52 441.56 385.31 448.97 292.62 436.38 258.91 486.73 234.4 551.9 258.91 592.63 358.5 574.12 342.41 518.58 290.32 517.1 350.07 503.77 363.09 533.39 368.45 569.67 368.45 597.07 269.64 608.18 205.29 620.03 182.31 648.17 189.21 684.46 248.96 674.83 269.64 674.83 290.32 648.17 310.24 645.21 389.14 642.25 499.37 605.28 521.66 597.81 550 573.38 356.2 668.9 305.64 657.8 275 693.34 186.91 693.34 180.01 706.67 201.46 728.89 275 717.04 368.45 708.89 290.32 728.89 236.7 728.89 189.21 748.88 180.01 781.47 202.99 830.34 248.96 857 89.62 857"/><polygon class="cls-18" points="89.91 190.36 91.8 209.25 98.22 221 109.18 221 113.71 208.23 115.6 192.91 125.04 197 131.84 203.13 131.84 211.3 135.24 205.68 140.16 199.04 144.31 205.68 148.09 215.89 151.11 205.68 155.64 197.51 163.2 210.28 166.22 203.13 170 181.68 170 165.34 156.02 174.53 136.76 177.09 115.98 175.04 118.24 165.34 120.13 151.55 115.22 159.72 109.18 167.89 94.07 171.98 89.91 162.79 85.76 154.11 85.76 164.83 85.76 174.53 72.53 181.17 57.8 178.62 43.82 173.51 29.47 159.72 21.53 149 17 158.19 17 177.6 20.78 194.45 25.69 187.81 33.24 184.75 39.67 195.98 42.69 208.23 51 195.47 57.8 192.91 60.44 208.23 60.82 214.36 66.11 199.55 75.93 190.87 89.91 190.36"/><ellipse class="cls-23" cx="98.22" cy="183.21" rx="3.02" ry="6.64"/><ellipse class="cls-23" cx="108.42" cy="183.21" rx="3.02" ry="6.64"/><ellipse class="cls-18" cx="98.22" cy="183.47" rx="0.76" ry="6.38"/><ellipse class="cls-18" cx="108.42" cy="182.96" rx="0.76" ry="6.38"/><polygon class="cls-18" points="140.43 263.55 142.04 274.31 147.54 281 156.92 281 160.81 273.73 162.42 265.01 170.51 267.33 176.33 270.82 176.33 275.48 179.24 272.28 183.45 268.5 187 272.28 190.24 278.09 192.83 272.28 196.71 267.62 203.18 274.89 205.76 270.82 209 258.61 209 249.31 197.03 254.54 180.54 255.99 162.75 254.83 164.69 249.31 166.3 241.45 162.1 246.11 156.92 250.76 143.99 253.09 140.43 247.85 136.87 242.91 136.87 249.01 136.87 254.54 125.55 258.32 112.93 256.87 100.97 253.96 88.67 246.11 81.88 240 78 245.23 78 256.28 81.23 265.88 85.44 262.1 91.91 260.36 97.41 266.75 100 273.73 107.11 266.46 112.93 265.01 115.2 273.73 115.52 277.22 120.05 268.79 128.46 263.84 140.43 263.55"/><ellipse class="cls-23" cx="147.54" cy="259.48" rx="2.59" ry="3.78"/><ellipse class="cls-23" cx="156.28" cy="259.48" rx="2.59" ry="3.78"/><ellipse class="cls-18" cx="147.54" cy="259.63" rx="0.65" ry="3.63"/><ellipse class="cls-18" cx="156.28" cy="259.34" rx="0.65" ry="3.63"/><polygon class="cls-18" points="308.39 224.28 310.56 235.82 317.9 243 330.43 243 335.62 235.2 337.78 225.84 348.58 228.33 356.36 232.08 356.36 237.07 360.25 233.64 365.86 229.58 370.62 233.64 374.94 239.88 378.39 233.64 383.58 228.65 392.22 236.45 395.68 232.08 400 218.97 400 208.99 384.01 214.6 361.98 216.16 338.21 214.91 340.8 208.99 342.96 200.56 337.35 205.55 330.43 210.55 313.15 213.04 308.39 207.43 303.64 202.12 303.64 208.67 303.64 214.6 288.52 218.66 271.67 217.1 255.68 213.98 239.26 205.55 230.19 199 225 204.62 225 216.47 229.32 226.77 234.94 222.72 243.58 220.84 250.93 227.71 254.38 235.2 263.89 227.4 271.67 225.84 274.69 235.2 275.12 238.94 281.17 229.89 292.41 224.59 308.39 224.28"/><ellipse class="cls-23" cx="317.9" cy="219.91" rx="3.46" ry="4.06"/><ellipse class="cls-23" cx="329.57" cy="219.91" rx="3.46" ry="4.06"/><ellipse class="cls-18" cx="317.9" cy="220.06" rx="0.86" ry="3.9"/><ellipse class="cls-18" cx="329.57" cy="219.75" rx="0.86" ry="3.9"/></g><rect class="cls-18" x="646.1" y="539.2" width="46.42" height="93.07" rx="12" transform="translate(532.95 -293.17) rotate(39.99)"/><g class="cls-14"><g class="cls-24"><image width="754" height="1146" transform="translate(385 -93)" xlink:href="titel_baggrund12.png"/></g><polyline class="cls-25" points="661.4 448.38 665.11 500 656.17 586.59 663.28 668.56 690.03 678.49 709.75 685.79 732.54 662.51 753.07 641.03 807.64 574 858.56 521.48 905.83 483.47 972.41 299.24 945.01 193.88 913.16 158.27 871.5 171.91 834.06 173.9 793.52 180.02 780.3 198.92 758.07 211.83 727.96 237.69 656.33 435.92"/><polygon points="709.68 687.09 662.51 669.6 655.36 586.8 664.28 500.34 660.59 448.86 662.22 447.9 665.92 499.79 657 586.24 664.05 667.53 709.82 684.5 732.23 661.6 752.75 640.14 807.24 573.19 858.25 520.57 905.3 482.73 971.51 299.51 944.28 194.78 912.76 159.54 871.43 173.08 833.83 175.09 793.69 181.16 780.59 199.89 758.14 212.93 728.5 238.41 657.03 436.18 655.62 435.65 727.42 236.97 757.84 210.85 780.01 197.95 793.34 178.89 834.23 172.71 871.73 170.72 913.57 157 945.79 193.18 973.3 298.97 906.36 484.21 858.76 522.49 807.96 574.9 753.47 641.84 732.86 663.41 709.68 687.09"/><polygon class="cls-20" points="807.37 249.95 842.58 263 823.2 316.64 788.03 356.49 766.38 385.49 717.12 406.89 701.05 385.06 697.37 359.9 732.27 338.46 750.28 323.98 780.65 279.71 807.37 249.95"/><polygon class="cls-20" points="800.2 424.47 777.67 429.34 762.21 450.05 801.64 464.67 810.07 441.35 800.2 424.47"/><polygon class="cls-20" points="755.74 463.52 788.13 475.53 790.13 505.36 773.27 552 756.96 575.04 723.77 618.27 714.78 638.74 688.02 628.82 699.23 566.86 726.2 492.24 755.74 463.52"/><path class="cls-20" d="M837.76,297.77c9.32-10.83,13.4-27.66,9.08-37.4l-8.36-18.81-2.82,2.59a17.68,17.68,0,0,0-3.37-7.78c-10.83-13.1-40,9-65.15,49.3A252.67,252.67,0,0,0,750,318.24l-56.1,50.27c10.51,40.95,40.74,54.7,67.52,30.71,10.2-9.15,18.42-22.45,24.12-37.68a211,211,0,0,0,18.07-24Z"/><path class="cls-20" d="M870.09,319.67c.2-10.83,5.88-22.73,12.61-26.44l13-7.17.26,2.87a12.61,12.61,0,0,1,5.33-3c11.65-2.62,16.5,24.28,10.83,60.09a213.55,213.55,0,0,1-6.19,27.42l5.71,56.37c-24.36,19.25-46.32,13.05-49-13.86-1-10.25.87-22,5-33.74a174.94,174.94,0,0,1,1.78-22.79Z"/></g><g class="cls-14"><path class="cls-20" d="M705.79,329.18l-.29-.95c17.8-5.5,31-14.77,39.11-27.58,4.58-7.19,6.21-13.18,8.29-20.76a156.24,156.24,0,0,1,11.78-31.63c4.15-8.39,9.33-18.83,18.93-29.35s20.7-22.69,35.19-21.9c8.7.48,16.89,5.37,24.34,14.54a72.21,72.21,0,0,1,9.33,15.12l-.91.4a71.48,71.48,0,0,0-9.2-14.89c-7.26-8.94-15.21-13.71-23.61-14.17-14-.75-24.84,11.11-34.4,21.58s-14.65,20.78-18.78,29.11a156,156,0,0,0-11.71,31.45c-2.09,7.66-3.75,13.72-8.4,21C737.17,314.2,723.83,323.62,705.79,329.18Z"/></g><g class="cls-14"><path class="cls-20" d="M915.43,401.6a115.1,115.1,0,0,1,1.4-29.92A83.5,83.5,0,0,1,923,351.87,127.53,127.53,0,0,0,928.65,336c4-14.1,9-31.65,3.24-49.6-5.67-17.79-15.47-25.23-22.7-28.33-10.67-4.58-20.66-2-25.67-.06l-.36-.93c5.15-2,15.43-4.65,26.43.07,7.42,3.19,17.47,10.79,23.25,28.95s.8,35.94-3.23,50.17a128,128,0,0,1-5.73,16,82.54,82.54,0,0,0-6.07,19.61,114,114,0,0,0-1.38,29.66Z"/></g><g class="cls-14"><polygon points="681.61 590.91 680.63 590.73 687.69 552.98 688 510.51 680.99 474.77 655.3 432.16 656.16 431.65 681.94 474.4 681.95 474.49 689 510.41 689 510.46 688.68 553.08 681.61 590.91"/></g><g class="cls-14"><polygon points="760.15 617.47 759.29 616.95 775.5 590.21 797.58 562.44 819.86 541.33 854.67 521.98 855.15 522.85 820.4 542.18 798.32 563.11 776.32 590.78 760.15 617.47"/></g><path class="cls-25" d="M1150.29,156.12h-103c-2.57,0-4.42-.47-5.57-1.43S1040,152.18,1040,150V40.61q0-3.2,1.72-4.64c1.15-1,3-1.44,5.57-1.44h31.36q3.84,0,5.57,1.44c1.14,1,1.72,2.51,1.72,4.64v83.6h27.72V96.85c0-2.14.58-3.69,1.72-4.65s3-1.43,5.57-1.43h29.34q3.84,0,5.57,1.43c1.14,1,1.72,2.51,1.72,4.65V150c0,2.14-.58,3.69-1.72,4.65S1152.85,156.12,1150.29,156.12Z"/><path class="cls-25" d="M1304.09,124.21a35.28,35.28,0,0,1-2.73,14.1,24.46,24.46,0,0,1-9.71,10.8q-7,4.48-19.23,7t-31.06,2.54q-18.83,0-31.17-2.54t-19.32-7a24.43,24.43,0,0,1-9.72-10.8,35.28,35.28,0,0,1-2.73-14.1V66.62a35.25,35.25,0,0,1,2.73-14.1,24.93,24.93,0,0,1,9.72-10.89q7-4.56,19.32-7.1T1241.36,32q18.83,0,31.06,2.53t19.23,7.1a25,25,0,0,1,9.71,10.89,35.25,35.25,0,0,1,2.73,14.1Zm-79.73-6.08a6.84,6.84,0,0,0,3,5.65q3,2.28,14,2.28t14-2.28a6.82,6.82,0,0,0,3-5.65V72.7a6.7,6.7,0,0,0-3-5.49q-3-2.28-14-2.28t-14,2.28a6.71,6.71,0,0,0-3,5.49Z"/><path class="cls-25" d="M1397.39,156.12h-64c-2.57,0-4.42-.47-5.57-1.43s-1.72-2.51-1.72-4.65V130.29q0-3.21,1.72-4.65c1.15-1,3-1.43,5.57-1.43h54.44a5.08,5.08,0,0,0,3.94-1.44,4.92,4.92,0,0,0,1.32-3.46,5,5,0,0,0-5.26-5.74L1357.52,110q-14.18-1.68-22.77-7.77T1326.15,82V64.26q0-14.36,11.13-22T1368,34.53h56.67q3.84,0,5.56,1.44t1.72,4.64v20.1q0,3.21-1.72,4.64t-5.56,1.44h-47.16a5.44,5.44,0,0,0-4,1.43,4.94,4.94,0,0,0-1.42,3.63,5.22,5.22,0,0,0,1.42,3.72,5.78,5.78,0,0,0,4,1.69l30.16,3.38q14.16,1.68,22.87,7.76t8.7,20.27V126.4q0,14.35-11.23,22T1397.39,156.12Z"/><path class="cls-25" d="M1528.12,156.12h-32.78c-2.57,0-4.42-.47-5.57-1.43s-1.72-2.51-1.72-4.65V67.13H1458.3c-2.56,0-4.42-.48-5.56-1.44s-1.72-2.5-1.72-4.64V40.61q0-3.2,1.72-4.64c1.14-1,3-1.44,5.56-1.44h106.85c2.57,0,4.42.48,5.57,1.44s1.72,2.51,1.72,4.64V61.05c0,2.14-.58,3.69-1.72,4.64s-3,1.44-5.57,1.44h-29.74V150c0,2.14-.58,3.69-1.72,4.65S1530.68,156.12,1528.12,156.12Z"/></g></g></svg>
