<svg id="tabt" xmlns="http://www.w3.org/2000/svg" width="1600" height="900" viewBox="0 0 1600 900"><defs><style>.cls-1{fill:#e1e3e6;}</style></defs><title>vandt</title><g id="vandt"><rect class="cls-1" x="314" y="90" width="1026" height="688" rx="12"/><path d="M359.33,307.55v49.06h-2.79V334.29H345.42v22.32h-2.79V307.55h2.79v21.88h11.12V307.55Z"/><path d="M376.12,321.93l-5.94,34.68h-2.3l-5.94-34.68H364a.59.59,0,0,1,.51.38,2.59,2.59,0,0,1,.28.89l3.69,22.32c.12.85.22,1.67.31,2.47l.24,2.39.24-2.39c.09-.8.2-1.62.32-2.47l3.74-22.32a2.63,2.63,0,0,1,.29-.91c.13-.24.29-.36.47-.36Z"/><path d="M384.21,321.38a4,4,0,0,1,2.88,1.27,10.34,10.34,0,0,1,2.19,3.6,26,26,0,0,1,1.38,5.63,55.9,55.9,0,0,1,0,14.77,26.39,26.39,0,0,1-1.38,5.62,10.1,10.1,0,0,1-2.19,3.57,4,4,0,0,1-5.77,0,10,10,0,0,1-2.2-3.57,26.39,26.39,0,0,1-1.38-5.62,57.05,57.05,0,0,1,0-14.77,26,26,0,0,1,1.38-5.63,10.21,10.21,0,0,1,2.2-3.6A4,4,0,0,1,384.21,321.38Zm0,30.95c1.44,0,2.52-1.14,3.23-3.44a33.9,33.9,0,0,0,1.06-9.6,34.37,34.37,0,0,0-1.06-9.66q-1.06-3.45-3.23-3.45a2.48,2.48,0,0,0-1.9.89,7,7,0,0,0-1.35,2.56,21.39,21.39,0,0,0-.81,4.13,53.77,53.77,0,0,0-.26,5.53,33.48,33.48,0,0,0,1.07,9.6C381.67,351.19,382.76,352.33,384.21,352.33Z"/><path d="M396.81,328.88a22.09,22.09,0,0,1,1.7-5.56c.67-1.34,1.49-2,2.46-2a1.86,1.86,0,0,1,.88.23,2.27,2.27,0,0,1,.75.76l-.18,4.55c-.06.57-.2.86-.43.86a1.39,1.39,0,0,1-.59-.21,1.93,1.93,0,0,0-.88-.2,1.8,1.8,0,0,0-1.23.48,4.09,4.09,0,0,0-1,1.42,13,13,0,0,0-.77,2.33c-.22.92-.42,2-.61,3.16v21.91h-2.57V321.93h1.47a.57.57,0,0,1,.57.38,4.28,4.28,0,0,1,.22,1.3Z"/><path d="M423.42,351.75a10.32,10.32,0,0,1-1.13,2.38,7.4,7.4,0,0,1-1.42,1.66,5.48,5.48,0,0,1-1.56,1,4.14,4.14,0,0,1-1.59.32,4,4,0,0,1-2.79-1.21,10.06,10.06,0,0,1-2.2-3.56,27,27,0,0,1-1.44-5.81,53.38,53.38,0,0,1-.52-7.94,46.47,46.47,0,0,1,.47-6.78,26.59,26.59,0,0,1,1.34-5.46,10.64,10.64,0,0,1,2.15-3.63,3.85,3.85,0,0,1,2.84-1.32,3.49,3.49,0,0,1,2.43,1.05,8.49,8.49,0,0,1,1.92,3,22.07,22.07,0,0,1,1.28,4.86,43.19,43.19,0,0,1,.46,6.59,9.45,9.45,0,0,1-.13,1.92c-.09.32-.25.48-.49.48H413.3a48,48,0,0,0,.38,5.72,19.93,19.93,0,0,0,.94,4.05,6.69,6.69,0,0,0,1.44,2.44,2.71,2.71,0,0,0,3.53.27,6.59,6.59,0,0,0,1.2-1.15,10.92,10.92,0,0,0,.84-1.14c.23-.36.42-.53.59-.53s.37.19.49.58Zm-2.07-16.26a27.45,27.45,0,0,0-.25-3.89,14.75,14.75,0,0,0-.73-3,5.6,5.6,0,0,0-1.17-2,2.15,2.15,0,0,0-1.57-.7q-1.85,0-2.91,2.55a21.86,21.86,0,0,0-1.33,7.07Z"/><path d="M429.22,328.88a22.09,22.09,0,0,1,1.7-5.56c.67-1.34,1.49-2,2.46-2a1.86,1.86,0,0,1,.88.23,2.27,2.27,0,0,1,.75.76l-.18,4.55c-.06.57-.2.86-.43.86a1.39,1.39,0,0,1-.59-.21,1.93,1.93,0,0,0-.88-.2,1.8,1.8,0,0,0-1.23.48,4.09,4.09,0,0,0-1,1.42,13,13,0,0,0-.77,2.33c-.22.92-.42,2-.61,3.16v21.91h-2.57V321.93h1.47a.57.57,0,0,1,.57.38,4.28,4.28,0,0,1,.22,1.3Z"/><path d="M456.07,306.18v50.43h-1.53q-.54,0-.69-1.26l-.23-4.21a16.63,16.63,0,0,1-2.13,4.31,3.37,3.37,0,0,1-2.76,1.64,3,3,0,0,1-2.27-1.14,9.48,9.48,0,0,1-1.74-3.38,29.46,29.46,0,0,1-1.11-5.54,66.3,66.3,0,0,1-.39-7.64,55,55,0,0,1,.44-7.14,31.2,31.2,0,0,1,1.23-5.73,11.64,11.64,0,0,1,2-3.82,3.42,3.42,0,0,1,2.64-1.38,3,3,0,0,1,2.29,1.07,10,10,0,0,1,1.71,3V306.18Zm-2.56,24A8.74,8.74,0,0,0,452,327a2.51,2.51,0,0,0-1.87-.91c-1.35,0-2.39,1.16-3.12,3.46a34.35,34.35,0,0,0-1.09,9.86,56.64,56.64,0,0,0,.25,5.81,21.69,21.69,0,0,0,.71,4,5.69,5.69,0,0,0,1.17,2.27,2.12,2.12,0,0,0,1.57.72,2.65,2.65,0,0,0,2.2-1.37,14.78,14.78,0,0,0,1.74-3.87Z"/><path d="M472.1,321.93v34.68h-1.53q-.54,0-.69-1.26l-.2-3.73a15.62,15.62,0,0,1-2.13,4,3.38,3.38,0,0,1-2.7,1.52,2.85,2.85,0,0,1-2.11-.94,7.47,7.47,0,0,1-1.53-2.65,19.45,19.45,0,0,1-.92-4.15,42,42,0,0,1-.31-5.37V321.93h2.56v22.12a19.32,19.32,0,0,0,.75,6.09q.75,2.16,2.31,2.16a2.74,2.74,0,0,0,2.12-1.28,13.7,13.7,0,0,0,1.82-3.55V321.93Z"/><path d="M492,327.65c-.12.5-.29.75-.54.75s-.3-.12-.48-.37-.41-.53-.67-.84a5.56,5.56,0,0,0-.94-.86,2.2,2.2,0,0,0-1.3-.39,1.87,1.87,0,0,0-1.16.39,3.23,3.23,0,0,0-.89,1.08,6.32,6.32,0,0,0-.56,1.59,9.41,9.41,0,0,0-.19,2,6.79,6.79,0,0,0,.32,2.23,5.34,5.34,0,0,0,.86,1.54,6.24,6.24,0,0,0,1.21,1.14c.45.33.91.69,1.38,1.07a14.53,14.53,0,0,1,1.39,1.24,7.18,7.18,0,0,1,1.21,1.72,10.08,10.08,0,0,1,.85,2.51,16.85,16.85,0,0,1,.33,3.58,25.39,25.39,0,0,1-.36,4.43,13.87,13.87,0,0,1-1.07,3.53,6.83,6.83,0,0,1-1.72,2.35,3.57,3.57,0,0,1-2.36.85,3.88,3.88,0,0,1-2.76-1.18,9.83,9.83,0,0,1-2.1-3l.6-2.33a2.32,2.32,0,0,1,.28-.68.46.46,0,0,1,.4-.24c.17,0,.35.16.55.48s.42.67.69,1.06a5.55,5.55,0,0,0,1,1.06,2.26,2.26,0,0,0,1.47.48,2,2,0,0,0,1.31-.46,3.68,3.68,0,0,0,.93-1.25,7.07,7.07,0,0,0,.56-1.82,12.61,12.61,0,0,0,.18-2.19,7.3,7.3,0,0,0-.33-2.38,5.35,5.35,0,0,0-.85-1.61,6.38,6.38,0,0,0-1.22-1.16l-1.39-1a14.6,14.6,0,0,1-1.4-1.25,7.05,7.05,0,0,1-1.21-1.77,10.73,10.73,0,0,1-.86-2.62,19.38,19.38,0,0,1-.32-3.78,20.64,20.64,0,0,1,.34-3.82,13.24,13.24,0,0,1,1-3.22,6.5,6.5,0,0,1,1.62-2.2,3.31,3.31,0,0,1,2.2-.83,3.69,3.69,0,0,1,2.59,1.08,9,9,0,0,1,2,3Z"/><path d="M507.79,351.75a10.75,10.75,0,0,1-1.14,2.38,7.4,7.4,0,0,1-1.42,1.66,5.48,5.48,0,0,1-1.56,1,4.14,4.14,0,0,1-1.59.32,4,4,0,0,1-2.79-1.21,10.06,10.06,0,0,1-2.2-3.56,27.64,27.64,0,0,1-1.44-5.81,53.38,53.38,0,0,1-.52-7.94,46.47,46.47,0,0,1,.47-6.78,26.59,26.59,0,0,1,1.34-5.46,10.64,10.64,0,0,1,2.15-3.63,3.85,3.85,0,0,1,2.84-1.32,3.49,3.49,0,0,1,2.43,1.05,8.49,8.49,0,0,1,1.92,3,22.07,22.07,0,0,1,1.28,4.86,43.19,43.19,0,0,1,.46,6.59,9.45,9.45,0,0,1-.13,1.92c-.09.32-.25.48-.49.48h-9.74A48,48,0,0,0,498,345a19.23,19.23,0,0,0,.95,4.05,6.55,6.55,0,0,0,1.43,2.44,2.71,2.71,0,0,0,3.53.27,6.59,6.59,0,0,0,1.2-1.15,12.85,12.85,0,0,0,.85-1.14c.22-.36.41-.53.58-.53s.37.19.49.58Zm-2.08-16.26a27.45,27.45,0,0,0-.25-3.89,14.75,14.75,0,0,0-.73-3,5.6,5.6,0,0,0-1.17-2,2.13,2.13,0,0,0-1.57-.7q-1.85,0-2.91,2.55a21.86,21.86,0,0,0-1.33,7.07Z"/><path d="M513.85,321.93v37.25a29.61,29.61,0,0,1-.23,3.89,13.48,13.48,0,0,1-.73,3.13,5.78,5.78,0,0,1-1.29,2.11,2.58,2.58,0,0,1-1.87.77,2.15,2.15,0,0,1-.85-.17,3.21,3.21,0,0,1-.78-.52l.1-3.28a1.51,1.51,0,0,1,.1-.47.27.27,0,0,1,.18-.18.65.65,0,0,1,.29,0l.45,0a1.66,1.66,0,0,0,1.6-1.25,12.3,12.3,0,0,0,.47-4V321.93Zm.54-10.89a8.77,8.77,0,0,1-.16,1.67,6.83,6.83,0,0,1-.4,1.36,3.15,3.15,0,0,1-.58.95,1,1,0,0,1-.71.34,1,1,0,0,1-.69-.34,3,3,0,0,1-.57-.95,7.58,7.58,0,0,1-.39-1.36,9.72,9.72,0,0,1-.14-1.67,10.23,10.23,0,0,1,.14-1.69,7.37,7.37,0,0,1,.39-1.4,3,3,0,0,1,.57-.95,1,1,0,0,1,.69-.34,1,1,0,0,1,.71.34,3.15,3.15,0,0,1,.58.95,6.68,6.68,0,0,1,.4,1.4A9.23,9.23,0,0,1,514.39,311Z"/><path d="M518.07,352.85a10,10,0,0,1,.13-1.68,6.59,6.59,0,0,1,.38-1.37,3.3,3.3,0,0,1,.57-.92,1,1,0,0,1,.71-.35,1,1,0,0,1,.7.35,2.9,2.9,0,0,1,.57.92,7.24,7.24,0,0,1,.39,1.37,9.93,9.93,0,0,1,.14,1.68,9.79,9.79,0,0,1-.14,1.69,7.13,7.13,0,0,1-.39,1.36,2.68,2.68,0,0,1-.57.9,1,1,0,0,1-.7.33,1,1,0,0,1-.71-.33,3,3,0,0,1-.57-.9,6.49,6.49,0,0,1-.38-1.36A9.83,9.83,0,0,1,518.07,352.85Zm3.06-45.3v19.59c0,1,0,2,0,3s0,2-.07,3-.07,2-.11,3.05-.09,2.15-.15,3.34H519c0-1.19-.1-2.3-.15-3.34s-.08-2.06-.1-3.05-.06-2-.08-3,0-2,0-3V307.55Z"/><path d="M545.76,352v4.65h-11V352h4.41V318.51c0-1,0-2,0-3.05l-3.66,7.5a1,1,0,0,1-.38.46.41.41,0,0,1-.34,0,.72.72,0,0,1-.3-.28,1.35,1.35,0,0,1-.2-.44l-.81-2.64,6.14-12.63h2.09V352Z"/><path d="M559.83,306.18v50.43h-2.55V306.18Z"/><path d="M575.8,351.75a10.75,10.75,0,0,1-1.14,2.38,7.4,7.4,0,0,1-1.42,1.66,5.48,5.48,0,0,1-1.56,1,4.14,4.14,0,0,1-1.59.32,3.93,3.93,0,0,1-2.78-1.21,9.79,9.79,0,0,1-2.2-3.56,27,27,0,0,1-1.45-5.81,54.76,54.76,0,0,1-.52-7.94,46.47,46.47,0,0,1,.47-6.78,26.59,26.59,0,0,1,1.34-5.46,10.64,10.64,0,0,1,2.15-3.63,3.85,3.85,0,0,1,2.84-1.32,3.49,3.49,0,0,1,2.43,1.05,8.49,8.49,0,0,1,1.92,3,22.07,22.07,0,0,1,1.28,4.86,43.19,43.19,0,0,1,.46,6.59,9.45,9.45,0,0,1-.13,1.92c-.09.32-.25.48-.49.48h-9.74a48,48,0,0,0,.38,5.72,19.23,19.23,0,0,0,1,4.05,6.55,6.55,0,0,0,1.43,2.44,2.71,2.71,0,0,0,3.53.27,7,7,0,0,0,1.21-1.15q.5-.62.84-1.14c.22-.36.41-.53.58-.53s.37.19.49.58Zm-2.07-16.26a27.38,27.38,0,0,0-.26-3.89,14.13,14.13,0,0,0-.73-3,5.6,5.6,0,0,0-1.17-2,2.13,2.13,0,0,0-1.57-.7q-1.85,0-2.91,2.55a22.13,22.13,0,0,0-1.33,7.07Z"/><path d="M591.33,321.93l-5.94,34.68h-2.3l-5.94-34.68h2.08a.6.6,0,0,1,.52.38,2.58,2.58,0,0,1,.27.89l3.7,22.32c.11.85.21,1.67.3,2.47s.17,1.59.25,2.39c.07-.8.15-1.59.24-2.39s.19-1.62.32-2.47l3.73-22.32a2.87,2.87,0,0,1,.29-.91c.14-.24.29-.36.48-.36Z"/><path d="M605.1,351.75a10.32,10.32,0,0,1-1.14,2.38,7.64,7.64,0,0,1-1.41,1.66,5.62,5.62,0,0,1-1.56,1,4.19,4.19,0,0,1-1.6.32,4,4,0,0,1-2.78-1.21,9.92,9.92,0,0,1-2.2-3.56,27,27,0,0,1-1.45-5.81,54.87,54.87,0,0,1-.51-7.94,45.12,45.12,0,0,1,.47-6.78,26,26,0,0,1,1.34-5.46,10.63,10.63,0,0,1,2.14-3.63,3.87,3.87,0,0,1,2.85-1.32,3.47,3.47,0,0,1,2.42,1.05,8.5,8.5,0,0,1,1.93,3,22.1,22.1,0,0,1,1.27,4.86,42,42,0,0,1,.46,6.59,8.74,8.74,0,0,1-.13,1.92c-.08.32-.25.48-.49.48H595a46,46,0,0,0,.38,5.72,19.28,19.28,0,0,0,.94,4.05,6.42,6.42,0,0,0,1.44,2.44,2.64,2.64,0,0,0,1.87.8,2.7,2.7,0,0,0,1.66-.53,7.31,7.31,0,0,0,1.2-1.15q.49-.62.84-1.14c.23-.36.42-.53.58-.53s.38.19.49.58ZM603,335.49a27.45,27.45,0,0,0-.25-3.89,14.1,14.1,0,0,0-.74-3,5.6,5.6,0,0,0-1.17-2,2.13,2.13,0,0,0-1.56-.7c-1.23,0-2.2.85-2.92,2.55a22.41,22.41,0,0,0-1.33,7.07Z"/><path d="M611.11,306.18v50.43h-2.56V306.18Z"/><path d="M634.43,351.75a10.32,10.32,0,0,1-1.13,2.38,7.66,7.66,0,0,1-1.42,1.66,5.48,5.48,0,0,1-1.56,1,4.19,4.19,0,0,1-1.6.32,4,4,0,0,1-2.78-1.21,9.92,9.92,0,0,1-2.2-3.56,26.46,26.46,0,0,1-1.44-5.81,53.38,53.38,0,0,1-.52-7.94,46.47,46.47,0,0,1,.47-6.78,26.59,26.59,0,0,1,1.34-5.46,10.79,10.79,0,0,1,2.14-3.63,3.88,3.88,0,0,1,2.85-1.32,3.47,3.47,0,0,1,2.42,1.05,8.37,8.37,0,0,1,1.93,3,21.56,21.56,0,0,1,1.27,4.86,42,42,0,0,1,.46,6.59,8.74,8.74,0,0,1-.13,1.92c-.08.32-.25.48-.49.48h-9.73a48,48,0,0,0,.38,5.72,19.93,19.93,0,0,0,.94,4.05,6.55,6.55,0,0,0,1.44,2.44,2.71,2.71,0,0,0,3.53.27,6.59,6.59,0,0,0,1.2-1.15,10.92,10.92,0,0,0,.84-1.14c.23-.36.42-.53.58-.53s.38.19.49.58Zm-2.07-16.26a27.45,27.45,0,0,0-.25-3.89,14.75,14.75,0,0,0-.73-3,5.6,5.6,0,0,0-1.17-2,2.15,2.15,0,0,0-1.57-.7q-1.85,0-2.91,2.55a21.86,21.86,0,0,0-1.33,7.07Z"/><path d="M640.23,328.88a22.13,22.13,0,0,1,1.69-5.56c.68-1.34,1.5-2,2.46-2a1.9,1.9,0,0,1,.89.23,2.27,2.27,0,0,1,.75.76l-.18,4.55c-.06.57-.21.86-.44.86a1.44,1.44,0,0,1-.59-.21,1.89,1.89,0,0,0-.87-.2,1.8,1.8,0,0,0-1.23.48,4.09,4.09,0,0,0-1,1.42,13,13,0,0,0-.77,2.33c-.22.92-.43,2-.61,3.16v21.91H637.8V321.93h1.46a.59.59,0,0,1,.58.38,4.28,4.28,0,0,1,.22,1.3Z"/><path d="M656,356.61V327.14l-1.61-.45a1.27,1.27,0,0,1-.49-.53,2.23,2.23,0,0,1-.2-1v-2.5H656v-3.36a34.72,34.72,0,0,1,.36-5.29,16.71,16.71,0,0,1,1-3.9,6.52,6.52,0,0,1,1.58-2.42,3.05,3.05,0,0,1,2.07-.82,2.7,2.7,0,0,1,1.79.69l0,3q0,.82-.39.9a5.73,5.73,0,0,1-.94.06,2,2,0,0,0-1.2.41,3.13,3.13,0,0,0-.92,1.34,10,10,0,0,0-.6,2.43,27.78,27.78,0,0,0-.21,3.73v3.19h4.2V327h-4.11v29.58Z"/><path d="M677.08,321.93v34.68h-1.52q-.55,0-.69-1.26l-.21-3.73a15.94,15.94,0,0,1-2.12,4,3.41,3.41,0,0,1-2.71,1.52,2.82,2.82,0,0,1-2.1-.94,7.32,7.32,0,0,1-1.53-2.65,18.82,18.82,0,0,1-.93-4.15,42,42,0,0,1-.31-5.37V321.93h2.56v22.12a19.32,19.32,0,0,0,.75,6.09q.76,2.16,2.31,2.16A2.74,2.74,0,0,0,672.7,351a13.7,13.7,0,0,0,1.82-3.55V321.93Z"/><path d="M683.78,306.18v50.43h-2.56V306.18Z"/><path d="M700,306.18v50.43h-1.52q-.56,0-.69-1.26l-.23-4.21a17.29,17.29,0,0,1-2.13,4.31,3.4,3.4,0,0,1-2.76,1.64,3,3,0,0,1-2.27-1.14,9.17,9.17,0,0,1-1.74-3.38,29.46,29.46,0,0,1-1.11-5.54,66.3,66.3,0,0,1-.39-7.64,55,55,0,0,1,.43-7.14,31.15,31.15,0,0,1,1.24-5.73,11.27,11.27,0,0,1,2-3.82,3.41,3.41,0,0,1,2.63-1.38,3,3,0,0,1,2.3,1.07,10.17,10.17,0,0,1,1.7,3V306.18Zm-2.56,24a8.92,8.92,0,0,0-1.55-3.2,2.52,2.52,0,0,0-1.87-.91c-1.35,0-2.39,1.16-3.12,3.46a34.35,34.35,0,0,0-1.09,9.86q0,3.39.24,5.81a20.78,20.78,0,0,0,.72,4,5.69,5.69,0,0,0,1.16,2.27,2.13,2.13,0,0,0,1.57.72,2.67,2.67,0,0,0,2.21-1.37,14.8,14.8,0,0,0,1.73-3.87Z"/><path d="M705,356.61V327.14l-1.61-.45a1.27,1.27,0,0,1-.49-.53,2.23,2.23,0,0,1-.2-1v-2.5H705v-3.36a34.72,34.72,0,0,1,.36-5.29,17.22,17.22,0,0,1,1-3.9,6.52,6.52,0,0,1,1.58-2.42,3.05,3.05,0,0,1,2.07-.82,2.75,2.75,0,0,1,1.8.69l-.06,3c0,.55-.15.85-.38.9a5.91,5.91,0,0,1-.94.06,2,2,0,0,0-1.21.41,3.22,3.22,0,0,0-.92,1.34,10,10,0,0,0-.6,2.43,27.78,27.78,0,0,0-.21,3.73v3.19h4.2V327h-4.11v29.58Z"/><path d="M724.86,326.31a27,27,0,0,1,1.37,5.62,52.1,52.1,0,0,1,.47,7.33,51.42,51.42,0,0,1-.48,7.39,25.77,25.77,0,0,1-1.39,5.62,10,10,0,0,1-2.18,3.57,4,4,0,0,1-2.88,1.25,3.74,3.74,0,0,1-2-.58,6.07,6.07,0,0,1-1.72-1.68l-.79,2.54a3.2,3.2,0,0,1-.73,1.44,1.3,1.3,0,0,1-.85.41h-1l2.09-6.71a25.64,25.64,0,0,1-1.46-5.7,57.11,57.11,0,0,1,0-14.93,26,26,0,0,1,1.39-5.63,10.2,10.2,0,0,1,2.19-3.6,4.07,4.07,0,0,1,2.9-1.27,3.75,3.75,0,0,1,2.11.65,6.7,6.7,0,0,1,1.77,1.85l1-3.11a5.19,5.19,0,0,1,.5-1.34.78.78,0,0,1,.71-.37h1.28Zm-2.44,1.58a3.07,3.07,0,0,0-2.65-1.92,2.53,2.53,0,0,0-1.93.93,7.42,7.42,0,0,0-1.4,2.63,21.06,21.06,0,0,0-.85,4.2,46.76,46.76,0,0,0-.29,5.56,36.55,36.55,0,0,0,.85,8.8Zm-5.18,23a2.93,2.93,0,0,0,2.53,1.65,2.55,2.55,0,0,0,1.91-.91,7.36,7.36,0,0,0,1.39-2.62,21.75,21.75,0,0,0,.86-4.16,48.33,48.33,0,0,0,.28-5.53,39.86,39.86,0,0,0-.74-8.46Z"/><path d="M732.35,328.88a22.09,22.09,0,0,1,1.7-5.56c.67-1.34,1.49-2,2.46-2a1.86,1.86,0,0,1,.88.23,2.29,2.29,0,0,1,.76.76l-.19,4.55c-.06.57-.2.86-.43.86a1.39,1.39,0,0,1-.59-.21,1.93,1.93,0,0,0-.88-.2,1.8,1.8,0,0,0-1.23.48,4.09,4.09,0,0,0-1,1.42,13,13,0,0,0-.76,2.33c-.23.92-.43,2-.61,3.16v21.91h-2.58V321.93h1.47a.57.57,0,0,1,.57.38,4.28,4.28,0,0,1,.22,1.3Z"/><path d="M744.86,357.16c-1.15,0-2-.76-2.65-2.29a18.31,18.31,0,0,1-.93-6.61V327h-1.75c-.16,0-.29-.11-.39-.32a2.38,2.38,0,0,1-.16-1v-2.43l2.39-.72.59-10.72a2.61,2.61,0,0,1,.19-.84c.1-.21.23-.32.4-.32h1.29v11.95h4.21V327h-4.21v20.82a8.82,8.82,0,0,0,.45,3.25c.29.71.68,1.06,1.15,1.06a1,1,0,0,0,.69-.25,2.74,2.74,0,0,0,.51-.57,6,6,0,0,0,.37-.56c.1-.17.19-.26.27-.26s.25.19.36.58l.74,2.91a6.83,6.83,0,0,1-1.59,2.31A2.88,2.88,0,0,1,744.86,357.16Z"/><path d="M764.2,321.38a4,4,0,0,1,2.88,1.27,10.19,10.19,0,0,1,2.18,3.6,25.44,25.44,0,0,1,1.39,5.63,57.05,57.05,0,0,1,0,14.77,25.77,25.77,0,0,1-1.39,5.62,10,10,0,0,1-2.18,3.57,4,4,0,0,1-5.78,0,10,10,0,0,1-2.19-3.57,26.36,26.36,0,0,1-1.39-5.62,57.05,57.05,0,0,1,0-14.77,26,26,0,0,1,1.39-5.63,10.2,10.2,0,0,1,2.19-3.6A4.07,4.07,0,0,1,764.2,321.38Zm0,30.95c1.44,0,2.51-1.14,3.22-3.44a33.84,33.84,0,0,0,1.07-9.6,34.31,34.31,0,0,0-1.07-9.66q-1.06-3.45-3.22-3.45a2.5,2.5,0,0,0-1.91.89,7,7,0,0,0-1.35,2.56,21.46,21.46,0,0,0-.8,4.13,50.9,50.9,0,0,0-.27,5.53,33.84,33.84,0,0,0,1.07,9.6C761.66,351.19,762.74,352.33,764.2,352.33Z"/><path d="M786.59,323.3v2.26c0,.75-.2,1.23-.61,1.44l-1.65.51a23.49,23.49,0,0,1,.49,5,24.09,24.09,0,0,1-.41,4.61,14.31,14.31,0,0,1-1.13,3.54,6.4,6.4,0,0,1-1.72,2.26,3.44,3.44,0,0,1-4.12.2,5.94,5.94,0,0,0-.7,1.46,5.19,5.19,0,0,0-.25,1.56,3.36,3.36,0,0,0,.43,1.86,2.29,2.29,0,0,0,1.11.91,5.32,5.32,0,0,0,1.58.34c.59.05,1.19.12,1.81.23a7.81,7.81,0,0,1,1.81.53,4.05,4.05,0,0,1,1.57,1.23,6.57,6.57,0,0,1,1.12,2.36,15,15,0,0,1,.42,3.9,19.79,19.79,0,0,1-.46,4.32,14.49,14.49,0,0,1-1.35,3.71,7.85,7.85,0,0,1-2.15,2.6,4.54,4.54,0,0,1-2.87,1,5.15,5.15,0,0,1-2.79-.75,6.37,6.37,0,0,1-2-2,9.89,9.89,0,0,1-1.19-2.93,15.19,15.19,0,0,1-.39-3.47,12.28,12.28,0,0,1,.67-4.35,7,7,0,0,1,1.86-2.84,4.84,4.84,0,0,1-1-1.84,10.2,10.2,0,0,1-.38-3.09,11.93,11.93,0,0,1,.11-1.56,11.32,11.32,0,0,1,.36-1.61,10.3,10.3,0,0,1,.58-1.53,6.31,6.31,0,0,1,.8-1.26,10.83,10.83,0,0,1-1.68-3.82,22.78,22.78,0,0,1-.6-5.53,24,24,0,0,1,.41-4.6,13.68,13.68,0,0,1,1.14-3.53,6.37,6.37,0,0,1,1.75-2.24,3.49,3.49,0,0,1,2.22-.79,3.39,3.39,0,0,1,1.77.5,5.1,5.1,0,0,1,1.49,1.45ZM784,358.5a5.88,5.88,0,0,0-.31-2.06,3.07,3.07,0,0,0-.81-1.23,2.91,2.91,0,0,0-1.19-.63,8.82,8.82,0,0,0-1.43-.29l-1.53-.21a8.26,8.26,0,0,1-1.49-.34,6.88,6.88,0,0,0-1.32,2.24,9,9,0,0,0-.51,3.17,9.36,9.36,0,0,0,.25,2.17,5.28,5.28,0,0,0,.77,1.75,4,4,0,0,0,5,1.14,3.94,3.94,0,0,0,1.38-1.26,6.22,6.22,0,0,0,.87-1.95A9.78,9.78,0,0,0,784,358.5Zm-4.62-18.83a2,2,0,0,0,1.37-.52,4,4,0,0,0,1-1.44,8.75,8.75,0,0,0,.6-2.2,17.69,17.69,0,0,0,.2-2.83,13,13,0,0,0-.81-5.06,2.42,2.42,0,0,0-4.72,0,13,13,0,0,0-.81,5.06,17.63,17.63,0,0,0,.21,2.83,9.17,9.17,0,0,0,.61,2.2,4,4,0,0,0,1,1.44A2,2,0,0,0,779.37,339.67Z"/><path d="M808.66,306.18v50.43h-1.53q-.54,0-.69-1.26l-.23-4.21a17,17,0,0,1-2.12,4.31,3.4,3.4,0,0,1-2.76,1.64,3,3,0,0,1-2.28-1.14,9.48,9.48,0,0,1-1.74-3.38,29.54,29.54,0,0,1-1.1-5.54,66.3,66.3,0,0,1-.39-7.64,55,55,0,0,1,.43-7.14,31.15,31.15,0,0,1,1.24-5.73,11.45,11.45,0,0,1,2-3.82,3.43,3.43,0,0,1,2.64-1.38,3,3,0,0,1,2.3,1.07,10.17,10.17,0,0,1,1.7,3V306.18Zm-2.56,24a8.92,8.92,0,0,0-1.55-3.2,2.52,2.52,0,0,0-1.87-.91c-1.35,0-2.39,1.16-3.12,3.46a34.29,34.29,0,0,0-1.1,9.86c0,2.26.09,4.2.25,5.81a20.78,20.78,0,0,0,.72,4,5.56,5.56,0,0,0,1.16,2.27,2.13,2.13,0,0,0,1.57.72,2.67,2.67,0,0,0,2.21-1.37,15.14,15.14,0,0,0,1.73-3.87Z"/><path d="M824.69,321.93v34.68h-1.52q-.55,0-.69-1.26l-.2-3.73a16.27,16.27,0,0,1-2.13,4,3.41,3.41,0,0,1-2.71,1.52,2.84,2.84,0,0,1-2.1-.94,7.32,7.32,0,0,1-1.53-2.65,18.82,18.82,0,0,1-.93-4.15,42,42,0,0,1-.31-5.37V321.93h2.56v22.12a19.32,19.32,0,0,0,.75,6.09q.76,2.16,2.31,2.16a2.73,2.73,0,0,0,2.12-1.28,13.39,13.39,0,0,0,1.82-3.55V321.93Z"/><path d="M847.93,351.75a10.75,10.75,0,0,1-1.14,2.38,7.64,7.64,0,0,1-1.41,1.66,5.77,5.77,0,0,1-1.56,1,4.19,4.19,0,0,1-1.6.32,3.94,3.94,0,0,1-2.78-1.21,9.92,9.92,0,0,1-2.2-3.56,27,27,0,0,1-1.45-5.81,54.76,54.76,0,0,1-.52-7.94,46.47,46.47,0,0,1,.47-6.78,25.93,25.93,0,0,1,1.35-5.46,10.47,10.47,0,0,1,2.14-3.63,3.85,3.85,0,0,1,2.85-1.32,3.47,3.47,0,0,1,2.42,1.05,8.49,8.49,0,0,1,1.92,3,21.52,21.52,0,0,1,1.28,4.86,43.19,43.19,0,0,1,.46,6.59,8.74,8.74,0,0,1-.13,1.92c-.09.32-.25.48-.49.48H837.8a45.78,45.78,0,0,0,.39,5.72,19.28,19.28,0,0,0,.94,4.05,6.42,6.42,0,0,0,1.44,2.44,2.64,2.64,0,0,0,1.87.8,2.7,2.7,0,0,0,1.66-.53,7.31,7.31,0,0,0,1.2-1.15q.5-.62.84-1.14c.22-.36.42-.53.58-.53s.37.19.49.58Zm-2.07-16.26a29,29,0,0,0-.25-3.89,14.71,14.71,0,0,0-.74-3,5.6,5.6,0,0,0-1.17-2,2.13,2.13,0,0,0-1.57-.7q-1.83,0-2.91,2.55a22.13,22.13,0,0,0-1.33,7.07Z"/><path d="M853.72,328.88a22.09,22.09,0,0,1,1.7-5.56c.67-1.34,1.49-2,2.46-2a1.86,1.86,0,0,1,.88.23,2.29,2.29,0,0,1,.76.76l-.19,4.55c-.06.57-.2.86-.43.86a1.39,1.39,0,0,1-.59-.21,1.93,1.93,0,0,0-.88-.2,1.8,1.8,0,0,0-1.23.48,4.09,4.09,0,0,0-1,1.42,13,13,0,0,0-.76,2.33c-.23.92-.43,2-.61,3.16v21.91h-2.58V321.93h1.47a.57.57,0,0,1,.57.38,4.28,4.28,0,0,1,.22,1.3Z"/><path d="M870.93,327a21.49,21.49,0,0,1,1-2.29,10.08,10.08,0,0,1,1.13-1.76,4.85,4.85,0,0,1,1.26-1.13,2.82,2.82,0,0,1,3.56.55,7.3,7.3,0,0,1,1.52,2.67,20.29,20.29,0,0,1,.93,4.16,42,42,0,0,1,.31,5.37v22.08h-2.57V334.53a19.2,19.2,0,0,0-.76-6.11c-.5-1.45-1.26-2.17-2.29-2.17a2.72,2.72,0,0,0-2.12,1.3,14,14,0,0,0-1.82,3.52v25.54h-2.57V321.93h1.54c.36,0,.59.42.67,1.27Z"/><path d="M896.54,321.93v34.68H895q-.56,0-.69-1.26l-.2-3.73a16.27,16.27,0,0,1-2.13,4,3.41,3.41,0,0,1-2.71,1.52,2.84,2.84,0,0,1-2.1-.94,7.32,7.32,0,0,1-1.53-2.65,20,20,0,0,1-.93-4.15,42,42,0,0,1-.31-5.37V321.93H887v22.12a19,19,0,0,0,.76,6.09c.5,1.44,1.27,2.16,2.3,2.16a2.73,2.73,0,0,0,2.12-1.28,13.39,13.39,0,0,0,1.82-3.55V321.93Z"/><path d="M912.43,357.16c-1.15,0-2-.76-2.65-2.29a18.31,18.31,0,0,1-.93-6.61V327H907.1c-.16,0-.29-.11-.39-.32a2.38,2.38,0,0,1-.16-1v-2.43l2.39-.72.59-10.72a2.37,2.37,0,0,1,.19-.84c.1-.21.23-.32.4-.32h1.29v11.95h4.21V327h-4.21v20.82a8.82,8.82,0,0,0,.45,3.25c.29.71.68,1.06,1.15,1.06a1,1,0,0,0,.69-.25,2.74,2.74,0,0,0,.51-.57,6,6,0,0,0,.37-.56c.1-.17.19-.26.27-.26s.25.19.36.58L916,354a6.83,6.83,0,0,1-1.59,2.31A2.9,2.9,0,0,1,912.43,357.16Z"/><path d="M917.92,326.83a14.62,14.62,0,0,1,2.51-4.15,4,4,0,0,1,2.93-1.36,3.14,3.14,0,0,1,2.77,1.74,13.52,13.52,0,0,1,1.53,4.83,14.21,14.21,0,0,1,2-4.76,3.64,3.64,0,0,1,3-1.75,3,3,0,0,1,2.2,1.1,9.23,9.23,0,0,1,1.77,3.18,26.66,26.66,0,0,1,1.18,5.09,48,48,0,0,1,.43,6.83,9.73,9.73,0,0,1-.12,1.9c-.07.33-.23.49-.47.49h-9.06a44.85,44.85,0,0,0,.39,5.4,20.67,20.67,0,0,0,.88,3.85,6.35,6.35,0,0,0,1.31,2.31,2.35,2.35,0,0,0,1.69.77,2.73,2.73,0,0,0,1.66-.5,5.25,5.25,0,0,0,1.1-1.11,11.63,11.63,0,0,0,.71-1.11c.19-.33.36-.5.51-.5a.38.38,0,0,1,.33.16,1.37,1.37,0,0,1,.21.42l.67,2.09a11.2,11.2,0,0,1-1.1,2.38,7.44,7.44,0,0,1-1.33,1.66,5.28,5.28,0,0,1-1.48,1,3.46,3.46,0,0,1-4.56-1.61,16,16,0,0,1-2.17-5.91,18.4,18.4,0,0,1-1,3.63,10.3,10.3,0,0,1-1.39,2.47,4.89,4.89,0,0,1-1.63,1.38,3.73,3.73,0,0,1-1.7.43,3,3,0,0,1-1.81-.6,4.88,4.88,0,0,1-1.42-1.79,11.37,11.37,0,0,1-.92-3,25.26,25.26,0,0,1-.32-4.28,17.7,17.7,0,0,1,.47-4,11.06,11.06,0,0,1,1.53-3.56,8.47,8.47,0,0,1,2.77-2.58,9,9,0,0,1,4.2-1.15v-1.71a20.24,20.24,0,0,0-.73-6.2c-.49-1.44-1.21-2.16-2.15-2.16a2.21,2.21,0,0,0-1.58.6,6.94,6.94,0,0,0-1.11,1.32q-.47.72-.81,1.32c-.22.4-.44.6-.67.6a.52.52,0,0,1-.44-.33,3.17,3.17,0,0,1-.32-.8ZM926.19,340a9,9,0,0,0-3,.78,5.69,5.69,0,0,0-3.15,3.73,9.67,9.67,0,0,0-.35,2.69,9.8,9.8,0,0,0,.72,4.34,2.12,2.12,0,0,0,1.88,1.37,2.28,2.28,0,0,0,1.53-.61,4.89,4.89,0,0,0,1.24-1.89,13.43,13.43,0,0,0,.84-3.15,28.29,28.29,0,0,0,.3-4.41Zm9.78-3.8a35.13,35.13,0,0,0-.23-4.12,18.54,18.54,0,0,0-.67-3.27,6.46,6.46,0,0,0-1.07-2.14,1.84,1.84,0,0,0-1.43-.77,2.13,2.13,0,0,0-1.56.7,5.75,5.75,0,0,0-1.19,2,17,17,0,0,0-.8,3.25,39.43,39.43,0,0,0-.4,4.31Z"/><path d="M945.79,357.16c-1.15,0-2-.76-2.65-2.29a18.31,18.31,0,0,1-.93-6.61V327h-1.75c-.16,0-.29-.11-.39-.32a2.38,2.38,0,0,1-.16-1v-2.43l2.38-.72.59-10.72a2.59,2.59,0,0,1,.2-.84c.1-.21.23-.32.39-.32h1.3v11.95h6.86l.59-10.79a2.61,2.61,0,0,1,.19-.84c.1-.21.23-.32.4-.32h1.29v11.95h4.21V327H954.1v20.82a8.82,8.82,0,0,0,.45,3.25c.31.71.69,1.06,1.15,1.06a1,1,0,0,0,.69-.25,2.74,2.74,0,0,0,.51-.57,6,6,0,0,0,.37-.56c.1-.17.19-.26.27-.26s.26.19.36.58l.76,2.91a7,7,0,0,1-1.61,2.31,2.9,2.9,0,0,1-1.93.84c-1.14,0-2-.76-2.64-2.29a18.06,18.06,0,0,1-.94-6.61V327h-6.77v20.82a9.08,9.08,0,0,0,.44,3.25c.3.71.68,1.06,1.15,1.06a1,1,0,0,0,.7-.25,2.74,2.74,0,0,0,.51-.57,6,6,0,0,0,.37-.56c.1-.17.19-.26.27-.26s.25.19.35.58l.75,2.91a6.83,6.83,0,0,1-1.59,2.31A2.9,2.9,0,0,1,945.79,357.16Z"/><path d="M972.71,351.75a10.75,10.75,0,0,1-1.14,2.38,7.4,7.4,0,0,1-1.42,1.66,5.48,5.48,0,0,1-1.56,1,4.14,4.14,0,0,1-1.59.32,3.93,3.93,0,0,1-2.78-1.21,9.79,9.79,0,0,1-2.2-3.56,27,27,0,0,1-1.45-5.81,54.76,54.76,0,0,1-.52-7.94,46.47,46.47,0,0,1,.47-6.78,26.59,26.59,0,0,1,1.34-5.46A10.64,10.64,0,0,1,964,322.7a3.85,3.85,0,0,1,2.84-1.32,3.49,3.49,0,0,1,2.43,1.05,8.49,8.49,0,0,1,1.92,3,21.52,21.52,0,0,1,1.28,4.86,43.19,43.19,0,0,1,.46,6.59,9.45,9.45,0,0,1-.13,1.92c-.09.32-.25.48-.49.48h-9.74A48,48,0,0,0,963,345a19.23,19.23,0,0,0,.95,4.05,6.55,6.55,0,0,0,1.43,2.44,2.71,2.71,0,0,0,3.53.27,7,7,0,0,0,1.21-1.15q.49-.62.84-1.14c.22-.36.41-.53.58-.53s.37.19.49.58Zm-2.07-16.26a27.38,27.38,0,0,0-.26-3.89,14.13,14.13,0,0,0-.73-3,5.6,5.6,0,0,0-1.17-2,2.13,2.13,0,0,0-1.57-.7q-1.85,0-2.91,2.55a22.13,22.13,0,0,0-1.33,7.07Z"/><path d="M978.5,328.88a22.09,22.09,0,0,1,1.7-5.56c.67-1.34,1.49-2,2.46-2a1.86,1.86,0,0,1,.88.23,2.29,2.29,0,0,1,.76.76l-.19,4.55c-.06.57-.2.86-.43.86a1.39,1.39,0,0,1-.59-.21,1.93,1.93,0,0,0-.88-.2,1.8,1.8,0,0,0-1.23.48,4.09,4.09,0,0,0-1,1.42,13,13,0,0,0-.76,2.33c-.23.92-.43,2-.61,3.16v21.91h-2.58V321.93h1.47a.57.57,0,0,1,.57.38,4.28,4.28,0,0,1,.22,1.3Z"/><path d="M997.77,351.75a10.75,10.75,0,0,1-1.14,2.38,7.64,7.64,0,0,1-1.41,1.66,5.77,5.77,0,0,1-1.56,1,4.19,4.19,0,0,1-1.6.32,3.94,3.94,0,0,1-2.78-1.21,9.92,9.92,0,0,1-2.2-3.56,27,27,0,0,1-1.45-5.81,54.87,54.87,0,0,1-.51-7.94,46.52,46.52,0,0,1,.46-6.78,25.93,25.93,0,0,1,1.35-5.46,10.63,10.63,0,0,1,2.14-3.63,3.85,3.85,0,0,1,2.85-1.32,3.47,3.47,0,0,1,2.42,1.05,8.64,8.64,0,0,1,1.93,3,22.1,22.1,0,0,1,1.27,4.86,42,42,0,0,1,.46,6.59,8.74,8.74,0,0,1-.13,1.92c-.09.32-.25.48-.49.48h-9.73A44.11,44.11,0,0,0,988,345a19.28,19.28,0,0,0,.94,4.05,6.42,6.42,0,0,0,1.44,2.44,2.64,2.64,0,0,0,1.87.8,2.7,2.7,0,0,0,1.66-.53,7.31,7.31,0,0,0,1.2-1.15q.5-.62.84-1.14c.22-.36.42-.53.58-.53s.37.19.49.58Zm-2.07-16.26a29,29,0,0,0-.25-3.89,14.71,14.71,0,0,0-.74-3,5.6,5.6,0,0,0-1.17-2,2.13,2.13,0,0,0-1.57-.7q-1.83,0-2.91,2.55a22.41,22.41,0,0,0-1.33,7.07Z"/><path d="M1010.94,327.31a15.73,15.73,0,0,1,2.13-4.35,3.4,3.4,0,0,1,2.76-1.64,3,3,0,0,1,2.28,1.14,9.38,9.38,0,0,1,1.74,3.39,30,30,0,0,1,1.11,5.57,66,66,0,0,1,.39,7.63,54.81,54.81,0,0,1-.43,7.14,30,30,0,0,1-1.25,5.72,11.63,11.63,0,0,1-2,3.8,3.42,3.42,0,0,1-2.64,1.38,3,3,0,0,1-2.29-1.08,9.56,9.56,0,0,1-1.69-3v15.34h-2.57V321.93H1010c.37,0,.59.42.68,1.27Zm.13,20.95a8.65,8.65,0,0,0,1.54,3.18,2.46,2.46,0,0,0,1.87.93q2,0,3.13-3.46a34.3,34.3,0,0,0,1.09-9.86,57,57,0,0,0-.25-5.82,21.69,21.69,0,0,0-.72-4,5.74,5.74,0,0,0-1.17-2.28,2.14,2.14,0,0,0-1.57-.71,2.66,2.66,0,0,0-2.19,1.37,14.87,14.87,0,0,0-1.73,3.86Z"/><path d="M1024.24,326.83a13.19,13.19,0,0,1,2.6-4.15,4.32,4.32,0,0,1,3.09-1.36,3,3,0,0,1,2.17.95,7.43,7.43,0,0,1,1.6,2.67,19.36,19.36,0,0,1,1,4.15,39.84,39.84,0,0,1,.33,5.34v22.18h-1.14a.63.63,0,0,1-.57-.29,2.8,2.8,0,0,1-.32-1.14l-.29-3.29c-.38.84-.75,1.59-1.12,2.24a8.68,8.68,0,0,1-1.15,1.65,4.79,4.79,0,0,1-1.28,1,3.25,3.25,0,0,1-1.52.36,2.64,2.64,0,0,1-1.6-.56,4.61,4.61,0,0,1-1.3-1.7,11.27,11.27,0,0,1-.88-2.86,23,23,0,0,1-.32-4.09A16,16,0,0,1,1024,344a9.65,9.65,0,0,1,1.53-3.38,8.36,8.36,0,0,1,2.78-2.41,9.69,9.69,0,0,1,4.2-1.08v-2.7a19.29,19.29,0,0,0-.74-6.11c-.48-1.38-1.2-2.07-2.14-2.07a2.31,2.31,0,0,0-1.59.56,6.65,6.65,0,0,0-1.1,1.27c-.32.47-.58.89-.81,1.26s-.45.57-.67.57a.52.52,0,0,1-.44-.33,3.17,3.17,0,0,1-.32-.8Zm8.27,14.17a9.56,9.56,0,0,0-3,.67,5.72,5.72,0,0,0-2,1.39,5.23,5.23,0,0,0-1.14,2,9.09,9.09,0,0,0-.35,2.6,12.44,12.44,0,0,0,.19,2.36,5.81,5.81,0,0,0,.51,1.63,2.31,2.31,0,0,0,.76.92,1.61,1.61,0,0,0,.94.29,2.52,2.52,0,0,0,1.24-.32,4,4,0,0,0,1.05-.94,9.23,9.23,0,0,0,.95-1.48,20.24,20.24,0,0,0,.89-1.95Zm-5.75-29.41a13,13,0,0,1,.23-2.6,8.92,8.92,0,0,1,.62-2,4.19,4.19,0,0,1,.91-1.32,1.62,1.62,0,0,1,1.1-.46,1.65,1.65,0,0,1,1.11.46,4.06,4.06,0,0,1,.93,1.32,8.43,8.43,0,0,1,.63,2,13,13,0,0,1,.23,2.6,12.79,12.79,0,0,1-.23,2.57,7.9,7.9,0,0,1-.63,2,4.19,4.19,0,0,1-.93,1.28,1.65,1.65,0,0,1-1.11.46,1.62,1.62,0,0,1-1.1-.46,4.33,4.33,0,0,1-.91-1.28,8.34,8.34,0,0,1-.62-2A12.79,12.79,0,0,1,1026.76,311.59Zm1.43,0a6.62,6.62,0,0,0,.39,2.47c.26.64.62,1,1.07,1s.77-.32,1-1a6.62,6.62,0,0,0,.39-2.47,6.72,6.72,0,0,0-.39-2.5c-.27-.64-.61-1-1-1s-.81.32-1.07,1A6.72,6.72,0,0,0,1028.19,311.59Z"/><path d="M1045.89,326.83a13.38,13.38,0,0,1,2.61-4.15,4.32,4.32,0,0,1,3.09-1.36,3,3,0,0,1,2.17.95,7.72,7.72,0,0,1,1.6,2.67,19.4,19.4,0,0,1,1,4.15,39.84,39.84,0,0,1,.33,5.34v22.18h-1.13a.66.66,0,0,1-.58-.29,2.84,2.84,0,0,1-.31-1.14l-.29-3.29c-.39.84-.76,1.59-1.12,2.24a9.7,9.7,0,0,1-1.15,1.65,4.83,4.83,0,0,1-1.29,1,3.22,3.22,0,0,1-1.52.36,2.61,2.61,0,0,1-1.59-.56,4.5,4.5,0,0,1-1.3-1.7,10.88,10.88,0,0,1-.88-2.86,22,22,0,0,1-.33-4.09,16,16,0,0,1,.48-3.95,9.85,9.85,0,0,1,1.54-3.38,8.33,8.33,0,0,1,2.77-2.41,9.69,9.69,0,0,1,4.2-1.08v-2.7a19.34,19.34,0,0,0-.73-6.11c-.49-1.38-1.2-2.07-2.14-2.07a2.27,2.27,0,0,0-1.59.56,6.37,6.37,0,0,0-1.11,1.27q-.46.71-.81,1.26t-.66.57a.52.52,0,0,1-.45-.33,3.59,3.59,0,0,1-.32-.8Zm8.27,14.17a9.63,9.63,0,0,0-3,.67,5.72,5.72,0,0,0-2,1.39,5.09,5.09,0,0,0-1.13,2,8.74,8.74,0,0,0-.36,2.6,13.33,13.33,0,0,0,.19,2.36,6.54,6.54,0,0,0,.51,1.63,2.39,2.39,0,0,0,.76.92,1.66,1.66,0,0,0,1,.29,2.45,2.45,0,0,0,1.23-.32,3.84,3.84,0,0,0,1.06-.94,9.23,9.23,0,0,0,1-1.48,20.33,20.33,0,0,0,.88-1.95Z"/><path d="M1064.85,357.16c-1.15,0-2-.76-2.66-2.29a18.57,18.57,0,0,1-.92-6.61V327h-1.76c-.15,0-.28-.11-.39-.32a2.55,2.55,0,0,1-.16-1v-2.43l2.39-.72.59-10.72a2.59,2.59,0,0,1,.2-.84c.1-.21.23-.32.39-.32h1.3v11.95H1068V327h-4.21v20.82a8.86,8.86,0,0,0,.44,3.25c.3.71.68,1.06,1.15,1.06a1,1,0,0,0,.7-.25,3.06,3.06,0,0,0,.51-.57c.14-.2.26-.39.37-.56s.18-.26.26-.26.26.19.36.58l.75,2.91a6.71,6.71,0,0,1-1.6,2.31A2.85,2.85,0,0,1,1064.85,357.16Z"/><path d="M1089.84,321.93l-5.94,34.68h-2.3l-5.94-34.68h2.08a.6.6,0,0,1,.52.38,2.38,2.38,0,0,1,.27.89l3.7,22.32c.11.85.22,1.67.3,2.47s.17,1.59.25,2.39c.07-.8.15-1.59.24-2.39s.19-1.62.32-2.47l3.74-22.32a2.64,2.64,0,0,1,.28-.91q.21-.36.48-.36Z"/><path d="M1091.53,326.83a14.62,14.62,0,0,1,2.51-4.15,4,4,0,0,1,2.93-1.36,3.14,3.14,0,0,1,2.77,1.74,13.52,13.52,0,0,1,1.53,4.83,14.42,14.42,0,0,1,2-4.76,3.64,3.64,0,0,1,3-1.75,3,3,0,0,1,2.2,1.1,9.23,9.23,0,0,1,1.77,3.18,26.66,26.66,0,0,1,1.18,5.09,48,48,0,0,1,.43,6.83,10.93,10.93,0,0,1-.11,1.9c-.08.33-.24.49-.48.49h-9.06a44.85,44.85,0,0,0,.39,5.4,20.67,20.67,0,0,0,.88,3.85,6.35,6.35,0,0,0,1.31,2.31,2.35,2.35,0,0,0,1.69.77,2.73,2.73,0,0,0,1.66-.5,5.25,5.25,0,0,0,1.1-1.11q.43-.62.72-1.11c.18-.33.35-.5.51-.5a.38.38,0,0,1,.32.16,1.37,1.37,0,0,1,.21.42l.67,2.09a11.2,11.2,0,0,1-1.1,2.38,7.44,7.44,0,0,1-1.33,1.66,5.28,5.28,0,0,1-1.48,1,3.46,3.46,0,0,1-4.56-1.61,16,16,0,0,1-2.17-5.91,18.4,18.4,0,0,1-1,3.63,10.3,10.3,0,0,1-1.39,2.47,4.89,4.89,0,0,1-1.63,1.38,3.7,3.7,0,0,1-1.7.43,3,3,0,0,1-1.81-.6,4.88,4.88,0,0,1-1.42-1.79,11.37,11.37,0,0,1-.92-3,25.26,25.26,0,0,1-.32-4.28,17.7,17.7,0,0,1,.47-4,11.06,11.06,0,0,1,1.53-3.56,8.47,8.47,0,0,1,2.77-2.58,9,9,0,0,1,4.2-1.15v-1.71a20.24,20.24,0,0,0-.73-6.2c-.49-1.44-1.21-2.16-2.15-2.16a2.21,2.21,0,0,0-1.58.6,6.94,6.94,0,0,0-1.11,1.32q-.46.72-.81,1.32c-.22.4-.44.6-.67.6a.52.52,0,0,1-.44-.33,3.17,3.17,0,0,1-.32-.8ZM1099.8,340a9,9,0,0,0-3,.78,5.69,5.69,0,0,0-3.15,3.73,9.67,9.67,0,0,0-.35,2.69,9.8,9.8,0,0,0,.72,4.34,2.12,2.12,0,0,0,1.88,1.37,2.28,2.28,0,0,0,1.53-.61,5,5,0,0,0,1.25-1.89,14,14,0,0,0,.83-3.15,28.29,28.29,0,0,0,.3-4.41Zm9.78-3.8a35.13,35.13,0,0,0-.23-4.12,18.54,18.54,0,0,0-.67-3.27,6.46,6.46,0,0,0-1.07-2.14,1.84,1.84,0,0,0-1.43-.77,2.13,2.13,0,0,0-1.56.7,5.75,5.75,0,0,0-1.19,2,17,17,0,0,0-.8,3.25,39.43,39.43,0,0,0-.4,4.31Z"/><path d="M1117.46,328.88a22.13,22.13,0,0,1,1.69-5.56c.68-1.34,1.49-2,2.46-2a1.9,1.9,0,0,1,.89.23,2.27,2.27,0,0,1,.75.76l-.18,4.55c-.06.57-.21.86-.44.86a1.44,1.44,0,0,1-.59-.21,1.89,1.89,0,0,0-.87-.2,1.8,1.8,0,0,0-1.23.48,4.24,4.24,0,0,0-1,1.42,13.86,13.86,0,0,0-.76,2.33c-.22.92-.43,2-.61,3.16v21.91H1115V321.93h1.46a.59.59,0,0,1,.58.38,4.62,4.62,0,0,1,.22,1.3Z"/><path d="M1136.73,351.75a10.75,10.75,0,0,1-1.14,2.38,7.4,7.4,0,0,1-1.42,1.66,5.48,5.48,0,0,1-1.56,1,4.14,4.14,0,0,1-1.59.32,3.93,3.93,0,0,1-2.78-1.21,9.79,9.79,0,0,1-2.2-3.56,27,27,0,0,1-1.45-5.81,54.76,54.76,0,0,1-.52-7.94,46.47,46.47,0,0,1,.47-6.78,26.59,26.59,0,0,1,1.34-5.46,10.64,10.64,0,0,1,2.15-3.63,3.85,3.85,0,0,1,2.84-1.32,3.49,3.49,0,0,1,2.43,1.05,8.49,8.49,0,0,1,1.92,3,22.07,22.07,0,0,1,1.28,4.86,43.19,43.19,0,0,1,.46,6.59,9.45,9.45,0,0,1-.13,1.92c-.09.32-.25.48-.49.48h-9.74A48,48,0,0,0,1127,345a19.23,19.23,0,0,0,1,4.05,6.55,6.55,0,0,0,1.43,2.44,2.71,2.71,0,0,0,3.53.27,6.59,6.59,0,0,0,1.2-1.15,12.85,12.85,0,0,0,.85-1.14c.22-.36.41-.53.58-.53s.37.19.49.58Zm-2.07-16.26a27.38,27.38,0,0,0-.26-3.89,14.13,14.13,0,0,0-.73-3,5.6,5.6,0,0,0-1.17-2,2.13,2.13,0,0,0-1.57-.7q-1.85,0-2.91,2.55a21.86,21.86,0,0,0-1.33,7.07Z"/><path d="M1150,326.55a14.21,14.21,0,0,1,2.07-3.76,3.3,3.3,0,0,1,2.61-1.41,2.86,2.86,0,0,1,2.11.95,7,7,0,0,1,1.52,2.67,20.29,20.29,0,0,1,.93,4.16,41.92,41.92,0,0,1,.32,5.37v22.08H1157V334.53a19.54,19.54,0,0,0-.75-6.11c-.5-1.45-1.27-2.17-2.29-2.17a2.73,2.73,0,0,0-2.13,1.3,14,14,0,0,0-1.81,3.52v25.54h-2.58V306.18H1150Z"/><path d="M1166.2,321.93v37.25a31.44,31.44,0,0,1-.23,3.89,14,14,0,0,1-.73,3.13,5.92,5.92,0,0,1-1.29,2.11,2.6,2.6,0,0,1-1.88.77,2.14,2.14,0,0,1-.84-.17,3.21,3.21,0,0,1-.78-.52l.1-3.28a2,2,0,0,1,.09-.47.31.31,0,0,1,.18-.18.71.71,0,0,1,.3,0l.45,0a1.66,1.66,0,0,0,1.6-1.25,12.59,12.59,0,0,0,.47-4V321.93Zm.53-10.89a8.79,8.79,0,0,1-.15,1.67,6.83,6.83,0,0,1-.4,1.36,3.15,3.15,0,0,1-.58.95,1,1,0,0,1-.71.34,1,1,0,0,1-.69-.34,3,3,0,0,1-.57-.95,6.23,6.23,0,0,1-.39-1.36,8.82,8.82,0,0,1-.14-1.67,9.25,9.25,0,0,1,.14-1.69,6.14,6.14,0,0,1,.39-1.4,3,3,0,0,1,.57-.95,1,1,0,0,1,.69-.34,1,1,0,0,1,.71.34,3.15,3.15,0,0,1,.58.95,6.68,6.68,0,0,1,.4,1.4A9.24,9.24,0,0,1,1166.73,311Z"/><path d="M1182.22,351.75a10.75,10.75,0,0,1-1.14,2.38,7.64,7.64,0,0,1-1.41,1.66,5.77,5.77,0,0,1-1.56,1,4.19,4.19,0,0,1-1.6.32,3.94,3.94,0,0,1-2.78-1.21,9.92,9.92,0,0,1-2.2-3.56,27,27,0,0,1-1.45-5.81,54.87,54.87,0,0,1-.51-7.94,46.52,46.52,0,0,1,.46-6.78,25.93,25.93,0,0,1,1.35-5.46,10.63,10.63,0,0,1,2.14-3.63,3.85,3.85,0,0,1,2.85-1.32,3.47,3.47,0,0,1,2.42,1.05,8.5,8.5,0,0,1,1.93,3,22.1,22.1,0,0,1,1.27,4.86,42,42,0,0,1,.46,6.59,8.74,8.74,0,0,1-.13,1.92c-.09.32-.25.48-.49.48h-9.73a46,46,0,0,0,.38,5.72,19.28,19.28,0,0,0,.94,4.05,6.42,6.42,0,0,0,1.44,2.44,2.64,2.64,0,0,0,1.87.8,2.7,2.7,0,0,0,1.66-.53,7.31,7.31,0,0,0,1.2-1.15q.5-.62.84-1.14c.23-.36.42-.53.58-.53s.38.19.49.58Zm-2.07-16.26a27.45,27.45,0,0,0-.25-3.89,14.1,14.1,0,0,0-.74-3,5.6,5.6,0,0,0-1.17-2,2.13,2.13,0,0,0-1.57-.7q-1.83,0-2.91,2.55a22.41,22.41,0,0,0-1.33,7.07Z"/><path d="M1185.58,356.61V321.93h1.54c.37,0,.59.42.68,1.27l.19,3.56a16.48,16.48,0,0,1,1.81-3.87,2.84,2.84,0,0,1,2.33-1.51c1,0,1.77.65,2.38,2a18,18,0,0,1,1.31,5.27,18.55,18.55,0,0,1,.81-3.25,9.7,9.7,0,0,1,1.12-2.26,4.4,4.4,0,0,1,1.31-1.31,2.76,2.76,0,0,1,3.47.47,6.71,6.71,0,0,1,1.52,2.55,19.15,19.15,0,0,1,1,4.12,42.42,42.42,0,0,1,.33,5.6v22.08h-2.57V334.53a19.43,19.43,0,0,0-.75-6.18q-.75-2.1-2.16-2.1a1.72,1.72,0,0,0-1.2.53,4.47,4.47,0,0,0-1,1.55,12.18,12.18,0,0,0-.68,2.59,22.63,22.63,0,0,0-.25,3.61v22.08h-2.58V334.53a20.56,20.56,0,0,0-.7-6.23c-.47-1.37-1.16-2.05-2.06-2.05a2.2,2.2,0,0,0-1.75,1.21,13.57,13.57,0,0,0-1.48,3.3v25.85Z"/><path d="M1209.24,356.61V321.93h1.54c.36,0,.59.42.67,1.27l.19,3.56a16.89,16.89,0,0,1,1.81-3.87,2.85,2.85,0,0,1,2.33-1.51c1,0,1.77.65,2.38,2a17.39,17.39,0,0,1,1.31,5.27,19.42,19.42,0,0,1,.82-3.25,9.71,9.71,0,0,1,1.11-2.26,4.31,4.31,0,0,1,1.32-1.31,2.76,2.76,0,0,1,1.41-.41,2.84,2.84,0,0,1,2,.88,6.84,6.84,0,0,1,1.53,2.55,19.81,19.81,0,0,1,1,4.12,42.42,42.42,0,0,1,.33,5.6v22.08h-2.57V334.53a19.43,19.43,0,0,0-.75-6.18c-.5-1.4-1.21-2.1-2.15-2.1a1.72,1.72,0,0,0-1.21.53,4.46,4.46,0,0,0-1,1.55,11.58,11.58,0,0,0-.69,2.59,22.63,22.63,0,0,0-.25,3.61v22.08h-2.57V334.53a20.49,20.49,0,0,0-.71-6.23c-.47-1.37-1.15-2.05-2-2.05a2.2,2.2,0,0,0-1.76,1.21,13.57,13.57,0,0,0-1.48,3.3v25.85Z"/><path d="M1244.71,351.75a10.75,10.75,0,0,1-1.14,2.38,7.64,7.64,0,0,1-1.41,1.66,5.77,5.77,0,0,1-1.56,1,4.19,4.19,0,0,1-1.6.32,3.94,3.94,0,0,1-2.78-1.21,9.92,9.92,0,0,1-2.2-3.56,27,27,0,0,1-1.45-5.81,54.87,54.87,0,0,1-.51-7.94,46.52,46.52,0,0,1,.46-6.78,25.93,25.93,0,0,1,1.35-5.46,10.63,10.63,0,0,1,2.14-3.63,3.85,3.85,0,0,1,2.85-1.32,3.47,3.47,0,0,1,2.42,1.05,8.5,8.5,0,0,1,1.93,3,22.1,22.1,0,0,1,1.27,4.86,42,42,0,0,1,.46,6.59,8.74,8.74,0,0,1-.13,1.92c-.09.32-.25.48-.49.48h-9.73A46,46,0,0,0,1235,345a19.28,19.28,0,0,0,.94,4.05,6.42,6.42,0,0,0,1.44,2.44,2.64,2.64,0,0,0,1.87.8,2.7,2.7,0,0,0,1.66-.53,7.31,7.31,0,0,0,1.2-1.15q.5-.62.84-1.14c.22-.36.42-.53.58-.53s.38.19.49.58Zm-2.07-16.26a29,29,0,0,0-.25-3.89,14.71,14.71,0,0,0-.74-3,5.6,5.6,0,0,0-1.17-2,2.13,2.13,0,0,0-1.57-.7q-1.83,0-2.91,2.55a22.41,22.41,0,0,0-1.33,7.07Z"/><path d="M1258.69,311a8.77,8.77,0,0,1-.16,1.67,6.83,6.83,0,0,1-.4,1.36,3,3,0,0,1-.59.95,1,1,0,0,1-.71.34,1,1,0,0,1-.7-.34,3.14,3.14,0,0,1-.56-.95,6.23,6.23,0,0,1-.39-1.36A8.79,8.79,0,0,1,1255,311a9.24,9.24,0,0,1,.15-1.69,6.14,6.14,0,0,1,.39-1.4,3.14,3.14,0,0,1,.56-.95,1,1,0,0,1,.7-.34,1,1,0,0,1,.71.34,3,3,0,0,1,.59.95,6.68,6.68,0,0,1,.4,1.4A9.23,9.23,0,0,1,1258.69,311Zm-.55,10.89v34.68h-2.56V321.93Z"/><path d="M1274.63,323.3v2.26q0,1.13-.6,1.44l-1.66.51a25.93,25.93,0,0,1,.08,9.61,14.76,14.76,0,0,1-1.12,3.54,6.42,6.42,0,0,1-1.73,2.26,3.51,3.51,0,0,1-2.19.79,3.47,3.47,0,0,1-1.92-.59,6,6,0,0,0-.71,1.46,5.18,5.18,0,0,0-.24,1.56A3.37,3.37,0,0,0,1265,348a2.36,2.36,0,0,0,1.12.91,5.25,5.25,0,0,0,1.57.34c.59.05,1.19.12,1.81.23a7.81,7.81,0,0,1,1.81.53,4.08,4.08,0,0,1,1.58,1.23,6.57,6.57,0,0,1,1.11,2.36,14.5,14.5,0,0,1,.43,3.9,19.79,19.79,0,0,1-.47,4.32,14.48,14.48,0,0,1-1.34,3.71,8.1,8.1,0,0,1-2.15,2.6,4.56,4.56,0,0,1-2.87,1,5.11,5.11,0,0,1-2.79-.75,6.3,6.3,0,0,1-2-2,9.88,9.88,0,0,1-1.18-2.93,14.65,14.65,0,0,1-.4-3.47,12.26,12.26,0,0,1,.68-4.35,7.12,7.12,0,0,1,1.85-2.84,4.83,4.83,0,0,1-1-1.84,9.85,9.85,0,0,1-.39-3.09,10.44,10.44,0,0,1,.12-1.56,11.28,11.28,0,0,1,.35-1.61,10.3,10.3,0,0,1,.58-1.53,5.92,5.92,0,0,1,.81-1.26,10.66,10.66,0,0,1-1.68-3.82,22.26,22.26,0,0,1-.61-5.53,24,24,0,0,1,.41-4.6,14.07,14.07,0,0,1,1.15-3.53,6.35,6.35,0,0,1,1.74-2.24,3.53,3.53,0,0,1,2.22-.79,3.34,3.34,0,0,1,1.77.5,5,5,0,0,1,1.5,1.45Zm-2.6,35.2a5.9,5.9,0,0,0-.3-2.06,3.18,3.18,0,0,0-.81-1.23,3,3,0,0,0-1.19-.63,9,9,0,0,0-1.43-.29l-1.53-.21a8.18,8.18,0,0,1-1.5-.34A6.87,6.87,0,0,0,1264,356a9,9,0,0,0-.51,3.17,8.85,8.85,0,0,0,.25,2.17,4.91,4.91,0,0,0,.77,1.75,3.68,3.68,0,0,0,3.15,1.59,3.81,3.81,0,0,0,1.85-.45,3.88,3.88,0,0,0,1.39-1.26,6.22,6.22,0,0,0,.87-1.95A9.79,9.79,0,0,0,1272,358.5Zm-4.62-18.83a2,2,0,0,0,1.37-.52,4,4,0,0,0,1-1.44,9.17,9.17,0,0,0,.61-2.2,18.93,18.93,0,0,0,.2-2.83,12.81,12.81,0,0,0-.82-5.06,2.41,2.41,0,0,0-4.71,0,13,13,0,0,0-.81,5.06,18.93,18.93,0,0,0,.2,2.83,9.15,9.15,0,0,0,.62,2.2,3.75,3.75,0,0,0,1,1.44A2,2,0,0,0,1267.41,339.67Z"/><path d="M1288.88,351.75a10.74,10.74,0,0,1-1.13,2.38,8,8,0,0,1-1.42,1.66,5.48,5.48,0,0,1-1.56,1,4.19,4.19,0,0,1-1.6.32,4,4,0,0,1-2.78-1.21,9.92,9.92,0,0,1-2.2-3.56,26.46,26.46,0,0,1-1.44-5.81,53.38,53.38,0,0,1-.52-7.94,45.12,45.12,0,0,1,.47-6.78,26,26,0,0,1,1.34-5.46,10.63,10.63,0,0,1,2.14-3.63,3.87,3.87,0,0,1,2.85-1.32,3.47,3.47,0,0,1,2.42,1.05,8.5,8.5,0,0,1,1.93,3,22.1,22.1,0,0,1,1.27,4.86,42,42,0,0,1,.46,6.59,8.74,8.74,0,0,1-.13,1.92c-.08.32-.25.48-.49.48h-9.73a46,46,0,0,0,.38,5.72,19.28,19.28,0,0,0,.94,4.05,6.42,6.42,0,0,0,1.44,2.44,2.66,2.66,0,0,0,1.87.8,2.7,2.7,0,0,0,1.66-.53,7.31,7.31,0,0,0,1.2-1.15,12.58,12.58,0,0,0,.84-1.14c.23-.36.42-.53.58-.53s.38.19.49.58Zm-2.07-16.26a27.45,27.45,0,0,0-.25-3.89,14.75,14.75,0,0,0-.73-3,5.76,5.76,0,0,0-1.18-2,2.13,2.13,0,0,0-1.56-.7c-1.23,0-2.2.85-2.92,2.55a22.41,22.41,0,0,0-1.33,7.07Z"/><path d="M1294.66,327a21.49,21.49,0,0,1,1-2.29,10.08,10.08,0,0,1,1.13-1.76,4.69,4.69,0,0,1,1.26-1.13,2.81,2.81,0,0,1,3.55.55,7.17,7.17,0,0,1,1.53,2.67,21,21,0,0,1,.92,4.16,40.18,40.18,0,0,1,.32,5.37v22.08h-2.57V334.53a19.2,19.2,0,0,0-.76-6.11c-.5-1.45-1.27-2.17-2.29-2.17a2.7,2.7,0,0,0-2.12,1.3,14,14,0,0,0-1.82,3.52v25.54h-2.57V321.93h1.53c.37,0,.59.42.68,1.27Z"/><path d="M1308.31,352.85a10,10,0,0,1,.13-1.68,6.59,6.59,0,0,1,.38-1.37,3.3,3.3,0,0,1,.57-.92,1,1,0,0,1,.71-.35,1,1,0,0,1,.7.35,2.9,2.9,0,0,1,.57.92,7.24,7.24,0,0,1,.39,1.37,9.93,9.93,0,0,1,.14,1.68,9.79,9.79,0,0,1-.14,1.69,7.13,7.13,0,0,1-.39,1.36,2.68,2.68,0,0,1-.57.9,1,1,0,0,1-.7.33,1,1,0,0,1-.71-.33,3,3,0,0,1-.57-.9,6.49,6.49,0,0,1-.38-1.36A9.83,9.83,0,0,1,1308.31,352.85Zm3.06-45.3v19.59c0,1,0,2,0,3s0,2-.07,3-.07,2-.11,3.05-.09,2.15-.15,3.34h-1.73c0-1.19-.1-2.3-.15-3.34s-.08-2.06-.1-3.05-.06-2-.08-3,0-2,0-3V307.55Z"/><path d="M603.35,157h-7.54v82.1h-3.13V157h-7.56V146.51h18.23Z"/><path d="M609.94,239.14h-3.15V146.51h3.15Z"/><path d="M629.09,228.6v10.54h-13.2V146.51H619V228.6Z"/><path d="M645.77,228.6v10.54h-13.2V146.51h3.13V228.6Z"/><path d="M654.92,202.23v36.91h-3.15V202.23l-8.53-55.72H646c.28,0,.5.27.67.81a14.27,14.27,0,0,1,.42,2.1l5.33,36c.19,1.51.37,2.92.53,4.24s.3,2.64.42,4c.12-1.33.26-2.66.41-4s.32-2.73.5-4.24l5.31-36a14.83,14.83,0,0,1,.41-2c.17-.6.4-.9.67-.9h2.77Z"/><path d="M669.58,187.1h1.19a1.12,1.12,0,0,0,1-.61,7,7,0,0,0,.68-2.1l7.75-34.91a8.9,8.9,0,0,1,.68-2.33,1,1,0,0,1,.88-.64h2.66l-8.87,39.88c-.21,1-.42,1.89-.62,2.56a10,10,0,0,1-.64,1.64,5.92,5.92,0,0,1,.79,1.72,25.89,25.89,0,0,1,.7,2.94L685,239.14H682.3a.88.88,0,0,1-.53-.16,1.38,1.38,0,0,1-.38-.52,4.34,4.34,0,0,1-.28-.84c-.08-.32-.16-.7-.24-1.13l-8-36.78a8.94,8.94,0,0,0-.7-2.3,1.22,1.22,0,0,0-1.14-.67h-1.43v42.4h-3.13V146.51h3.13Z"/><path d="M691.1,187.1h1.19a1.12,1.12,0,0,0,1-.61,7,7,0,0,0,.68-2.1l7.75-34.91a8.9,8.9,0,0,1,.68-2.33,1,1,0,0,1,.88-.64h2.66l-8.86,39.88c-.22,1-.43,1.89-.63,2.56a9.21,9.21,0,0,1-.64,1.64,5.67,5.67,0,0,1,.79,1.72,23.9,23.9,0,0,1,.7,2.94l9.26,43.89h-2.73a.88.88,0,0,1-.53-.16,1.38,1.38,0,0,1-.38-.52,4.34,4.34,0,0,1-.28-.84c-.08-.32-.16-.7-.24-1.13l-8-36.78a8.94,8.94,0,0,0-.7-2.3,1.22,1.22,0,0,0-1.14-.67H691.1v42.4H688V146.51h3.13Z"/><path d="M723.85,228.93l0,10.21H709.49V146.51h14.34v10.21H712.64v30.77h9.07v9.83h-9.07v31.61Z"/><path d="M756.74,192.86q0,10.41-.83,18.94a101.77,101.77,0,0,1-2.34,14.61,32,32,0,0,1-3.63,9.4q-2.12,3.33-4.68,3.33h-8.69V146.51h8.69q2.57,0,4.68,3.33a32,32,0,0,1,3.63,9.43,103.12,103.12,0,0,1,2.34,14.65Q756.74,182.44,756.74,192.86Zm-3.23,0q0-8.54-.59-15.26a85.34,85.34,0,0,0-1.65-11.38,24.16,24.16,0,0,0-2.6-7.11c-1-1.63-2.16-2.45-3.41-2.45h-5.54V229h5.54c1.25,0,2.39-.82,3.41-2.45a24.15,24.15,0,0,0,2.6-7.08,83.84,83.84,0,0,0,1.65-11.35Q753.5,201.39,753.51,192.86Z"/><path d="M770.25,229.19c1,0,1.83-.65,2.59-1.94a19.7,19.7,0,0,0,1.92-5.43,61.1,61.1,0,0,0,1.2-8.34q.42-4.84.42-10.67v-56.3h3.13v56.3q0,8-.64,14.87A86.29,86.29,0,0,1,777,229.54a27.78,27.78,0,0,1-2.91,7.86q-1.73,2.83-3.87,2.84c-1.43,0-2.71-1-3.86-2.84a28.36,28.36,0,0,1-2.93-7.86,86.29,86.29,0,0,1-1.84-11.86q-.64-6.85-.64-14.87v-56.3h3.13v56.24q0,5.82.42,10.66a60.64,60.64,0,0,0,1.2,8.34,19.59,19.59,0,0,0,1.93,5.46C768.43,228.53,769.29,229.19,770.25,229.19Z"/><path d="M796.62,187.1h1.18a1.12,1.12,0,0,0,1-.61,7,7,0,0,0,.68-2.1l7.75-34.91a9.32,9.32,0,0,1,.68-2.33,1,1,0,0,1,.88-.64h2.66l-8.86,39.88c-.22,1-.43,1.89-.63,2.56a9.21,9.21,0,0,1-.64,1.64,5.9,5.9,0,0,1,.8,1.72,26.17,26.17,0,0,1,.69,2.94l9.26,43.89h-2.73a.88.88,0,0,1-.53-.16,1.38,1.38,0,0,1-.38-.52,5.15,5.15,0,0,1-.28-.84c-.08-.32-.16-.7-.24-1.13l-8-36.78a8.94,8.94,0,0,0-.7-2.3,1.22,1.22,0,0,0-1.14-.67h-1.42v42.4h-3.14V146.51h3.14Z"/><path d="M828.21,228.6v10.54H815V146.51h3.14V228.6Z"/><path d="M850.6,239.14h-2.43c-.28,0-.51-.28-.68-.84a10.19,10.19,0,0,1-.39-2.13l-2.18-22.37H834.48l-2.18,22.37a10.8,10.8,0,0,1-.37,2.07q-.28.9-.69.9h-2.43l9.3-92.63h3.19ZM844,204.75l-3.65-37.69c-.11-1.12-.22-2.42-.34-3.91s-.24-3.07-.34-4.75q-.35,5.23-.7,8.73l-3.66,37.62Z"/><path d="M870.87,239.14h-2.79c-.57,0-1-.88-1.27-2.65l-6-33.1a9.87,9.87,0,0,0-.59-2.23,1,1,0,0,0-1-.68h-2.39v38.66h-3.14V146.51h6.58a5,5,0,0,1,3.82,1.78,13.51,13.51,0,0,1,2.65,5.13,43.09,43.09,0,0,1,1.56,8.12,103.11,103.11,0,0,1,.5,10.63q0,4.92-.39,9.18a63.9,63.9,0,0,1-1.13,7.66,30.11,30.11,0,0,1-1.8,5.79,11,11,0,0,1-2.41,3.62,17.33,17.33,0,0,1,1,3.94Zm-10.75-47.77a3,3,0,0,0,2.41-1.33,11,11,0,0,0,1.76-3.74,34.07,34.07,0,0,0,1.06-5.79,70.18,70.18,0,0,0,.36-7.43q0-8.28-1.37-12.48c-.9-2.8-2.27-4.2-4.09-4.2h-3.44v35Z"/><path d="M888.38,228.93v10.21H874V146.51h14.34v10.21H877.18v30.77h9.06v9.83h-9.06v31.61Z"/><path d="M913,192.86q0,10.41-.83,18.94a101.77,101.77,0,0,1-2.34,14.61,32.25,32.25,0,0,1-3.63,9.4q-2.11,3.33-4.68,3.33h-8.69V146.51h8.69q2.57,0,4.68,3.33a32.25,32.25,0,0,1,3.63,9.43,103.12,103.12,0,0,1,2.34,14.65Q913,182.44,913,192.86Zm-3.23,0q0-8.54-.59-15.26a85.34,85.34,0,0,0-1.65-11.38,24.45,24.45,0,0,0-2.6-7.11c-1-1.63-2.16-2.45-3.41-2.45h-5.54V229h5.54c1.25,0,2.39-.82,3.41-2.45a24.44,24.44,0,0,0,2.6-7.08,83.84,83.84,0,0,0,1.65-11.35Q909.72,201.39,909.73,192.86Z"/><path d="M931.85,228.93l0,10.21H917.49V146.51h14.34v10.21H920.64v30.77h9.07v9.83h-9.07v31.61Z"/><path d="M958.13,230.35v8.79H945.66v-8.79h5V167.19c0-1.89,0-3.81.05-5.75l-4.14,14.16a1.9,1.9,0,0,1-.42.87.29.29,0,0,1-.39,0,1.19,1.19,0,0,1-.34-.52,4,4,0,0,1-.23-.84l-.91-5,6.93-23.86h2.36v84Z"/><path d="M984.93,228.6v10.54H971.72V146.51h3.14V228.6Z"/><path d="M1002.76,228.93v10.21H988.41V146.51h14.34v10.21H991.56v30.77h9.06v9.83h-9.06v31.61Z"/><path d="M1026.09,146.51l-9.49,92.63h-2.82l-9.49-92.63h2.52c.28,0,.51.28.68.84a11.69,11.69,0,0,1,.39,2.13l6.56,65.36c.14,1.46.28,3.06.42,4.78s.25,3.53.36,5.43c.11-1.9.22-3.71.34-5.43s.25-3.32.39-4.78l6.55-65.36a9.84,9.84,0,0,1,.38-2q.29-.93.69-.93Z"/><path d="M1043.52,228.93l0,10.21h-14.34V146.51h14.34v10.21h-11.19v30.77h9.06v9.83h-9.06v31.61Z"/><path d="M1061.12,228.6v10.54h-13.2V146.51h3.13V228.6Z"/><path d="M1063.93,232a29,29,0,0,1,.16-3.17,17.28,17.28,0,0,1,.43-2.58,6.68,6.68,0,0,1,.64-1.75c.24-.43.51-.64.8-.64s.55.21.79.64a7.06,7.06,0,0,1,.64,1.75,18.56,18.56,0,0,1,.44,2.58A29,29,0,0,1,1068,232a28.64,28.64,0,0,1-.16,3.2,18.6,18.6,0,0,1-.44,2.55,6.5,6.5,0,0,1-.64,1.72c-.24.41-.51.61-.79.61s-.56-.2-.8-.61a6.16,6.16,0,0,1-.64-1.72,17.28,17.28,0,0,1-.43-2.55A28.64,28.64,0,0,1,1063.93,232Zm3.46-85.52v37c0,1.94,0,3.84,0,5.69s0,3.72-.08,5.59-.08,3.8-.12,5.76-.11,4.06-.17,6.3h-2q-.11-3.36-.17-6.3c0-2-.09-3.88-.13-5.76s-.06-3.73-.08-5.59,0-3.75,0-5.69v-37Z"/></g></svg>
